G04*
G04 #@! TF.GenerationSoftware,Altium Limited,Altium Designer,20.2.6 (244)*
G04*
G04 Layer_Color=16711935*
%FSLAX25Y25*%
%MOIN*%
G70*
G04*
G04 #@! TF.SameCoordinates,4BF73655-697D-4C1E-89EC-0D8241B82C52*
G04*
G04*
G04 #@! TF.FilePolarity,Positive*
G04*
G01*
G75*
%ADD10C,0.00394*%
D10*
X269685Y61024D02*
X269653Y62022D01*
X269558Y63017D01*
X269401Y64004D01*
X269180Y64979D01*
X268899Y65938D01*
X268557Y66877D01*
X268156Y67792D01*
X267698Y68680D01*
X267185Y69538D01*
X266618Y70361D01*
X266001Y71146D01*
X265334Y71891D01*
X264622Y72592D01*
X263867Y73246D01*
X263072Y73852D01*
X262240Y74405D01*
X261374Y74905D01*
X260479Y75349D01*
X259557Y75735D01*
X258613Y76061D01*
X257650Y76328D01*
X256672Y76532D01*
X255682Y76675D01*
X254686Y76754D01*
X253687Y76770D01*
X252689Y76722D01*
X251696Y76611D01*
X250712Y76438D01*
X249741Y76202D01*
X248786Y75906D01*
X247853Y75549D01*
X246944Y75134D01*
X246063Y74662D01*
X245214Y74135D01*
X244400Y73555D01*
X243624Y72925D01*
X242890Y72247D01*
X242201Y71524D01*
X241558Y70758D01*
X240966Y69954D01*
X240425Y69113D01*
X239940Y68240D01*
X239510Y67338D01*
X239139Y66410D01*
X238827Y65460D01*
X238576Y64493D01*
X238387Y63512D01*
X238260Y62521D01*
X238197Y61523D01*
Y60524D01*
X238260Y59527D01*
X238387Y58535D01*
X238576Y57554D01*
X238827Y56587D01*
X239139Y55638D01*
X239510Y54710D01*
X239940Y53807D01*
X240425Y52934D01*
X240966Y52093D01*
X241558Y51289D01*
X242201Y50523D01*
X242890Y49800D01*
X243624Y49122D01*
X244400Y48492D01*
X245214Y47912D01*
X246063Y47385D01*
X246944Y46913D01*
X247853Y46498D01*
X248786Y46142D01*
X249741Y45845D01*
X250712Y45609D01*
X251696Y45436D01*
X252689Y45325D01*
X253687Y45278D01*
X254686Y45293D01*
X255682Y45373D01*
X256672Y45515D01*
X257650Y45720D01*
X258613Y45986D01*
X259557Y46313D01*
X260479Y46699D01*
X261374Y47142D01*
X262240Y47642D01*
X263072Y48196D01*
X263867Y48801D01*
X264622Y49455D01*
X265334Y50156D01*
X266001Y50901D01*
X266618Y51686D01*
X267185Y52509D01*
X267698Y53367D01*
X268156Y54255D01*
X268557Y55171D01*
X268899Y56110D01*
X269180Y57069D01*
X269400Y58043D01*
X269558Y59030D01*
X269653Y60025D01*
X269685Y61023D01*
X37402Y61024D02*
X37370Y62022D01*
X37275Y63017D01*
X37117Y64004D01*
X36897Y64979D01*
X36615Y65938D01*
X36274Y66877D01*
X35873Y67792D01*
X35415Y68680D01*
X34902Y69538D01*
X34335Y70361D01*
X33717Y71146D01*
X33051Y71891D01*
X32339Y72592D01*
X31583Y73246D01*
X30788Y73852D01*
X29956Y74405D01*
X29091Y74905D01*
X28196Y75349D01*
X27274Y75735D01*
X26329Y76061D01*
X25366Y76328D01*
X24388Y76532D01*
X23399Y76675D01*
X22403Y76754D01*
X21404Y76770D01*
X20405Y76722D01*
X19412Y76611D01*
X18428Y76438D01*
X17457Y76202D01*
X16503Y75906D01*
X15569Y75549D01*
X14660Y75134D01*
X13780Y74662D01*
X12930Y74135D01*
X12116Y73555D01*
X11341Y72925D01*
X10607Y72247D01*
X9917Y71524D01*
X9275Y70758D01*
X8682Y69954D01*
X8142Y69113D01*
X7656Y68240D01*
X7227Y67338D01*
X6855Y66410D01*
X6543Y65460D01*
X6292Y64493D01*
X6103Y63512D01*
X5977Y62521D01*
X5913Y61523D01*
Y60524D01*
X5977Y59527D01*
X6103Y58535D01*
X6292Y57554D01*
X6543Y56587D01*
X6855Y55638D01*
X7227Y54710D01*
X7656Y53807D01*
X8142Y52934D01*
X8682Y52093D01*
X9275Y51289D01*
X9917Y50523D01*
X10607Y49800D01*
X11341Y49122D01*
X12116Y48492D01*
X12930Y47912D01*
X13780Y47385D01*
X14660Y46913D01*
X15569Y46498D01*
X16503Y46142D01*
X17457Y45845D01*
X18428Y45609D01*
X19412Y45436D01*
X20405Y45325D01*
X21404Y45278D01*
X22403Y45293D01*
X23399Y45373D01*
X24388Y45515D01*
X25366Y45720D01*
X26329Y45986D01*
X27274Y46313D01*
X28196Y46699D01*
X29091Y47142D01*
X29956Y47642D01*
X30788Y48196D01*
X31583Y48801D01*
X32339Y49455D01*
X33051Y50156D01*
X33717Y50901D01*
X34335Y51687D01*
X34902Y52510D01*
X35415Y53367D01*
X35873Y54255D01*
X36274Y55171D01*
X36615Y56110D01*
X36897Y57069D01*
X37117Y58043D01*
X37275Y59030D01*
X37370Y60025D01*
X37402Y61024D01*
M02*
