G04*
G04 #@! TF.GenerationSoftware,Altium Limited,Altium Designer,20.2.6 (244)*
G04*
G04 Layer_Color=8388736*
%FSLAX25Y25*%
%MOIN*%
G70*
G04*
G04 #@! TF.SameCoordinates,4BF73655-697D-4C1E-89EC-0D8241B82C52*
G04*
G04*
G04 #@! TF.FilePolarity,Negative*
G04*
G01*
G75*
%ADD26R,0.07189X0.05024*%
%ADD27O,0.06008X0.02661*%
%ADD28R,0.04827X0.06008*%
G04:AMPARAMS|DCode=29|XSize=26.61mil|YSize=42.36mil|CornerRadius=7.4mil|HoleSize=0mil|Usage=FLASHONLY|Rotation=270.000|XOffset=0mil|YOffset=0mil|HoleType=Round|Shape=RoundedRectangle|*
%AMROUNDEDRECTD29*
21,1,0.02661,0.02756,0,0,270.0*
21,1,0.01181,0.04236,0,0,270.0*
1,1,0.01480,-0.01378,-0.00591*
1,1,0.01480,-0.01378,0.00591*
1,1,0.01480,0.01378,0.00591*
1,1,0.01480,0.01378,-0.00591*
%
%ADD29ROUNDEDRECTD29*%
%ADD30R,0.03252X0.05417*%
%ADD31R,0.05417X0.03252*%
%ADD32O,0.02661X0.09158*%
%ADD33R,0.02268X0.03055*%
%ADD34R,0.06008X0.04827*%
G04:AMPARAMS|DCode=35|XSize=26.61mil|YSize=42.36mil|CornerRadius=7.4mil|HoleSize=0mil|Usage=FLASHONLY|Rotation=0.000|XOffset=0mil|YOffset=0mil|HoleType=Round|Shape=RoundedRectangle|*
%AMROUNDEDRECTD35*
21,1,0.02661,0.02756,0,0,0.0*
21,1,0.01181,0.04236,0,0,0.0*
1,1,0.01480,0.00591,-0.01378*
1,1,0.01480,-0.00591,-0.01378*
1,1,0.01480,-0.00591,0.01378*
1,1,0.01480,0.00591,0.01378*
%
%ADD35ROUNDEDRECTD35*%
%ADD36C,0.06992*%
%ADD37R,0.06992X0.06992*%
%ADD38O,0.06598X0.10142*%
%ADD39R,0.06598X0.10142*%
%ADD40C,0.08173*%
%ADD41C,0.10142*%
%ADD42C,0.07386*%
%ADD43R,0.07386X0.07386*%
%ADD44O,0.06598X0.10142*%
%ADD45R,0.06992X0.06992*%
D26*
X117500Y227992D02*
D03*
Y215000D02*
D03*
X142500Y215000D02*
D03*
Y227992D02*
D03*
X92500Y215000D02*
D03*
Y227992D02*
D03*
X67500Y215000D02*
D03*
Y227992D02*
D03*
X142500Y236004D02*
D03*
Y248996D02*
D03*
X117500Y236004D02*
D03*
Y248996D02*
D03*
X92500Y236004D02*
D03*
Y248996D02*
D03*
X67500Y236004D02*
D03*
Y248996D02*
D03*
D27*
X241043Y205000D02*
D03*
Y200000D02*
D03*
Y195000D02*
D03*
Y190000D02*
D03*
Y185000D02*
D03*
Y180000D02*
D03*
Y175000D02*
D03*
Y170000D02*
D03*
X262500Y205000D02*
D03*
Y200000D02*
D03*
Y195000D02*
D03*
Y190000D02*
D03*
Y185000D02*
D03*
Y180000D02*
D03*
Y175000D02*
D03*
Y170000D02*
D03*
X63543Y187500D02*
D03*
Y182500D02*
D03*
Y177500D02*
D03*
Y172500D02*
D03*
Y167500D02*
D03*
Y162500D02*
D03*
Y157500D02*
D03*
X85000Y187500D02*
D03*
Y182500D02*
D03*
Y177500D02*
D03*
Y172500D02*
D03*
Y167500D02*
D03*
Y162500D02*
D03*
Y157500D02*
D03*
X146772Y187500D02*
D03*
X146772Y182500D02*
D03*
X146772Y177500D02*
D03*
Y172500D02*
D03*
Y167500D02*
D03*
Y162500D02*
D03*
X146772Y157500D02*
D03*
X146772Y152500D02*
D03*
X168228Y187500D02*
D03*
Y182500D02*
D03*
Y177500D02*
D03*
Y172500D02*
D03*
Y167500D02*
D03*
Y162500D02*
D03*
Y157500D02*
D03*
Y152500D02*
D03*
X226457Y175000D02*
D03*
Y180000D02*
D03*
Y185000D02*
D03*
Y190000D02*
D03*
Y195000D02*
D03*
Y200000D02*
D03*
Y205000D02*
D03*
X205000Y175000D02*
D03*
Y180000D02*
D03*
Y185000D02*
D03*
Y190000D02*
D03*
Y195000D02*
D03*
Y200000D02*
D03*
Y205000D02*
D03*
X30728Y117500D02*
D03*
Y122500D02*
D03*
X30728Y127500D02*
D03*
X30728Y132500D02*
D03*
X30728Y137500D02*
D03*
X30728Y142500D02*
D03*
Y147500D02*
D03*
X9272Y117500D02*
D03*
Y122500D02*
D03*
X9272Y127500D02*
D03*
X9272Y132500D02*
D03*
X9272Y137500D02*
D03*
X9272Y142500D02*
D03*
X9272Y147500D02*
D03*
X130000Y152500D02*
D03*
Y157500D02*
D03*
Y162500D02*
D03*
Y167500D02*
D03*
Y172500D02*
D03*
Y177500D02*
D03*
Y182500D02*
D03*
Y187500D02*
D03*
X108543Y152500D02*
D03*
Y157500D02*
D03*
Y162500D02*
D03*
Y167500D02*
D03*
Y172500D02*
D03*
Y177500D02*
D03*
Y182500D02*
D03*
Y187500D02*
D03*
D28*
X85000Y195000D02*
D03*
X77913D02*
D03*
X161142D02*
D03*
X168228D02*
D03*
X122913D02*
D03*
X130000D02*
D03*
X45413Y120000D02*
D03*
X52500D02*
D03*
X192913Y157500D02*
D03*
X200000D02*
D03*
X193543Y225000D02*
D03*
X186457D02*
D03*
D29*
X18760Y98638D02*
D03*
Y91158D02*
D03*
X26240Y95000D02*
D03*
D30*
X23937Y167500D02*
D03*
X16063D02*
D03*
X16437Y157500D02*
D03*
X8563D02*
D03*
X167374Y237500D02*
D03*
X159500D02*
D03*
X93563Y170000D02*
D03*
X101437D02*
D03*
X208937Y225000D02*
D03*
X201063D02*
D03*
D31*
X50492Y258937D02*
D03*
Y251063D02*
D03*
X165000Y220000D02*
D03*
Y227874D02*
D03*
X202500Y56063D02*
D03*
Y63937D02*
D03*
X152500Y220118D02*
D03*
Y227992D02*
D03*
X127500Y220118D02*
D03*
Y227992D02*
D03*
X102500Y220118D02*
D03*
Y227992D02*
D03*
X77500Y220118D02*
D03*
Y227992D02*
D03*
X37500Y98638D02*
D03*
Y90764D02*
D03*
D32*
X265000Y146949D02*
D03*
X260000D02*
D03*
X255000Y146949D02*
D03*
X250000Y146949D02*
D03*
X245000D02*
D03*
X240000D02*
D03*
X235000D02*
D03*
X230000D02*
D03*
X225000D02*
D03*
X220000Y146949D02*
D03*
X215000Y146949D02*
D03*
X210000D02*
D03*
X205000D02*
D03*
X200000D02*
D03*
X265000Y103051D02*
D03*
X260000D02*
D03*
X255000Y103051D02*
D03*
X250000Y103051D02*
D03*
X245000D02*
D03*
X240000D02*
D03*
X235000D02*
D03*
X230000Y103051D02*
D03*
X225000Y103051D02*
D03*
X220000Y103051D02*
D03*
X215000Y103051D02*
D03*
X210000D02*
D03*
X205000Y103051D02*
D03*
X200000Y103051D02*
D03*
D33*
X71260Y261063D02*
D03*
X78740D02*
D03*
X75000Y268937D02*
D03*
D34*
X40000Y154587D02*
D03*
Y147500D02*
D03*
X226457Y219587D02*
D03*
Y212500D02*
D03*
X262500Y219587D02*
D03*
Y212500D02*
D03*
D35*
X187500Y198740D02*
D03*
X191342Y191260D02*
D03*
X183862D02*
D03*
D36*
X227500Y52500D02*
D03*
X41200Y242000D02*
D03*
X41200Y232000D02*
D03*
X41200Y202000D02*
D03*
Y212000D02*
D03*
X41200Y222000D02*
D03*
D37*
X217500Y52500D02*
D03*
D38*
X182500Y110000D02*
D03*
X172500D02*
D03*
X162500D02*
D03*
X152500D02*
D03*
X142500D02*
D03*
X132500D02*
D03*
X122500D02*
D03*
X112500D02*
D03*
X102500D02*
D03*
X92500D02*
D03*
X82500D02*
D03*
X72500D02*
D03*
X62500D02*
D03*
X52500D02*
D03*
X182500Y50000D02*
D03*
X172500D02*
D03*
X162500D02*
D03*
X152500D02*
D03*
X142500D02*
D03*
X132500D02*
D03*
X122500D02*
D03*
X112500D02*
D03*
X102500D02*
D03*
X92500D02*
D03*
X82500D02*
D03*
X72500D02*
D03*
X62500D02*
D03*
D39*
X52500D02*
D03*
D40*
X222000Y260000D02*
D03*
X239717D02*
D03*
D41*
X217059Y250197D02*
D03*
X244657Y250500D02*
D03*
D42*
X171500Y252500D02*
D03*
X204000D02*
D03*
D43*
X161500D02*
D03*
X194000D02*
D03*
D44*
X6378Y7874D02*
D03*
X226378D02*
D03*
X216378D02*
D03*
X196378D02*
D03*
X186378D02*
D03*
X176378D02*
D03*
X166378D02*
D03*
X156378D02*
D03*
X146378D02*
D03*
X136378D02*
D03*
X126378D02*
D03*
X116378D02*
D03*
X106378D02*
D03*
X96378D02*
D03*
X86378D02*
D03*
X76378D02*
D03*
X66378D02*
D03*
X56378D02*
D03*
X46378D02*
D03*
X36378D02*
D03*
X26378D02*
D03*
X16378D02*
D03*
X226378Y26969D02*
D03*
X156378D02*
D03*
X146378D02*
D03*
X136378D02*
D03*
X126378D02*
D03*
X116378D02*
D03*
X106378D02*
D03*
X96378D02*
D03*
X86378D02*
D03*
X76378D02*
D03*
X66378D02*
D03*
X56378D02*
D03*
X46378D02*
D03*
X36378D02*
D03*
X26378D02*
D03*
X16378D02*
D03*
X166378D02*
D03*
X176378D02*
D03*
X186378D02*
D03*
X196378D02*
D03*
X216378D02*
D03*
X6378D02*
D03*
D45*
X41200Y192000D02*
D03*
M02*
