G04*
G04 #@! TF.GenerationSoftware,Altium Limited,Altium Designer,20.2.6 (244)*
G04*
G04 Layer_Color=8421504*
%FSLAX25Y25*%
%MOIN*%
G70*
G04*
G04 #@! TF.SameCoordinates,4BF73655-697D-4C1E-89EC-0D8241B82C52*
G04*
G04*
G04 #@! TF.FilePolarity,Positive*
G04*
G01*
G75*
%ADD16R,0.06890X0.04724*%
%ADD17O,0.05709X0.02362*%
%ADD18R,0.04528X0.05709*%
G04:AMPARAMS|DCode=19|XSize=23.62mil|YSize=39.37mil|CornerRadius=5.91mil|HoleSize=0mil|Usage=FLASHONLY|Rotation=270.000|XOffset=0mil|YOffset=0mil|HoleType=Round|Shape=RoundedRectangle|*
%AMROUNDEDRECTD19*
21,1,0.02362,0.02756,0,0,270.0*
21,1,0.01181,0.03937,0,0,270.0*
1,1,0.01181,-0.01378,-0.00591*
1,1,0.01181,-0.01378,0.00591*
1,1,0.01181,0.01378,0.00591*
1,1,0.01181,0.01378,-0.00591*
%
%ADD19ROUNDEDRECTD19*%
%ADD20R,0.02953X0.05118*%
%ADD21R,0.05118X0.02953*%
%ADD22O,0.02362X0.08858*%
%ADD23R,0.01968X0.02756*%
%ADD24R,0.05709X0.04528*%
G04:AMPARAMS|DCode=25|XSize=23.62mil|YSize=39.37mil|CornerRadius=5.91mil|HoleSize=0mil|Usage=FLASHONLY|Rotation=0.000|XOffset=0mil|YOffset=0mil|HoleType=Round|Shape=RoundedRectangle|*
%AMROUNDEDRECTD25*
21,1,0.02362,0.02756,0,0,0.0*
21,1,0.01181,0.03937,0,0,0.0*
1,1,0.01181,0.00591,-0.01378*
1,1,0.01181,-0.00591,-0.01378*
1,1,0.01181,-0.00591,0.01378*
1,1,0.01181,0.00591,0.01378*
%
%ADD25ROUNDEDRECTD25*%
D16*
X117500Y227992D02*
D03*
Y215000D02*
D03*
X142500Y215000D02*
D03*
Y227992D02*
D03*
X92500Y215000D02*
D03*
Y227992D02*
D03*
X67500Y215000D02*
D03*
Y227992D02*
D03*
X142500Y236004D02*
D03*
Y248996D02*
D03*
X117500Y236004D02*
D03*
Y248996D02*
D03*
X92500Y236004D02*
D03*
Y248996D02*
D03*
X67500Y236004D02*
D03*
Y248996D02*
D03*
D17*
X241043Y205000D02*
D03*
Y200000D02*
D03*
Y195000D02*
D03*
Y190000D02*
D03*
Y185000D02*
D03*
Y180000D02*
D03*
Y175000D02*
D03*
Y170000D02*
D03*
X262500Y205000D02*
D03*
Y200000D02*
D03*
Y195000D02*
D03*
Y190000D02*
D03*
Y185000D02*
D03*
Y180000D02*
D03*
Y175000D02*
D03*
Y170000D02*
D03*
X63543Y187500D02*
D03*
Y182500D02*
D03*
Y177500D02*
D03*
Y172500D02*
D03*
Y167500D02*
D03*
Y162500D02*
D03*
Y157500D02*
D03*
X85000Y187500D02*
D03*
Y182500D02*
D03*
Y177500D02*
D03*
Y172500D02*
D03*
Y167500D02*
D03*
Y162500D02*
D03*
Y157500D02*
D03*
X146772Y187500D02*
D03*
X146772Y182500D02*
D03*
X146772Y177500D02*
D03*
Y172500D02*
D03*
Y167500D02*
D03*
Y162500D02*
D03*
X146772Y157500D02*
D03*
X146772Y152500D02*
D03*
X168228Y187500D02*
D03*
Y182500D02*
D03*
Y177500D02*
D03*
Y172500D02*
D03*
Y167500D02*
D03*
Y162500D02*
D03*
Y157500D02*
D03*
Y152500D02*
D03*
X226457Y175000D02*
D03*
Y180000D02*
D03*
Y185000D02*
D03*
Y190000D02*
D03*
Y195000D02*
D03*
Y200000D02*
D03*
Y205000D02*
D03*
X205000Y175000D02*
D03*
Y180000D02*
D03*
Y185000D02*
D03*
Y190000D02*
D03*
Y195000D02*
D03*
Y200000D02*
D03*
Y205000D02*
D03*
X30728Y117500D02*
D03*
Y122500D02*
D03*
X30728Y127500D02*
D03*
X30728Y132500D02*
D03*
X30728Y137500D02*
D03*
X30728Y142500D02*
D03*
Y147500D02*
D03*
X9272Y117500D02*
D03*
Y122500D02*
D03*
X9272Y127500D02*
D03*
X9272Y132500D02*
D03*
X9272Y137500D02*
D03*
X9272Y142500D02*
D03*
X9272Y147500D02*
D03*
X130000Y152500D02*
D03*
Y157500D02*
D03*
Y162500D02*
D03*
Y167500D02*
D03*
Y172500D02*
D03*
Y177500D02*
D03*
Y182500D02*
D03*
Y187500D02*
D03*
X108543Y152500D02*
D03*
Y157500D02*
D03*
Y162500D02*
D03*
Y167500D02*
D03*
Y172500D02*
D03*
Y177500D02*
D03*
Y182500D02*
D03*
Y187500D02*
D03*
D18*
X85000Y195000D02*
D03*
X77913D02*
D03*
X161142D02*
D03*
X168228D02*
D03*
X122913D02*
D03*
X130000D02*
D03*
X45413Y120000D02*
D03*
X52500D02*
D03*
X192913Y157500D02*
D03*
X200000D02*
D03*
X193543Y225000D02*
D03*
X186457D02*
D03*
D19*
X18760Y98638D02*
D03*
Y91158D02*
D03*
X26240Y95000D02*
D03*
D20*
X23937Y167500D02*
D03*
X16063D02*
D03*
X16437Y157500D02*
D03*
X8563D02*
D03*
X167374Y237500D02*
D03*
X159500D02*
D03*
X93563Y170000D02*
D03*
X101437D02*
D03*
X208937Y225000D02*
D03*
X201063D02*
D03*
D21*
X50492Y258937D02*
D03*
Y251063D02*
D03*
X165000Y220000D02*
D03*
Y227874D02*
D03*
X202500Y56063D02*
D03*
Y63937D02*
D03*
X152500Y220118D02*
D03*
Y227992D02*
D03*
X127500Y220118D02*
D03*
Y227992D02*
D03*
X102500Y220118D02*
D03*
Y227992D02*
D03*
X77500Y220118D02*
D03*
Y227992D02*
D03*
X37500Y98638D02*
D03*
Y90764D02*
D03*
D22*
X265000Y146949D02*
D03*
X260000D02*
D03*
X255000Y146949D02*
D03*
X250000Y146949D02*
D03*
X245000D02*
D03*
X240000D02*
D03*
X235000D02*
D03*
X230000D02*
D03*
X225000D02*
D03*
X220000Y146949D02*
D03*
X215000Y146949D02*
D03*
X210000D02*
D03*
X205000D02*
D03*
X200000D02*
D03*
X265000Y103051D02*
D03*
X260000D02*
D03*
X255000Y103051D02*
D03*
X250000Y103051D02*
D03*
X245000D02*
D03*
X240000D02*
D03*
X235000D02*
D03*
X230000Y103051D02*
D03*
X225000Y103051D02*
D03*
X220000Y103051D02*
D03*
X215000Y103051D02*
D03*
X210000D02*
D03*
X205000Y103051D02*
D03*
X200000Y103051D02*
D03*
D23*
X71260Y261063D02*
D03*
X78740D02*
D03*
X75000Y268937D02*
D03*
D24*
X40000Y154587D02*
D03*
Y147500D02*
D03*
X226457Y219587D02*
D03*
Y212500D02*
D03*
X262500Y219587D02*
D03*
Y212500D02*
D03*
D25*
X187500Y198740D02*
D03*
X191342Y191260D02*
D03*
X183862D02*
D03*
M02*
