G04*
G04 #@! TF.GenerationSoftware,Altium Limited,Altium Designer,20.2.6 (244)*
G04*
G04 Layer_Physical_Order=2*
G04 Layer_Color=16711680*
%FSLAX25Y25*%
%MOIN*%
G70*
G04*
G04 #@! TF.SameCoordinates,4BF73655-697D-4C1E-89EC-0D8241B82C52*
G04*
G04*
G04 #@! TF.FilePolarity,Positive*
G04*
G01*
G75*
%ADD46C,0.03937*%
%ADD47C,0.01968*%
%ADD48C,0.01181*%
%ADD49C,0.06693*%
%ADD50R,0.06693X0.06693*%
%ADD51O,0.06299X0.09843*%
%ADD52R,0.06299X0.09843*%
%ADD53C,0.07874*%
%ADD54C,0.09843*%
%ADD55C,0.07087*%
%ADD56R,0.07087X0.07087*%
%ADD57O,0.06299X0.09843*%
%ADD58R,0.06693X0.06693*%
%ADD59C,0.04724*%
%ADD60C,0.01968*%
%ADD61C,0.02362*%
%ADD62C,0.02756*%
G36*
X31591Y274788D02*
X244409D01*
X245075Y274788D01*
X246380Y274528D01*
X247610Y274019D01*
X248716Y273279D01*
X249657Y272338D01*
X250397Y271232D01*
X250906Y270002D01*
X251166Y268697D01*
X251166Y268032D01*
X251166Y260032D01*
X251170Y260012D01*
X251167Y259992D01*
X251205Y259202D01*
X251220Y259144D01*
Y259085D01*
X251528Y257534D01*
X251559Y257461D01*
X251574Y257384D01*
X252179Y255923D01*
X252223Y255858D01*
X252253Y255785D01*
X253131Y254470D01*
X253187Y254414D01*
X253231Y254349D01*
X254349Y253231D01*
X254415Y253187D01*
X254470Y253131D01*
X255785Y252253D01*
X255858Y252223D01*
X255923Y252179D01*
X257384Y251574D01*
X257461Y251559D01*
X257534Y251528D01*
X259085Y251220D01*
X259144D01*
X259202Y251205D01*
X259992Y251167D01*
X260012Y251170D01*
X260032Y251166D01*
X268032Y251166D01*
X268697Y251166D01*
X270002Y250906D01*
X271232Y250397D01*
X272338Y249657D01*
X273280Y248716D01*
X274019Y247610D01*
X274528Y246380D01*
X274788Y245075D01*
X274788Y244409D01*
X274788Y190349D01*
X274288Y190142D01*
X269226Y195205D01*
X269132Y195676D01*
X268749Y196249D01*
X268176Y196632D01*
X267500Y196766D01*
X266824Y196632D01*
X266251Y196249D01*
X265868Y195676D01*
X265734Y195000D01*
X265868Y194324D01*
X266251Y193751D01*
X266824Y193368D01*
X267295Y193274D01*
X268661Y191909D01*
X268342Y191521D01*
X268176Y191632D01*
X267500Y191766D01*
X266824Y191632D01*
X266251Y191249D01*
X265868Y190676D01*
X265734Y190000D01*
X265868Y189324D01*
X266251Y188751D01*
X266824Y188368D01*
X267295Y188275D01*
X270387Y185183D01*
Y179696D01*
X269925Y179505D01*
X269226Y180205D01*
X269132Y180676D01*
X268749Y181249D01*
X268176Y181632D01*
X267500Y181766D01*
X266824Y181632D01*
X266251Y181249D01*
X265868Y180676D01*
X265734Y180000D01*
X265868Y179324D01*
X265979Y179158D01*
X265591Y178839D01*
X261811Y182619D01*
Y199554D01*
X261707Y200076D01*
X261412Y200519D01*
X256835Y205095D01*
X256866Y205387D01*
X257377Y205758D01*
X257500Y205734D01*
X258176Y205868D01*
X258749Y206251D01*
X259132Y206824D01*
X259266Y207500D01*
X259132Y208176D01*
X258865Y208576D01*
Y220878D01*
X258761Y221400D01*
X258465Y221843D01*
X254343Y225965D01*
X253901Y226261D01*
X253378Y226365D01*
X198575D01*
X198176Y226632D01*
X197500Y226766D01*
X196824Y226632D01*
X196251Y226249D01*
X195868Y225676D01*
X195865Y225659D01*
X195365Y225708D01*
Y248209D01*
X198291D01*
Y256791D01*
X189936D01*
X189729Y257291D01*
X190573Y258135D01*
X201935D01*
X202635Y257435D01*
Y256580D01*
X201836Y256248D01*
X200939Y255561D01*
X200252Y254664D01*
X199819Y253620D01*
X199672Y252500D01*
X199819Y251380D01*
X200252Y250336D01*
X200939Y249439D01*
X201836Y248751D01*
X202880Y248319D01*
X204000Y248172D01*
X205120Y248319D01*
X206164Y248751D01*
X207061Y249439D01*
X207749Y250336D01*
X208181Y251380D01*
X208328Y252500D01*
X208181Y253620D01*
X207749Y254664D01*
X207061Y255561D01*
X206164Y256248D01*
X205365Y256580D01*
Y258000D01*
X205261Y258522D01*
X204965Y258965D01*
X203465Y260465D01*
X203022Y260761D01*
X202500Y260865D01*
X190008D01*
X189486Y260761D01*
X189043Y260465D01*
X158295Y229718D01*
X157824Y229624D01*
X157251Y229241D01*
X156868Y228668D01*
X156734Y227992D01*
X156868Y227316D01*
X157170Y226865D01*
X156986Y226365D01*
X156067D01*
X143967Y238465D01*
X143524Y238761D01*
X143002Y238865D01*
X123002D01*
X122480Y238761D01*
X122037Y238465D01*
X117295Y233724D01*
X116824Y233630D01*
X116251Y233247D01*
X115868Y232674D01*
X115734Y231998D01*
X115868Y231322D01*
X116251Y230749D01*
X116824Y230366D01*
X117500Y230232D01*
X118176Y230366D01*
X118749Y230749D01*
X119132Y231322D01*
X119226Y231793D01*
X123567Y236135D01*
X142437D01*
X153674Y224898D01*
X153483Y224436D01*
X152495D01*
X143967Y232963D01*
X143916Y232997D01*
X143749Y233247D01*
X143176Y233630D01*
X142500Y233764D01*
X141824Y233630D01*
X141251Y233247D01*
X140868Y232674D01*
X140734Y231998D01*
X140868Y231322D01*
X141251Y230749D01*
X141824Y230366D01*
X142500Y230232D01*
X142782Y230288D01*
X150964Y222106D01*
X151407Y221810D01*
X151929Y221706D01*
X173289D01*
X173510Y221258D01*
X173362Y221066D01*
X173024Y220248D01*
X172974Y219870D01*
X176299D01*
Y219370D01*
X176799D01*
Y216045D01*
X177177Y216094D01*
X177995Y216433D01*
X178187Y216581D01*
X178635Y216359D01*
Y186502D01*
X178135Y186295D01*
X171378Y193052D01*
X170936Y193348D01*
X170413Y193451D01*
X149587D01*
X149064Y193348D01*
X148622Y193052D01*
X144231Y188661D01*
X144123Y188640D01*
X143668Y188713D01*
X143622Y188744D01*
X143356Y189141D01*
X142783Y189524D01*
X142312Y189618D01*
X140965Y190965D01*
X140522Y191261D01*
X140000Y191365D01*
X93816D01*
X93717Y191865D01*
X94196Y192063D01*
X94898Y192602D01*
X95437Y193304D01*
X95776Y194122D01*
X95825Y194500D01*
X89175D01*
X89224Y194122D01*
X89563Y193304D01*
X90102Y192602D01*
X90804Y192063D01*
X91283Y191865D01*
X91184Y191365D01*
X82500D01*
X81978Y191261D01*
X81535Y190965D01*
X69795Y179226D01*
X69365Y179140D01*
X69245Y179152D01*
X68865Y179355D01*
Y181424D01*
X69132Y181824D01*
X69266Y182500D01*
X69132Y183176D01*
X68749Y183749D01*
X68176Y184132D01*
X67500Y184266D01*
X66824Y184132D01*
X66251Y183749D01*
X65868Y183176D01*
X65734Y182500D01*
X65868Y181824D01*
X65979Y181658D01*
X65591Y181339D01*
X59225Y187705D01*
X59132Y188176D01*
X58749Y188749D01*
X58176Y189132D01*
X57500Y189266D01*
X56824Y189132D01*
X56251Y188749D01*
X55868Y188176D01*
X55734Y187500D01*
X55868Y186824D01*
X56251Y186251D01*
X56824Y185868D01*
X57295Y185775D01*
X63635Y179435D01*
Y133771D01*
X63368Y133371D01*
X63234Y132695D01*
X63325Y132237D01*
X63001Y131737D01*
X56492D01*
X52264Y135965D01*
X51822Y136261D01*
X51299Y136365D01*
X49875D01*
X49475Y136632D01*
X48799Y136766D01*
X48123Y136632D01*
X47550Y136249D01*
X47180Y135695D01*
X47108Y135612D01*
X46617Y135470D01*
X45878Y135776D01*
X45500Y135825D01*
Y133000D01*
X48432D01*
X48702Y133253D01*
X48799Y133234D01*
X49475Y133368D01*
X49875Y133635D01*
X50734D01*
X54962Y129407D01*
X55405Y129112D01*
X55927Y129008D01*
X75372D01*
X75895Y129112D01*
X76337Y129407D01*
X90965Y144035D01*
X91261Y144478D01*
X91365Y145000D01*
Y146569D01*
X91865Y146776D01*
X100775Y137866D01*
X100868Y137395D01*
X101251Y136822D01*
X101824Y136439D01*
X102500Y136305D01*
X103176Y136439D01*
X103749Y136822D01*
X104132Y137395D01*
X104266Y138071D01*
X104132Y138747D01*
X103749Y139320D01*
X103176Y139703D01*
X102705Y139796D01*
X93865Y148636D01*
Y155645D01*
X94245Y155848D01*
X94365Y155860D01*
X95000Y155734D01*
X95676Y155868D01*
X96249Y156251D01*
X96632Y156824D01*
X96766Y157500D01*
X96632Y158176D01*
X96365Y158575D01*
Y162151D01*
X114988Y180774D01*
X115459Y180868D01*
X116032Y181251D01*
X116415Y181824D01*
X116550Y182500D01*
X116415Y183176D01*
X116032Y183749D01*
X115459Y184132D01*
X114784Y184266D01*
X114108Y184132D01*
X113535Y183749D01*
X113152Y183176D01*
X113058Y182705D01*
X94365Y164011D01*
X93865Y164219D01*
Y176425D01*
X94132Y176824D01*
X94266Y177500D01*
X94132Y178176D01*
X93749Y178749D01*
X93176Y179132D01*
X92500Y179266D01*
X92220Y179211D01*
X91700Y179585D01*
X91682Y179752D01*
X98065Y186135D01*
X101425D01*
X101824Y185868D01*
X102500Y185734D01*
X102701Y185774D01*
X103126Y185348D01*
X103057Y185000D01*
X103086Y184853D01*
X103047Y184794D01*
X102943Y184272D01*
Y178576D01*
X102676Y178176D01*
X102542Y177500D01*
X102676Y176824D01*
X103059Y176251D01*
X103632Y175868D01*
X104308Y175734D01*
X104984Y175868D01*
X105557Y176251D01*
X105940Y176824D01*
X106074Y177500D01*
X105940Y178176D01*
X105673Y178576D01*
Y183485D01*
X106072Y183751D01*
X106455Y184324D01*
X106589Y185000D01*
X106455Y185676D01*
X106072Y186249D01*
X105499Y186632D01*
X104823Y186766D01*
X104622Y186726D01*
X104197Y187152D01*
X104266Y187500D01*
X104140Y188135D01*
X104152Y188255D01*
X104355Y188635D01*
X115023D01*
X115245Y188135D01*
X115175Y187784D01*
X119825D01*
X119755Y188135D01*
X119977Y188635D01*
X139435D01*
X140382Y187688D01*
X140476Y187217D01*
X140859Y186644D01*
X141432Y186261D01*
X142107Y186126D01*
X142783Y186261D01*
X143135Y186496D01*
X143635Y186229D01*
Y184355D01*
X143255Y184152D01*
X143135Y184140D01*
X142500Y184266D01*
X141824Y184132D01*
X141251Y183749D01*
X140868Y183176D01*
X140775Y182705D01*
X131535Y173465D01*
X131239Y173022D01*
X131135Y172500D01*
Y151635D01*
X131239Y151113D01*
X131414Y150852D01*
Y132768D01*
X131273Y132740D01*
X130700Y132357D01*
X130317Y131784D01*
X130183Y131108D01*
X130317Y130432D01*
X130700Y129859D01*
X131273Y129476D01*
X131949Y129342D01*
X132625Y129476D01*
X133198Y129859D01*
X133581Y130432D01*
X133640Y130731D01*
X133744Y130835D01*
X134039Y131278D01*
X134143Y131800D01*
Y151356D01*
X134039Y151879D01*
X133865Y152140D01*
Y171935D01*
X142705Y180774D01*
X143135Y180860D01*
X143255Y180848D01*
X143635Y180645D01*
Y179422D01*
X136535Y172322D01*
X136239Y171879D01*
X136135Y171356D01*
Y163640D01*
X135825Y163176D01*
X135690Y162500D01*
X135825Y161824D01*
X136208Y161251D01*
X136781Y160868D01*
X137457Y160734D01*
X137915Y160825D01*
X138415Y160501D01*
Y159499D01*
X137915Y159175D01*
X137457Y159266D01*
X136781Y159132D01*
X136208Y158749D01*
X135825Y158176D01*
X135690Y157500D01*
X135825Y156824D01*
X135993Y156572D01*
Y131065D01*
X136097Y130543D01*
X136393Y130100D01*
X136623Y129871D01*
Y128576D01*
X136356Y128176D01*
X136221Y127500D01*
X136312Y127042D01*
X135989Y126542D01*
X129499D01*
X129175Y127042D01*
X129266Y127500D01*
X129132Y128176D01*
X128865Y128576D01*
Y162500D01*
X128761Y163022D01*
X128465Y163465D01*
X121365Y170565D01*
Y176400D01*
X121465Y176468D01*
X121848Y177041D01*
X121983Y177717D01*
X121848Y178392D01*
X121465Y178965D01*
X120892Y179348D01*
X120217Y179483D01*
X119541Y179348D01*
X118968Y178965D01*
X118585Y178392D01*
X118450Y177717D01*
X118585Y177041D01*
X118635Y176965D01*
Y170000D01*
X118739Y169478D01*
X119035Y169035D01*
X126135Y161935D01*
Y128576D01*
X125868Y128176D01*
X125734Y127500D01*
X125825Y127042D01*
X125501Y126542D01*
X27888D01*
X15965Y138465D01*
X15522Y138761D01*
X15000Y138865D01*
X14323D01*
X13924Y139132D01*
X13248Y139266D01*
X12572Y139132D01*
X11999Y138749D01*
X11865Y138548D01*
X11365Y138699D01*
Y151187D01*
X20472Y160294D01*
X20768Y160736D01*
X20864Y161223D01*
X20906Y161251D01*
X21289Y161824D01*
X21424Y162500D01*
X21289Y163176D01*
X20906Y163749D01*
X20333Y164132D01*
X19657Y164266D01*
X19340Y164203D01*
X19094Y164664D01*
X25565Y171135D01*
X43684D01*
X43783Y170635D01*
X43304Y170437D01*
X42602Y169898D01*
X42063Y169196D01*
X41724Y168378D01*
X41675Y168000D01*
X48325D01*
X48276Y168378D01*
X47937Y169196D01*
X47398Y169898D01*
X46696Y170437D01*
X46217Y170635D01*
X46316Y171135D01*
X49435D01*
X53275Y167295D01*
X53368Y166824D01*
X53751Y166251D01*
X54324Y165868D01*
X55000Y165734D01*
X55676Y165868D01*
X56249Y166251D01*
X56632Y166824D01*
X56766Y167500D01*
X56632Y168176D01*
X56249Y168749D01*
X55676Y169132D01*
X55205Y169226D01*
X50965Y173465D01*
X50522Y173761D01*
X50000Y173865D01*
X25000D01*
X24478Y173761D01*
X24035Y173465D01*
X4035Y153465D01*
X3739Y153022D01*
X3635Y152500D01*
Y110525D01*
X3739Y110003D01*
X4035Y109560D01*
X5774Y107821D01*
X5868Y107350D01*
X6251Y106776D01*
X6824Y106394D01*
X7500Y106259D01*
X8135Y106386D01*
X8255Y106373D01*
X8635Y106170D01*
Y80565D01*
X1535Y73465D01*
X1303Y73118D01*
X819Y73194D01*
X803Y73201D01*
X803Y244000D01*
X803Y244706D01*
X1078Y246090D01*
X1618Y247394D01*
X2402Y248568D01*
X3401Y249566D01*
X4574Y250350D01*
X5878Y250890D01*
X7263Y251166D01*
X7969Y251166D01*
X15969Y251166D01*
X15988Y251170D01*
X16008Y251167D01*
X16758Y251203D01*
X16816Y251218D01*
X16875D01*
X18347Y251511D01*
X18420Y251541D01*
X18497Y251556D01*
X19884Y252131D01*
X19949Y252174D01*
X20022Y252205D01*
X21270Y253038D01*
X21326Y253094D01*
X21392Y253138D01*
X22452Y254199D01*
X22496Y254265D01*
X22552Y254321D01*
X23386Y255568D01*
X23416Y255641D01*
X23460Y255707D01*
X24034Y257093D01*
X24050Y257171D01*
X24080Y257244D01*
X24373Y258715D01*
Y258775D01*
X24387Y258833D01*
X24424Y259583D01*
X24421Y259602D01*
X24425Y259622D01*
X24425Y267622D01*
X24425Y268328D01*
X24700Y269712D01*
X25240Y271016D01*
X26024Y272190D01*
X27023Y273188D01*
X28196Y273972D01*
X29500Y274512D01*
X30885Y274788D01*
X31591Y274788D01*
D02*
G37*
G36*
X195868Y224324D02*
X196251Y223751D01*
X196824Y223368D01*
X197500Y223234D01*
X198176Y223368D01*
X198575Y223635D01*
X217935D01*
X218087Y223135D01*
X217991Y223071D01*
X208588Y213668D01*
X208293Y213226D01*
X208189Y212703D01*
Y195904D01*
X199795Y187511D01*
X199324Y187417D01*
X198751Y187034D01*
X198592Y186796D01*
X198092Y186948D01*
Y188182D01*
X200965Y191055D01*
X201261Y191498D01*
X201365Y192020D01*
Y203500D01*
X201261Y204022D01*
X200965Y204465D01*
X195365Y210065D01*
Y218121D01*
X195865Y218273D01*
X196069Y217967D01*
X196726Y217528D01*
X197000Y217474D01*
Y219397D01*
Y221321D01*
X196726Y221266D01*
X196069Y220828D01*
X195865Y220521D01*
X195365Y220673D01*
Y224292D01*
X195865Y224341D01*
X195868Y224324D01*
D02*
G37*
G36*
X250406Y220241D02*
X250376Y220087D01*
X252500D01*
Y219587D01*
X253000D01*
Y217462D01*
X253312Y217524D01*
X253429Y217515D01*
X253812Y217310D01*
Y204823D01*
X253916Y204300D01*
X254212Y203858D01*
X259082Y198988D01*
Y182053D01*
X259186Y181531D01*
X259481Y181088D01*
X265774Y174795D01*
X265868Y174324D01*
X266251Y173751D01*
X266824Y173368D01*
X267500Y173234D01*
X267958Y173325D01*
X268458Y173001D01*
Y169187D01*
X254795Y155525D01*
X254324Y155431D01*
X253751Y155048D01*
X253368Y154475D01*
X253234Y153799D01*
X253368Y153123D01*
X253751Y152550D01*
X254324Y152167D01*
X255000Y152033D01*
X255676Y152167D01*
X256249Y152550D01*
X256632Y153123D01*
X256726Y153595D01*
X257827Y154696D01*
X258069Y154571D01*
X258240Y154402D01*
X258120Y153799D01*
X258254Y153123D01*
X258637Y152550D01*
X259210Y152167D01*
X259886Y152033D01*
X260562Y152167D01*
X261135Y152550D01*
X261518Y153123D01*
X261611Y153595D01*
X263320Y155304D01*
X263709Y154985D01*
X263368Y154475D01*
X263234Y153799D01*
X263368Y153123D01*
X263751Y152550D01*
X264324Y152167D01*
X265000Y152033D01*
X265676Y152167D01*
X266249Y152550D01*
X266632Y153123D01*
X266725Y153595D01*
X274288Y161157D01*
X274788Y160950D01*
X274788Y53150D01*
X274788Y52453D01*
X274516Y51087D01*
X273983Y49800D01*
X273209Y48642D01*
X272224Y47657D01*
X271066Y46883D01*
X269779Y46350D01*
X268413Y46078D01*
X262408D01*
X262367Y46255D01*
X262365Y46578D01*
X264121Y47752D01*
X265766Y49195D01*
X267209Y50840D01*
X268425Y52659D01*
X269392Y54622D01*
X270096Y56694D01*
X270523Y58840D01*
X270666Y61024D01*
X270523Y63207D01*
X270096Y65353D01*
X269392Y67425D01*
X268425Y69388D01*
X267209Y71207D01*
X265766Y72853D01*
X264121Y74295D01*
X262301Y75511D01*
X260339Y76479D01*
X258267Y77182D01*
X256121Y77609D01*
X253937Y77752D01*
X251753Y77609D01*
X249607Y77182D01*
X247535Y76479D01*
X245573Y75511D01*
X243753Y74295D01*
X242108Y72853D01*
X240665Y71207D01*
X239450Y69388D01*
X238482Y67425D01*
X237778Y65353D01*
X237351Y63207D01*
X237208Y61024D01*
X237351Y58840D01*
X237778Y56694D01*
X238482Y54622D01*
X239450Y52659D01*
X240665Y50840D01*
X242108Y49195D01*
X243753Y47752D01*
X245573Y46536D01*
X247535Y45568D01*
X248041Y45397D01*
X248114Y44844D01*
X247005Y44103D01*
X246949Y44047D01*
X246884Y44003D01*
X245760Y42880D01*
X245716Y42814D01*
X245660Y42758D01*
X244778Y41437D01*
X244747Y41364D01*
X244704Y41299D01*
X244095Y39831D01*
X244080Y39753D01*
X244050Y39680D01*
X243740Y38122D01*
Y38062D01*
X243725Y38005D01*
X243686Y37210D01*
X243689Y37190D01*
X243685Y37171D01*
Y7874D01*
X243685Y7178D01*
X243414Y5811D01*
X242881Y4525D01*
X242107Y3366D01*
X241122Y2381D01*
X239964Y1608D01*
X238677Y1075D01*
X237311Y803D01*
X203771D01*
X203580Y1265D01*
X211947Y9631D01*
X212447Y9424D01*
Y6102D01*
X212581Y5085D01*
X212973Y4137D01*
X213598Y3322D01*
X214412Y2698D01*
X215360Y2305D01*
X216378Y2171D01*
X217395Y2305D01*
X218344Y2698D01*
X219158Y3322D01*
X219782Y4137D01*
X220175Y5085D01*
X220309Y6102D01*
Y9646D01*
X220175Y10663D01*
X219782Y11611D01*
X219158Y12426D01*
X218344Y13050D01*
X217395Y13443D01*
X216574Y13551D01*
X216368Y14052D01*
X224240Y21925D01*
X224412Y21792D01*
X225360Y21399D01*
X226378Y21266D01*
X227395Y21399D01*
X228344Y21792D01*
X229158Y22417D01*
X229783Y23231D01*
X230175Y24179D01*
X230309Y25197D01*
Y28740D01*
X230175Y29758D01*
X229783Y30706D01*
X229158Y31520D01*
X228344Y32145D01*
X227395Y32537D01*
X226378Y32671D01*
X225360Y32537D01*
X224412Y32145D01*
X223598Y31520D01*
X222973Y30706D01*
X222581Y29758D01*
X222447Y28740D01*
Y25197D01*
X222581Y24179D01*
X222596Y24141D01*
X201434Y2979D01*
X199842D01*
X199595Y3479D01*
X200003Y4010D01*
X200421Y5019D01*
X200563Y6102D01*
Y7374D01*
X196378D01*
Y7874D01*
X195878D01*
Y13765D01*
X195295Y13689D01*
X194285Y13270D01*
X193418Y12605D01*
X192753Y11738D01*
X192731Y11684D01*
X192231Y11784D01*
Y23717D01*
X192731Y23817D01*
X192973Y23231D01*
X193598Y22417D01*
X194412Y21792D01*
X195361Y21399D01*
X196378Y21266D01*
X197395Y21399D01*
X198344Y21792D01*
X199158Y22417D01*
X199783Y23231D01*
X200175Y24179D01*
X200309Y25197D01*
Y28740D01*
X200175Y29758D01*
X199783Y30706D01*
X199158Y31520D01*
X198344Y32145D01*
X197395Y32537D01*
X196378Y32671D01*
X195361Y32537D01*
X194412Y32145D01*
X193598Y31520D01*
X192973Y30706D01*
X192731Y30121D01*
X192231Y30220D01*
Y31298D01*
X192127Y31820D01*
X191831Y32263D01*
X190282Y33812D01*
Y47135D01*
X190744Y47326D01*
X194035Y44035D01*
X194478Y43739D01*
X195000Y43635D01*
X210000D01*
X210522Y43739D01*
X210965Y44035D01*
X215336Y48406D01*
X221595D01*
Y56595D01*
X213405D01*
Y50336D01*
X209435Y46365D01*
X196031D01*
X195989Y46423D01*
X195979Y46490D01*
X196175Y47022D01*
X196737Y47255D01*
X197440Y47794D01*
X197978Y48497D01*
X198317Y49314D01*
X198367Y49692D01*
X195042D01*
Y50192D01*
X194542D01*
Y53518D01*
X194164Y53468D01*
X193346Y53129D01*
X192711Y52642D01*
X192211Y52765D01*
Y55229D01*
X192107Y55751D01*
X191812Y56194D01*
X190971Y57034D01*
Y113741D01*
X190867Y114263D01*
X190571Y114706D01*
X186123Y119154D01*
X185680Y119450D01*
X185158Y119554D01*
X160436D01*
X160387Y120054D01*
X160774Y120131D01*
X161431Y120569D01*
X161869Y121226D01*
X161924Y121500D01*
X158076D01*
X158131Y121226D01*
X158569Y120569D01*
X159226Y120131D01*
X159613Y120054D01*
X159564Y119554D01*
X149842D01*
X149743Y119534D01*
X122550D01*
X122028Y119430D01*
X121585Y119134D01*
X116535Y114084D01*
X116391Y113869D01*
X116246Y113830D01*
X115811Y113859D01*
X115280Y114551D01*
X114466Y115176D01*
X113517Y115569D01*
X112500Y115703D01*
X111483Y115569D01*
X110882Y115320D01*
X106674Y119528D01*
X106231Y119824D01*
X105709Y119928D01*
X82370D01*
X82219Y120428D01*
X82431Y120569D01*
X82869Y121226D01*
X82924Y121500D01*
X79076D01*
X79131Y121226D01*
X79569Y120569D01*
X79781Y120428D01*
X79630Y119928D01*
X52944D01*
X52422Y119824D01*
X51979Y119528D01*
X46535Y114084D01*
X46239Y113641D01*
X46135Y113119D01*
Y111316D01*
X45635Y111217D01*
X45437Y111696D01*
X44898Y112398D01*
X44196Y112937D01*
X43378Y113276D01*
X43000Y113325D01*
Y110000D01*
X42500D01*
Y109500D01*
X39175D01*
X39224Y109122D01*
X39563Y108304D01*
X39798Y107998D01*
X39552Y107498D01*
X36930D01*
X19060Y125368D01*
X18966Y125839D01*
X18583Y126412D01*
X18010Y126795D01*
X17334Y126929D01*
X16659Y126795D01*
X16086Y126412D01*
X15703Y125839D01*
X15568Y125163D01*
X15703Y124487D01*
X16086Y123914D01*
X16659Y123531D01*
X17130Y123438D01*
X35399Y105168D01*
X35842Y104872D01*
X36364Y104768D01*
X43867D01*
X44389Y104872D01*
X44832Y105168D01*
X48069Y108405D01*
X48504Y108251D01*
X48572Y108201D01*
X48703Y107211D01*
X49095Y106263D01*
X49720Y105448D01*
X50534Y104824D01*
X51482Y104431D01*
X52500Y104297D01*
X53518Y104431D01*
X54466Y104824D01*
X55280Y105448D01*
X55905Y106263D01*
X56147Y106848D01*
X56647Y106748D01*
Y96181D01*
X56751Y95659D01*
X57047Y95216D01*
X88275Y63988D01*
X88368Y63517D01*
X88751Y62944D01*
X89324Y62561D01*
X90000Y62427D01*
X90676Y62561D01*
X91249Y62944D01*
X91632Y63517D01*
X91766Y64193D01*
X91632Y64869D01*
X91249Y65442D01*
X90676Y65825D01*
X90205Y65918D01*
X59377Y96746D01*
Y105120D01*
X59877Y105329D01*
X60534Y104824D01*
X61483Y104431D01*
X62500Y104297D01*
X63517Y104431D01*
X64466Y104824D01*
X65280Y105448D01*
X65905Y106263D01*
X66297Y107211D01*
X66431Y108228D01*
Y111772D01*
X66297Y112789D01*
X66048Y113390D01*
X67554Y114895D01*
X69391D01*
X69600Y114395D01*
X69095Y113737D01*
X68703Y112789D01*
X68569Y111772D01*
Y108228D01*
X68703Y107211D01*
X69095Y106263D01*
X69720Y105448D01*
X70534Y104824D01*
X71482Y104431D01*
X72500Y104297D01*
X73518Y104431D01*
X74466Y104824D01*
X75280Y105448D01*
X75905Y106263D01*
X76297Y107211D01*
X76431Y108228D01*
Y111772D01*
X76297Y112789D01*
X75905Y113737D01*
X75400Y114395D01*
X75609Y114895D01*
X79391D01*
X79600Y114395D01*
X79095Y113737D01*
X78703Y112789D01*
X78569Y111772D01*
Y108228D01*
X78703Y107211D01*
X79095Y106263D01*
X79720Y105448D01*
X80534Y104824D01*
X81482Y104431D01*
X82500Y104297D01*
X83517Y104431D01*
X84118Y104680D01*
X96135Y92663D01*
Y54258D01*
X95635Y54088D01*
X95280Y54552D01*
X94466Y55176D01*
X93518Y55569D01*
X92500Y55703D01*
X91483Y55569D01*
X90882Y55320D01*
X87048Y59154D01*
X86605Y59450D01*
X86083Y59554D01*
X62570D01*
X62048Y59450D01*
X61605Y59154D01*
X56898Y54447D01*
X56398Y54654D01*
Y55669D01*
X48602D01*
Y44331D01*
X54211D01*
X54403Y43869D01*
X49204Y38671D01*
X48596D01*
X48074Y38567D01*
X47631Y38271D01*
X40248Y30888D01*
X40187Y30864D01*
X39599Y30945D01*
X39158Y31520D01*
X38344Y32145D01*
X37395Y32537D01*
X36378Y32671D01*
X35361Y32537D01*
X34412Y32145D01*
X33598Y31520D01*
X32973Y30706D01*
X32581Y29758D01*
X32447Y28740D01*
Y25197D01*
X32581Y24179D01*
X32973Y23231D01*
X33598Y22417D01*
X34412Y21792D01*
X35361Y21399D01*
X36182Y21291D01*
X36388Y20790D01*
X28516Y12918D01*
X28344Y13050D01*
X27395Y13443D01*
X26378Y13577D01*
X25361Y13443D01*
X24412Y13050D01*
X23598Y12426D01*
X22973Y11611D01*
X22581Y10663D01*
X22447Y9646D01*
Y6102D01*
X22581Y5085D01*
X22973Y4137D01*
X23478Y3479D01*
X23269Y2979D01*
X21431D01*
X19926Y4484D01*
X20175Y5085D01*
X20309Y6102D01*
Y9646D01*
X20175Y10663D01*
X19782Y11611D01*
X19158Y12426D01*
X18344Y13050D01*
X17395Y13443D01*
X16378Y13577D01*
X15360Y13443D01*
X14412Y13050D01*
X13598Y12426D01*
X12973Y11611D01*
X12581Y10663D01*
X12447Y9646D01*
Y6102D01*
X12581Y5085D01*
X12973Y4137D01*
X13598Y3322D01*
X14412Y2698D01*
X15360Y2305D01*
X16378Y2171D01*
X17395Y2305D01*
X17996Y2554D01*
X19286Y1265D01*
X19094Y803D01*
X7177D01*
X5811Y1075D01*
X4524Y1608D01*
X3366Y2381D01*
X2381Y3366D01*
X1608Y4524D01*
X1075Y5811D01*
X803Y7177D01*
Y7874D01*
Y51917D01*
X819Y51924D01*
X1303Y52000D01*
X1535Y51653D01*
X22829Y30358D01*
X22581Y29758D01*
X22447Y28740D01*
Y25197D01*
X22581Y24179D01*
X22973Y23231D01*
X23598Y22417D01*
X24412Y21792D01*
X25361Y21399D01*
X26378Y21266D01*
X27395Y21399D01*
X28344Y21792D01*
X29158Y22417D01*
X29783Y23231D01*
X30175Y24179D01*
X30309Y25197D01*
Y28740D01*
X30175Y29758D01*
X29783Y30706D01*
X29158Y31520D01*
X28344Y32145D01*
X27395Y32537D01*
X26378Y32671D01*
X25361Y32537D01*
X24760Y32289D01*
X3865Y53183D01*
Y71935D01*
X10965Y79035D01*
X11261Y79478D01*
X11365Y80000D01*
Y136301D01*
X11865Y136452D01*
X11999Y136251D01*
X12572Y135868D01*
X13248Y135734D01*
X13924Y135868D01*
X14323Y136135D01*
X14435D01*
X26358Y124212D01*
X26801Y123916D01*
X27323Y123812D01*
X79309D01*
X79491Y123312D01*
X79131Y122774D01*
X79076Y122500D01*
X82924D01*
X82869Y122774D01*
X82509Y123312D01*
X82691Y123812D01*
X158309D01*
X158491Y123312D01*
X158131Y122774D01*
X158076Y122500D01*
X161924D01*
X161869Y122774D01*
X161510Y123312D01*
X161691Y123812D01*
X182677D01*
X183200Y123916D01*
X183642Y124212D01*
X191062Y131632D01*
X191358Y132075D01*
X191462Y132597D01*
Y143053D01*
X191910Y143275D01*
X192102Y143127D01*
X192920Y142789D01*
X193298Y142739D01*
Y146064D01*
X193798D01*
Y146564D01*
X197123D01*
X197074Y146942D01*
X196735Y147760D01*
X196588Y147952D01*
X196809Y148400D01*
X214441D01*
X218653Y144189D01*
X218461Y143727D01*
X206006D01*
X205459Y144092D01*
X204784Y144227D01*
X204108Y144092D01*
X203535Y143710D01*
X203152Y143137D01*
X203017Y142461D01*
X203152Y141785D01*
X203535Y141212D01*
X204108Y140829D01*
X204784Y140694D01*
X205459Y140829D01*
X205712Y140997D01*
X219116D01*
X222650Y137463D01*
X222486Y136921D01*
X222226Y136869D01*
X221569Y136431D01*
X221131Y135774D01*
X221076Y135500D01*
X223000D01*
Y135000D01*
X223500D01*
Y133076D01*
X223774Y133131D01*
X224431Y133569D01*
X224869Y134226D01*
X224921Y134486D01*
X225463Y134650D01*
X226135Y133978D01*
Y56366D01*
X225435Y56077D01*
X224580Y55420D01*
X223923Y54565D01*
X223511Y53569D01*
X223370Y52500D01*
X223511Y51431D01*
X223923Y50435D01*
X224580Y49580D01*
X225435Y48924D01*
X226431Y48511D01*
X227500Y48370D01*
X228569Y48511D01*
X229565Y48924D01*
X230420Y49580D01*
X231077Y50435D01*
X231489Y51431D01*
X231630Y52500D01*
X231489Y53569D01*
X231077Y54565D01*
X230420Y55420D01*
X229565Y56077D01*
X228865Y56366D01*
Y134544D01*
X228761Y135066D01*
X228465Y135509D01*
X224605Y139369D01*
X224797Y139831D01*
X228924D01*
X229324Y139564D01*
X230000Y139429D01*
X230676Y139564D01*
X231249Y139946D01*
X231632Y140519D01*
X231766Y141195D01*
X231632Y141871D01*
X231249Y142444D01*
X230676Y142827D01*
X230000Y142962D01*
X229324Y142827D01*
X228924Y142560D01*
X224142D01*
X223529Y143173D01*
X223720Y143635D01*
X235183D01*
X238275Y140543D01*
X238368Y140072D01*
X238751Y139499D01*
X239324Y139116D01*
X240000Y138982D01*
X240676Y139116D01*
X241249Y139499D01*
X241632Y140072D01*
X241766Y140748D01*
X241632Y141424D01*
X241249Y141997D01*
X240676Y142380D01*
X240205Y142474D01*
X236713Y145965D01*
X236270Y146261D01*
X235748Y146365D01*
X223065D01*
X216905Y152525D01*
X217095Y153025D01*
X222346D01*
X222868Y153129D01*
X223311Y153425D01*
X228922Y159035D01*
X233522Y163635D01*
X238262D01*
X240774Y161122D01*
X240868Y160651D01*
X241251Y160078D01*
X241824Y159695D01*
X242500Y159561D01*
X243176Y159695D01*
X243749Y160078D01*
X244132Y160651D01*
X244266Y161327D01*
X244132Y162003D01*
X243749Y162576D01*
X243176Y162959D01*
X242705Y163052D01*
X239792Y165965D01*
X239349Y166261D01*
X238827Y166365D01*
X232956D01*
X232434Y166261D01*
X231991Y165965D01*
X226991Y160965D01*
X221781Y155755D01*
X213338D01*
X213147Y156217D01*
X225205Y168274D01*
X225676Y168368D01*
X226249Y168751D01*
X226584Y169252D01*
X226794Y169391D01*
X227008Y169480D01*
X227172Y169478D01*
X227810Y169351D01*
X228486Y169485D01*
X229059Y169868D01*
X229442Y170441D01*
X229576Y171117D01*
X229442Y171793D01*
X229059Y172366D01*
X229028Y172387D01*
X229179Y172887D01*
X237537D01*
X238059Y172991D01*
X238502Y173287D01*
X245673Y180458D01*
X246135Y180267D01*
Y174729D01*
X246007Y174602D01*
X245675Y174389D01*
X245500Y174424D01*
Y172500D01*
Y170537D01*
X245958Y170198D01*
Y112677D01*
X246062Y112155D01*
X246358Y111712D01*
X248274Y109795D01*
X248368Y109324D01*
X248751Y108751D01*
X249324Y108368D01*
X250000Y108234D01*
X250676Y108368D01*
X251249Y108751D01*
X251632Y109324D01*
X251766Y110000D01*
X251632Y110676D01*
X251521Y110842D01*
X251909Y111161D01*
X253274Y109795D01*
X253368Y109324D01*
X253751Y108751D01*
X254324Y108368D01*
X255000Y108234D01*
X255676Y108368D01*
X256249Y108751D01*
X256632Y109324D01*
X256766Y110000D01*
X256639Y110642D01*
X256661Y110672D01*
X257163Y110825D01*
X258192Y109795D01*
X258286Y109324D01*
X258668Y108751D01*
X259242Y108368D01*
X259917Y108234D01*
X260593Y108368D01*
X261166Y108751D01*
X261549Y109324D01*
X261684Y110000D01*
X261549Y110676D01*
X261166Y111249D01*
X260593Y111632D01*
X260122Y111725D01*
X252546Y119302D01*
Y168804D01*
X253046Y169117D01*
X253201Y169086D01*
Y171211D01*
X253701D01*
Y171711D01*
X255825D01*
X255755Y172062D01*
X255273Y172783D01*
X255014Y172956D01*
Y173557D01*
X255304Y173751D01*
X255687Y174324D01*
X255821Y175000D01*
X255813Y175041D01*
X255891Y175119D01*
X256187Y175562D01*
X256291Y176084D01*
Y198504D01*
X256187Y199026D01*
X255891Y199469D01*
X251895Y203465D01*
X251452Y203761D01*
X250930Y203865D01*
X229526D01*
X225466Y207925D01*
X225372Y208396D01*
X224989Y208969D01*
X224416Y209352D01*
X223740Y209486D01*
X223064Y209352D01*
X222491Y208969D01*
X222108Y208396D01*
X221974Y207720D01*
X222108Y207044D01*
X222491Y206471D01*
X223064Y206088D01*
X223536Y205995D01*
X227665Y201865D01*
X227458Y201365D01*
X225787D01*
X225265Y201261D01*
X224822Y200965D01*
X223083Y199225D01*
X222612Y199132D01*
X222039Y198749D01*
X221656Y198176D01*
X221521Y197500D01*
X221656Y196824D01*
X222039Y196251D01*
X222612Y195868D01*
X223288Y195734D01*
X223963Y195868D01*
X224536Y196251D01*
X224919Y196824D01*
X225013Y197295D01*
X226353Y198635D01*
X233498D01*
X233705Y198135D01*
X229795Y194226D01*
X229324Y194132D01*
X228751Y193749D01*
X228368Y193176D01*
X228234Y192500D01*
X228368Y191824D01*
X228751Y191251D01*
X229324Y190868D01*
X230000Y190734D01*
X230676Y190868D01*
X231249Y191251D01*
X231632Y191824D01*
X231726Y192295D01*
X235565Y196135D01*
X247944D01*
X248211Y195635D01*
X247976Y195283D01*
X247841Y194607D01*
X247976Y193932D01*
X248359Y193359D01*
X248458Y193292D01*
Y191999D01*
X247958Y191675D01*
X247500Y191766D01*
X246824Y191632D01*
X246251Y191249D01*
X245868Y190676D01*
X245734Y190000D01*
X245868Y189324D01*
X246135Y188925D01*
Y186855D01*
X245755Y186652D01*
X245635Y186640D01*
X245205Y186725D01*
X243465Y188465D01*
X243022Y188761D01*
X242500Y188865D01*
X233576D01*
X233176Y189132D01*
X232500Y189266D01*
X231824Y189132D01*
X231251Y188749D01*
X230868Y188176D01*
X230734Y187500D01*
X230868Y186824D01*
X231251Y186251D01*
X231824Y185868D01*
X232500Y185734D01*
X233176Y185868D01*
X233576Y186135D01*
X241935D01*
X243274Y184795D01*
X243368Y184324D01*
X243751Y183751D01*
X244139Y183492D01*
X244264Y182909D01*
X236972Y175617D01*
X223087D01*
X222565Y175513D01*
X222122Y175217D01*
X221847Y174942D01*
X221804Y174947D01*
X221365Y175167D01*
Y177787D01*
X221454Y177804D01*
X222027Y178187D01*
X222410Y178760D01*
X222544Y179436D01*
X222410Y180112D01*
X222027Y180685D01*
X221454Y181068D01*
X220778Y181202D01*
X220102Y181068D01*
X219529Y180685D01*
X219146Y180112D01*
X219052Y179641D01*
X219035Y179623D01*
X218739Y179181D01*
X218635Y178658D01*
Y175565D01*
X206935Y163865D01*
X199751D01*
X199544Y164365D01*
X207848Y172669D01*
X208463Y172577D01*
X208722Y172188D01*
X209379Y171750D01*
X209653Y171695D01*
Y173619D01*
X210153D01*
Y174119D01*
X212077D01*
X212022Y174393D01*
X211584Y175049D01*
X211531Y175085D01*
X211482Y175582D01*
X218465Y182565D01*
X218761Y183008D01*
X218865Y183530D01*
Y192500D01*
X218799Y192831D01*
Y194150D01*
X218915Y194324D01*
X219050Y195000D01*
X218915Y195676D01*
X218532Y196249D01*
X217959Y196632D01*
X217284Y196766D01*
X216776Y196665D01*
X216277Y196966D01*
Y199223D01*
X216544Y199622D01*
X216678Y200298D01*
X216544Y200974D01*
X216161Y201547D01*
X215588Y201930D01*
X214912Y202064D01*
X214236Y201930D01*
X213663Y201547D01*
X213280Y200974D01*
X213145Y200298D01*
X213280Y199622D01*
X213547Y199223D01*
Y191939D01*
X213047Y191657D01*
X212500Y191766D01*
X211824Y191632D01*
X211251Y191249D01*
X210868Y190676D01*
X210734Y190000D01*
X210868Y189324D01*
X211135Y188925D01*
Y185807D01*
X211012Y185715D01*
X210635Y185586D01*
X210169Y185897D01*
X209493Y186031D01*
X208818Y185897D01*
X208244Y185514D01*
X207862Y184941D01*
X207727Y184265D01*
X207243Y184137D01*
X201538D01*
X201437Y184276D01*
X201317Y184637D01*
X201632Y185109D01*
X201726Y185580D01*
X210519Y194373D01*
X210814Y194816D01*
X210918Y195338D01*
Y212138D01*
X217481Y218701D01*
X218057Y218569D01*
X218427Y218014D01*
X219149Y217532D01*
X219500Y217462D01*
Y219587D01*
X220000D01*
Y220087D01*
X222124D01*
X222094Y220241D01*
X222407Y220742D01*
X250093D01*
X250406Y220241D01*
D02*
G37*
G36*
X189709Y256564D02*
Y249679D01*
X189682Y249547D01*
X189709Y249415D01*
Y248209D01*
X190915D01*
X191047Y248182D01*
X191179Y248209D01*
X192635D01*
Y209500D01*
X192739Y208978D01*
X193035Y208535D01*
X198635Y202935D01*
Y193195D01*
X198135Y193043D01*
X197976Y193281D01*
X197403Y193664D01*
X196727Y193799D01*
X196051Y193664D01*
X195478Y193281D01*
X195096Y192708D01*
X195002Y192237D01*
X191535Y188770D01*
X191239Y188328D01*
X191135Y187805D01*
Y178065D01*
X187295Y174225D01*
X186824Y174132D01*
X186251Y173749D01*
X185868Y173176D01*
X185734Y172500D01*
X185868Y171824D01*
X186003Y171623D01*
X185735Y171123D01*
X181957D01*
X181765Y171585D01*
X183465Y173284D01*
X183761Y173727D01*
X183865Y174249D01*
Y222500D01*
X183761Y223022D01*
X183465Y223465D01*
X180965Y225965D01*
X180522Y226261D01*
X180000Y226365D01*
X160014D01*
X159830Y226865D01*
X160132Y227316D01*
X160225Y227787D01*
X189209Y256771D01*
X189709Y256564D01*
D02*
G37*
G36*
X96205Y188135D02*
X89035Y180965D01*
X88739Y180522D01*
X88635Y180000D01*
Y163575D01*
X88368Y163176D01*
X88234Y162500D01*
X88368Y161824D01*
X88635Y161425D01*
Y145565D01*
X74807Y131737D01*
X66999D01*
X66675Y132237D01*
X66766Y132695D01*
X66632Y133371D01*
X66365Y133771D01*
Y135998D01*
X66865Y136205D01*
X68274Y134795D01*
X68368Y134324D01*
X68751Y133751D01*
X69324Y133368D01*
X70000Y133234D01*
X70676Y133368D01*
X71249Y133751D01*
X71632Y134324D01*
X71766Y135000D01*
X71632Y135676D01*
X71249Y136249D01*
X70676Y136632D01*
X70205Y136725D01*
X68865Y138065D01*
Y140212D01*
X69245Y140415D01*
X69365Y140427D01*
X70000Y140301D01*
X70676Y140435D01*
X71249Y140818D01*
X71632Y141391D01*
X71766Y142067D01*
X71632Y142743D01*
X71608Y142779D01*
X71665Y143016D01*
X72037Y143368D01*
X72713Y143234D01*
X73389Y143368D01*
X73962Y143751D01*
X74345Y144324D01*
X74479Y145000D01*
X74345Y145676D01*
X73962Y146249D01*
X73688Y146432D01*
Y162589D01*
X73955Y162989D01*
X74089Y163665D01*
X73955Y164340D01*
X73572Y164913D01*
X72999Y165296D01*
X72323Y165431D01*
X71865Y165340D01*
X71365Y165663D01*
Y166425D01*
X71632Y166824D01*
X71766Y167500D01*
X71632Y168176D01*
X71249Y168749D01*
X70676Y169132D01*
X70000Y169266D01*
X69365Y169140D01*
X69245Y169152D01*
X68865Y169355D01*
Y175645D01*
X69245Y175848D01*
X69365Y175860D01*
X70000Y175734D01*
X70676Y175868D01*
X71249Y176251D01*
X71632Y176824D01*
X71725Y177295D01*
X83065Y188635D01*
X88385D01*
X88530Y188260D01*
X88555Y188135D01*
X88131Y187501D01*
X88076Y187226D01*
X91924D01*
X91869Y187501D01*
X91445Y188135D01*
X91470Y188260D01*
X91615Y188635D01*
X95998D01*
X96205Y188135D01*
D02*
G37*
G36*
X195362Y188084D02*
Y183465D01*
X195466Y182942D01*
X195762Y182500D01*
X196454Y181808D01*
X196763Y181601D01*
X196897Y181512D01*
X196916Y180998D01*
X196766Y180774D01*
X196712Y180500D01*
X198635D01*
Y179500D01*
X196712D01*
X196766Y179226D01*
X197205Y178569D01*
X197861Y178131D01*
X198041Y178095D01*
X198186Y177617D01*
X191693Y171123D01*
X189265D01*
X188997Y171623D01*
X189132Y171824D01*
X189225Y172295D01*
X193465Y176535D01*
X193761Y176978D01*
X193865Y177500D01*
Y187240D01*
X194901Y188276D01*
X195362Y188084D01*
D02*
G37*
G36*
X159000Y153076D02*
X159274Y153131D01*
X159931Y153569D01*
X160369Y154226D01*
X160414Y154449D01*
X160956Y154614D01*
X164841Y150729D01*
X165284Y150433D01*
X165806Y150329D01*
X190246D01*
X190437Y149867D01*
X189132Y148562D01*
X188836Y148119D01*
X188732Y147597D01*
Y133162D01*
X182112Y126542D01*
X159906D01*
X159703Y126922D01*
X159691Y127042D01*
X159817Y127677D01*
X159683Y128353D01*
X159300Y128926D01*
X158727Y129309D01*
X158256Y129403D01*
X156542Y131116D01*
Y153459D01*
X157042Y153611D01*
X157069Y153569D01*
X157726Y153131D01*
X158000Y153076D01*
Y155000D01*
X159000D01*
Y153076D01*
D02*
G37*
G36*
X145141Y116343D02*
X144118Y115320D01*
X143517Y115569D01*
X142500Y115703D01*
X141482Y115569D01*
X140534Y115176D01*
X139720Y114551D01*
X139095Y113737D01*
X138703Y112789D01*
X138569Y111772D01*
Y108228D01*
X138703Y107211D01*
X139095Y106263D01*
X139720Y105448D01*
X140534Y104824D01*
X141482Y104431D01*
X142500Y104297D01*
X143517Y104431D01*
X144466Y104824D01*
X145280Y105448D01*
X145905Y106263D01*
X146297Y107211D01*
X146431Y108228D01*
Y111772D01*
X146297Y112789D01*
X146048Y113390D01*
X147534Y114875D01*
X149357D01*
X149585Y114375D01*
X149095Y113737D01*
X148703Y112789D01*
X148569Y111772D01*
Y108228D01*
X148703Y107211D01*
X149095Y106263D01*
X149720Y105448D01*
X150534Y104824D01*
X151135Y104575D01*
Y59823D01*
X151239Y59301D01*
X151535Y58858D01*
X154984Y55409D01*
X154654Y55032D01*
X154466Y55176D01*
X153517Y55569D01*
X152500Y55703D01*
X151482Y55569D01*
X150534Y55176D01*
X149720Y54552D01*
X149095Y53737D01*
X148703Y52789D01*
X148569Y51772D01*
Y48228D01*
X148703Y47211D01*
X149095Y46263D01*
X149720Y45448D01*
X150534Y44824D01*
X151482Y44431D01*
X152500Y44297D01*
X153517Y44431D01*
X154466Y44824D01*
X155280Y45448D01*
X155635Y45912D01*
X156135Y45742D01*
Y41289D01*
X150925Y36079D01*
X150629Y35636D01*
X150525Y35114D01*
Y30220D01*
X150025Y30121D01*
X149783Y30706D01*
X149158Y31520D01*
X148344Y32145D01*
X147395Y32537D01*
X146378Y32671D01*
X145361Y32537D01*
X144676Y32254D01*
X142737Y34193D01*
X142294Y34489D01*
X141772Y34593D01*
X134519D01*
X133997Y34489D01*
X133554Y34193D01*
X130925Y31564D01*
X130629Y31122D01*
X130525Y30599D01*
Y30220D01*
X130025Y30121D01*
X129782Y30706D01*
X129158Y31520D01*
X128344Y32145D01*
X127395Y32537D01*
X126378Y32671D01*
X125859Y32603D01*
X125626Y33077D01*
X137953Y45404D01*
X138249Y45847D01*
X138353Y46369D01*
Y46749D01*
X138853Y46848D01*
X139095Y46263D01*
X139720Y45448D01*
X140534Y44824D01*
X141482Y44431D01*
X142500Y44297D01*
X143517Y44431D01*
X144466Y44824D01*
X145280Y45448D01*
X145905Y46263D01*
X146297Y47211D01*
X146431Y48228D01*
Y51772D01*
X146297Y52789D01*
X145905Y53737D01*
X145280Y54552D01*
X144466Y55176D01*
X143517Y55569D01*
X142500Y55703D01*
X141482Y55569D01*
X140534Y55176D01*
X139720Y54552D01*
X139095Y53737D01*
X138853Y53152D01*
X138353Y53251D01*
Y96752D01*
X138249Y97274D01*
X137953Y97717D01*
X131783Y103887D01*
X131831Y104113D01*
X132058Y104355D01*
X132500Y104297D01*
X133518Y104431D01*
X134466Y104824D01*
X135280Y105448D01*
X135905Y106263D01*
X136297Y107211D01*
X136431Y108228D01*
Y111772D01*
X136297Y112789D01*
X135905Y113737D01*
X135280Y114551D01*
X134466Y115176D01*
X133518Y115569D01*
X132500Y115703D01*
X131483Y115569D01*
X130534Y115176D01*
X129720Y114551D01*
X129095Y113737D01*
X128703Y112789D01*
X128569Y111772D01*
Y108228D01*
X128703Y107211D01*
X129095Y106263D01*
X129405Y105859D01*
X129208Y105295D01*
X128751Y104989D01*
X128601Y104764D01*
X127957Y104701D01*
X126048Y106610D01*
X126297Y107211D01*
X126431Y108228D01*
Y111772D01*
X126297Y112789D01*
X125905Y113737D01*
X125280Y114551D01*
X124466Y115176D01*
X123518Y115569D01*
X122696Y115677D01*
X122490Y116178D01*
X123116Y116805D01*
X144949D01*
X145141Y116343D01*
D02*
G37*
G36*
X89600Y114395D02*
X89095Y113737D01*
X88703Y112789D01*
X88569Y111772D01*
Y108228D01*
X88703Y107211D01*
X89095Y106263D01*
X89720Y105448D01*
X90534Y104824D01*
X91483Y104431D01*
X92500Y104297D01*
X93518Y104431D01*
X94118Y104680D01*
X95304Y103494D01*
X95290Y103376D01*
X95000Y103165D01*
Y101500D01*
X96665D01*
X96876Y101790D01*
X96994Y101804D01*
X103113Y95685D01*
X103000Y95474D01*
Y93774D01*
X104700D01*
X104911Y93887D01*
X106135Y92663D01*
Y54258D01*
X105635Y54088D01*
X105280Y54552D01*
X104466Y55176D01*
X103517Y55569D01*
X102500Y55703D01*
X101482Y55569D01*
X100534Y55176D01*
X99720Y54552D01*
X99365Y54088D01*
X98865Y54258D01*
Y93228D01*
X98761Y93751D01*
X98465Y94193D01*
X94115Y98544D01*
X94361Y99005D01*
X94500Y98977D01*
X95274Y99131D01*
X95931Y99569D01*
X96369Y100226D01*
X96424Y100500D01*
X94500D01*
Y101000D01*
X94000D01*
Y102924D01*
X93726Y102869D01*
X93069Y102431D01*
X92631Y101774D01*
X92477Y101000D01*
X92505Y100861D01*
X92044Y100615D01*
X86049Y106610D01*
X86297Y107211D01*
X86431Y108228D01*
Y111772D01*
X86297Y112789D01*
X85905Y113737D01*
X85400Y114395D01*
X85609Y114895D01*
X89391D01*
X89600Y114395D01*
D02*
G37*
G36*
X99600D02*
X99095Y113737D01*
X98703Y112789D01*
X98569Y111772D01*
Y108228D01*
X98703Y107211D01*
X99095Y106263D01*
X99720Y105448D01*
X100534Y104824D01*
X101482Y104431D01*
X102500Y104297D01*
X103517Y104431D01*
X104118Y104680D01*
X111331Y97467D01*
X111085Y97006D01*
X111000Y97023D01*
X110226Y96869D01*
X109569Y96431D01*
X109131Y95774D01*
X109076Y95500D01*
X111000D01*
Y95000D01*
X111500D01*
Y93076D01*
X111774Y93131D01*
X112431Y93569D01*
X112869Y94226D01*
X113023Y95000D01*
X113006Y95085D01*
X113467Y95331D01*
X116135Y92663D01*
Y54258D01*
X115635Y54088D01*
X115280Y54552D01*
X114466Y55176D01*
X113517Y55569D01*
X112500Y55703D01*
X111483Y55569D01*
X110534Y55176D01*
X109720Y54552D01*
X109365Y54088D01*
X108865Y54258D01*
Y68724D01*
X109365Y68876D01*
X109569Y68569D01*
X110226Y68131D01*
X110500Y68076D01*
Y70000D01*
Y71924D01*
X110226Y71869D01*
X109569Y71431D01*
X109365Y71124D01*
X108865Y71276D01*
Y93228D01*
X108761Y93751D01*
X108465Y94193D01*
X96048Y106610D01*
X96297Y107211D01*
X96431Y108228D01*
Y111772D01*
X96297Y112789D01*
X95905Y113737D01*
X95400Y114395D01*
X95609Y114895D01*
X99391D01*
X99600Y114395D01*
D02*
G37*
G36*
X159600D02*
X159095Y113737D01*
X158703Y112789D01*
X158569Y111772D01*
Y108228D01*
X158703Y107211D01*
X159095Y106263D01*
X159720Y105448D01*
X160534Y104824D01*
X161135Y104575D01*
Y60895D01*
X160635Y60628D01*
X160274Y60869D01*
X160000Y60924D01*
Y59000D01*
Y57076D01*
X160274Y57131D01*
X160772Y57464D01*
X160810Y57474D01*
X161293Y57409D01*
X161395Y57364D01*
X161535Y57154D01*
X162510Y56178D01*
X162304Y55677D01*
X161483Y55569D01*
X160534Y55176D01*
X159720Y54552D01*
X159365Y54088D01*
X158865Y54258D01*
Y54823D01*
X158761Y55345D01*
X158465Y55788D01*
X153865Y60388D01*
Y104575D01*
X154466Y104824D01*
X155280Y105448D01*
X155905Y106263D01*
X156297Y107211D01*
X156431Y108228D01*
Y111772D01*
X156297Y112789D01*
X155905Y113737D01*
X155400Y114395D01*
X155609Y114895D01*
X159391D01*
X159600Y114395D01*
D02*
G37*
G36*
X169600D02*
X169095Y113737D01*
X168703Y112789D01*
X168569Y111772D01*
Y108228D01*
X168703Y107211D01*
X169095Y106263D01*
X169720Y105448D01*
X170534Y104824D01*
X171135Y104575D01*
Y59577D01*
X171239Y59054D01*
X170805Y58871D01*
X170431Y59431D01*
X169774Y59869D01*
X169500Y59924D01*
Y58500D01*
X170924D01*
X170869Y58774D01*
X171303Y58958D01*
X171535Y58612D01*
X174404Y55743D01*
X174120Y55319D01*
X173518Y55569D01*
X172500Y55703D01*
X171483Y55569D01*
X170534Y55176D01*
X169720Y54552D01*
X169189Y53859D01*
X168754Y53830D01*
X168609Y53869D01*
X168465Y54084D01*
X163865Y58684D01*
Y104575D01*
X164466Y104824D01*
X165280Y105448D01*
X165905Y106263D01*
X166297Y107211D01*
X166431Y108228D01*
Y111772D01*
X166297Y112789D01*
X165905Y113737D01*
X165400Y114395D01*
X165609Y114895D01*
X169391D01*
X169600Y114395D01*
D02*
G37*
G36*
X129795Y102015D02*
X135623Y96187D01*
Y54880D01*
X135123Y54672D01*
X134466Y55176D01*
X133518Y55569D01*
X132500Y55703D01*
X131483Y55569D01*
X130534Y55176D01*
X129720Y54552D01*
X129365Y54088D01*
X128865Y54258D01*
Y101885D01*
X129245Y102088D01*
X129365Y102100D01*
X129795Y102015D01*
D02*
G37*
G36*
X179600Y114395D02*
X179095Y113737D01*
X178703Y112789D01*
X178569Y111772D01*
Y108228D01*
X178703Y107211D01*
X179095Y106263D01*
X179720Y105448D01*
X180534Y104824D01*
X181135Y104575D01*
Y58119D01*
X181239Y57597D01*
X181535Y57154D01*
X182259Y56430D01*
X182080Y55902D01*
X181417Y55814D01*
X180407Y55396D01*
X179541Y54731D01*
X179365Y54502D01*
X179060Y54548D01*
X178850Y54652D01*
X178761Y55099D01*
X178465Y55542D01*
X173865Y60142D01*
Y104575D01*
X174466Y104824D01*
X175280Y105448D01*
X175905Y106263D01*
X176297Y107211D01*
X176431Y108228D01*
Y111772D01*
X176297Y112789D01*
X175905Y113737D01*
X175400Y114395D01*
X175609Y114895D01*
X179391D01*
X179600Y114395D01*
D02*
G37*
G36*
X119189Y106141D02*
X119720Y105448D01*
X120534Y104824D01*
X121483Y104431D01*
X122500Y104297D01*
X123518Y104431D01*
X124118Y104680D01*
X126135Y102663D01*
Y54258D01*
X125635Y54088D01*
X125280Y54552D01*
X124466Y55176D01*
X123518Y55569D01*
X122500Y55703D01*
X121483Y55569D01*
X120534Y55176D01*
X119720Y54552D01*
X119365Y54088D01*
X118865Y54258D01*
Y93228D01*
X118761Y93751D01*
X118465Y94193D01*
X110783Y101875D01*
X110990Y102375D01*
X114359D01*
X114881Y102479D01*
X115324Y102775D01*
X118465Y105916D01*
X118609Y106131D01*
X118753Y106170D01*
X119189Y106141D01*
D02*
G37*
G36*
X88952Y53390D02*
X88703Y52789D01*
X88569Y51772D01*
Y48228D01*
X88703Y47211D01*
X89095Y46263D01*
X89720Y45448D01*
X90534Y44824D01*
X91483Y44431D01*
X92304Y44323D01*
X92510Y43822D01*
X88794Y40105D01*
X80635D01*
X80495Y40422D01*
X80454Y40605D01*
X80869Y41226D01*
X80924Y41500D01*
X77076D01*
X77131Y41226D01*
X77569Y40569D01*
X78226Y40131D01*
X78692Y40038D01*
X78856Y39496D01*
X70925Y31564D01*
X70629Y31122D01*
X70525Y30599D01*
Y30220D01*
X70025Y30121D01*
X69783Y30706D01*
X69158Y31520D01*
X68344Y32145D01*
X67395Y32537D01*
X66574Y32646D01*
X66368Y33147D01*
X73465Y40244D01*
X73761Y40687D01*
X73865Y41210D01*
Y44575D01*
X74466Y44824D01*
X75280Y45448D01*
X75905Y46263D01*
X76297Y47211D01*
X76431Y48228D01*
Y51772D01*
X76297Y52789D01*
X75905Y53737D01*
X75400Y54395D01*
X75609Y54895D01*
X77447D01*
X78952Y53390D01*
X78703Y52789D01*
X78569Y51772D01*
Y48228D01*
X78703Y47211D01*
X79095Y46263D01*
X79720Y45448D01*
X80534Y44824D01*
X81482Y44431D01*
X82500Y44297D01*
X83517Y44431D01*
X84466Y44824D01*
X85280Y45448D01*
X85905Y46263D01*
X86297Y47211D01*
X86431Y48228D01*
Y51772D01*
X86297Y52789D01*
X85905Y53737D01*
X85280Y54552D01*
X84466Y55176D01*
X83517Y55569D01*
X82500Y55703D01*
X81482Y55569D01*
X80882Y55320D01*
X79839Y56362D01*
X80031Y56824D01*
X85517D01*
X88952Y53390D01*
D02*
G37*
G36*
X183000Y44109D02*
X183583Y44186D01*
X184593Y44604D01*
X185123Y45011D01*
X185623Y44764D01*
Y36687D01*
X180078Y31142D01*
X179465Y31119D01*
X179158Y31520D01*
X178344Y32145D01*
X177395Y32537D01*
X176495Y32656D01*
X176247Y33114D01*
X178465Y35333D01*
X178761Y35776D01*
X178865Y36298D01*
Y45328D01*
X179365Y45498D01*
X179541Y45269D01*
X180407Y44604D01*
X181417Y44186D01*
X182000Y44109D01*
Y50000D01*
X183000D01*
Y44109D01*
D02*
G37*
G36*
X182973Y23231D02*
X183598Y22417D01*
X184412Y21792D01*
X185361Y21399D01*
X186378Y21266D01*
X187395Y21399D01*
X188344Y21792D01*
X189001Y22297D01*
X189501Y22088D01*
Y13110D01*
X189001Y12863D01*
X188471Y13270D01*
X187461Y13689D01*
X186878Y13765D01*
Y7874D01*
Y1983D01*
X187461Y2060D01*
X188471Y2478D01*
X189338Y3143D01*
X189778Y3717D01*
X190420Y3783D01*
X192938Y1265D01*
X192747Y803D01*
X90009D01*
X89818Y1265D01*
X92508Y3955D01*
X92569Y3979D01*
X93157Y3897D01*
X93598Y3322D01*
X94412Y2698D01*
X95360Y2305D01*
X96378Y2171D01*
X97395Y2305D01*
X98344Y2698D01*
X99158Y3322D01*
X99783Y4137D01*
X100175Y5085D01*
X100309Y6102D01*
Y9646D01*
X100175Y10663D01*
X99926Y11264D01*
X102298Y13635D01*
X103943D01*
X104122Y13451D01*
X104076Y12792D01*
X103598Y12426D01*
X102973Y11611D01*
X102581Y10663D01*
X102447Y9646D01*
Y6102D01*
X102581Y5085D01*
X102973Y4137D01*
X103598Y3322D01*
X104412Y2698D01*
X105360Y2305D01*
X106378Y2171D01*
X107395Y2305D01*
X108344Y2698D01*
X109158Y3322D01*
X109783Y4137D01*
X110175Y5085D01*
X110309Y6102D01*
Y9646D01*
X110175Y10663D01*
X109783Y11611D01*
X109158Y12426D01*
X108344Y13050D01*
X107395Y13443D01*
X107129Y13478D01*
X106886Y14014D01*
X107093Y14324D01*
X107228Y15000D01*
X107093Y15676D01*
X106710Y16249D01*
X106480Y16403D01*
X106433Y16898D01*
X106470Y17011D01*
X112508Y23049D01*
X112569Y23073D01*
X113157Y22992D01*
X113598Y22417D01*
X114412Y21792D01*
X115360Y21399D01*
X116378Y21266D01*
X117395Y21399D01*
X118344Y21792D01*
X119158Y22417D01*
X119782Y23231D01*
X120025Y23817D01*
X120525Y23717D01*
Y14134D01*
X120629Y13612D01*
X120925Y13169D01*
X122829Y11264D01*
X122581Y10663D01*
X122447Y9646D01*
Y6102D01*
X122581Y5085D01*
X122973Y4137D01*
X123598Y3322D01*
X124412Y2698D01*
X125361Y2305D01*
X126378Y2171D01*
X127395Y2305D01*
X128344Y2698D01*
X129158Y3322D01*
X129782Y4137D01*
X130175Y5085D01*
X130309Y6102D01*
Y9646D01*
X130175Y10663D01*
X129782Y11611D01*
X129158Y12426D01*
X128344Y13050D01*
X127395Y13443D01*
X126378Y13577D01*
X125361Y13443D01*
X124760Y13194D01*
X123255Y14699D01*
Y22088D01*
X123755Y22297D01*
X124412Y21792D01*
X125361Y21399D01*
X126378Y21266D01*
X127395Y21399D01*
X128344Y21792D01*
X129158Y22417D01*
X129782Y23231D01*
X130025Y23817D01*
X130525Y23717D01*
Y23338D01*
X130629Y22816D01*
X130925Y22373D01*
X137412Y15885D01*
X137855Y15589D01*
X138377Y15486D01*
X174379D01*
X174901Y15589D01*
X175344Y15885D01*
X181831Y22373D01*
X182127Y22816D01*
X182231Y23338D01*
Y23717D01*
X182731Y23817D01*
X182973Y23231D01*
D02*
G37*
%LPC*%
G36*
X222500Y264914D02*
Y260500D01*
X226914D01*
X226810Y261289D01*
X226312Y262490D01*
X225521Y263521D01*
X224490Y264313D01*
X223289Y264810D01*
X222500Y264914D01*
D02*
G37*
G36*
X221500D02*
X220711Y264810D01*
X219510Y264313D01*
X218479Y263521D01*
X217688Y262490D01*
X217190Y261289D01*
X217086Y260500D01*
X221500D01*
Y264914D01*
D02*
G37*
G36*
Y259500D02*
X217086D01*
X217190Y258711D01*
X217688Y257510D01*
X218479Y256479D01*
X219024Y256061D01*
X218772Y255624D01*
X218539Y255720D01*
X217059Y255915D01*
X215579Y255720D01*
X214200Y255149D01*
X213016Y254240D01*
X212107Y253056D01*
X211536Y251677D01*
X211341Y250197D01*
X211536Y248717D01*
X212107Y247338D01*
X213016Y246153D01*
X214200Y245245D01*
X215579Y244673D01*
X217059Y244479D01*
X218539Y244673D01*
X219918Y245245D01*
X221102Y246153D01*
X222011Y247338D01*
X222582Y248717D01*
X222777Y250197D01*
X222582Y251677D01*
X222011Y253056D01*
X221102Y254240D01*
X220404Y254776D01*
X220656Y255213D01*
X220711Y255190D01*
X221500Y255086D01*
Y259500D01*
D02*
G37*
G36*
X226914D02*
X222500D01*
Y255086D01*
X223289Y255190D01*
X224490Y255687D01*
X225521Y256479D01*
X226312Y257510D01*
X226810Y258711D01*
X226914Y259500D01*
D02*
G37*
G36*
X165791Y256791D02*
X157209D01*
Y248209D01*
X165791D01*
Y256791D01*
D02*
G37*
G36*
X171500Y256828D02*
X170380Y256681D01*
X169336Y256248D01*
X168439Y255561D01*
X167752Y254664D01*
X167319Y253620D01*
X167172Y252500D01*
X167319Y251380D01*
X167752Y250336D01*
X168439Y249439D01*
X169336Y248751D01*
X170380Y248319D01*
X171500Y248172D01*
X172620Y248319D01*
X173664Y248751D01*
X174561Y249439D01*
X175249Y250336D01*
X175681Y251380D01*
X175828Y252500D01*
X175681Y253620D01*
X175249Y254664D01*
X174561Y255561D01*
X173664Y256248D01*
X172620Y256681D01*
X171500Y256828D01*
D02*
G37*
G36*
X239717Y264725D02*
X238493Y264564D01*
X237354Y264092D01*
X236375Y263341D01*
X235624Y262363D01*
X235152Y261223D01*
X234991Y260000D01*
X235152Y258777D01*
X235624Y257637D01*
X236375Y256659D01*
X237354Y255908D01*
X238493Y255436D01*
X239717Y255275D01*
X240940Y255436D01*
X240974Y255450D01*
X241226Y255013D01*
X240614Y254543D01*
X239705Y253359D01*
X239134Y251980D01*
X238939Y250500D01*
X239134Y249020D01*
X239705Y247641D01*
X240614Y246457D01*
X241798Y245548D01*
X243178Y244977D01*
X244657Y244782D01*
X246137Y244977D01*
X247517Y245548D01*
X248701Y246457D01*
X249610Y247641D01*
X250181Y249020D01*
X250376Y250500D01*
X250181Y251980D01*
X249610Y253359D01*
X248701Y254543D01*
X247517Y255452D01*
X246137Y256023D01*
X244657Y256218D01*
X243178Y256023D01*
X242904Y255910D01*
X242652Y256347D01*
X243058Y256659D01*
X243809Y257637D01*
X244281Y258777D01*
X244442Y260000D01*
X244281Y261223D01*
X243809Y262363D01*
X243058Y263341D01*
X242079Y264092D01*
X240940Y264564D01*
X239717Y264725D01*
D02*
G37*
G36*
X41200Y246130D02*
X40131Y245989D01*
X39135Y245577D01*
X38280Y244920D01*
X37624Y244065D01*
X37211Y243069D01*
X37070Y242000D01*
X37211Y240931D01*
X37624Y239935D01*
X38280Y239080D01*
X39135Y238423D01*
X40131Y238011D01*
X41200Y237870D01*
X42269Y238011D01*
X43265Y238423D01*
X44120Y239080D01*
X44776Y239935D01*
X45189Y240931D01*
X45330Y242000D01*
X45189Y243069D01*
X44776Y244065D01*
X44120Y244920D01*
X43265Y245577D01*
X42269Y245989D01*
X41200Y246130D01*
D02*
G37*
G36*
X264458Y249819D02*
X263101D01*
X263023Y249803D01*
X262944D01*
X261613Y249538D01*
X261540Y249508D01*
X261463Y249493D01*
X260209Y248973D01*
X260143Y248929D01*
X260070Y248899D01*
X258942Y248145D01*
X258886Y248089D01*
X258820Y248045D01*
X257860Y247086D01*
X257816Y247020D01*
X257760Y246964D01*
X257006Y245835D01*
X256976Y245762D01*
X256932Y245697D01*
X256413Y244443D01*
X256397Y244365D01*
X256367Y244292D01*
X256102Y242961D01*
Y242882D01*
X256087Y242805D01*
Y241447D01*
X256102Y241370D01*
Y241291D01*
X256367Y239960D01*
X256397Y239887D01*
X256413Y239809D01*
X256932Y238555D01*
X256976Y238489D01*
X257006Y238416D01*
X257760Y237288D01*
X257816Y237232D01*
X257860Y237166D01*
X258820Y236207D01*
X258886Y236163D01*
X258942Y236107D01*
X260070Y235353D01*
X260143Y235322D01*
X260209Y235279D01*
X261463Y234759D01*
X261540Y234744D01*
X261613Y234714D01*
X262944Y234449D01*
X263023D01*
X263101Y234433D01*
X264458D01*
X264536Y234449D01*
X264615D01*
X265946Y234714D01*
X266019Y234744D01*
X266096Y234759D01*
X267350Y235279D01*
X267416Y235322D01*
X267489Y235353D01*
X268618Y236107D01*
X268673Y236163D01*
X268739Y236207D01*
X269699Y237166D01*
X269743Y237232D01*
X269799Y237288D01*
X270553Y238416D01*
X270583Y238490D01*
X270627Y238555D01*
X271146Y239809D01*
X271162Y239887D01*
X271192Y239960D01*
X271457Y241291D01*
Y241370D01*
X271472Y241447D01*
Y242805D01*
X271457Y242882D01*
Y242961D01*
X271192Y244292D01*
X271162Y244365D01*
X271146Y244443D01*
X270627Y245697D01*
X270583Y245762D01*
X270553Y245835D01*
X269799Y246964D01*
X269743Y247020D01*
X269699Y247086D01*
X268739Y248045D01*
X268673Y248089D01*
X268618Y248145D01*
X267489Y248899D01*
X267416Y248929D01*
X267350Y248973D01*
X266096Y249493D01*
X266019Y249508D01*
X265946Y249538D01*
X264615Y249803D01*
X264536D01*
X264458Y249819D01*
D02*
G37*
G36*
X41200Y236130D02*
X40131Y235989D01*
X39135Y235577D01*
X38280Y234920D01*
X37624Y234065D01*
X37211Y233069D01*
X37070Y232000D01*
X37211Y230931D01*
X37624Y229935D01*
X38280Y229080D01*
X39135Y228424D01*
X40131Y228011D01*
X41200Y227870D01*
X42269Y228011D01*
X43265Y228424D01*
X44120Y229080D01*
X44776Y229935D01*
X45189Y230931D01*
X45330Y232000D01*
X45189Y233069D01*
X44776Y234065D01*
X44120Y234920D01*
X43265Y235577D01*
X42269Y235989D01*
X41200Y236130D01*
D02*
G37*
G36*
X41200Y226130D02*
X40131Y225989D01*
X39135Y225576D01*
X38280Y224920D01*
X37624Y224065D01*
X37211Y223069D01*
X37070Y222000D01*
X37211Y220931D01*
X37624Y219935D01*
X38280Y219080D01*
X39135Y218424D01*
X40131Y218011D01*
X41200Y217870D01*
X42269Y218011D01*
X43265Y218424D01*
X44120Y219080D01*
X44776Y219935D01*
X45189Y220931D01*
X45330Y222000D01*
X45189Y223069D01*
X44776Y224065D01*
X44120Y224920D01*
X43265Y225576D01*
X42269Y225989D01*
X41200Y226130D01*
D02*
G37*
G36*
X175799Y218870D02*
X172974D01*
X173024Y218492D01*
X173362Y217674D01*
X173901Y216972D01*
X174604Y216433D01*
X175422Y216094D01*
X175799Y216045D01*
Y218870D01*
D02*
G37*
G36*
X41200Y216130D02*
X40131Y215989D01*
X39135Y215577D01*
X38280Y214920D01*
X37624Y214065D01*
X37211Y213069D01*
X37070Y212000D01*
X37211Y210931D01*
X37624Y209935D01*
X38280Y209080D01*
X39135Y208423D01*
X40131Y208011D01*
X41200Y207870D01*
X42269Y208011D01*
X43265Y208423D01*
X44120Y209080D01*
X44776Y209935D01*
X45189Y210931D01*
X45330Y212000D01*
X45189Y213069D01*
X44776Y214065D01*
X44120Y214920D01*
X43265Y215577D01*
X42269Y215989D01*
X41200Y216130D01*
D02*
G37*
G36*
X41700Y206318D02*
Y202500D01*
X45518D01*
X45435Y203135D01*
X44997Y204192D01*
X44300Y205100D01*
X43392Y205797D01*
X42335Y206235D01*
X41700Y206318D01*
D02*
G37*
G36*
X40700D02*
X40065Y206235D01*
X39008Y205797D01*
X38100Y205100D01*
X37403Y204192D01*
X36965Y203135D01*
X36882Y202500D01*
X40700D01*
Y206318D01*
D02*
G37*
G36*
X102500Y236365D02*
X70000D01*
X69478Y236261D01*
X69035Y235965D01*
X66535Y233465D01*
X66501Y233414D01*
X66251Y233247D01*
X65868Y232674D01*
X65734Y231998D01*
X65868Y231322D01*
X66251Y230749D01*
X66824Y230366D01*
X67500Y230232D01*
X68176Y230366D01*
X68749Y230749D01*
X69132Y231322D01*
X69266Y231998D01*
X69210Y232280D01*
X70565Y233635D01*
X90955D01*
X91040Y233524D01*
X91176Y233135D01*
X90868Y232674D01*
X90734Y231998D01*
X90868Y231322D01*
X91251Y230749D01*
X91824Y230366D01*
X92500Y230232D01*
X93176Y230366D01*
X93576Y230633D01*
X101652D01*
X132880Y199405D01*
X132974Y198933D01*
X133357Y198360D01*
X133930Y197977D01*
X134606Y197843D01*
X135282Y197977D01*
X135855Y198360D01*
X136116Y198751D01*
X136251D01*
X136824Y198368D01*
X137500Y198234D01*
X138176Y198368D01*
X138749Y198751D01*
X139132Y199324D01*
X139266Y200000D01*
X139132Y200676D01*
X138749Y201249D01*
X138176Y201632D01*
X137705Y201726D01*
X103465Y235965D01*
X103022Y236261D01*
X102500Y236365D01*
D02*
G37*
G36*
X45518Y201500D02*
X41700D01*
Y197682D01*
X42335Y197765D01*
X43392Y198203D01*
X44300Y198900D01*
X44997Y199808D01*
X45435Y200865D01*
X45518Y201500D01*
D02*
G37*
G36*
X40700D02*
X36882D01*
X36965Y200865D01*
X37403Y199808D01*
X38100Y198900D01*
X39008Y198203D01*
X40065Y197765D01*
X40700Y197682D01*
Y201500D01*
D02*
G37*
G36*
X145500Y198719D02*
Y195894D01*
X148325D01*
X148276Y196271D01*
X147937Y197089D01*
X147398Y197792D01*
X146696Y198331D01*
X145878Y198669D01*
X145500Y198719D01*
D02*
G37*
G36*
X144500D02*
X144122Y198669D01*
X143304Y198331D01*
X142602Y197792D01*
X142063Y197089D01*
X141724Y196271D01*
X141675Y195894D01*
X144500D01*
Y198719D01*
D02*
G37*
G36*
X93000Y198325D02*
Y195500D01*
X95825D01*
X95776Y195878D01*
X95437Y196696D01*
X94898Y197398D01*
X94196Y197937D01*
X93378Y198276D01*
X93000Y198325D01*
D02*
G37*
G36*
X92000D02*
X91622Y198276D01*
X90804Y197937D01*
X90102Y197398D01*
X89563Y196696D01*
X89224Y195878D01*
X89175Y195500D01*
X92000D01*
Y198325D01*
D02*
G37*
G36*
X53000D02*
Y195500D01*
X55825D01*
X55776Y195878D01*
X55437Y196696D01*
X54898Y197398D01*
X54196Y197937D01*
X53378Y198276D01*
X53000Y198325D01*
D02*
G37*
G36*
X52000D02*
X51622Y198276D01*
X50804Y197937D01*
X50102Y197398D01*
X49563Y196696D01*
X49224Y195878D01*
X49175Y195500D01*
X52000D01*
Y198325D01*
D02*
G37*
G36*
X148325Y194894D02*
X145500D01*
Y192068D01*
X145878Y192118D01*
X146696Y192457D01*
X147398Y192996D01*
X147937Y193698D01*
X148276Y194516D01*
X148325Y194894D01*
D02*
G37*
G36*
X144500D02*
X141675D01*
X141724Y194516D01*
X142063Y193698D01*
X142602Y192996D01*
X143304Y192457D01*
X144122Y192118D01*
X144500Y192068D01*
Y194894D01*
D02*
G37*
G36*
X55825Y194500D02*
X53000D01*
Y191675D01*
X53378Y191724D01*
X54196Y192063D01*
X54898Y192602D01*
X55437Y193304D01*
X55776Y194122D01*
X55825Y194500D01*
D02*
G37*
G36*
X52000D02*
X49175D01*
X49224Y194122D01*
X49563Y193304D01*
X50102Y192602D01*
X50804Y192063D01*
X51622Y191724D01*
X52000Y191675D01*
Y194500D01*
D02*
G37*
G36*
X45294Y196095D02*
X37106D01*
Y187906D01*
X45294D01*
Y196095D01*
D02*
G37*
G36*
X119825Y186784D02*
X118000D01*
Y184958D01*
X118428Y185044D01*
X119214Y185569D01*
X119740Y186356D01*
X119825Y186784D01*
D02*
G37*
G36*
X117000D02*
X115175D01*
X115260Y186356D01*
X115786Y185569D01*
X116572Y185044D01*
X117000Y184958D01*
Y186784D01*
D02*
G37*
G36*
X98000Y183175D02*
Y181751D01*
X99424D01*
X99369Y182025D01*
X98931Y182682D01*
X98274Y183120D01*
X98000Y183175D01*
D02*
G37*
G36*
X97000D02*
X96726Y183120D01*
X96069Y182682D01*
X95631Y182025D01*
X95576Y181751D01*
X97000D01*
Y183175D01*
D02*
G37*
G36*
X99424Y180751D02*
X98000D01*
Y179327D01*
X98274Y179382D01*
X98931Y179821D01*
X99369Y180477D01*
X99424Y180751D01*
D02*
G37*
G36*
X97000D02*
X95576D01*
X95631Y180477D01*
X96069Y179821D01*
X96726Y179382D01*
X97000Y179327D01*
Y180751D01*
D02*
G37*
G36*
X48325Y167000D02*
X45500D01*
Y164175D01*
X45878Y164224D01*
X46696Y164563D01*
X47398Y165102D01*
X47937Y165804D01*
X48276Y166622D01*
X48325Y167000D01*
D02*
G37*
G36*
X44500D02*
X41675D01*
X41724Y166622D01*
X42063Y165804D01*
X42602Y165102D01*
X43304Y164563D01*
X44122Y164224D01*
X44500Y164175D01*
Y167000D01*
D02*
G37*
G36*
X118000Y155042D02*
Y153217D01*
X119825D01*
X119740Y153644D01*
X119214Y154431D01*
X118428Y154956D01*
X118000Y155042D01*
D02*
G37*
G36*
X117000D02*
X116572Y154956D01*
X115786Y154431D01*
X115260Y153644D01*
X115175Y153217D01*
X117000D01*
Y155042D01*
D02*
G37*
G36*
X53000Y153325D02*
Y150500D01*
X55825D01*
X55776Y150878D01*
X55437Y151696D01*
X54898Y152398D01*
X54196Y152937D01*
X53378Y153276D01*
X53000Y153325D01*
D02*
G37*
G36*
X52000D02*
X51622Y153276D01*
X50804Y152937D01*
X50102Y152398D01*
X49563Y151696D01*
X49224Y150878D01*
X49175Y150500D01*
X52000D01*
Y153325D01*
D02*
G37*
G36*
X119825Y152216D02*
X118000D01*
Y150391D01*
X118428Y150477D01*
X119214Y151002D01*
X119740Y151789D01*
X119825Y152216D01*
D02*
G37*
G36*
X117000D02*
X115175D01*
X115260Y151789D01*
X115786Y151002D01*
X116572Y150477D01*
X117000Y150391D01*
Y152216D01*
D02*
G37*
G36*
X55825Y149500D02*
X53000D01*
Y146675D01*
X53378Y146724D01*
X54196Y147063D01*
X54898Y147602D01*
X55437Y148304D01*
X55776Y149122D01*
X55825Y149500D01*
D02*
G37*
G36*
X52000D02*
X49175D01*
X49224Y149122D01*
X49563Y148304D01*
X50102Y147602D01*
X50804Y147063D01*
X51622Y146724D01*
X52000Y146675D01*
Y149500D01*
D02*
G37*
G36*
X44500Y135825D02*
X44122Y135776D01*
X43304Y135437D01*
X42602Y134898D01*
X42063Y134196D01*
X41724Y133378D01*
X41675Y133000D01*
X44500D01*
Y135825D01*
D02*
G37*
G36*
X37500Y165637D02*
X36688Y165530D01*
X35932Y165217D01*
X35282Y164718D01*
X34783Y164068D01*
X34470Y163312D01*
X34363Y162500D01*
X34470Y161688D01*
X34760Y160987D01*
Y136513D01*
X34470Y135812D01*
X34363Y135000D01*
X34470Y134188D01*
X34783Y133431D01*
X35282Y132782D01*
X35932Y132283D01*
X36688Y131970D01*
X37500Y131863D01*
X38312Y131970D01*
X39068Y132283D01*
X39718Y132782D01*
X40217Y133431D01*
X40530Y134188D01*
X40637Y135000D01*
X40530Y135812D01*
X40240Y136513D01*
Y160987D01*
X40530Y161688D01*
X40637Y162500D01*
X40530Y163312D01*
X40217Y164068D01*
X39718Y164718D01*
X39068Y165217D01*
X38312Y165530D01*
X37500Y165637D01*
D02*
G37*
G36*
X48325Y132000D02*
X45500D01*
Y129175D01*
X45878Y129224D01*
X46696Y129563D01*
X47398Y130102D01*
X47937Y130804D01*
X48276Y131622D01*
X48325Y132000D01*
D02*
G37*
G36*
X44500D02*
X41675D01*
X41724Y131622D01*
X42063Y130804D01*
X42602Y130102D01*
X43304Y129563D01*
X44122Y129224D01*
X44500Y129175D01*
Y132000D01*
D02*
G37*
G36*
X6235Y95376D02*
Y93953D01*
X7659D01*
X7604Y94227D01*
X7165Y94883D01*
X6509Y95322D01*
X6235Y95376D01*
D02*
G37*
G36*
X5235D02*
X4961Y95322D01*
X4304Y94883D01*
X3866Y94227D01*
X3811Y93953D01*
X5235D01*
Y95376D01*
D02*
G37*
G36*
X7659Y92953D02*
X6235D01*
Y91529D01*
X6509Y91584D01*
X7165Y92022D01*
X7604Y92678D01*
X7659Y92953D01*
D02*
G37*
G36*
X5235D02*
X3811D01*
X3866Y92678D01*
X4304Y92022D01*
X4961Y91584D01*
X5235Y91529D01*
Y92953D01*
D02*
G37*
G36*
X198000Y221321D02*
Y219897D01*
X199424D01*
X199369Y220171D01*
X198931Y220828D01*
X198274Y221266D01*
X198000Y221321D01*
D02*
G37*
G36*
X199424Y218897D02*
X198000D01*
Y217474D01*
X198274Y217528D01*
X198931Y217967D01*
X199369Y218623D01*
X199424Y218897D01*
D02*
G37*
G36*
X252000Y219087D02*
X250376D01*
X250445Y218736D01*
X250927Y218014D01*
X251649Y217532D01*
X252000Y217462D01*
Y219087D01*
D02*
G37*
G36*
X222124D02*
X220500D01*
Y217462D01*
X220851Y217532D01*
X221572Y218014D01*
X222055Y218736D01*
X222124Y219087D01*
D02*
G37*
G36*
X244500Y174424D02*
X244226Y174369D01*
X243569Y173931D01*
X243131Y173274D01*
X243076Y173000D01*
X244500D01*
Y174424D01*
D02*
G37*
G36*
X212077Y173119D02*
X210653D01*
Y171695D01*
X210927Y171750D01*
X211584Y172188D01*
X212022Y172845D01*
X212077Y173119D01*
D02*
G37*
G36*
X244500Y172000D02*
X243076D01*
X243131Y171726D01*
X243569Y171069D01*
X244226Y170631D01*
X244500Y170576D01*
Y172000D01*
D02*
G37*
G36*
X255825Y170711D02*
X254201D01*
Y169086D01*
X254552Y169156D01*
X255273Y169638D01*
X255755Y170360D01*
X255825Y170711D01*
D02*
G37*
G36*
X243000Y155723D02*
Y154299D01*
X244424D01*
X244369Y154573D01*
X243931Y155230D01*
X243274Y155668D01*
X243000Y155723D01*
D02*
G37*
G36*
X242000D02*
X241726Y155668D01*
X241069Y155230D01*
X240631Y154573D01*
X240576Y154299D01*
X242000D01*
Y155723D01*
D02*
G37*
G36*
X244424Y153299D02*
X243000D01*
Y151875D01*
X243274Y151930D01*
X243931Y152369D01*
X244369Y153025D01*
X244424Y153299D01*
D02*
G37*
G36*
X242000D02*
X240576D01*
X240631Y153025D01*
X241069Y152369D01*
X241726Y151930D01*
X242000Y151875D01*
Y153299D01*
D02*
G37*
G36*
X197123Y145564D02*
X194298D01*
Y142739D01*
X194676Y142789D01*
X195494Y143127D01*
X196196Y143666D01*
X196735Y144369D01*
X197074Y145186D01*
X197123Y145564D01*
D02*
G37*
G36*
X222500Y134500D02*
X221076D01*
X221131Y134226D01*
X221569Y133569D01*
X222226Y133131D01*
X222500Y133076D01*
Y134500D01*
D02*
G37*
G36*
X235500Y134424D02*
Y133000D01*
X236924D01*
X236869Y133274D01*
X236431Y133931D01*
X235774Y134369D01*
X235500Y134424D01*
D02*
G37*
G36*
X234500D02*
X234226Y134369D01*
X233569Y133931D01*
X233131Y133274D01*
X233076Y133000D01*
X234500D01*
Y134424D01*
D02*
G37*
G36*
X236924Y132000D02*
X235500D01*
Y130576D01*
X235774Y130631D01*
X236431Y131069D01*
X236869Y131726D01*
X236924Y132000D01*
D02*
G37*
G36*
X234500D02*
X233076D01*
X233131Y131726D01*
X233569Y131069D01*
X234226Y130631D01*
X234500Y130576D01*
Y132000D01*
D02*
G37*
G36*
X265500Y123924D02*
Y122500D01*
X266924D01*
X266869Y122774D01*
X266431Y123431D01*
X265774Y123869D01*
X265500Y123924D01*
D02*
G37*
G36*
X264500D02*
X264226Y123869D01*
X263569Y123431D01*
X263131Y122774D01*
X263076Y122500D01*
X264500D01*
Y123924D01*
D02*
G37*
G36*
X235500Y122924D02*
Y121500D01*
X236924D01*
X236869Y121774D01*
X236431Y122431D01*
X235774Y122869D01*
X235500Y122924D01*
D02*
G37*
G36*
X234500D02*
X234226Y122869D01*
X233569Y122431D01*
X233131Y121774D01*
X233076Y121500D01*
X234500D01*
Y122924D01*
D02*
G37*
G36*
X191500D02*
Y121500D01*
X192924D01*
X192869Y121774D01*
X192431Y122431D01*
X191774Y122869D01*
X191500Y122924D01*
D02*
G37*
G36*
X190500D02*
X190226Y122869D01*
X189569Y122431D01*
X189131Y121774D01*
X189076Y121500D01*
X190500D01*
Y122924D01*
D02*
G37*
G36*
X266924Y121500D02*
X265500D01*
Y120076D01*
X265774Y120131D01*
X266431Y120569D01*
X266869Y121226D01*
X266924Y121500D01*
D02*
G37*
G36*
X264500D02*
X263076D01*
X263131Y121226D01*
X263569Y120569D01*
X264226Y120131D01*
X264500Y120076D01*
Y121500D01*
D02*
G37*
G36*
X236924Y120500D02*
X235500D01*
Y119076D01*
X235774Y119131D01*
X236431Y119569D01*
X236869Y120226D01*
X236924Y120500D01*
D02*
G37*
G36*
X234500D02*
X233076D01*
X233131Y120226D01*
X233569Y119569D01*
X234226Y119131D01*
X234500Y119076D01*
Y120500D01*
D02*
G37*
G36*
X192924D02*
X191500D01*
Y119076D01*
X191774Y119131D01*
X192431Y119569D01*
X192869Y120226D01*
X192924Y120500D01*
D02*
G37*
G36*
X190500D02*
X189076D01*
X189131Y120226D01*
X189569Y119569D01*
X190226Y119131D01*
X190500Y119076D01*
Y120500D01*
D02*
G37*
G36*
X205500Y114825D02*
Y113000D01*
X207325D01*
X207240Y113428D01*
X206714Y114214D01*
X205928Y114740D01*
X205500Y114825D01*
D02*
G37*
G36*
X204500D02*
X204072Y114740D01*
X203286Y114214D01*
X202760Y113428D01*
X202675Y113000D01*
X204500D01*
Y114825D01*
D02*
G37*
G36*
X222500Y113424D02*
Y112000D01*
X223924D01*
X223869Y112274D01*
X223431Y112931D01*
X222774Y113369D01*
X222500Y113424D01*
D02*
G37*
G36*
X221500D02*
X221226Y113369D01*
X220569Y112931D01*
X220131Y112274D01*
X220076Y112000D01*
X221500D01*
Y113424D01*
D02*
G37*
G36*
X42000Y113325D02*
X41622Y113276D01*
X40804Y112937D01*
X40102Y112398D01*
X39563Y111696D01*
X39224Y110878D01*
X39175Y110500D01*
X42000D01*
Y113325D01*
D02*
G37*
G36*
X207325Y112000D02*
X205500D01*
Y110175D01*
X205928Y110260D01*
X206714Y110786D01*
X207240Y111572D01*
X207325Y112000D01*
D02*
G37*
G36*
X204500D02*
X202675D01*
X202760Y111572D01*
X203286Y110786D01*
X204072Y110260D01*
X204500Y110175D01*
Y112000D01*
D02*
G37*
G36*
X223924Y111000D02*
X222500D01*
Y109576D01*
X222774Y109631D01*
X223431Y110069D01*
X223869Y110726D01*
X223924Y111000D01*
D02*
G37*
G36*
X221500D02*
X220076D01*
X220131Y110726D01*
X220569Y110069D01*
X221226Y109631D01*
X221500Y109576D01*
Y111000D01*
D02*
G37*
G36*
X64017Y101533D02*
Y100109D01*
X65441D01*
X65387Y100383D01*
X64948Y101040D01*
X64292Y101478D01*
X64017Y101533D01*
D02*
G37*
G36*
X63017D02*
X62743Y101478D01*
X62087Y101040D01*
X61648Y100383D01*
X61594Y100109D01*
X63017D01*
Y101533D01*
D02*
G37*
G36*
X65441Y99109D02*
X64017D01*
Y97686D01*
X64292Y97740D01*
X64948Y98179D01*
X65387Y98835D01*
X65441Y99109D01*
D02*
G37*
G36*
X63017D02*
X61594D01*
X61648Y98835D01*
X62087Y98179D01*
X62743Y97740D01*
X63017Y97686D01*
Y99109D01*
D02*
G37*
G36*
X17882Y96924D02*
Y95500D01*
X19306D01*
X19251Y95774D01*
X18812Y96431D01*
X18156Y96869D01*
X17882Y96924D01*
D02*
G37*
G36*
X16882D02*
X16608Y96869D01*
X15951Y96431D01*
X15513Y95774D01*
X15458Y95500D01*
X16882D01*
Y96924D01*
D02*
G37*
G36*
X19306Y94500D02*
X17882D01*
Y93076D01*
X18156Y93131D01*
X18812Y93569D01*
X19251Y94226D01*
X19306Y94500D01*
D02*
G37*
G36*
X16882D02*
X15458D01*
X15513Y94226D01*
X15951Y93569D01*
X16608Y93131D01*
X16882Y93076D01*
Y94500D01*
D02*
G37*
G36*
X81982Y94424D02*
Y93000D01*
X83406D01*
X83352Y93274D01*
X82913Y93931D01*
X82257Y94369D01*
X81982Y94424D01*
D02*
G37*
G36*
X80983D02*
X80708Y94369D01*
X80052Y93931D01*
X79613Y93274D01*
X79559Y93000D01*
X80983D01*
Y94424D01*
D02*
G37*
G36*
X32337Y92687D02*
Y91264D01*
X33761D01*
X33707Y91538D01*
X33268Y92194D01*
X32612Y92633D01*
X32337Y92687D01*
D02*
G37*
G36*
X31337D02*
X31063Y92633D01*
X30407Y92194D01*
X29968Y91538D01*
X29914Y91264D01*
X31337D01*
Y92687D01*
D02*
G37*
G36*
X83406Y92000D02*
X81982D01*
Y90576D01*
X82257Y90631D01*
X82913Y91069D01*
X83352Y91726D01*
X83406Y92000D01*
D02*
G37*
G36*
X80983D02*
X79559D01*
X79613Y91726D01*
X80052Y91069D01*
X80708Y90631D01*
X80983Y90576D01*
Y92000D01*
D02*
G37*
G36*
X55500Y91924D02*
Y90500D01*
X56924D01*
X56869Y90774D01*
X56431Y91431D01*
X55774Y91869D01*
X55500Y91924D01*
D02*
G37*
G36*
X54500D02*
X54226Y91869D01*
X53569Y91431D01*
X53131Y90774D01*
X53076Y90500D01*
X54500D01*
Y91924D01*
D02*
G37*
G36*
X33761Y90264D02*
X32337D01*
Y88840D01*
X32612Y88895D01*
X33268Y89333D01*
X33707Y89990D01*
X33761Y90264D01*
D02*
G37*
G36*
X31337D02*
X29914D01*
X29968Y89990D01*
X30407Y89333D01*
X31063Y88895D01*
X31337Y88840D01*
Y90264D01*
D02*
G37*
G36*
X56924Y89500D02*
X55500D01*
Y88076D01*
X55774Y88131D01*
X56431Y88569D01*
X56869Y89226D01*
X56924Y89500D01*
D02*
G37*
G36*
X54500D02*
X53076D01*
X53131Y89226D01*
X53569Y88569D01*
X54226Y88131D01*
X54500Y88076D01*
Y89500D01*
D02*
G37*
G36*
X28519Y82424D02*
Y81000D01*
X29943D01*
X29888Y81274D01*
X29449Y81931D01*
X28793Y82369D01*
X28519Y82424D01*
D02*
G37*
G36*
X27519D02*
X27245Y82369D01*
X26588Y81931D01*
X26150Y81274D01*
X26095Y81000D01*
X27519D01*
Y82424D01*
D02*
G37*
G36*
X29943Y80000D02*
X28519D01*
Y78576D01*
X28793Y78631D01*
X29449Y79069D01*
X29888Y79726D01*
X29943Y80000D01*
D02*
G37*
G36*
X27519D02*
X26095D01*
X26150Y79726D01*
X26588Y79069D01*
X27245Y78631D01*
X27519Y78576D01*
Y80000D01*
D02*
G37*
G36*
X270185Y76924D02*
Y75500D01*
X271609D01*
X271554Y75774D01*
X271116Y76431D01*
X270459Y76869D01*
X270185Y76924D01*
D02*
G37*
G36*
X269185D02*
X268911Y76869D01*
X268254Y76431D01*
X267816Y75774D01*
X267761Y75500D01*
X269185D01*
Y76924D01*
D02*
G37*
G36*
X271609Y74500D02*
X270185D01*
Y73076D01*
X270459Y73131D01*
X271116Y73569D01*
X271554Y74226D01*
X271609Y74500D01*
D02*
G37*
G36*
X269185D02*
X267761D01*
X267816Y74226D01*
X268254Y73569D01*
X268911Y73131D01*
X269185Y73076D01*
Y74500D01*
D02*
G37*
G36*
X58000Y71924D02*
Y70500D01*
X59424D01*
X59369Y70774D01*
X58931Y71431D01*
X58274Y71869D01*
X58000Y71924D01*
D02*
G37*
G36*
X57000D02*
X56726Y71869D01*
X56069Y71431D01*
X55631Y70774D01*
X55576Y70500D01*
X57000D01*
Y71924D01*
D02*
G37*
G36*
X59424Y69500D02*
X58000D01*
Y68076D01*
X58274Y68131D01*
X58931Y68569D01*
X59369Y69226D01*
X59424Y69500D01*
D02*
G37*
G36*
X57000D02*
X55576D01*
X55631Y69226D01*
X56069Y68569D01*
X56726Y68131D01*
X57000Y68076D01*
Y69500D01*
D02*
G37*
G36*
X195542Y53518D02*
Y50692D01*
X198367D01*
X198317Y51070D01*
X197978Y51888D01*
X197440Y52590D01*
X196737Y53129D01*
X195919Y53468D01*
X195542Y53518D01*
D02*
G37*
G36*
X21654Y77752D02*
X19470Y77609D01*
X17324Y77182D01*
X15252Y76479D01*
X13289Y75511D01*
X11470Y74295D01*
X9825Y72853D01*
X8382Y71207D01*
X7166Y69388D01*
X6198Y67425D01*
X5495Y65353D01*
X5068Y63207D01*
X4925Y61024D01*
X5068Y58840D01*
X5495Y56694D01*
X6198Y54622D01*
X7166Y52659D01*
X8382Y50840D01*
X9825Y49195D01*
X11470Y47752D01*
X13289Y46536D01*
X15252Y45568D01*
X17324Y44865D01*
X19470Y44438D01*
X21654Y44295D01*
X23837Y44438D01*
X25983Y44865D01*
X28055Y45568D01*
X30018Y46536D01*
X31837Y47752D01*
X33483Y49195D01*
X34925Y50840D01*
X36141Y52659D01*
X37109Y54622D01*
X37812Y56694D01*
X38239Y58840D01*
X38382Y61024D01*
X38239Y63207D01*
X37812Y65353D01*
X37109Y67425D01*
X36141Y69388D01*
X34925Y71207D01*
X33483Y72853D01*
X31837Y74295D01*
X30018Y75511D01*
X28055Y76479D01*
X25983Y77182D01*
X23837Y77609D01*
X21654Y77752D01*
D02*
G37*
G36*
X32337Y45649D02*
Y44225D01*
X33761D01*
X33707Y44499D01*
X33268Y45156D01*
X32612Y45594D01*
X32337Y45649D01*
D02*
G37*
G36*
X31337D02*
X31063Y45594D01*
X30407Y45156D01*
X29968Y44499D01*
X29914Y44225D01*
X31337D01*
Y45649D01*
D02*
G37*
G36*
X33761Y43225D02*
X32337D01*
Y41802D01*
X32612Y41856D01*
X33268Y42295D01*
X33707Y42951D01*
X33761Y43225D01*
D02*
G37*
G36*
X31337D02*
X29914D01*
X29968Y42951D01*
X30407Y42295D01*
X31063Y41856D01*
X31337Y41802D01*
Y43225D01*
D02*
G37*
G36*
X216378Y32671D02*
X215360Y32537D01*
X214412Y32145D01*
X213598Y31520D01*
X212973Y30706D01*
X212581Y29758D01*
X212447Y28740D01*
Y25197D01*
X212581Y24179D01*
X212973Y23231D01*
X213598Y22417D01*
X214412Y21792D01*
X215360Y21399D01*
X216378Y21266D01*
X217395Y21399D01*
X218344Y21792D01*
X219158Y22417D01*
X219782Y23231D01*
X220175Y24179D01*
X220309Y25197D01*
Y28740D01*
X220175Y29758D01*
X219782Y30706D01*
X219158Y31520D01*
X218344Y32145D01*
X217395Y32537D01*
X216378Y32671D01*
D02*
G37*
G36*
X16378D02*
X15360Y32537D01*
X14412Y32145D01*
X13598Y31520D01*
X12973Y30706D01*
X12581Y29758D01*
X12447Y28740D01*
Y25197D01*
X12581Y24179D01*
X12973Y23231D01*
X13598Y22417D01*
X14412Y21792D01*
X15360Y21399D01*
X16378Y21266D01*
X17395Y21399D01*
X18344Y21792D01*
X19158Y22417D01*
X19782Y23231D01*
X20175Y24179D01*
X20309Y25197D01*
Y28740D01*
X20175Y29758D01*
X19782Y30706D01*
X19158Y31520D01*
X18344Y32145D01*
X17395Y32537D01*
X16378Y32671D01*
D02*
G37*
G36*
X6378D02*
X5361Y32537D01*
X4412Y32145D01*
X3598Y31520D01*
X2973Y30706D01*
X2581Y29758D01*
X2447Y28740D01*
Y25197D01*
X2581Y24179D01*
X2973Y23231D01*
X3598Y22417D01*
X4412Y21792D01*
X5361Y21399D01*
X6378Y21266D01*
X7395Y21399D01*
X8344Y21792D01*
X9158Y22417D01*
X9782Y23231D01*
X10175Y24179D01*
X10309Y25197D01*
Y28740D01*
X10175Y29758D01*
X9782Y30706D01*
X9158Y31520D01*
X8344Y32145D01*
X7395Y32537D01*
X6378Y32671D01*
D02*
G37*
G36*
X20500Y20773D02*
Y19350D01*
X21924D01*
X21869Y19624D01*
X21431Y20280D01*
X20774Y20719D01*
X20500Y20773D01*
D02*
G37*
G36*
X19500D02*
X19226Y20719D01*
X18569Y20280D01*
X18131Y19624D01*
X18076Y19350D01*
X19500D01*
Y20773D01*
D02*
G37*
G36*
X21924Y18350D02*
X20500D01*
Y16926D01*
X20774Y16981D01*
X21431Y17419D01*
X21869Y18075D01*
X21924Y18350D01*
D02*
G37*
G36*
X19500D02*
X18076D01*
X18131Y18075D01*
X18569Y17419D01*
X19226Y16981D01*
X19500Y16926D01*
Y18350D01*
D02*
G37*
G36*
X196878Y13765D02*
Y8374D01*
X200563D01*
Y9646D01*
X200421Y10729D01*
X200003Y11738D01*
X199337Y12605D01*
X198471Y13270D01*
X197461Y13689D01*
X196878Y13765D01*
D02*
G37*
G36*
X226378Y13577D02*
X225360Y13443D01*
X224412Y13050D01*
X223598Y12426D01*
X222973Y11611D01*
X222581Y10663D01*
X222447Y9646D01*
Y6102D01*
X222581Y5085D01*
X222973Y4137D01*
X223598Y3322D01*
X224412Y2698D01*
X225360Y2305D01*
X226378Y2171D01*
X227395Y2305D01*
X228344Y2698D01*
X229158Y3322D01*
X229783Y4137D01*
X230175Y5085D01*
X230309Y6102D01*
Y9646D01*
X230175Y10663D01*
X229783Y11611D01*
X229158Y12426D01*
X228344Y13050D01*
X227395Y13443D01*
X226378Y13577D01*
D02*
G37*
G36*
X6378D02*
X5361Y13443D01*
X4412Y13050D01*
X3598Y12426D01*
X2973Y11611D01*
X2581Y10663D01*
X2447Y9646D01*
Y6102D01*
X2581Y5085D01*
X2973Y4137D01*
X3598Y3322D01*
X4412Y2698D01*
X5361Y2305D01*
X6378Y2171D01*
X7395Y2305D01*
X8344Y2698D01*
X9158Y3322D01*
X9782Y4137D01*
X10175Y5085D01*
X10309Y6102D01*
Y9646D01*
X10175Y10663D01*
X9782Y11611D01*
X9158Y12426D01*
X8344Y13050D01*
X7395Y13443D01*
X6378Y13577D01*
D02*
G37*
G36*
X183000Y231281D02*
Y229857D01*
X184424D01*
X184369Y230131D01*
X183931Y230787D01*
X183274Y231226D01*
X183000Y231281D01*
D02*
G37*
G36*
X182000D02*
X181726Y231226D01*
X181069Y230787D01*
X180631Y230131D01*
X180576Y229857D01*
X182000D01*
Y231281D01*
D02*
G37*
G36*
X184424Y228857D02*
X183000D01*
Y227433D01*
X183274Y227488D01*
X183931Y227926D01*
X184369Y228583D01*
X184424Y228857D01*
D02*
G37*
G36*
X182000D02*
X180576D01*
X180631Y228583D01*
X181069Y227926D01*
X181726Y227488D01*
X182000Y227433D01*
Y228857D01*
D02*
G37*
G36*
X195500Y202222D02*
Y200798D01*
X196924D01*
X196869Y201072D01*
X196431Y201729D01*
X195774Y202167D01*
X195500Y202222D01*
D02*
G37*
G36*
X194500D02*
X194226Y202167D01*
X193569Y201729D01*
X193131Y201072D01*
X193076Y200798D01*
X194500D01*
Y202222D01*
D02*
G37*
G36*
X196924Y199798D02*
X195500D01*
Y198375D01*
X195774Y198429D01*
X196431Y198868D01*
X196869Y199524D01*
X196924Y199798D01*
D02*
G37*
G36*
X194500D02*
X193076D01*
X193131Y199524D01*
X193569Y198868D01*
X194226Y198429D01*
X194500Y198375D01*
Y199798D01*
D02*
G37*
G36*
X91924Y186226D02*
X90500D01*
Y184803D01*
X90774Y184857D01*
X91431Y185296D01*
X91869Y185952D01*
X91924Y186226D01*
D02*
G37*
G36*
X89500D02*
X88076D01*
X88131Y185952D01*
X88569Y185296D01*
X89226Y184857D01*
X89500Y184803D01*
Y186226D01*
D02*
G37*
G36*
X72823Y174424D02*
Y173000D01*
X74247D01*
X74192Y173274D01*
X73753Y173931D01*
X73097Y174369D01*
X72823Y174424D01*
D02*
G37*
G36*
X71823D02*
X71549Y174369D01*
X70892Y173931D01*
X70454Y173274D01*
X70399Y173000D01*
X71823D01*
Y174424D01*
D02*
G37*
G36*
X74247Y172000D02*
X72823D01*
Y170576D01*
X73097Y170631D01*
X73753Y171069D01*
X74192Y171726D01*
X74247Y172000D01*
D02*
G37*
G36*
X71823D02*
X70399D01*
X70454Y171726D01*
X70892Y171069D01*
X71549Y170631D01*
X71823Y170576D01*
Y172000D01*
D02*
G37*
G36*
X74299Y139424D02*
Y138000D01*
X75722D01*
X75668Y138274D01*
X75229Y138931D01*
X74573Y139369D01*
X74299Y139424D01*
D02*
G37*
G36*
X73299D02*
X73024Y139369D01*
X72368Y138931D01*
X71930Y138274D01*
X71875Y138000D01*
X73299D01*
Y139424D01*
D02*
G37*
G36*
X75722Y137000D02*
X74299D01*
Y135576D01*
X74573Y135631D01*
X75229Y136069D01*
X75668Y136726D01*
X75722Y137000D01*
D02*
G37*
G36*
X73299D02*
X71875D01*
X71930Y136726D01*
X72368Y136069D01*
X73024Y135631D01*
X73299Y135576D01*
Y137000D01*
D02*
G37*
G36*
X148000Y99424D02*
Y98000D01*
X149424D01*
X149369Y98274D01*
X148931Y98931D01*
X148274Y99369D01*
X148000Y99424D01*
D02*
G37*
G36*
X147000D02*
X146726Y99369D01*
X146069Y98931D01*
X145631Y98274D01*
X145576Y98000D01*
X147000D01*
Y99424D01*
D02*
G37*
G36*
X149424Y97000D02*
X148000D01*
Y95576D01*
X148274Y95631D01*
X148931Y96069D01*
X149369Y96726D01*
X149424Y97000D01*
D02*
G37*
G36*
X147000D02*
X145576D01*
X145631Y96726D01*
X146069Y96069D01*
X146726Y95631D01*
X147000Y95576D01*
Y97000D01*
D02*
G37*
G36*
X141500Y95424D02*
Y94000D01*
X142924D01*
X142869Y94274D01*
X142431Y94931D01*
X141774Y95369D01*
X141500Y95424D01*
D02*
G37*
G36*
X140500D02*
X140226Y95369D01*
X139569Y94931D01*
X139131Y94274D01*
X139076Y94000D01*
X140500D01*
Y95424D01*
D02*
G37*
G36*
X142924Y93000D02*
X141500D01*
Y91576D01*
X141774Y91631D01*
X142431Y92069D01*
X142869Y92726D01*
X142924Y93000D01*
D02*
G37*
G36*
X140500D02*
X139076D01*
X139131Y92726D01*
X139569Y92069D01*
X140226Y91631D01*
X140500Y91576D01*
Y93000D01*
D02*
G37*
G36*
X142500Y72924D02*
Y71500D01*
X143924D01*
X143869Y71774D01*
X143431Y72431D01*
X142774Y72869D01*
X142500Y72924D01*
D02*
G37*
G36*
X141500D02*
X141226Y72869D01*
X140569Y72431D01*
X140131Y71774D01*
X140076Y71500D01*
X141500D01*
Y72924D01*
D02*
G37*
G36*
X143924Y70500D02*
X142500D01*
Y69076D01*
X142774Y69131D01*
X143431Y69569D01*
X143869Y70226D01*
X143924Y70500D01*
D02*
G37*
G36*
X141500D02*
X140076D01*
X140131Y70226D01*
X140569Y69569D01*
X141226Y69131D01*
X141500Y69076D01*
Y70500D01*
D02*
G37*
G36*
X145500Y66424D02*
Y65000D01*
X146924D01*
X146869Y65274D01*
X146431Y65931D01*
X145774Y66369D01*
X145500Y66424D01*
D02*
G37*
G36*
X144500D02*
X144226Y66369D01*
X143569Y65931D01*
X143131Y65274D01*
X143076Y65000D01*
X144500D01*
Y66424D01*
D02*
G37*
G36*
X146924Y64000D02*
X145500D01*
Y62576D01*
X145774Y62631D01*
X146431Y63069D01*
X146869Y63726D01*
X146924Y64000D01*
D02*
G37*
G36*
X144500D02*
X143076D01*
X143131Y63726D01*
X143569Y63069D01*
X144226Y62631D01*
X144500Y62576D01*
Y64000D01*
D02*
G37*
G36*
X149500Y41924D02*
Y40500D01*
X150924D01*
X150869Y40774D01*
X150431Y41431D01*
X149774Y41869D01*
X149500Y41924D01*
D02*
G37*
G36*
X148500D02*
X148226Y41869D01*
X147569Y41431D01*
X147131Y40774D01*
X147076Y40500D01*
X148500D01*
Y41924D01*
D02*
G37*
G36*
X139000Y40424D02*
Y39000D01*
X140424D01*
X140369Y39274D01*
X139931Y39931D01*
X139274Y40369D01*
X139000Y40424D01*
D02*
G37*
G36*
X138000D02*
X137726Y40369D01*
X137069Y39931D01*
X136631Y39274D01*
X136576Y39000D01*
X138000D01*
Y40424D01*
D02*
G37*
G36*
X150924Y39500D02*
X149500D01*
Y38076D01*
X149774Y38131D01*
X150431Y38569D01*
X150869Y39226D01*
X150924Y39500D01*
D02*
G37*
G36*
X148500D02*
X147076D01*
X147131Y39226D01*
X147569Y38569D01*
X148226Y38131D01*
X148500Y38076D01*
Y39500D01*
D02*
G37*
G36*
X140424Y38000D02*
X139000D01*
Y36576D01*
X139274Y36631D01*
X139931Y37069D01*
X140369Y37726D01*
X140424Y38000D01*
D02*
G37*
G36*
X138000D02*
X136576D01*
X136631Y37726D01*
X137069Y37069D01*
X137726Y36631D01*
X138000Y36576D01*
Y38000D01*
D02*
G37*
G36*
X102000Y95198D02*
X101726Y95143D01*
X101069Y94705D01*
X100631Y94048D01*
X100576Y93774D01*
X102000D01*
Y95198D01*
D02*
G37*
G36*
X104424Y92774D02*
X103000D01*
Y91351D01*
X103274Y91405D01*
X103931Y91844D01*
X104369Y92500D01*
X104424Y92774D01*
D02*
G37*
G36*
X102000D02*
X100576D01*
X100631Y92500D01*
X101069Y91844D01*
X101726Y91405D01*
X102000Y91351D01*
Y92774D01*
D02*
G37*
G36*
X101982Y72424D02*
Y71000D01*
X103406D01*
X103352Y71274D01*
X102913Y71931D01*
X102257Y72369D01*
X101982Y72424D01*
D02*
G37*
G36*
X100982D02*
X100708Y72369D01*
X100052Y71931D01*
X99613Y71274D01*
X99559Y71000D01*
X100982D01*
Y72424D01*
D02*
G37*
G36*
X103406Y70000D02*
X101982D01*
Y68576D01*
X102257Y68631D01*
X102913Y69069D01*
X103352Y69726D01*
X103406Y70000D01*
D02*
G37*
G36*
X100982D02*
X99559D01*
X99613Y69726D01*
X100052Y69069D01*
X100708Y68631D01*
X100982Y68576D01*
Y70000D01*
D02*
G37*
G36*
X103000Y63924D02*
Y62500D01*
X104424D01*
X104369Y62774D01*
X103931Y63431D01*
X103274Y63869D01*
X103000Y63924D01*
D02*
G37*
G36*
X102000D02*
X101726Y63869D01*
X101069Y63431D01*
X100631Y62774D01*
X100576Y62500D01*
X102000D01*
Y63924D01*
D02*
G37*
G36*
X104424Y61500D02*
X103000D01*
Y60076D01*
X103274Y60131D01*
X103931Y60569D01*
X104369Y61226D01*
X104424Y61500D01*
D02*
G37*
G36*
X102000D02*
X100576D01*
X100631Y61226D01*
X101069Y60569D01*
X101726Y60131D01*
X102000Y60076D01*
Y61500D01*
D02*
G37*
G36*
X110500Y94500D02*
X109076D01*
X109131Y94226D01*
X109569Y93569D01*
X110226Y93131D01*
X110500Y93076D01*
Y94500D01*
D02*
G37*
G36*
X111500Y71924D02*
Y70500D01*
X112924D01*
X112869Y70774D01*
X112431Y71431D01*
X111774Y71869D01*
X111500Y71924D01*
D02*
G37*
G36*
X112924Y69500D02*
X111500D01*
Y68076D01*
X111774Y68131D01*
X112431Y68569D01*
X112869Y69226D01*
X112924Y69500D01*
D02*
G37*
G36*
X158000Y100424D02*
Y99000D01*
X159424D01*
X159369Y99274D01*
X158931Y99931D01*
X158274Y100369D01*
X158000Y100424D01*
D02*
G37*
G36*
X157000D02*
X156726Y100369D01*
X156069Y99931D01*
X155631Y99274D01*
X155576Y99000D01*
X157000D01*
Y100424D01*
D02*
G37*
G36*
X159424Y98000D02*
X158000D01*
Y96576D01*
X158274Y96631D01*
X158931Y97069D01*
X159369Y97726D01*
X159424Y98000D01*
D02*
G37*
G36*
X157000D02*
X155576D01*
X155631Y97726D01*
X156069Y97069D01*
X156726Y96631D01*
X157000Y96576D01*
Y98000D01*
D02*
G37*
G36*
X158000Y68924D02*
Y67500D01*
X159424D01*
X159369Y67774D01*
X158931Y68431D01*
X158274Y68869D01*
X158000Y68924D01*
D02*
G37*
G36*
X157000D02*
X156726Y68869D01*
X156069Y68431D01*
X155631Y67774D01*
X155576Y67500D01*
X157000D01*
Y68924D01*
D02*
G37*
G36*
X159424Y66500D02*
X158000D01*
Y65076D01*
X158274Y65131D01*
X158931Y65569D01*
X159369Y66226D01*
X159424Y66500D01*
D02*
G37*
G36*
X157000D02*
X155576D01*
X155631Y66226D01*
X156069Y65569D01*
X156726Y65131D01*
X157000Y65076D01*
Y66500D01*
D02*
G37*
G36*
X159000Y60924D02*
X158726Y60869D01*
X158069Y60431D01*
X157631Y59774D01*
X157576Y59500D01*
X159000D01*
Y60924D01*
D02*
G37*
G36*
Y58500D02*
X157576D01*
X157631Y58226D01*
X158069Y57569D01*
X158726Y57131D01*
X159000Y57076D01*
Y58500D01*
D02*
G37*
G36*
X168000Y101293D02*
Y99869D01*
X169424D01*
X169369Y100143D01*
X168931Y100800D01*
X168274Y101238D01*
X168000Y101293D01*
D02*
G37*
G36*
X167000D02*
X166726Y101238D01*
X166069Y100800D01*
X165631Y100143D01*
X165576Y99869D01*
X167000D01*
Y101293D01*
D02*
G37*
G36*
X169424Y98869D02*
X168000D01*
Y97445D01*
X168274Y97500D01*
X168931Y97939D01*
X169369Y98595D01*
X169424Y98869D01*
D02*
G37*
G36*
X167000D02*
X165576D01*
X165631Y98595D01*
X166069Y97939D01*
X166726Y97500D01*
X167000Y97445D01*
Y98869D01*
D02*
G37*
G36*
X169000Y68924D02*
Y67500D01*
X170424D01*
X170369Y67774D01*
X169931Y68431D01*
X169274Y68869D01*
X169000Y68924D01*
D02*
G37*
G36*
X168000D02*
X167726Y68869D01*
X167069Y68431D01*
X166631Y67774D01*
X166576Y67500D01*
X168000D01*
Y68924D01*
D02*
G37*
G36*
X170424Y66500D02*
X169000D01*
Y65076D01*
X169274Y65131D01*
X169931Y65569D01*
X170369Y66226D01*
X170424Y66500D01*
D02*
G37*
G36*
X168000D02*
X166576D01*
X166631Y66226D01*
X167069Y65569D01*
X167726Y65131D01*
X168000Y65076D01*
Y66500D01*
D02*
G37*
G36*
X168500Y59924D02*
X168226Y59869D01*
X167569Y59431D01*
X167131Y58774D01*
X167076Y58500D01*
X168500D01*
Y59924D01*
D02*
G37*
G36*
X170924Y57500D02*
X169500D01*
Y56076D01*
X169774Y56131D01*
X170431Y56569D01*
X170869Y57226D01*
X170924Y57500D01*
D02*
G37*
G36*
X168500D02*
X167076D01*
X167131Y57226D01*
X167569Y56569D01*
X168226Y56131D01*
X168500Y56076D01*
Y57500D01*
D02*
G37*
G36*
X132558Y96924D02*
Y95500D01*
X133982D01*
X133927Y95774D01*
X133489Y96431D01*
X132833Y96869D01*
X132558Y96924D01*
D02*
G37*
G36*
X131558D02*
X131284Y96869D01*
X130628Y96431D01*
X130189Y95774D01*
X130135Y95500D01*
X131558D01*
Y96924D01*
D02*
G37*
G36*
X133982Y94500D02*
X132558D01*
Y93076D01*
X132833Y93131D01*
X133489Y93569D01*
X133927Y94226D01*
X133982Y94500D01*
D02*
G37*
G36*
X131558D02*
X130135D01*
X130189Y94226D01*
X130628Y93569D01*
X131284Y93131D01*
X131558Y93076D01*
Y94500D01*
D02*
G37*
G36*
X133000Y72924D02*
Y71500D01*
X134424D01*
X134369Y71774D01*
X133931Y72431D01*
X133274Y72869D01*
X133000Y72924D01*
D02*
G37*
G36*
X132000D02*
X131726Y72869D01*
X131069Y72431D01*
X130631Y71774D01*
X130576Y71500D01*
X132000D01*
Y72924D01*
D02*
G37*
G36*
X134424Y70500D02*
X133000D01*
Y69076D01*
X133274Y69131D01*
X133931Y69569D01*
X134369Y70226D01*
X134424Y70500D01*
D02*
G37*
G36*
X132000D02*
X130576D01*
X130631Y70226D01*
X131069Y69569D01*
X131726Y69131D01*
X132000Y69076D01*
Y70500D01*
D02*
G37*
G36*
X133000Y63424D02*
Y62000D01*
X134424D01*
X134369Y62274D01*
X133931Y62931D01*
X133274Y63369D01*
X133000Y63424D01*
D02*
G37*
G36*
X132000D02*
X131726Y63369D01*
X131069Y62931D01*
X130631Y62274D01*
X130576Y62000D01*
X132000D01*
Y63424D01*
D02*
G37*
G36*
X134424Y61000D02*
X133000D01*
Y59576D01*
X133274Y59631D01*
X133931Y60069D01*
X134369Y60726D01*
X134424Y61000D01*
D02*
G37*
G36*
X132000D02*
X130576D01*
X130631Y60726D01*
X131069Y60069D01*
X131726Y59631D01*
X132000Y59576D01*
Y61000D01*
D02*
G37*
G36*
X178000Y100924D02*
Y99500D01*
X179424D01*
X179369Y99774D01*
X178931Y100431D01*
X178274Y100869D01*
X178000Y100924D01*
D02*
G37*
G36*
X177000D02*
X176726Y100869D01*
X176069Y100431D01*
X175631Y99774D01*
X175576Y99500D01*
X177000D01*
Y100924D01*
D02*
G37*
G36*
X179424Y98500D02*
X178000D01*
Y97076D01*
X178274Y97131D01*
X178931Y97569D01*
X179369Y98226D01*
X179424Y98500D01*
D02*
G37*
G36*
X177000D02*
X175576D01*
X175631Y98226D01*
X176069Y97569D01*
X176726Y97131D01*
X177000Y97076D01*
Y98500D01*
D02*
G37*
G36*
X177500Y67424D02*
Y66000D01*
X178924D01*
X178869Y66274D01*
X178431Y66931D01*
X177774Y67369D01*
X177500Y67424D01*
D02*
G37*
G36*
X176500D02*
X176226Y67369D01*
X175569Y66931D01*
X175131Y66274D01*
X175076Y66000D01*
X176500D01*
Y67424D01*
D02*
G37*
G36*
X178924Y65000D02*
X177500D01*
Y63576D01*
X177774Y63631D01*
X178431Y64069D01*
X178869Y64726D01*
X178924Y65000D01*
D02*
G37*
G36*
X176500D02*
X175076D01*
X175131Y64726D01*
X175569Y64069D01*
X176226Y63631D01*
X176500Y63576D01*
Y65000D01*
D02*
G37*
G36*
X123500Y96924D02*
Y95500D01*
X124924D01*
X124869Y95774D01*
X124431Y96431D01*
X123774Y96869D01*
X123500Y96924D01*
D02*
G37*
G36*
X122500D02*
X122226Y96869D01*
X121569Y96431D01*
X121131Y95774D01*
X121076Y95500D01*
X122500D01*
Y96924D01*
D02*
G37*
G36*
X124924Y94500D02*
X123500D01*
Y93076D01*
X123774Y93131D01*
X124431Y93569D01*
X124869Y94226D01*
X124924Y94500D01*
D02*
G37*
G36*
X122500D02*
X121076D01*
X121131Y94226D01*
X121569Y93569D01*
X122226Y93131D01*
X122500Y93076D01*
Y94500D01*
D02*
G37*
G36*
X122000Y71924D02*
Y70500D01*
X123424D01*
X123369Y70774D01*
X122931Y71431D01*
X122274Y71869D01*
X122000Y71924D01*
D02*
G37*
G36*
X121000D02*
X120726Y71869D01*
X120069Y71431D01*
X119631Y70774D01*
X119576Y70500D01*
X121000D01*
Y71924D01*
D02*
G37*
G36*
X123424Y69500D02*
X122000D01*
Y68076D01*
X122274Y68131D01*
X122931Y68569D01*
X123369Y69226D01*
X123424Y69500D01*
D02*
G37*
G36*
X121000D02*
X119576D01*
X119631Y69226D01*
X120069Y68569D01*
X120726Y68131D01*
X121000Y68076D01*
Y69500D01*
D02*
G37*
G36*
X123000Y63424D02*
Y62000D01*
X124424D01*
X124369Y62274D01*
X123931Y62931D01*
X123274Y63369D01*
X123000Y63424D01*
D02*
G37*
G36*
X122000D02*
X121726Y63369D01*
X121069Y62931D01*
X120631Y62274D01*
X120576Y62000D01*
X122000D01*
Y63424D01*
D02*
G37*
G36*
X124424Y61000D02*
X123000D01*
Y59576D01*
X123274Y59631D01*
X123931Y60069D01*
X124369Y60726D01*
X124424Y61000D01*
D02*
G37*
G36*
X122000D02*
X120576D01*
X120631Y60726D01*
X121069Y60069D01*
X121726Y59631D01*
X122000Y59576D01*
Y61000D01*
D02*
G37*
G36*
X79500Y43924D02*
Y42500D01*
X80924D01*
X80869Y42774D01*
X80431Y43431D01*
X79774Y43869D01*
X79500Y43924D01*
D02*
G37*
G36*
X78500D02*
X78226Y43869D01*
X77569Y43431D01*
X77131Y42774D01*
X77076Y42500D01*
X78500D01*
Y43924D01*
D02*
G37*
G36*
X185878Y13765D02*
X185295Y13689D01*
X184285Y13270D01*
X183418Y12605D01*
X182753Y11738D01*
X182335Y10729D01*
X182193Y9646D01*
Y8374D01*
X185878D01*
Y13765D01*
D02*
G37*
G36*
X176378Y13577D02*
X175361Y13443D01*
X174412Y13050D01*
X173598Y12426D01*
X172973Y11611D01*
X172581Y10663D01*
X172447Y9646D01*
Y6102D01*
X172581Y5085D01*
X172973Y4137D01*
X173598Y3322D01*
X174412Y2698D01*
X175361Y2305D01*
X176378Y2171D01*
X177395Y2305D01*
X178344Y2698D01*
X179158Y3322D01*
X179782Y4137D01*
X180175Y5085D01*
X180309Y6102D01*
Y9646D01*
X180175Y10663D01*
X179782Y11611D01*
X179158Y12426D01*
X178344Y13050D01*
X177395Y13443D01*
X176378Y13577D01*
D02*
G37*
G36*
X166378D02*
X165360Y13443D01*
X164412Y13050D01*
X163598Y12426D01*
X162973Y11611D01*
X162581Y10663D01*
X162447Y9646D01*
Y6102D01*
X162581Y5085D01*
X162973Y4137D01*
X163598Y3322D01*
X164412Y2698D01*
X165360Y2305D01*
X166378Y2171D01*
X167395Y2305D01*
X168344Y2698D01*
X169158Y3322D01*
X169782Y4137D01*
X170175Y5085D01*
X170309Y6102D01*
Y9646D01*
X170175Y10663D01*
X169782Y11611D01*
X169158Y12426D01*
X168344Y13050D01*
X167395Y13443D01*
X166378Y13577D01*
D02*
G37*
G36*
X156378D02*
X155360Y13443D01*
X154412Y13050D01*
X153598Y12426D01*
X152973Y11611D01*
X152581Y10663D01*
X152447Y9646D01*
Y6102D01*
X152581Y5085D01*
X152973Y4137D01*
X153598Y3322D01*
X154412Y2698D01*
X155360Y2305D01*
X156378Y2171D01*
X157395Y2305D01*
X158344Y2698D01*
X159158Y3322D01*
X159783Y4137D01*
X160175Y5085D01*
X160309Y6102D01*
Y9646D01*
X160175Y10663D01*
X159783Y11611D01*
X159158Y12426D01*
X158344Y13050D01*
X157395Y13443D01*
X156378Y13577D01*
D02*
G37*
G36*
X146378D02*
X145361Y13443D01*
X144412Y13050D01*
X143598Y12426D01*
X142973Y11611D01*
X142581Y10663D01*
X142447Y9646D01*
Y6102D01*
X142581Y5085D01*
X142973Y4137D01*
X143598Y3322D01*
X144412Y2698D01*
X145361Y2305D01*
X146378Y2171D01*
X147395Y2305D01*
X148344Y2698D01*
X149158Y3322D01*
X149783Y4137D01*
X150175Y5085D01*
X150309Y6102D01*
Y9646D01*
X150175Y10663D01*
X149783Y11611D01*
X149158Y12426D01*
X148344Y13050D01*
X147395Y13443D01*
X146378Y13577D01*
D02*
G37*
G36*
X136378D02*
X135361Y13443D01*
X134412Y13050D01*
X133598Y12426D01*
X132973Y11611D01*
X132581Y10663D01*
X132447Y9646D01*
Y6102D01*
X132581Y5085D01*
X132973Y4137D01*
X133598Y3322D01*
X134412Y2698D01*
X135361Y2305D01*
X136378Y2171D01*
X137395Y2305D01*
X138344Y2698D01*
X139158Y3322D01*
X139783Y4137D01*
X140175Y5085D01*
X140309Y6102D01*
Y9646D01*
X140175Y10663D01*
X139783Y11611D01*
X139158Y12426D01*
X138344Y13050D01*
X137395Y13443D01*
X136378Y13577D01*
D02*
G37*
G36*
X116378D02*
X115360Y13443D01*
X114412Y13050D01*
X113598Y12426D01*
X112973Y11611D01*
X112581Y10663D01*
X112447Y9646D01*
Y6102D01*
X112581Y5085D01*
X112973Y4137D01*
X113598Y3322D01*
X114412Y2698D01*
X115360Y2305D01*
X116378Y2171D01*
X117395Y2305D01*
X118344Y2698D01*
X119158Y3322D01*
X119782Y4137D01*
X120175Y5085D01*
X120309Y6102D01*
Y9646D01*
X120175Y10663D01*
X119782Y11611D01*
X119158Y12426D01*
X118344Y13050D01*
X117395Y13443D01*
X116378Y13577D01*
D02*
G37*
G36*
X185878Y7374D02*
X182193D01*
Y6102D01*
X182335Y5019D01*
X182753Y4010D01*
X183418Y3143D01*
X184285Y2478D01*
X185295Y2060D01*
X185878Y1983D01*
Y7374D01*
D02*
G37*
%LPD*%
D46*
X52500Y195000D02*
X92500D01*
X52349Y195151D02*
X52500Y195000D01*
X37500Y135000D02*
Y162500D01*
X45000Y132500D02*
Y150000D01*
X176299Y218155D02*
Y219370D01*
X153538Y195394D02*
X176299Y218155D01*
X92500Y195000D02*
X144393D01*
X144787Y195394D01*
X153538D01*
X193798Y123385D02*
Y146064D01*
X192913Y122500D02*
X193798Y123385D01*
X41200Y202000D02*
X41735D01*
X48584Y195151D01*
X52349D01*
X184677Y122500D02*
X192913D01*
X184047Y121870D02*
X184677Y122500D01*
X51574Y121870D02*
X184047D01*
X42651Y112946D02*
X51574Y121870D01*
X45000Y150000D02*
Y167500D01*
X195042Y50192D02*
Y80347D01*
X192913Y82475D02*
X195042Y80347D01*
X192913Y82475D02*
Y112500D01*
X42500Y110000D02*
X42651Y110151D01*
Y112946D01*
X45000Y150000D02*
X52500D01*
X192913Y112500D02*
Y122500D01*
D47*
X210153Y173619D02*
X211119D01*
X220000Y182500D01*
X253701Y171211D02*
X253807D01*
X254880Y172283D01*
X255180D02*
X257249Y174352D01*
X254880Y172283D02*
X255180D01*
X252500Y204215D02*
Y219587D01*
Y204215D02*
X257249Y199466D01*
X220000Y182500D02*
Y219587D01*
X257249Y174352D02*
Y199466D01*
X117500Y152717D02*
Y187284D01*
X192913Y112500D02*
X205000D01*
D48*
X157500Y160000D02*
X165806Y151694D01*
X157500Y160000D02*
Y172500D01*
X165806Y151694D02*
X215806D01*
X220000Y178658D02*
X220778Y179436D01*
X209493Y184052D02*
Y184265D01*
X208558Y183116D02*
X209493Y184052D01*
X208558Y182773D02*
Y183116D01*
X197419Y182773D02*
X208558D01*
X209098Y177857D02*
X214912Y183670D01*
X212500Y183987D02*
Y190000D01*
X196727Y183465D02*
X197419Y182773D01*
X185177Y164846D02*
X198095D01*
X196727Y183465D02*
Y188748D01*
X198095Y164846D02*
X209177Y175928D01*
X208299Y179786D02*
X212500Y183987D01*
X214912Y183670D02*
Y200298D01*
X209177Y175928D02*
X209897D01*
X197956Y167435D02*
X208378Y177857D01*
X202286Y179786D02*
X208299D01*
X175065Y167435D02*
X197956D01*
X209897Y175928D02*
X217500Y183530D01*
X208378Y177857D02*
X209098D01*
X192258Y169758D02*
X202286Y179786D01*
X217500Y183530D02*
Y192500D01*
X200000Y192020D02*
Y203500D01*
X196727Y188748D02*
X200000Y192020D01*
Y185785D02*
X209554Y195338D01*
X192500Y187805D02*
X196727Y192033D01*
Y192033D01*
X194000Y209500D02*
X200000Y203500D01*
X192500Y177500D02*
Y187805D01*
X209554Y195338D02*
Y212703D01*
X194000Y209500D02*
Y252500D01*
X204000D02*
Y258000D01*
X202500Y259500D02*
X204000Y258000D01*
X190008Y259500D02*
X202500D01*
X158500Y227992D02*
X190008Y259500D01*
X191047Y249547D02*
X194000Y252500D01*
X247500Y174030D02*
Y184038D01*
Y190000D01*
X251181Y118736D02*
Y172254D01*
Y118736D02*
X259917Y110000D01*
X249252Y115748D02*
Y173053D01*
Y115748D02*
X255000Y110000D01*
X242500Y187500D02*
X245000Y185000D01*
X232500Y187500D02*
X242500D01*
X152500Y167500D02*
X155177Y164823D01*
Y130551D02*
Y164823D01*
Y130551D02*
X158051Y127677D01*
X247323Y112677D02*
Y173852D01*
Y112677D02*
X250000Y110000D01*
X237537Y174252D02*
X247323Y184038D01*
X223087Y174252D02*
X237537D01*
X209406Y160571D02*
X223087Y174252D01*
X184940Y160571D02*
X209406D01*
X249607Y194394D02*
Y194607D01*
Y194394D02*
X249823Y194179D01*
Y176781D02*
Y194179D01*
X260447Y182053D02*
X267500Y175000D01*
X260447Y182053D02*
Y199554D01*
X255177Y204823D02*
X260447Y199554D01*
X255177Y204823D02*
Y220473D01*
X253544Y222106D02*
X255177Y220473D01*
X218956Y222106D02*
X253544D01*
X209554Y212703D02*
X218956Y222106D01*
X140000Y190000D02*
X142107Y187892D01*
X82500Y190000D02*
X140000D01*
X130000Y103740D02*
X136988Y96752D01*
Y46369D02*
Y96752D01*
X121890Y31271D02*
X136988Y46369D01*
X121890Y14134D02*
Y31271D01*
X95000Y162716D02*
X114784Y182500D01*
X95000Y157500D02*
Y162716D01*
X251181Y172254D02*
X251732Y172806D01*
X249252Y173053D02*
X249803Y173605D01*
X247323Y173852D02*
X247500Y174030D01*
X147500Y127677D02*
X151077Y131255D01*
Y156077D01*
X150684Y157500D02*
X150834Y157349D01*
Y156321D02*
X151077Y156077D01*
X150834Y156321D02*
Y157349D01*
X142500Y129072D02*
X143895Y127677D01*
X142500Y167500D02*
X153007Y178007D01*
X142500Y129072D02*
Y167500D01*
X139681Y132028D02*
X139779Y132126D01*
Y167508D01*
X154772Y182500D01*
X131949Y131108D02*
X132087D01*
X132778Y131800D01*
Y151356D01*
X123002Y237500D02*
X143002D01*
X117500Y231998D02*
X123002Y237500D01*
X143002D02*
X155502Y225000D01*
X151929Y223071D02*
X178509D01*
X143002Y231998D02*
X151929Y223071D01*
X142500Y231998D02*
X143002D01*
X178509Y223071D02*
X180000Y221580D01*
Y177500D02*
Y221580D01*
Y225000D02*
X182500Y222500D01*
X155502Y225000D02*
X180000D01*
X182500Y174249D02*
Y222500D01*
X172500Y170000D02*
X180000Y177500D01*
X178008Y169758D02*
X182500Y174249D01*
X174960Y175188D02*
X177500Y177728D01*
X160188Y175188D02*
X174960D01*
X177500Y177728D02*
Y185000D01*
X153007Y178007D02*
X174493D01*
X67500Y231998D02*
Y232500D01*
X70000Y235000D02*
X102500D01*
X67500Y232500D02*
X70000Y235000D01*
X92500Y231998D02*
X102217D01*
X134606Y199609D01*
X102500Y235000D02*
X137500Y200000D01*
X145000Y187500D02*
X149587Y192087D01*
X170413D02*
X177500Y185000D01*
X149587Y192087D02*
X170413D01*
X178008Y169758D02*
X192258D01*
X257500Y207500D02*
Y220878D01*
X253378Y225000D02*
X257500Y220878D01*
X197500Y225000D02*
X253378D01*
X250930Y202500D02*
X254926Y198504D01*
Y176084D02*
Y198504D01*
X228960Y202500D02*
X250930D01*
X225787Y200000D02*
X250000D01*
X223288Y197500D02*
X225787Y200000D01*
X250000Y197500D02*
X252500Y195000D01*
X235000Y197500D02*
X250000D01*
X254055Y175000D02*
Y175213D01*
X254926Y176084D01*
X223740Y207720D02*
X228960Y202500D01*
X170182Y158248D02*
X185345D01*
X159823Y168607D02*
X170182Y158248D01*
X223886Y172323D02*
X226392D01*
X227597Y171117D01*
X227810D01*
X166181Y156319D02*
X186144D01*
X160000Y162500D02*
X166181Y156319D01*
X267500Y180000D02*
X269823Y177677D01*
Y168622D02*
Y177677D01*
X172500Y170000D02*
X175065Y167435D01*
X255000Y153799D02*
X269823Y168622D01*
X267500Y190000D02*
X271752Y185748D01*
Y165665D02*
Y185748D01*
X259886Y153799D02*
X271752Y165665D01*
X267500Y195000D02*
X273681Y188819D01*
Y162480D02*
Y188819D01*
X265000Y153799D02*
X273681Y162480D01*
X210205Y158642D02*
X223886Y172323D01*
X187500Y172500D02*
X192500Y177500D01*
X182500Y162500D02*
X207500D01*
X220000Y175000D01*
X171538Y160177D02*
X184546D01*
X160000Y171715D02*
X171538Y160177D01*
X186538Y156713D02*
X211713D01*
X186144Y156319D02*
X186538Y156713D01*
X185345Y158248D02*
X185739Y158642D01*
X184546Y160177D02*
X184940Y160571D01*
X185739Y158642D02*
X210205D01*
X187500Y154390D02*
X222346D01*
X215806Y151694D02*
X222500Y145000D01*
X215007Y149765D02*
X223576Y141195D01*
X192265Y149765D02*
X215007D01*
X190097Y147597D02*
X192265Y149765D01*
X222346Y154390D02*
X227956Y160000D01*
X190097Y132597D02*
Y147597D01*
X222500Y145000D02*
X235748D01*
X240000Y140748D01*
X227956Y160000D02*
X232956Y165000D01*
X211713Y156713D02*
X225000Y170000D01*
X220000Y175000D02*
Y178658D01*
X50000Y172500D02*
X55000Y167500D01*
X25000Y172500D02*
X50000D01*
X5000Y152500D02*
X25000Y172500D01*
X160000Y171715D02*
X160000D01*
X252500Y185128D02*
Y195000D01*
X249803Y176761D02*
X249823Y176781D01*
X230000Y192500D02*
X235000Y197500D01*
X251732Y172806D02*
Y175962D01*
X252500Y176730D01*
X249803Y173605D02*
Y176761D01*
X252500Y176730D02*
Y180000D01*
X217434Y192566D02*
Y194849D01*
Y192566D02*
X217500Y192500D01*
X217284Y195000D02*
X217434Y194849D01*
X238827Y165000D02*
X242500Y161327D01*
X232956Y165000D02*
X238827D01*
X157500Y172500D02*
X160188Y175188D01*
X154772Y182500D02*
X175000D01*
X223576Y141195D02*
X230000D01*
X227500Y52500D02*
Y134544D01*
X219681Y142362D02*
X227500Y134544D01*
X204882Y142362D02*
X219681D01*
X204784Y142461D02*
X204882Y142362D01*
X137358Y157402D02*
X137457Y157500D01*
X137358Y131065D02*
Y157402D01*
Y131065D02*
X137988Y130436D01*
Y127500D02*
Y130436D01*
X27323Y125177D02*
X182677D01*
X190097Y132597D01*
X149842Y118189D02*
X185158D01*
X150641Y116260D02*
X184359D01*
X70000Y142067D02*
Y167500D01*
X137457Y162500D02*
X137500Y162543D01*
X149822Y118169D02*
X149842Y118189D01*
X122550Y118169D02*
X149822D01*
X150621Y116240D02*
X150641Y116260D01*
X146968Y116240D02*
X150621D01*
X142500Y111772D02*
X146968Y116240D01*
X117500Y113119D02*
X122550Y118169D01*
X137500Y162543D02*
Y171356D01*
X132500Y151635D02*
X132778Y151356D01*
X132500Y151635D02*
Y172500D01*
X142500Y182500D01*
X127500Y127500D02*
Y162500D01*
X15000Y137500D02*
X27323Y125177D01*
X58012Y114658D02*
X59593Y116240D01*
X105709Y118563D02*
X112500Y111772D01*
X59593Y116240D02*
X60000D01*
X47500Y113119D02*
X52944Y118563D01*
X105709D01*
X72323Y145390D02*
Y163665D01*
Y145390D02*
X72713Y145000D01*
X67500Y137500D02*
X70000Y135000D01*
X67500Y137500D02*
Y182500D01*
X92500Y148071D02*
X102500Y138071D01*
X92500Y148071D02*
Y177500D01*
X97500Y187500D02*
X102500D01*
X90000Y162500D02*
Y180000D01*
X97500Y187500D01*
X104308Y177500D02*
Y184272D01*
X104823Y184787D01*
Y185000D01*
X19507Y162349D02*
X19657Y162500D01*
X19507Y161259D02*
Y162349D01*
X10000Y151752D02*
X19507Y161259D01*
X5000Y110525D02*
Y152500D01*
X145000Y178857D02*
Y187500D01*
X137500Y171356D02*
X145000Y178857D01*
X48799Y135000D02*
X51299D01*
X55927Y130372D01*
X58012Y96181D02*
Y114658D01*
Y96181D02*
X90000Y64193D01*
X57500Y45036D02*
Y53119D01*
X62570Y58189D01*
X16378Y6102D02*
Y7874D01*
Y6102D02*
X20866Y1614D01*
X86083Y58189D02*
X92500Y51772D01*
X62570Y58189D02*
X86083D01*
X70000Y177500D02*
X82500Y190000D01*
X57500Y187500D02*
X65000Y180000D01*
Y132695D02*
Y180000D01*
X120000Y177500D02*
X120217Y177717D01*
X120000Y170000D02*
Y177500D01*
Y170000D02*
X127500Y162500D01*
X10000Y80000D02*
Y151752D01*
X2500Y72500D02*
X10000Y80000D01*
X2500Y52618D02*
Y72500D01*
X26378Y26969D02*
Y28740D01*
X2500Y52618D02*
X26378Y28740D01*
X43867Y106133D02*
X47500Y109766D01*
X17334Y125163D02*
X36364Y106133D01*
X43867D01*
X13248Y137500D02*
X15000D01*
X127500Y46236D02*
Y103228D01*
X122500Y108228D02*
X127500Y103228D01*
X111890Y30626D02*
X127500Y46236D01*
X122500Y108228D02*
Y110000D01*
X126378Y7874D02*
Y9646D01*
X121890Y14134D02*
X126378Y9646D01*
X138377Y16850D02*
X174379D01*
X146378Y26969D02*
Y28622D01*
X131890Y23338D02*
Y30599D01*
X134519Y33228D01*
X141772D01*
X146378Y28622D01*
X131890Y23338D02*
X138377Y16850D01*
X136378Y25197D02*
Y26969D01*
X166308Y18779D02*
X171890Y24361D01*
X141768Y19807D02*
X152692D01*
X136378Y25197D02*
X141768Y19807D01*
X157500Y40724D02*
Y54823D01*
X166378Y25197D02*
Y26969D01*
X161890Y20709D02*
X166378Y25197D01*
X159291Y20709D02*
X161890D01*
X158237D02*
X158275Y20747D01*
X159253D01*
X159291Y20709D01*
X151890Y23338D02*
X154519Y20709D01*
X152692Y19807D02*
X153720Y18779D01*
X154519Y20709D02*
X158237D01*
X153720Y18779D02*
X166308D01*
X151890Y35114D02*
X157500Y40724D01*
X174379Y16850D02*
X180866Y23338D01*
X151890D02*
Y35114D01*
X152500Y59823D02*
X157500Y54823D01*
X156378Y26969D02*
Y28740D01*
X167500Y39862D01*
Y53119D01*
X162500Y58119D02*
X167500Y53119D01*
X171890Y30688D02*
X177500Y36298D01*
X171890Y24361D02*
Y30688D01*
X172500Y59577D02*
Y110000D01*
Y59577D02*
X177500Y54577D01*
Y36298D02*
Y54577D01*
X195000Y45000D02*
X210000D01*
X190847Y49154D02*
Y55229D01*
Y49154D02*
X195000Y45000D01*
X180866Y23338D02*
Y30000D01*
X186988Y36122D01*
X188917Y33247D02*
X190866Y31298D01*
X189606Y56469D02*
Y113741D01*
X187677Y55670D02*
Y112942D01*
Y55670D02*
X188917Y54430D01*
X182500Y58119D02*
X186988Y53631D01*
X189606Y56469D02*
X190847Y55229D01*
X188917Y33247D02*
Y54430D01*
X186988Y36122D02*
Y53631D01*
X184359Y116260D02*
X187677Y112942D01*
X194519Y1614D02*
X201999D01*
X190866Y5267D02*
X194519Y1614D01*
X190866Y5267D02*
Y31298D01*
X146378Y25197D02*
Y26969D01*
X162500Y58119D02*
Y110000D01*
X75372Y130372D02*
X90000Y145000D01*
X55927Y130372D02*
X75372D01*
X47500Y109766D02*
Y113119D01*
X90000Y145000D02*
Y162500D01*
X96378Y7874D02*
Y9646D01*
X101732Y15000D01*
X105461D01*
X5000Y110525D02*
X7500Y108025D01*
X66383Y16452D02*
X70000D01*
X66378Y16457D02*
X66383Y16452D01*
X70000D02*
X71540Y17992D01*
X185158Y118189D02*
X189606Y113741D01*
X210000Y45000D02*
X217500Y52500D01*
X182500Y58119D02*
Y110000D01*
X110641Y103740D02*
X114359D01*
X117500Y106881D01*
Y113119D01*
X105161Y116260D02*
X108012Y113409D01*
Y106369D02*
Y113409D01*
Y106369D02*
X110641Y103740D01*
X62500Y111772D02*
X66988Y116260D01*
X105161D01*
X62500Y110000D02*
Y111772D01*
X112500Y110000D02*
Y111772D01*
X58665Y14702D02*
Y15680D01*
X60866Y4243D02*
Y12500D01*
X58665Y14702D02*
X60866Y12500D01*
X58665Y15680D02*
X61764Y18779D01*
X56378Y7874D02*
Y16176D01*
X69165Y18779D02*
X70306Y19921D01*
X56378Y16176D02*
X58982Y18779D01*
X57441Y20709D02*
X58237D01*
X61890Y24361D01*
X58982Y18779D02*
X59036D01*
X61890Y24361D02*
Y30599D01*
X46378Y7874D02*
Y9646D01*
X59036Y18779D02*
X60965Y20709D01*
X46378Y9646D02*
X57441Y20709D01*
X61764Y18779D02*
X69165D01*
X60965Y20709D02*
X68237D01*
X71890Y24361D01*
X58237Y1614D02*
X60866Y4243D01*
X71890Y24361D02*
Y30599D01*
X66378Y7874D02*
Y9646D01*
X77450Y19921D02*
X80866Y23338D01*
X79173Y17992D02*
X86378Y25197D01*
X72795Y16063D02*
X83591D01*
X74519Y14134D02*
X85315D01*
X71048Y4681D02*
Y10663D01*
X70306Y19921D02*
X77450D01*
X66378Y9646D02*
X72795Y16063D01*
X85315Y14134D02*
X96378Y25197D01*
X71048Y10663D02*
X74519Y14134D01*
X86378Y25197D02*
Y26969D01*
X71540Y17992D02*
X79173D01*
X83591Y16063D02*
X91890Y24361D01*
X80866Y23338D02*
Y29576D01*
X20866Y1614D02*
X58237D01*
X105461Y17933D02*
X111890Y24361D01*
X91890Y11505D02*
X98318Y17933D01*
X91890Y5267D02*
Y11505D01*
X98318Y17933D02*
X105461D01*
X80866Y1614D02*
X88237D01*
X91890Y5267D01*
X96378Y25197D02*
Y26969D01*
X111890Y24361D02*
Y30626D01*
X80866Y29576D02*
X88102Y36811D01*
X100866Y29576D02*
X117500Y46209D01*
X86378Y8850D02*
X100866Y23338D01*
Y29576D01*
X61890Y30599D02*
X72500Y41210D01*
X51890Y24361D02*
Y31271D01*
X36378Y8850D02*
X51890Y24361D01*
X36378Y7874D02*
Y8850D01*
X71890Y30599D02*
X80031Y38740D01*
X26378Y8850D02*
X40866Y23338D01*
X88102Y36811D02*
X91083D01*
X102500Y48228D01*
Y50000D01*
X72500Y41210D02*
Y50000D01*
X51890Y31271D02*
X66988Y46369D01*
Y52607D01*
X70641Y56260D01*
X78012D01*
X82500Y51772D01*
Y50000D02*
Y51772D01*
X91890Y24361D02*
Y30599D01*
X107500Y46209D01*
Y93228D01*
X92500Y108228D02*
X107500Y93228D01*
X92500Y108228D02*
Y110000D01*
X40866Y23338D02*
Y29576D01*
X48596Y37306D01*
X49770D01*
X57500Y45036D01*
X92500Y50000D02*
Y51772D01*
X117500Y46209D02*
Y93228D01*
X102500Y108228D02*
X117500Y93228D01*
X102500Y108228D02*
Y110000D01*
X142500D02*
Y111772D01*
X80031Y38740D02*
X89359D01*
X97500Y46881D01*
Y93228D01*
X82500Y108228D02*
X97500Y93228D01*
X82500Y108228D02*
Y110000D01*
X156378Y25197D02*
Y26969D01*
X152500Y59823D02*
Y110000D01*
X26378Y7874D02*
Y8850D01*
X86378Y7874D02*
Y8850D01*
X226378Y25993D02*
Y26969D01*
X201999Y1614D02*
X226378Y25993D01*
X76378Y6102D02*
Y7874D01*
Y6102D02*
X80866Y1614D01*
D49*
X227500Y52500D02*
D03*
X41200Y242000D02*
D03*
X41200Y232000D02*
D03*
X41200Y202000D02*
D03*
Y212000D02*
D03*
X41200Y222000D02*
D03*
D50*
X217500Y52500D02*
D03*
D51*
X182500Y110000D02*
D03*
X172500D02*
D03*
X162500D02*
D03*
X152500D02*
D03*
X142500D02*
D03*
X132500D02*
D03*
X122500D02*
D03*
X112500D02*
D03*
X102500D02*
D03*
X92500D02*
D03*
X82500D02*
D03*
X72500D02*
D03*
X62500D02*
D03*
X52500D02*
D03*
X182500Y50000D02*
D03*
X172500D02*
D03*
X162500D02*
D03*
X152500D02*
D03*
X142500D02*
D03*
X132500D02*
D03*
X122500D02*
D03*
X112500D02*
D03*
X102500D02*
D03*
X92500D02*
D03*
X82500D02*
D03*
X72500D02*
D03*
X62500D02*
D03*
D52*
X52500D02*
D03*
D53*
X222000Y260000D02*
D03*
X239717D02*
D03*
D54*
X217059Y250197D02*
D03*
X244657Y250500D02*
D03*
D55*
X171500Y252500D02*
D03*
X204000D02*
D03*
D56*
X161500D02*
D03*
X194000D02*
D03*
D57*
X6378Y7874D02*
D03*
X226378D02*
D03*
X216378D02*
D03*
X196378D02*
D03*
X186378D02*
D03*
X176378D02*
D03*
X166378D02*
D03*
X156378D02*
D03*
X146378D02*
D03*
X136378D02*
D03*
X126378D02*
D03*
X116378D02*
D03*
X106378D02*
D03*
X96378D02*
D03*
X86378D02*
D03*
X76378D02*
D03*
X66378D02*
D03*
X56378D02*
D03*
X46378D02*
D03*
X36378D02*
D03*
X26378D02*
D03*
X16378D02*
D03*
X226378Y26969D02*
D03*
X156378D02*
D03*
X146378D02*
D03*
X136378D02*
D03*
X126378D02*
D03*
X116378D02*
D03*
X106378D02*
D03*
X96378D02*
D03*
X86378D02*
D03*
X76378D02*
D03*
X66378D02*
D03*
X56378D02*
D03*
X46378D02*
D03*
X36378D02*
D03*
X26378D02*
D03*
X16378D02*
D03*
X166378D02*
D03*
X176378D02*
D03*
X186378D02*
D03*
X196378D02*
D03*
X216378D02*
D03*
X6378D02*
D03*
D58*
X41200Y192000D02*
D03*
D59*
X92500Y195000D02*
D03*
X37500Y135000D02*
D03*
X45000Y132500D02*
D03*
X176299Y219370D02*
D03*
X145000Y195394D02*
D03*
X193798Y146064D02*
D03*
X52500Y195000D02*
D03*
X45000Y167500D02*
D03*
X37500Y162500D02*
D03*
X195042Y50192D02*
D03*
X42500Y110000D02*
D03*
X52500Y150000D02*
D03*
D60*
X197500Y219397D02*
D03*
X158500Y155000D02*
D03*
X220778Y179436D02*
D03*
X209493Y184265D02*
D03*
X210153Y173619D02*
D03*
X198635Y180000D02*
D03*
X200000Y185785D02*
D03*
X196727Y192033D02*
D03*
X195000Y200298D02*
D03*
X158500Y227992D02*
D03*
X182500Y229357D02*
D03*
X269685Y75000D02*
D03*
X81000Y122000D02*
D03*
X79000Y42000D02*
D03*
X102500Y93274D02*
D03*
X101482Y70500D02*
D03*
X102500Y62000D02*
D03*
X94500Y101000D02*
D03*
X132058Y95000D02*
D03*
X157500Y98500D02*
D03*
X167500Y99369D02*
D03*
X177500Y99000D02*
D03*
X177000Y65500D02*
D03*
X169000Y58000D02*
D03*
X168500Y67000D02*
D03*
X159500Y59000D02*
D03*
X157500Y67000D02*
D03*
X149000Y40000D02*
D03*
X138500Y38500D02*
D03*
X145000Y64500D02*
D03*
X142000Y71000D02*
D03*
X132500Y61500D02*
D03*
Y71000D02*
D03*
X122500Y61500D02*
D03*
X121500Y70000D02*
D03*
X111000D02*
D03*
Y95000D02*
D03*
X123000D02*
D03*
X141000Y93500D02*
D03*
X160000Y122000D02*
D03*
X235000Y121000D02*
D03*
X191000D02*
D03*
X222000Y111500D02*
D03*
X265000Y122000D02*
D03*
X223000Y135000D02*
D03*
X235000Y132500D02*
D03*
X242500Y153799D02*
D03*
X245000Y172500D02*
D03*
X150684Y157500D02*
D03*
X97500Y181251D02*
D03*
X90000Y186726D02*
D03*
X72323Y172500D02*
D03*
X73799Y137500D02*
D03*
X147500Y97500D02*
D03*
X55000Y90000D02*
D03*
X63517Y99609D02*
D03*
X81482Y92500D02*
D03*
X57500Y70000D02*
D03*
X31837Y90764D02*
D03*
X17382Y95000D02*
D03*
X5735Y93453D02*
D03*
X28019Y80500D02*
D03*
X31837Y43725D02*
D03*
X20000Y18850D02*
D03*
X131949Y131108D02*
D03*
X117500Y231998D02*
D03*
X142500D02*
D03*
X174493Y178007D02*
D03*
X67500Y231998D02*
D03*
X134606Y199609D02*
D03*
X137500Y200000D02*
D03*
X92500Y231998D02*
D03*
X212500Y190000D02*
D03*
X197500Y225000D02*
D03*
X257500Y207500D02*
D03*
X250000Y200000D02*
D03*
X267500Y175000D02*
D03*
X227810Y171117D02*
D03*
X187500Y172500D02*
D03*
X185177Y164846D02*
D03*
X178008Y169758D02*
D03*
X182500Y162500D02*
D03*
X172500Y170000D02*
D03*
X187500Y154390D02*
D03*
X55000Y167500D02*
D03*
X252480Y185128D02*
D03*
X249607Y194607D02*
D03*
X230000Y192500D02*
D03*
X254055Y175000D02*
D03*
X245000Y185000D02*
D03*
X247500Y190000D02*
D03*
X232500Y187500D02*
D03*
X223288Y197500D02*
D03*
X214912Y200298D02*
D03*
X223740Y207720D02*
D03*
X217284Y195000D02*
D03*
X225000Y170000D02*
D03*
X242500Y161327D02*
D03*
X159823Y168607D02*
D03*
X160000Y171715D02*
D03*
Y162500D02*
D03*
X252500Y180000D02*
D03*
X250000Y110000D02*
D03*
X255000D02*
D03*
X259917D02*
D03*
X267500Y180000D02*
D03*
X255000Y153799D02*
D03*
X267500Y190000D02*
D03*
X259886Y153799D02*
D03*
X267500Y195000D02*
D03*
X265000Y153799D02*
D03*
X230000Y141195D02*
D03*
X240000Y140748D02*
D03*
X204784Y142461D02*
D03*
X158051Y127677D02*
D03*
X152500Y167500D02*
D03*
X143895Y127677D02*
D03*
X147500D02*
D03*
X70000Y142067D02*
D03*
X137988Y127500D02*
D03*
X139681Y132028D02*
D03*
X137457Y162500D02*
D03*
X175000Y182500D02*
D03*
X137457Y157500D02*
D03*
X127500Y127500D02*
D03*
X60000Y116240D02*
D03*
X72713Y145000D02*
D03*
X72323Y163665D02*
D03*
X95000Y157500D02*
D03*
X102500Y138071D02*
D03*
X92500Y177500D02*
D03*
X104823Y185000D02*
D03*
X19657Y162500D02*
D03*
X142107Y187892D02*
D03*
X48799Y135000D02*
D03*
X90000Y64193D02*
D03*
X70000Y135000D02*
D03*
X67500Y182500D02*
D03*
X70000Y177500D02*
D03*
X104308D02*
D03*
X120217Y177717D02*
D03*
X114784Y182500D02*
D03*
X142500D02*
D03*
X102500Y187500D02*
D03*
X17334Y125163D02*
D03*
X13248Y137500D02*
D03*
X130000Y103740D02*
D03*
X65000Y132695D02*
D03*
X90000Y162500D02*
D03*
X70000Y167500D02*
D03*
X105461Y15000D02*
D03*
X7500Y108025D02*
D03*
X57500Y187500D02*
D03*
X66378Y16457D02*
D03*
X71048Y4681D02*
D03*
D61*
X253701Y171211D02*
D03*
X252500Y219587D02*
D03*
X220000D02*
D03*
D62*
X117500Y152717D02*
D03*
Y187284D02*
D03*
X205000Y112500D02*
D03*
M02*
