M48
;Layer_Color=9474304
;FILE_FORMAT=2:5
INCH,TZ
;TYPE=PLATED
T1F00S00C0.01181
T2F00S00C0.01378
T3F00S00C0.02362
T4F00S00C0.03150
T5F00S00C0.03543
T6F00S00C0.03937
T7F00S00C0.05118
%
T01
X191000Y121000
X222000Y111500
X235000Y121000
Y132500
X223000Y135000
X250000Y110000
X255000
X259917
X265000Y122000
X269685Y75000
X177000Y65500
X168500Y67000
X169000Y58000
X159500Y59000
X157500Y67000
X145000Y64500
X142000Y71000
X132500
Y61500
X122500
X121500Y70000
X111000
X101482Y70500
X102500Y62000
X90000Y64193
X79000Y42000
X66378Y16457
X71048Y4681
X105461Y15000
X138500Y38500
X149000Y40000
X147500Y97500
X141000Y93500
X132058Y95000
X123000
X111000
X102500Y93274
X94500Y101000
X81482Y92500
X63517Y99609
X55000Y90000
X57500Y70000
X60000Y116240
X65000Y132695
X70000Y135000
X48799
X81000Y122000
X127500Y127500
X131949Y131108
X139681Y132028
X137988Y127500
X143895Y127677
X147500
X158051
X160000Y122000
X157500Y98500
X167500Y99369
X177500Y99000
X130000Y103740
X31837Y90764
X28019Y80500
X17382Y95000
X5735Y93453
X7500Y108025
X17334Y125163
X31837Y43725
X20000Y18850
X13248Y137500
X19657Y162500
X55000Y167500
X70000
X72323Y163665
Y172500
X70000Y177500
X67500Y182500
X57500Y187500
X90000Y186726
X92500Y177500
X97500Y181251
X104308Y177500
X104823Y185000
X102500Y187500
X114784Y182500
X120217Y177717
X142500Y182500
X142107Y187892
X137500Y200000
X134606Y199609
X137457Y162500
Y157500
X150684
X158500Y155000
X160000Y162500
X159823Y168607
X160000Y171715
X152500Y167500
X172500Y170000
X178008Y169758
X182500Y162500
X185177Y164846
X187500Y172500
Y154390
X174493Y178007
X175000Y182500
X182500Y229357
X158500Y227992
X142500Y231998
X117500
X92500
X67500
X90000Y162500
X95000Y157500
X102500Y138071
X73799Y137500
X70000Y142067
X72713Y145000
X204784Y142461
X230000Y141195
X240000Y140748
X242500Y153799
Y161327
X245000Y172500
X254055Y175000
X252500Y180000
X252480Y185128
X245000Y185000
X247500Y190000
X249607Y194607
X250000Y200000
X257500Y207500
X267500Y195000
Y190000
Y180000
Y175000
X265000Y153799
X259886
X255000
X227810Y171117
X225000Y170000
X220778Y179436
X209493Y184265
X212500Y190000
X217284Y195000
X214912Y200298
X223288Y197500
X223740Y207720
X230000Y192500
X232500Y187500
X200000Y185785
X198635Y180000
X196727Y192033
X195000Y200298
X197500Y219397
Y225000
X210153Y173619
T02
X205000Y112500
X117500Y152717
Y187284
X220000Y219587
X252500
X253701Y171211
T03
X195042Y50192
X42500Y110000
X45000Y132500
X37500Y135000
Y162500
X45000Y167500
X52500Y150000
Y195000
X92500
X145000Y195394
X176299Y219370
X193798Y146064
T04
X52500Y50000
X62500
X72500
X82500
X92500
X102500
X112500
X122500
X132500
X142500
X152500
X162500
X172500
X182500
Y110000
X172500
X162500
X152500
X142500
X132500
X122500
X112500
X102500
X92500
X82500
X72500
X62500
X52500
T05
X161500Y252500
X171500
X194000
X204000
T06
X196378Y7874
Y26969
X216378
X226378
Y7874
X216378
X217500Y52500
X227500
X186378Y26969
X176378
X166378
X156378
X146378
X136378
X126378
X116378
X106378
X96378
X86378
X76378
X66378
X56378
X46378
X36378
Y7874
X46378
X56378
X66378
X76378
X86378
X96378
X106378
X116378
X126378
X136378
X146378
X156378
X166378
X176378
X186378
X26378
X16378
X6378
Y26969
X16378
X26378
X41200Y192000
X41200Y202000
Y212000
X41200Y222000
X41200Y232000
X41200Y242000
X222000Y260000
X239717
T07
X217059Y250197
X244657Y250500
M30
