G04*
G04 #@! TF.GenerationSoftware,Altium Limited,Altium Designer,20.2.6 (244)*
G04*
G04 Layer_Physical_Order=1*
G04 Layer_Color=255*
%FSLAX25Y25*%
%MOIN*%
G70*
G04*
G04 #@! TF.SameCoordinates,4BF73655-697D-4C1E-89EC-0D8241B82C52*
G04*
G04*
G04 #@! TF.FilePolarity,Positive*
G04*
G01*
G75*
%ADD16R,0.06890X0.04724*%
%ADD17O,0.05709X0.02362*%
%ADD18R,0.04528X0.05709*%
G04:AMPARAMS|DCode=19|XSize=23.62mil|YSize=39.37mil|CornerRadius=5.91mil|HoleSize=0mil|Usage=FLASHONLY|Rotation=270.000|XOffset=0mil|YOffset=0mil|HoleType=Round|Shape=RoundedRectangle|*
%AMROUNDEDRECTD19*
21,1,0.02362,0.02756,0,0,270.0*
21,1,0.01181,0.03937,0,0,270.0*
1,1,0.01181,-0.01378,-0.00591*
1,1,0.01181,-0.01378,0.00591*
1,1,0.01181,0.01378,0.00591*
1,1,0.01181,0.01378,-0.00591*
%
%ADD19ROUNDEDRECTD19*%
%ADD20R,0.02953X0.05118*%
%ADD21R,0.05118X0.02953*%
%ADD22O,0.02362X0.08858*%
%ADD23R,0.01968X0.02756*%
%ADD24R,0.05709X0.04528*%
G04:AMPARAMS|DCode=25|XSize=23.62mil|YSize=39.37mil|CornerRadius=5.91mil|HoleSize=0mil|Usage=FLASHONLY|Rotation=0.000|XOffset=0mil|YOffset=0mil|HoleType=Round|Shape=RoundedRectangle|*
%AMROUNDEDRECTD25*
21,1,0.02362,0.02756,0,0,0.0*
21,1,0.01181,0.03937,0,0,0.0*
1,1,0.01181,0.00591,-0.01378*
1,1,0.01181,-0.00591,-0.01378*
1,1,0.01181,-0.00591,0.01378*
1,1,0.01181,0.00591,0.01378*
%
%ADD25ROUNDEDRECTD25*%
%ADD46C,0.03937*%
%ADD47C,0.01968*%
%ADD48C,0.01181*%
%ADD49C,0.06693*%
%ADD50R,0.06693X0.06693*%
%ADD51O,0.06299X0.09843*%
%ADD52R,0.06299X0.09843*%
%ADD53C,0.07874*%
%ADD54C,0.09843*%
%ADD55C,0.07087*%
%ADD56R,0.07087X0.07087*%
%ADD57O,0.06299X0.09843*%
%ADD58R,0.06693X0.06693*%
%ADD59C,0.04724*%
%ADD60C,0.01968*%
%ADD61C,0.02362*%
%ADD62C,0.02756*%
G36*
X31591Y274788D02*
X244409D01*
X245075Y274788D01*
X246380Y274528D01*
X247610Y274019D01*
X248716Y273279D01*
X249657Y272338D01*
X250397Y271232D01*
X250906Y270002D01*
X251166Y268697D01*
X251166Y268032D01*
X251166Y260032D01*
X251170Y260012D01*
X251167Y259992D01*
X251205Y259202D01*
X251220Y259144D01*
Y259085D01*
X251528Y257534D01*
X251559Y257461D01*
X251574Y257384D01*
X252179Y255923D01*
X252223Y255858D01*
X252253Y255785D01*
X253131Y254470D01*
X253187Y254414D01*
X253231Y254349D01*
X254349Y253231D01*
X254415Y253187D01*
X254470Y253131D01*
X255785Y252253D01*
X255858Y252223D01*
X255923Y252179D01*
X257384Y251574D01*
X257461Y251559D01*
X257534Y251528D01*
X259085Y251220D01*
X259144D01*
X259202Y251205D01*
X259992Y251167D01*
X260012Y251170D01*
X260032Y251166D01*
X268032Y251166D01*
X268697Y251166D01*
X270002Y250906D01*
X271232Y250397D01*
X272338Y249657D01*
X273280Y248716D01*
X274019Y247610D01*
X274528Y246380D01*
X274788Y245075D01*
X274788Y244409D01*
X274788Y212294D01*
X274288Y212087D01*
X271937Y214437D01*
X271370Y214873D01*
X270709Y215147D01*
X270000Y215240D01*
X269938D01*
Y222500D01*
X269803Y223176D01*
X269420Y223749D01*
X269420Y223749D01*
X266920Y226249D01*
X266347Y226632D01*
X265671Y226766D01*
X265671Y226766D01*
X234266D01*
Y257518D01*
X234266Y257518D01*
X234132Y258193D01*
X233749Y258767D01*
X225597Y266918D01*
X225024Y267301D01*
X224348Y267436D01*
X224348Y267436D01*
X194461D01*
X193785Y267301D01*
X193212Y266918D01*
X193212Y266918D01*
X167101Y240807D01*
X165150D01*
Y234193D01*
X169598D01*
Y237822D01*
X169632Y237992D01*
X169632Y237992D01*
Y238343D01*
X195192Y263903D01*
X218217D01*
X218388Y263403D01*
X217688Y262490D01*
X217190Y261289D01*
X217086Y260500D01*
X222000D01*
Y260000D01*
X222500D01*
Y255086D01*
X223289Y255190D01*
X224490Y255687D01*
X225521Y256479D01*
X226312Y257510D01*
X226810Y258711D01*
X226960Y259853D01*
X227435Y260085D01*
X230734Y256786D01*
Y226766D01*
X211161D01*
Y228307D01*
X206713D01*
Y221693D01*
X211161D01*
Y223234D01*
X222321D01*
X222602Y222850D01*
X222602Y222734D01*
Y220247D01*
X222102Y220197D01*
X222055Y220438D01*
X221572Y221159D01*
X220851Y221641D01*
X220500Y221711D01*
Y219587D01*
Y217462D01*
X220851Y217532D01*
X221572Y218014D01*
X222055Y218736D01*
X222102Y218976D01*
X222602Y218927D01*
Y216323D01*
X225957D01*
Y219587D01*
X226457D01*
Y220087D01*
X230311D01*
Y222734D01*
X230311Y222850D01*
X230593Y223234D01*
X258364D01*
X258646Y222850D01*
Y220087D01*
X262500D01*
Y219587D01*
X263000D01*
Y216323D01*
X266246D01*
X266336Y215904D01*
X266012Y215512D01*
X258898D01*
Y215240D01*
X230059D01*
Y215512D01*
X222854D01*
Y215240D01*
X166766D01*
Y217776D01*
X168307D01*
Y222224D01*
X161693D01*
Y217776D01*
X163234D01*
Y215836D01*
X162734Y215629D01*
X161426Y216937D01*
X160858Y217373D01*
X160197Y217647D01*
X159488Y217740D01*
X156243D01*
X155807Y217894D01*
Y222342D01*
X149193D01*
Y217894D01*
X148757Y217740D01*
X146693D01*
Y218110D01*
X138307D01*
Y217740D01*
X131243D01*
X130807Y217894D01*
Y222342D01*
X124193D01*
Y217894D01*
X123757Y217740D01*
X121693D01*
Y218110D01*
X113307D01*
Y217740D01*
X106243D01*
X105807Y217894D01*
Y221568D01*
X115433D01*
X115955Y221672D01*
X116398Y221968D01*
X118465Y224035D01*
X118761Y224478D01*
X118841Y224882D01*
X121693D01*
Y226627D01*
X124193D01*
Y225768D01*
X130807D01*
Y230217D01*
X124193D01*
Y229357D01*
X121693D01*
Y231102D01*
X119541D01*
X119187Y231602D01*
X119266Y231998D01*
X119187Y232394D01*
X119541Y232894D01*
X121693D01*
Y239114D01*
X113307D01*
Y232894D01*
X115460D01*
X115813Y232394D01*
X115734Y231998D01*
X115813Y231602D01*
X115460Y231102D01*
X113307D01*
Y224882D01*
X114288D01*
X114555Y224382D01*
X114499Y224298D01*
X52133D01*
X51611Y224194D01*
X51168Y223898D01*
X42969Y215699D01*
X42269Y215989D01*
X41200Y216130D01*
X40131Y215989D01*
X39135Y215577D01*
X38280Y214920D01*
X37624Y214065D01*
X37211Y213069D01*
X37070Y212000D01*
X37211Y210931D01*
X37624Y209935D01*
X38280Y209080D01*
X39135Y208423D01*
X40131Y208011D01*
X41200Y207870D01*
X42269Y208011D01*
X43265Y208423D01*
X44120Y209080D01*
X44776Y209935D01*
X45189Y210931D01*
X45330Y212000D01*
X45189Y213069D01*
X44899Y213769D01*
X52698Y221568D01*
X74193D01*
Y217894D01*
X73757Y217740D01*
X71693D01*
Y218110D01*
X63307D01*
Y211890D01*
X71693D01*
Y212260D01*
X88307D01*
Y211890D01*
X96693D01*
Y212260D01*
X113307D01*
Y211890D01*
X121693D01*
Y212260D01*
X138307D01*
Y211890D01*
X146693D01*
Y212260D01*
X158353D01*
X160051Y210563D01*
X160618Y210127D01*
X161279Y209853D01*
X161988Y209760D01*
X170232D01*
X170423Y209298D01*
X167566Y206441D01*
X149883D01*
X149883Y206441D01*
X133467D01*
X132758Y206347D01*
X132097Y206074D01*
X131530Y205638D01*
X131131Y205240D01*
X50000D01*
X49291Y205147D01*
X48630Y204873D01*
X48063Y204437D01*
X46034Y202409D01*
X45507Y202589D01*
X45435Y203135D01*
X44997Y204192D01*
X44300Y205100D01*
X43392Y205797D01*
X42335Y206235D01*
X41700Y206318D01*
Y202000D01*
Y197682D01*
X42335Y197765D01*
X43392Y198203D01*
X44181Y198809D01*
X44681Y198637D01*
Y196095D01*
X37106D01*
Y187906D01*
X44681D01*
Y181056D01*
X35563Y171937D01*
X35127Y171370D01*
X34853Y170709D01*
X34760Y170000D01*
Y169266D01*
X26161D01*
Y170807D01*
X21713D01*
Y164193D01*
X26161D01*
Y165734D01*
X34760D01*
Y164013D01*
X34470Y163312D01*
X34363Y162500D01*
X34470Y161688D01*
X34783Y160932D01*
X35282Y160282D01*
X35579Y160054D01*
X35409Y159554D01*
X18661D01*
Y160481D01*
X18740Y160576D01*
X19150Y160835D01*
X19657Y160734D01*
X20333Y160868D01*
X20906Y161251D01*
X21289Y161824D01*
X21424Y162500D01*
X21289Y163176D01*
X20906Y163749D01*
X20872Y163772D01*
Y166808D01*
X20768Y167330D01*
X20472Y167773D01*
X19780Y168465D01*
X19337Y168761D01*
X18815Y168865D01*
X18287D01*
Y170807D01*
X17428D01*
Y229871D01*
X46723Y259166D01*
X47185Y258975D01*
Y256713D01*
X53799D01*
Y259231D01*
X54266Y259698D01*
X69528D01*
Y258937D01*
X72992D01*
Y263189D01*
X69528D01*
Y262428D01*
X53701D01*
X53179Y262324D01*
X52736Y262028D01*
X51869Y261161D01*
X49371D01*
X49180Y261623D01*
X57845Y270289D01*
X73016D01*
Y269437D01*
X76984D01*
Y270289D01*
X227498D01*
X235565Y262221D01*
X235152Y261223D01*
X234991Y260000D01*
X235152Y258777D01*
X235624Y257637D01*
X236375Y256659D01*
X237354Y255908D01*
X238493Y255436D01*
X239717Y255275D01*
X240940Y255436D01*
X240974Y255450D01*
X241226Y255013D01*
X240614Y254543D01*
X239705Y253359D01*
X239134Y251980D01*
X238939Y250500D01*
X239134Y249020D01*
X239705Y247641D01*
X240614Y246457D01*
X241798Y245548D01*
X243178Y244977D01*
X244657Y244782D01*
X246137Y244977D01*
X247517Y245548D01*
X248701Y246457D01*
X249610Y247641D01*
X250181Y249020D01*
X250376Y250500D01*
X250181Y251980D01*
X249610Y253359D01*
X248701Y254543D01*
X247517Y255452D01*
X246137Y256023D01*
X244657Y256218D01*
X243178Y256023D01*
X242904Y255910D01*
X242652Y256347D01*
X243058Y256659D01*
X243809Y257637D01*
X244281Y258777D01*
X244442Y260000D01*
X244281Y261223D01*
X243809Y262363D01*
X243058Y263341D01*
X242079Y264092D01*
X240940Y264564D01*
X239717Y264725D01*
X238493Y264564D01*
X237496Y264151D01*
X229028Y272619D01*
X228585Y272915D01*
X228063Y273018D01*
X57280D01*
X56758Y272915D01*
X56315Y272619D01*
X15098Y231401D01*
X14802Y230959D01*
X14698Y230436D01*
Y170807D01*
X13839D01*
Y164193D01*
X18142D01*
Y163350D01*
X18026Y163176D01*
X17891Y162500D01*
X18026Y161824D01*
X18371Y161307D01*
X18307Y161060D01*
X18173Y160807D01*
X14213D01*
Y154193D01*
X18661D01*
Y156824D01*
X36146D01*
Y155087D01*
X43854D01*
Y156824D01*
X48979D01*
X52023Y153781D01*
X51862Y153307D01*
X51622Y153276D01*
X50804Y152937D01*
X50102Y152398D01*
X49563Y151696D01*
X49224Y150878D01*
X49175Y150500D01*
X52500D01*
Y150000D01*
X53000D01*
Y146675D01*
X53378Y146724D01*
X54196Y147063D01*
X54898Y147602D01*
X55437Y148304D01*
X55776Y149122D01*
X55852Y149701D01*
X56187Y150082D01*
X56378Y150135D01*
X89000D01*
X89522Y150239D01*
X89965Y150535D01*
X95000Y155570D01*
X98325Y152245D01*
Y150661D01*
X98429Y150139D01*
X98724Y149696D01*
X102597Y145823D01*
X102406Y145361D01*
X74408D01*
X74345Y145676D01*
X73962Y146249D01*
X73389Y146632D01*
X72713Y146766D01*
X72037Y146632D01*
X71464Y146249D01*
X71081Y145676D01*
X70947Y145000D01*
X71081Y144324D01*
X70866Y143746D01*
X70682Y143695D01*
X70676Y143699D01*
X70000Y143833D01*
X69324Y143699D01*
X68751Y143316D01*
X68368Y142743D01*
X68234Y142067D01*
X68368Y141391D01*
X68751Y140818D01*
X69324Y140435D01*
X70000Y140301D01*
X70676Y140435D01*
X71075Y140702D01*
X92500D01*
X92691Y140240D01*
X67047Y114596D01*
X66751Y114153D01*
X66647Y113631D01*
Y113251D01*
X66147Y113152D01*
X65905Y113737D01*
X65280Y114551D01*
X64466Y115176D01*
X63517Y115569D01*
X62500Y115703D01*
X62062Y115645D01*
X61721Y116010D01*
X61766Y116240D01*
X61726Y116443D01*
X70965Y125682D01*
X71261Y126125D01*
X71365Y126647D01*
Y133924D01*
X71632Y134324D01*
X71766Y135000D01*
X71632Y135676D01*
X71249Y136249D01*
X70676Y136632D01*
X70000Y136766D01*
X69324Y136632D01*
X68751Y136249D01*
X68368Y135676D01*
X68234Y135000D01*
X68368Y134324D01*
X68635Y133924D01*
Y127212D01*
X59365Y117942D01*
X58865Y118123D01*
Y124435D01*
X65448Y131018D01*
X65676Y131063D01*
X66249Y131446D01*
X66632Y132019D01*
X66766Y132695D01*
X66632Y133371D01*
X66249Y133944D01*
X65676Y134327D01*
X65000Y134461D01*
X64324Y134327D01*
X63751Y133944D01*
X63368Y133371D01*
X63234Y132695D01*
X63239Y132669D01*
X56535Y125965D01*
X56239Y125522D01*
X56135Y125000D01*
Y114258D01*
X55635Y114088D01*
X55280Y114551D01*
X55240Y114582D01*
Y116398D01*
X55512D01*
Y123602D01*
X55240D01*
Y140000D01*
X55147Y140709D01*
X55033Y140983D01*
X54873Y141370D01*
X54438Y141937D01*
X46938Y149437D01*
X46370Y149873D01*
X45709Y150147D01*
X45000Y150240D01*
X43602D01*
Y150512D01*
X36398D01*
Y149266D01*
X33231D01*
X33154Y149317D01*
X32402Y149467D01*
X29055D01*
X28302Y149317D01*
X27664Y148891D01*
X27238Y148253D01*
X27088Y147500D01*
X27238Y146747D01*
X27664Y146109D01*
X28302Y145683D01*
X29055Y145533D01*
X32402D01*
X33154Y145683D01*
X33231Y145734D01*
X34352D01*
X34791Y145234D01*
X34760Y145000D01*
Y143796D01*
X34260Y143644D01*
X33974Y144072D01*
X33253Y144554D01*
X32402Y144724D01*
X31228D01*
Y142500D01*
Y140276D01*
X32402D01*
X33253Y140445D01*
X33974Y140928D01*
X34260Y141356D01*
X34760Y141204D01*
Y138796D01*
X34260Y138645D01*
X33974Y139073D01*
X33253Y139555D01*
X32402Y139724D01*
X31228D01*
Y137500D01*
Y135276D01*
X32402D01*
X33253Y135445D01*
X33974Y135927D01*
X34008Y135978D01*
X34470Y135812D01*
X34363Y135000D01*
X34470Y134188D01*
X34783Y133431D01*
X35282Y132782D01*
X35932Y132283D01*
X36688Y131970D01*
X37500Y131863D01*
X38312Y131970D01*
X39068Y132283D01*
X39434Y132564D01*
X39882Y132343D01*
X39925Y131855D01*
X36535Y128465D01*
X36239Y128022D01*
X36135Y127500D01*
Y100862D01*
X34193D01*
Y96766D01*
X28268D01*
X28140Y96851D01*
X27618Y96955D01*
X24862D01*
X24365Y96856D01*
X24334Y96855D01*
X23865Y97135D01*
Y99594D01*
X23761Y100117D01*
X23465Y100559D01*
X15034Y108991D01*
X14591Y109286D01*
X14076Y109389D01*
X8651Y114814D01*
X8772Y115106D01*
Y117500D01*
Y119724D01*
X7598D01*
X6747Y119554D01*
X6235Y119212D01*
X5735Y119468D01*
Y120917D01*
X6085Y121059D01*
X6235Y121091D01*
X6846Y120683D01*
X7598Y120533D01*
X10945D01*
X11698Y120683D01*
X12336Y121109D01*
X12353Y121135D01*
X17956D01*
X18479Y121239D01*
X18922Y121535D01*
X20622Y123236D01*
X20918Y123679D01*
X21022Y124201D01*
Y144101D01*
X20918Y144623D01*
X20622Y145066D01*
X14541Y151147D01*
X14098Y151443D01*
X13576Y151547D01*
X12155D01*
X10009Y153693D01*
X10124Y154193D01*
X10787D01*
Y160807D01*
X6339D01*
Y154193D01*
X7198D01*
Y153209D01*
X7302Y152686D01*
X7598Y152244D01*
X9913Y149929D01*
X9721Y149467D01*
X7598D01*
X6846Y149317D01*
X6208Y148891D01*
X5781Y148253D01*
X5632Y147500D01*
X5781Y146747D01*
X6208Y146109D01*
X6846Y145683D01*
X7598Y145533D01*
X10945D01*
X11698Y145683D01*
X12336Y146109D01*
X12340Y146116D01*
X12936Y146164D01*
X16135Y142964D01*
Y140481D01*
X15673Y140290D01*
X12775Y143188D01*
X12762Y143253D01*
X12336Y143891D01*
X11698Y144317D01*
X10945Y144467D01*
X7598D01*
X6846Y144317D01*
X6208Y143891D01*
X6190Y143865D01*
X4800D01*
X4278Y143761D01*
X3835Y143465D01*
X1476Y141106D01*
X1303Y140847D01*
X803Y140999D01*
X803Y244000D01*
X803Y244706D01*
X1078Y246090D01*
X1618Y247394D01*
X2402Y248568D01*
X3401Y249566D01*
X4574Y250350D01*
X5878Y250890D01*
X7263Y251166D01*
X7969Y251166D01*
X15969Y251166D01*
X15988Y251170D01*
X16008Y251167D01*
X16758Y251203D01*
X16816Y251218D01*
X16875D01*
X18347Y251511D01*
X18420Y251541D01*
X18497Y251556D01*
X19884Y252131D01*
X19949Y252174D01*
X20022Y252205D01*
X21270Y253038D01*
X21326Y253094D01*
X21392Y253138D01*
X22452Y254199D01*
X22496Y254265D01*
X22552Y254321D01*
X23386Y255568D01*
X23416Y255641D01*
X23460Y255707D01*
X24034Y257093D01*
X24050Y257171D01*
X24080Y257244D01*
X24373Y258715D01*
Y258775D01*
X24387Y258833D01*
X24424Y259583D01*
X24421Y259602D01*
X24425Y259622D01*
X24425Y267622D01*
X24425Y268328D01*
X24700Y269712D01*
X25240Y271016D01*
X26024Y272190D01*
X27023Y273188D01*
X28196Y273972D01*
X29500Y274512D01*
X30885Y274788D01*
X31591Y274788D01*
D02*
G37*
G36*
X269760Y208865D02*
Y160240D01*
X258192D01*
X257985Y160740D01*
X263465Y166220D01*
X263761Y166662D01*
X263865Y167185D01*
Y168033D01*
X264173D01*
X264926Y168183D01*
X265564Y168609D01*
X265990Y169247D01*
X266140Y170000D01*
X265990Y170753D01*
X265564Y171391D01*
X264926Y171817D01*
X264173Y171967D01*
X260827D01*
X260172Y171837D01*
X259672Y172104D01*
Y172896D01*
X260172Y173163D01*
X260827Y173033D01*
X264173D01*
X264926Y173183D01*
X265564Y173609D01*
X265581Y173635D01*
X266424D01*
X266824Y173368D01*
X267500Y173234D01*
X268176Y173368D01*
X268749Y173751D01*
X269132Y174324D01*
X269266Y175000D01*
X269132Y175676D01*
X268749Y176249D01*
X268176Y176632D01*
X267500Y176766D01*
X266824Y176632D01*
X266424Y176365D01*
X265581D01*
X265564Y176391D01*
X264926Y176817D01*
X264173Y176967D01*
X260827D01*
X260333Y176869D01*
X260086Y177329D01*
X260796Y178039D01*
X260827Y178033D01*
X264173D01*
X264926Y178183D01*
X265564Y178609D01*
X265581Y178635D01*
X266424D01*
X266824Y178368D01*
X267500Y178234D01*
X268176Y178368D01*
X268749Y178751D01*
X269132Y179324D01*
X269266Y180000D01*
X269132Y180676D01*
X268749Y181249D01*
X268176Y181632D01*
X267500Y181766D01*
X266824Y181632D01*
X266424Y181365D01*
X265581D01*
X265564Y181391D01*
X264926Y181817D01*
X264173Y181967D01*
X260827D01*
X260074Y181817D01*
X259436Y181391D01*
X259010Y180753D01*
X258860Y180000D01*
X258866Y179969D01*
X258191Y179295D01*
X257718Y179529D01*
X257639Y179929D01*
X257343Y180372D01*
X254516Y183199D01*
X254602Y183545D01*
X254708Y183699D01*
X259376D01*
X259436Y183609D01*
X260074Y183183D01*
X260827Y183033D01*
X264173D01*
X264926Y183183D01*
X265564Y183609D01*
X265990Y184247D01*
X266140Y185000D01*
X265990Y185753D01*
X265564Y186391D01*
X264926Y186817D01*
X264173Y186967D01*
X260827D01*
X260074Y186817D01*
X259493Y186429D01*
X253652D01*
X253341Y186636D01*
X253216Y187219D01*
X254632Y188635D01*
X259419D01*
X259436Y188609D01*
X260074Y188183D01*
X260827Y188033D01*
X264173D01*
X264926Y188183D01*
X265564Y188609D01*
X265581Y188635D01*
X266424D01*
X266824Y188368D01*
X267500Y188234D01*
X268176Y188368D01*
X268749Y188751D01*
X269132Y189324D01*
X269266Y190000D01*
X269132Y190676D01*
X268749Y191249D01*
X268176Y191632D01*
X267500Y191766D01*
X266824Y191632D01*
X266424Y191365D01*
X265581D01*
X265564Y191391D01*
X264926Y191817D01*
X264173Y191967D01*
X260827D01*
X260074Y191817D01*
X259436Y191391D01*
X259419Y191365D01*
X254067D01*
X253545Y191261D01*
X253102Y190965D01*
X249192Y187055D01*
X248897Y186613D01*
X248793Y186090D01*
Y184166D01*
X248897Y183644D01*
X249192Y183201D01*
X250567Y181827D01*
X250375Y181365D01*
X244125D01*
X244107Y181391D01*
X243469Y181817D01*
X242717Y181967D01*
X239370D01*
X238617Y181817D01*
X238558Y181777D01*
X238117Y182013D01*
Y182987D01*
X238558Y183223D01*
X238617Y183183D01*
X239370Y183033D01*
X242717D01*
X243469Y183183D01*
X244035Y183561D01*
X244324Y183368D01*
X245000Y183234D01*
X245676Y183368D01*
X246249Y183751D01*
X246632Y184324D01*
X246766Y185000D01*
X246632Y185676D01*
X246249Y186249D01*
X245676Y186632D01*
X245000Y186766D01*
X244324Y186632D01*
X244035Y186439D01*
X243469Y186817D01*
X242717Y186967D01*
X239370D01*
X238617Y186817D01*
X238558Y186777D01*
X238117Y187013D01*
Y187987D01*
X238558Y188223D01*
X238617Y188183D01*
X239370Y188033D01*
X242717D01*
X243469Y188183D01*
X244107Y188609D01*
X244125Y188635D01*
X246425D01*
X246824Y188368D01*
X247500Y188234D01*
X248176Y188368D01*
X248749Y188751D01*
X249132Y189324D01*
X249266Y190000D01*
X249132Y190676D01*
X248749Y191249D01*
X248176Y191632D01*
X247500Y191766D01*
X246824Y191632D01*
X246425Y191365D01*
X244125D01*
X244107Y191391D01*
X243469Y191817D01*
X242717Y191967D01*
X239370D01*
X238876Y191869D01*
X238630Y192329D01*
X239339Y193039D01*
X239370Y193033D01*
X242717D01*
X243469Y193183D01*
X244107Y193609D01*
X244125Y193635D01*
X248174D01*
X248359Y193359D01*
X248932Y192976D01*
X249607Y192841D01*
X250283Y192976D01*
X250856Y193359D01*
X251239Y193932D01*
X251374Y194607D01*
X251239Y195283D01*
X250856Y195856D01*
X250283Y196239D01*
X249607Y196374D01*
X249282Y196309D01*
X249002Y196365D01*
X244125D01*
X244107Y196391D01*
X243469Y196817D01*
X242717Y196967D01*
X239370D01*
X238617Y196817D01*
X237979Y196391D01*
X237553Y195753D01*
X237403Y195000D01*
X237409Y194969D01*
X236650Y194210D01*
X236188Y194401D01*
Y197678D01*
X237145Y198635D01*
X237962D01*
X237979Y198609D01*
X238617Y198183D01*
X239370Y198033D01*
X242717D01*
X243469Y198183D01*
X244107Y198609D01*
X244534Y199247D01*
X244684Y200000D01*
X244534Y200753D01*
X244107Y201391D01*
X243469Y201817D01*
X242717Y201967D01*
X239370D01*
X238617Y201817D01*
X237979Y201391D01*
X237962Y201365D01*
X236580D01*
X236057Y201261D01*
X235614Y200965D01*
X233858Y199208D01*
X233562Y198766D01*
X233458Y198243D01*
Y197255D01*
X232996Y197064D01*
X230091Y199969D01*
X230097Y200000D01*
X229947Y200753D01*
X229521Y201391D01*
X228883Y201817D01*
X228130Y201967D01*
X224783D01*
X224031Y201817D01*
X223393Y201391D01*
X222966Y200753D01*
X222816Y200000D01*
X222853Y199818D01*
X222419Y199436D01*
X216974D01*
X216606Y199936D01*
X216678Y200298D01*
X216544Y200974D01*
X216161Y201547D01*
X215588Y201930D01*
X214912Y202064D01*
X214236Y201930D01*
X213663Y201547D01*
X213641Y201514D01*
X207880D01*
X207426Y201817D01*
X206673Y201967D01*
X203327D01*
X202574Y201817D01*
X201936Y201391D01*
X201510Y200753D01*
X201360Y200000D01*
X201510Y199247D01*
X201936Y198609D01*
X202574Y198183D01*
X203327Y198033D01*
X206673D01*
X207426Y198183D01*
X208064Y198609D01*
X208181Y198784D01*
X213647D01*
X213854Y198284D01*
X211935Y196365D01*
X208081D01*
X208064Y196391D01*
X207426Y196817D01*
X206673Y196967D01*
X203327D01*
X202574Y196817D01*
X201936Y196391D01*
X201510Y195753D01*
X201360Y195000D01*
X201510Y194247D01*
X201936Y193609D01*
X202574Y193183D01*
X203327Y193033D01*
X206673D01*
X207426Y193183D01*
X208064Y193609D01*
X208081Y193635D01*
X212500D01*
X213022Y193739D01*
X213465Y194035D01*
X215151Y195721D01*
X215612Y195474D01*
X215517Y195000D01*
X215652Y194324D01*
X216035Y193751D01*
X216608Y193368D01*
X217284Y193234D01*
X217959Y193368D01*
X218359Y193635D01*
X223375D01*
X223393Y193609D01*
X224031Y193183D01*
X224783Y193033D01*
X227830D01*
X228250Y192583D01*
X228234Y192500D01*
X228258Y192378D01*
X227847Y191967D01*
X224783D01*
X224031Y191817D01*
X223393Y191391D01*
X222966Y190753D01*
X222816Y190000D01*
X222966Y189247D01*
X223393Y188609D01*
X224031Y188183D01*
X224783Y188033D01*
X228130D01*
X228883Y188183D01*
X229521Y188609D01*
X229947Y189247D01*
X230097Y190000D01*
X230038Y190297D01*
X230592Y190851D01*
X230635Y190860D01*
X230755Y190848D01*
X231135Y190645D01*
Y188575D01*
X230868Y188176D01*
X230734Y187500D01*
X230868Y186824D01*
X231214Y186307D01*
Y184499D01*
X230752Y184308D01*
X230091Y184969D01*
X230097Y185000D01*
X229947Y185753D01*
X229521Y186391D01*
X228883Y186817D01*
X228130Y186967D01*
X224783D01*
X224031Y186817D01*
X223393Y186391D01*
X222966Y185753D01*
X222816Y185000D01*
X222966Y184247D01*
X223393Y183609D01*
X224031Y183183D01*
X224783Y183033D01*
X228130D01*
X228161Y183039D01*
X228870Y182329D01*
X228624Y181869D01*
X228130Y181967D01*
X224783D01*
X224031Y181817D01*
X223393Y181391D01*
X223375Y181365D01*
X221555D01*
X221033Y181261D01*
X220907Y181177D01*
X220778Y181202D01*
X220102Y181068D01*
X219529Y180685D01*
X219269Y180297D01*
X218687Y180172D01*
X213629Y185230D01*
X213186Y185526D01*
X212664Y185630D01*
X210569D01*
X210169Y185897D01*
X209493Y186031D01*
X208818Y185897D01*
X208746Y185849D01*
X208490Y185753D01*
X208064Y186391D01*
X207426Y186817D01*
X206673Y186967D01*
X203327D01*
X202574Y186817D01*
X202130Y186520D01*
X202038Y186509D01*
X201582Y186603D01*
X201507Y186648D01*
X201249Y187034D01*
X200676Y187417D01*
X200000Y187551D01*
X199324Y187417D01*
X198751Y187034D01*
X198368Y186461D01*
X198234Y185785D01*
X198368Y185109D01*
X198751Y184536D01*
X199324Y184153D01*
X200000Y184019D01*
X200044Y184028D01*
X200476Y183739D01*
X200998Y183635D01*
X201919D01*
X201936Y183609D01*
X202574Y183183D01*
X203327Y183033D01*
X206673D01*
X207426Y183183D01*
X207621Y183313D01*
X208111Y183216D01*
X208244Y183016D01*
X208818Y182633D01*
X209493Y182499D01*
X210169Y182633D01*
X210569Y182900D01*
X212098D01*
X213172Y181827D01*
X212981Y181365D01*
X208081D01*
X208064Y181391D01*
X207426Y181817D01*
X206673Y181967D01*
X203327D01*
X202574Y181817D01*
X201936Y181391D01*
X201510Y180753D01*
X201360Y180000D01*
X201510Y179247D01*
X201936Y178609D01*
X202574Y178183D01*
X203327Y178033D01*
X206673D01*
X207426Y178183D01*
X208064Y178609D01*
X208081Y178635D01*
X213635D01*
X220165Y172106D01*
X220608Y171810D01*
X221130Y171706D01*
X221364D01*
X223274Y169795D01*
X223364Y169345D01*
X223372Y169256D01*
X223111Y168845D01*
X208509D01*
X206980Y170375D01*
X206537Y170670D01*
X206014Y170774D01*
X205919D01*
X204379Y172314D01*
X204500Y172606D01*
Y175000D01*
Y177224D01*
X203327D01*
X202476Y177055D01*
X201754Y176573D01*
X201383Y176017D01*
X200808Y175885D01*
X199078Y177615D01*
X199223Y178094D01*
X199409Y178131D01*
X200066Y178569D01*
X200504Y179226D01*
X200559Y179500D01*
X198635D01*
Y180000D01*
X198135D01*
Y181924D01*
X197861Y181869D01*
X197205Y181431D01*
X196766Y180774D01*
X196729Y180588D01*
X196251Y180443D01*
X190728Y185965D01*
X190286Y186261D01*
X189763Y186365D01*
X187103D01*
X185227Y188241D01*
Y188789D01*
X185418Y188917D01*
X185714Y189360D01*
X185817Y189882D01*
Y192638D01*
X185714Y193160D01*
X185418Y193603D01*
X184975Y193899D01*
X184453Y194003D01*
X183272D01*
X182749Y193899D01*
X182307Y193603D01*
X182011Y193160D01*
X181907Y192638D01*
Y189882D01*
X182011Y189360D01*
X182307Y188917D01*
X182497Y188789D01*
Y187676D01*
X182601Y187153D01*
X182897Y186711D01*
X185573Y184035D01*
X186016Y183739D01*
X186538Y183635D01*
X189198D01*
X190396Y182437D01*
X190205Y181975D01*
X178110D01*
X177588Y181871D01*
X177145Y181575D01*
X176909Y181339D01*
X176521Y181658D01*
X176632Y181824D01*
X176766Y182500D01*
X176632Y183176D01*
X176249Y183749D01*
X175676Y184132D01*
X175000Y184266D01*
X174324Y184132D01*
X173925Y183865D01*
X171310D01*
X171292Y183891D01*
X170654Y184317D01*
X169902Y184467D01*
X166555D01*
X165802Y184317D01*
X165164Y183891D01*
X164738Y183253D01*
X164588Y182500D01*
X164738Y181747D01*
X165164Y181109D01*
X165802Y180683D01*
X166555Y180533D01*
X169902D01*
X170654Y180683D01*
X171292Y181109D01*
X171310Y181135D01*
X173925D01*
X174324Y180868D01*
X175000Y180734D01*
X175676Y180868D01*
X175842Y180979D01*
X176161Y180591D01*
X175193Y179623D01*
X175169Y179638D01*
X174493Y179773D01*
X173818Y179638D01*
X173245Y179255D01*
X172984Y178865D01*
X171310D01*
X171292Y178891D01*
X170654Y179317D01*
X169902Y179467D01*
X166555D01*
X165802Y179317D01*
X165164Y178891D01*
X164738Y178253D01*
X164588Y177500D01*
X164738Y176747D01*
X165164Y176109D01*
X165802Y175683D01*
X166555Y175533D01*
X169902D01*
X170654Y175683D01*
X171292Y176109D01*
X171310Y176135D01*
X173774D01*
X174134Y176207D01*
X174493Y176135D01*
X175213D01*
X175735Y176239D01*
X176048Y176448D01*
X176367Y176060D01*
X174172Y173865D01*
X171310D01*
X171292Y173891D01*
X170654Y174317D01*
X169902Y174467D01*
X166555D01*
X165802Y174317D01*
X165164Y173891D01*
X164738Y173253D01*
X164588Y172500D01*
X164738Y171747D01*
X165164Y171109D01*
X165802Y170683D01*
X166555Y170533D01*
X168915D01*
X169106Y170071D01*
X168502Y169467D01*
X166555D01*
X165802Y169317D01*
X165164Y168891D01*
X164738Y168253D01*
X164588Y167500D01*
X164738Y166747D01*
X165164Y166109D01*
X165802Y165683D01*
X166555Y165533D01*
X169902D01*
X170396Y165631D01*
X170642Y165171D01*
X169932Y164461D01*
X169902Y164467D01*
X166555D01*
X165802Y164317D01*
X165164Y163891D01*
X164738Y163253D01*
X164588Y162500D01*
X164738Y161747D01*
X165164Y161109D01*
X165802Y160683D01*
X166555Y160533D01*
X169902D01*
X170396Y160631D01*
X170642Y160171D01*
X169932Y159461D01*
X169902Y159467D01*
X166555D01*
X165802Y159317D01*
X165164Y158891D01*
X164738Y158253D01*
X164588Y157500D01*
X164738Y156747D01*
X165164Y156109D01*
X165802Y155683D01*
X166555Y155533D01*
X169902D01*
X170654Y155683D01*
X171292Y156109D01*
X171719Y156747D01*
X171869Y157500D01*
X171862Y157531D01*
X176421Y162090D01*
X176883Y161898D01*
Y158906D01*
X171842Y153865D01*
X171310D01*
X171292Y153891D01*
X170654Y154317D01*
X169902Y154467D01*
X166555D01*
X165802Y154317D01*
X165164Y153891D01*
X164738Y153253D01*
X164588Y152500D01*
X164718Y151845D01*
X164451Y151345D01*
X150852D01*
X150538Y151845D01*
X150569Y152000D01*
X146772D01*
Y152500D01*
D01*
Y152000D01*
X142974D01*
X143005Y151845D01*
X142691Y151345D01*
X133777D01*
X133510Y151845D01*
X133640Y152500D01*
X133490Y153253D01*
X133064Y153891D01*
X132426Y154317D01*
X131673Y154467D01*
X128327D01*
X127574Y154317D01*
X126936Y153891D01*
X126510Y153253D01*
X126360Y152500D01*
X126490Y151845D01*
X126223Y151345D01*
X119974D01*
X119791Y151687D01*
X119751Y151845D01*
X119825Y152216D01*
X115175D01*
X115249Y151845D01*
X115209Y151687D01*
X115026Y151345D01*
X112624D01*
X112310Y151845D01*
X112341Y152000D01*
X108543D01*
Y152500D01*
X108043D01*
Y154724D01*
X106870D01*
X106019Y154554D01*
X105412Y154149D01*
X104912Y154328D01*
Y154965D01*
X104809Y155488D01*
X104513Y155930D01*
X94928Y165515D01*
Y166693D01*
X95787D01*
Y172533D01*
X96398D01*
X96920Y172637D01*
X97363Y172933D01*
X102057Y177627D01*
X102308Y177561D01*
X102558Y177420D01*
X102676Y176824D01*
X103059Y176251D01*
X103632Y175868D01*
X104308Y175734D01*
X104984Y175868D01*
X105384Y176135D01*
X105462D01*
X105479Y176109D01*
X106117Y175683D01*
X106870Y175533D01*
X110216D01*
X110969Y175683D01*
X111607Y176109D01*
X111625Y176135D01*
X119465D01*
X119541Y176085D01*
X120107Y175972D01*
X120269Y175657D01*
X120303Y175462D01*
X113706Y168865D01*
X111625D01*
X111607Y168891D01*
X110969Y169317D01*
X110216Y169467D01*
X106870D01*
X106299Y169353D01*
X106124Y169548D01*
X106018Y169807D01*
X106261Y170170D01*
X106285Y170289D01*
X106700Y170567D01*
X106870Y170533D01*
X110216D01*
X110969Y170683D01*
X111607Y171109D01*
X112034Y171747D01*
X112183Y172500D01*
X112034Y173253D01*
X111607Y173891D01*
X110969Y174317D01*
X110216Y174467D01*
X106870D01*
X106117Y174317D01*
X105479Y173891D01*
X105427Y173812D01*
X105170Y173761D01*
X104727Y173465D01*
X104161Y172900D01*
X103663Y173078D01*
X103661Y173079D01*
Y173307D01*
X99213D01*
Y166693D01*
X103661D01*
Y168635D01*
X104308D01*
X104768Y168727D01*
X104927Y168589D01*
X105099Y168322D01*
X105053Y168253D01*
X104903Y167500D01*
X105053Y166747D01*
X105479Y166109D01*
X106117Y165683D01*
X106870Y165533D01*
X110216D01*
X110969Y165683D01*
X111607Y166109D01*
X111625Y166135D01*
X114272D01*
X114794Y166239D01*
X115237Y166535D01*
X124837Y176135D01*
X126919D01*
X126936Y176109D01*
X127574Y175683D01*
X128327Y175533D01*
X131673D01*
X132426Y175683D01*
X132741Y175893D01*
X133241Y175626D01*
Y174374D01*
X132741Y174107D01*
X132426Y174317D01*
X131673Y174467D01*
X128327D01*
X127574Y174317D01*
X126936Y173891D01*
X126919Y173865D01*
X125000D01*
X124478Y173761D01*
X124035Y173465D01*
X114035Y163465D01*
X113739Y163022D01*
X113635Y162500D01*
Y158865D01*
X111625D01*
X111607Y158891D01*
X110969Y159317D01*
X110216Y159467D01*
X106870D01*
X106117Y159317D01*
X105479Y158891D01*
X105053Y158253D01*
X104903Y157500D01*
X105053Y156747D01*
X105479Y156109D01*
X106117Y155683D01*
X106870Y155533D01*
X110216D01*
X110969Y155683D01*
X111607Y156109D01*
X111625Y156135D01*
X114308D01*
X114830Y156239D01*
X115273Y156535D01*
X115965Y157227D01*
X116261Y157670D01*
X116365Y158192D01*
Y161935D01*
X125565Y171135D01*
X126919D01*
X126936Y171109D01*
X127574Y170683D01*
X128327Y170533D01*
X131673D01*
X132426Y170683D01*
X132741Y170893D01*
X133241Y170626D01*
Y170394D01*
X133345Y169872D01*
X133641Y169429D01*
X138748Y164322D01*
X138429Y163933D01*
X138132Y164132D01*
X137457Y164266D01*
X136781Y164132D01*
X136381Y163865D01*
X133081D01*
X133064Y163891D01*
X132426Y164317D01*
X131673Y164467D01*
X128327D01*
X127574Y164317D01*
X126936Y163891D01*
X126510Y163253D01*
X126360Y162500D01*
X126510Y161747D01*
X126936Y161109D01*
X127574Y160683D01*
X128327Y160533D01*
X131673D01*
X132426Y160683D01*
X133064Y161109D01*
X133081Y161135D01*
X136381D01*
X136781Y160868D01*
X137457Y160734D01*
X138132Y160868D01*
X138705Y161251D01*
X139088Y161824D01*
X139223Y162500D01*
X139088Y163176D01*
X138890Y163473D01*
X139278Y163792D01*
X141535Y161535D01*
X141978Y161239D01*
X142500Y161135D01*
X143690D01*
X143708Y161109D01*
X144346Y160683D01*
X145098Y160533D01*
X148445D01*
X149198Y160683D01*
X149836Y161109D01*
X149853Y161135D01*
X158924D01*
X159324Y160868D01*
X160000Y160734D01*
X160676Y160868D01*
X161249Y161251D01*
X161632Y161824D01*
X161766Y162500D01*
X161632Y163176D01*
X161249Y163749D01*
X160676Y164132D01*
X160000Y164266D01*
X159324Y164132D01*
X158924Y163865D01*
X149853D01*
X149836Y163891D01*
X149198Y164317D01*
X148445Y164467D01*
X145098D01*
X144346Y164317D01*
X143708Y163891D01*
X143690Y163865D01*
X143065D01*
X135971Y170959D01*
Y176479D01*
X136471Y176631D01*
X136535Y176535D01*
X141535Y171535D01*
X141978Y171239D01*
X142500Y171135D01*
X143690D01*
X143708Y171109D01*
X144346Y170683D01*
X145098Y170533D01*
X148445D01*
X149198Y170683D01*
X149836Y171109D01*
X149853Y171135D01*
X155365D01*
X158097Y168403D01*
X158191Y167931D01*
X158574Y167358D01*
X159147Y166975D01*
X159823Y166841D01*
X160499Y166975D01*
X161072Y167358D01*
X161455Y167931D01*
X161589Y168607D01*
X161455Y169283D01*
X161122Y169780D01*
X161072Y170069D01*
Y170348D01*
X161249Y170466D01*
X161632Y171039D01*
X161766Y171715D01*
X161632Y172391D01*
X161283Y172914D01*
X161261Y173022D01*
X160965Y173465D01*
X155965Y178465D01*
X155522Y178761D01*
X155000Y178865D01*
X149853D01*
X149836Y178891D01*
X149198Y179317D01*
X148445Y179467D01*
X145098D01*
X144346Y179317D01*
X143708Y178891D01*
X143281Y178253D01*
X143131Y177500D01*
X143281Y176747D01*
X143708Y176109D01*
X144346Y175683D01*
X145098Y175533D01*
X148445D01*
X149198Y175683D01*
X149836Y176109D01*
X149853Y176135D01*
X154435D01*
X156261Y174309D01*
X156015Y173848D01*
X155930Y173865D01*
X149853D01*
X149836Y173891D01*
X149198Y174317D01*
X148445Y174467D01*
X145098D01*
X144346Y174317D01*
X143708Y173891D01*
X143690Y173865D01*
X143065D01*
X138865Y178065D01*
Y198925D01*
X139132Y199324D01*
X139266Y200000D01*
X139174Y200461D01*
X139497Y200961D01*
X149883D01*
X149883Y200961D01*
X165257D01*
X165488Y200659D01*
Y198602D01*
X165217D01*
Y191398D01*
X166462D01*
Y189448D01*
X165802Y189317D01*
X165164Y188891D01*
X164738Y188253D01*
X164588Y187500D01*
X164738Y186747D01*
X165164Y186109D01*
X165802Y185683D01*
X166555Y185533D01*
X169902D01*
X170654Y185683D01*
X171292Y186109D01*
X171719Y186747D01*
X171869Y187500D01*
X171719Y188253D01*
X171292Y188891D01*
X170654Y189317D01*
X169995Y189448D01*
Y191398D01*
X171240D01*
Y198602D01*
X170968D01*
Y201772D01*
X170931Y202056D01*
X178635Y209760D01*
X185734D01*
Y200768D01*
X185649Y200640D01*
X185545Y200118D01*
Y197362D01*
X185649Y196840D01*
X185944Y196397D01*
X186387Y196101D01*
X186909Y195997D01*
X188091D01*
X188613Y196101D01*
X189056Y196397D01*
X189351Y196840D01*
X189455Y197362D01*
Y200118D01*
X189351Y200640D01*
X189266Y200768D01*
Y209760D01*
X222463D01*
X222700Y209333D01*
X222440Y208909D01*
X222047Y208830D01*
X221604Y208535D01*
X219435Y206365D01*
X208081D01*
X208064Y206391D01*
X207426Y206817D01*
X206673Y206967D01*
X203327D01*
X202574Y206817D01*
X201936Y206391D01*
X201510Y205753D01*
X201360Y205000D01*
X201510Y204247D01*
X201936Y203609D01*
X202574Y203183D01*
X203327Y203033D01*
X206673D01*
X207426Y203183D01*
X208064Y203609D01*
X208081Y203635D01*
X220000D01*
X220522Y203739D01*
X220965Y204035D01*
X222400Y205470D01*
X222861Y205224D01*
X222816Y205000D01*
X222966Y204247D01*
X223393Y203609D01*
X224031Y203183D01*
X224783Y203033D01*
X228130D01*
X228883Y203183D01*
X229521Y203609D01*
X229947Y204247D01*
X230097Y205000D01*
X229947Y205753D01*
X229521Y206391D01*
X228883Y206817D01*
X228223Y206948D01*
Y209488D01*
X230059D01*
Y209760D01*
X258898D01*
Y209488D01*
X260734D01*
Y206948D01*
X260074Y206817D01*
X259436Y206391D01*
X259034Y206678D01*
X259132Y206824D01*
X259266Y207500D01*
X259132Y208176D01*
X258749Y208749D01*
X258176Y209132D01*
X257500Y209266D01*
X256824Y209132D01*
X256251Y208749D01*
X255868Y208176D01*
X255774Y207705D01*
X254435Y206365D01*
X244125D01*
X244107Y206391D01*
X243469Y206817D01*
X242717Y206967D01*
X239370D01*
X238617Y206817D01*
X237979Y206391D01*
X237553Y205753D01*
X237403Y205000D01*
X237553Y204247D01*
X237979Y203609D01*
X238617Y203183D01*
X239370Y203033D01*
X242717D01*
X243469Y203183D01*
X244107Y203609D01*
X244125Y203635D01*
X255000D01*
X255522Y203739D01*
X255965Y204035D01*
X257705Y205774D01*
X258176Y205868D01*
X258749Y206251D01*
X259151Y205964D01*
X259010Y205753D01*
X258860Y205000D01*
X259010Y204247D01*
X259436Y203609D01*
X260074Y203183D01*
X260827Y203033D01*
X264173D01*
X264926Y203183D01*
X265564Y203609D01*
X265990Y204247D01*
X266140Y205000D01*
X265990Y205753D01*
X265564Y206391D01*
X264926Y206817D01*
X264266Y206948D01*
Y209488D01*
X266102D01*
Y209760D01*
X268865D01*
X269760Y208865D01*
D02*
G37*
G36*
X82260Y198602D02*
X81988D01*
Y191398D01*
X83234D01*
Y189448D01*
X82574Y189317D01*
X81936Y188891D01*
X81510Y188253D01*
X81360Y187500D01*
X81510Y186747D01*
X81936Y186109D01*
X82574Y185683D01*
X83327Y185533D01*
X86673D01*
X87426Y185683D01*
X87654Y185835D01*
X87701Y185846D01*
X88315Y185676D01*
X88569Y185296D01*
X89226Y184857D01*
X89638Y184775D01*
X89802Y184233D01*
X89435Y183865D01*
X88081D01*
X88064Y183891D01*
X87426Y184317D01*
X86673Y184467D01*
X83327D01*
X82574Y184317D01*
X81936Y183891D01*
X81510Y183253D01*
X81360Y182500D01*
X81510Y181747D01*
X81936Y181109D01*
X82574Y180683D01*
X83327Y180533D01*
X86673D01*
X87426Y180683D01*
X88064Y181109D01*
X88081Y181135D01*
X90000D01*
X90522Y181239D01*
X90965Y181535D01*
X93065Y183635D01*
X96752D01*
X96801Y183135D01*
X96726Y183120D01*
X96069Y182682D01*
X95631Y182025D01*
X95576Y181751D01*
X99424D01*
X99369Y182025D01*
X98931Y182682D01*
X98274Y183120D01*
X98199Y183135D01*
X98248Y183635D01*
X103498D01*
X103705Y183135D01*
X95832Y175262D01*
X92693D01*
X92644Y175762D01*
X92828Y175799D01*
X93176Y175868D01*
X93749Y176251D01*
X94132Y176824D01*
X94266Y177500D01*
X94132Y178176D01*
X93749Y178749D01*
X93176Y179132D01*
X92500Y179266D01*
X91824Y179132D01*
X91425Y178865D01*
X88081D01*
X88064Y178891D01*
X87426Y179317D01*
X86673Y179467D01*
X83327D01*
X82574Y179317D01*
X81936Y178891D01*
X81510Y178253D01*
X81360Y177500D01*
X81510Y176747D01*
X81936Y176109D01*
X82574Y175683D01*
X83327Y175533D01*
X86673D01*
X87426Y175683D01*
X88064Y176109D01*
X88081Y176135D01*
X91425D01*
X91824Y175868D01*
X92172Y175799D01*
X92356Y175762D01*
X92307Y175262D01*
X91532D01*
X91010Y175159D01*
X90567Y174863D01*
X89569Y173865D01*
X88081D01*
X88064Y173891D01*
X87426Y174317D01*
X86673Y174467D01*
X83327D01*
X82574Y174317D01*
X81936Y173891D01*
X81510Y173253D01*
X81360Y172500D01*
X81510Y171747D01*
X81936Y171109D01*
X82574Y170683D01*
X83327Y170533D01*
X86673D01*
X87167Y170631D01*
X87414Y170171D01*
X86704Y169461D01*
X86673Y169467D01*
X83327D01*
X82574Y169317D01*
X81936Y168891D01*
X81510Y168253D01*
X81360Y167500D01*
X81510Y166747D01*
X81936Y166109D01*
X82574Y165683D01*
X83327Y165533D01*
X86673D01*
X87426Y165683D01*
X88064Y166109D01*
X88490Y166747D01*
X88640Y167500D01*
X88634Y167531D01*
X89739Y168635D01*
X91339D01*
Y166693D01*
X92198D01*
Y164950D01*
X92302Y164428D01*
X92344Y164365D01*
X92077Y163865D01*
X91075D01*
X90676Y164132D01*
X90000Y164266D01*
X89324Y164132D01*
X88924Y163865D01*
X88081D01*
X88064Y163891D01*
X87426Y164317D01*
X86673Y164467D01*
X83327D01*
X82574Y164317D01*
X81936Y163891D01*
X81510Y163253D01*
X81360Y162500D01*
X81510Y161747D01*
X81936Y161109D01*
X82574Y160683D01*
X83327Y160533D01*
X86673D01*
X87426Y160683D01*
X88064Y161109D01*
X88081Y161135D01*
X88924D01*
X89324Y160868D01*
X90000Y160734D01*
X90676Y160868D01*
X91075Y161135D01*
X92720D01*
X94264Y159591D01*
X94139Y159008D01*
X93751Y158749D01*
X93368Y158176D01*
X93274Y157705D01*
X88435Y152865D01*
X74339D01*
X74147Y153327D01*
X76956Y156135D01*
X81919D01*
X81936Y156109D01*
X82574Y155683D01*
X83327Y155533D01*
X86673D01*
X87426Y155683D01*
X88064Y156109D01*
X88490Y156747D01*
X88640Y157500D01*
X88490Y158253D01*
X88064Y158891D01*
X87426Y159317D01*
X86673Y159467D01*
X83327D01*
X82574Y159317D01*
X81936Y158891D01*
X81919Y158865D01*
X76391D01*
X75868Y158761D01*
X75425Y158465D01*
X71754Y154794D01*
X65355D01*
X65306Y155294D01*
X66068Y155446D01*
X66789Y155928D01*
X67271Y156649D01*
X67341Y157000D01*
X63543D01*
Y157500D01*
X63043D01*
Y159724D01*
X61870D01*
X61019Y159555D01*
X60298Y159072D01*
X59927Y158517D01*
X59351Y158385D01*
X56853Y160883D01*
Y167011D01*
X56761Y167475D01*
X56766Y167500D01*
X56632Y168176D01*
X56249Y168749D01*
X55676Y169132D01*
X55000Y169266D01*
X54324Y169132D01*
X53751Y168749D01*
X53368Y168176D01*
X53234Y167500D01*
X53368Y166824D01*
X53751Y166251D01*
X54124Y166002D01*
Y160318D01*
X54228Y159796D01*
X54523Y159353D01*
X60550Y153327D01*
X60359Y152865D01*
X56799D01*
X50510Y159154D01*
X50067Y159450D01*
X49545Y159554D01*
X39591D01*
X39421Y160054D01*
X39718Y160282D01*
X40217Y160932D01*
X40530Y161688D01*
X40637Y162500D01*
X40530Y163312D01*
X40240Y164013D01*
Y168865D01*
X49359Y177984D01*
X49794Y178551D01*
X50068Y179212D01*
X50161Y179921D01*
Y191991D01*
X50610Y192213D01*
X50804Y192063D01*
X51622Y191724D01*
X52000Y191675D01*
Y195000D01*
Y198325D01*
X51622Y198276D01*
X50804Y197937D01*
X50610Y197787D01*
X50161Y198009D01*
Y198786D01*
X51135Y199760D01*
X82260D01*
Y198602D01*
D02*
G37*
G36*
X127260D02*
X126988D01*
Y191398D01*
X128234D01*
Y189448D01*
X127574Y189317D01*
X126936Y188891D01*
X126510Y188253D01*
X126360Y187500D01*
X126510Y186747D01*
X126936Y186109D01*
X127574Y185683D01*
X128327Y185533D01*
X131673D01*
X132426Y185683D01*
X132741Y185893D01*
X133241Y185626D01*
Y184374D01*
X132741Y184107D01*
X132426Y184317D01*
X131673Y184467D01*
X128327D01*
X127574Y184317D01*
X126936Y183891D01*
X126919Y183865D01*
X115859D01*
X115459Y184132D01*
X114784Y184266D01*
X114108Y184132D01*
X113535Y183749D01*
X113152Y183176D01*
X113017Y182500D01*
X113152Y181824D01*
X113535Y181251D01*
X114108Y180868D01*
X114784Y180734D01*
X115459Y180868D01*
X115859Y181135D01*
X126919D01*
X126936Y181109D01*
X127574Y180683D01*
X128327Y180533D01*
X131673D01*
X132426Y180683D01*
X132741Y180893D01*
X133241Y180626D01*
Y179374D01*
X132741Y179107D01*
X132426Y179317D01*
X131673Y179467D01*
X128327D01*
X127574Y179317D01*
X126936Y178891D01*
X126919Y178865D01*
X124272D01*
X123749Y178761D01*
X123307Y178465D01*
X122471Y177629D01*
X122276Y177664D01*
X121961Y177826D01*
X121848Y178392D01*
X121465Y178965D01*
X120892Y179348D01*
X120217Y179483D01*
X119541Y179348D01*
X118968Y178965D01*
X118900Y178865D01*
X111625D01*
X111607Y178891D01*
X110969Y179317D01*
X110216Y179467D01*
X106870D01*
X106117Y179317D01*
X105479Y178891D01*
X105462Y178865D01*
X105384D01*
X104984Y179132D01*
X104388Y179250D01*
X104247Y179500D01*
X104181Y179751D01*
X105515Y181085D01*
X106117Y180683D01*
X106870Y180533D01*
X110216D01*
X110969Y180683D01*
X111607Y181109D01*
X112034Y181747D01*
X112183Y182500D01*
X112034Y183253D01*
X111607Y183891D01*
X110969Y184317D01*
X110216Y184467D01*
X106993D01*
X106693Y184722D01*
Y185157D01*
X107087Y185533D01*
X110216D01*
X110969Y185683D01*
X111607Y186109D01*
X112034Y186747D01*
X112183Y187500D01*
X112034Y188253D01*
X111607Y188891D01*
X110969Y189317D01*
X110216Y189467D01*
X106870D01*
X106117Y189317D01*
X105479Y188891D01*
X105462Y188865D01*
X103576D01*
X103176Y189132D01*
X102500Y189266D01*
X101824Y189132D01*
X101251Y188749D01*
X100868Y188176D01*
X100734Y187500D01*
X100860Y186865D01*
X100848Y186745D01*
X100645Y186365D01*
X92500D01*
X92459Y186357D01*
X92047Y186706D01*
X92013Y186778D01*
X91869Y187501D01*
X91431Y188157D01*
X90774Y188595D01*
X90500Y188650D01*
Y186726D01*
X89500D01*
Y188650D01*
X89226Y188595D01*
X88943Y188407D01*
X88499Y188256D01*
X88302Y188534D01*
X88064Y188891D01*
X87426Y189317D01*
X86766Y189448D01*
Y191398D01*
X88012D01*
Y198602D01*
X88012D01*
X87977Y199102D01*
X88635Y199760D01*
X127260D01*
Y198602D01*
D02*
G37*
G36*
X252655Y173135D02*
X252128Y172783D01*
X251646Y172062D01*
X251576Y171711D01*
X253701D01*
Y170711D01*
X251576D01*
X251646Y170360D01*
X252128Y169638D01*
X252683Y169267D01*
X252815Y168692D01*
X251497Y167374D01*
X243255D01*
X243206Y167874D01*
X243568Y167946D01*
X244289Y168428D01*
X244771Y169149D01*
X244841Y169500D01*
X241043D01*
Y170500D01*
X245307D01*
X245342Y170545D01*
X245774Y170631D01*
X246431Y171069D01*
X246869Y171726D01*
X246924Y172000D01*
X245000D01*
Y173000D01*
X246924D01*
X246897Y173135D01*
X247183Y173635D01*
X252504D01*
X252655Y173135D01*
D02*
G37*
G36*
X253325Y154260D02*
X253234Y153799D01*
X253368Y153123D01*
X253635Y152724D01*
Y151605D01*
X253609Y151588D01*
X253183Y150950D01*
X253033Y150197D01*
Y143701D01*
X253183Y142948D01*
X253609Y142310D01*
X253635Y142293D01*
Y138179D01*
X241964Y126508D01*
X241684Y126547D01*
X241506Y127076D01*
X250965Y136535D01*
X251261Y136978D01*
X251365Y137500D01*
Y142293D01*
X251391Y142310D01*
X251817Y142948D01*
X251967Y143701D01*
Y150197D01*
X251817Y150950D01*
X251391Y151588D01*
X250753Y152014D01*
X250000Y152164D01*
X249247Y152014D01*
X248609Y151588D01*
X248183Y150950D01*
X248033Y150197D01*
Y143701D01*
X248183Y142948D01*
X248609Y142310D01*
X248635Y142293D01*
Y138065D01*
X239435Y128865D01*
X238888D01*
X238681Y129365D01*
X245965Y136649D01*
X246261Y137092D01*
X246365Y137614D01*
Y142293D01*
X246391Y142310D01*
X246817Y142948D01*
X246967Y143701D01*
Y150197D01*
X246817Y150950D01*
X246391Y151588D01*
X245753Y152014D01*
X245000Y152164D01*
X244247Y152014D01*
X243931Y152369D01*
X244369Y153025D01*
X244424Y153299D01*
X243000D01*
Y151875D01*
X243274Y151930D01*
X243289Y151940D01*
X243609Y151588D01*
X243183Y150950D01*
X243033Y150197D01*
Y143701D01*
X243183Y142948D01*
X243609Y142310D01*
X243635Y142293D01*
Y138179D01*
X237428Y131972D01*
X237376Y132000D01*
X233076D01*
X233103Y131865D01*
X232817Y131365D01*
X228254D01*
X228047Y131865D01*
X235965Y139783D01*
X236261Y140226D01*
X236365Y140748D01*
Y142293D01*
X236391Y142310D01*
X236817Y142948D01*
X236967Y143701D01*
Y150197D01*
X236817Y150950D01*
X236391Y151588D01*
X235753Y152014D01*
X235000Y152164D01*
X234247Y152014D01*
X233609Y151588D01*
X233183Y150950D01*
X233033Y150197D01*
Y143701D01*
X233183Y142948D01*
X233609Y142310D01*
X233635Y142293D01*
Y141313D01*
X226108Y133786D01*
X225104D01*
X224934Y134105D01*
X224881Y134286D01*
X224924Y134500D01*
X223000D01*
Y135500D01*
X224924D01*
X224869Y135774D01*
X224431Y136431D01*
X223774Y136869D01*
X223691Y136886D01*
X223546Y137364D01*
X225965Y139783D01*
X226261Y140226D01*
X226365Y140748D01*
Y142293D01*
X226391Y142310D01*
X226817Y142948D01*
X226967Y143701D01*
Y150197D01*
X226817Y150950D01*
X226391Y151588D01*
X225753Y152014D01*
X225000Y152164D01*
X224247Y152014D01*
X223609Y151588D01*
X223183Y150950D01*
X223033Y150197D01*
Y143701D01*
X223183Y142948D01*
X223609Y142310D01*
X223635Y142293D01*
Y141313D01*
X218037Y135715D01*
X217551D01*
X217359Y136177D01*
X220965Y139783D01*
X221261Y140226D01*
X221365Y140748D01*
Y142293D01*
X221391Y142310D01*
X221817Y142948D01*
X221967Y143701D01*
Y150197D01*
X221817Y150950D01*
X221391Y151588D01*
X220753Y152014D01*
X220000Y152164D01*
X219247Y152014D01*
X218609Y151588D01*
X218183Y150950D01*
X218033Y150197D01*
Y143701D01*
X218183Y142948D01*
X218609Y142310D01*
X218635Y142293D01*
Y141313D01*
X214966Y137644D01*
X214480D01*
X214288Y138106D01*
X215965Y139783D01*
X216261Y140226D01*
X216365Y140748D01*
Y142293D01*
X216391Y142310D01*
X216817Y142948D01*
X216967Y143701D01*
Y150197D01*
X216817Y150950D01*
X216391Y151588D01*
X215753Y152014D01*
X215000Y152164D01*
X214247Y152014D01*
X213609Y151588D01*
X213183Y150950D01*
X213033Y150197D01*
Y143701D01*
X213183Y142948D01*
X213609Y142310D01*
X213635Y142293D01*
Y141313D01*
X211895Y139574D01*
X210962D01*
X210770Y140035D01*
X210965Y140230D01*
X211261Y140673D01*
X211365Y141195D01*
Y142293D01*
X211391Y142310D01*
X211817Y142948D01*
X211967Y143701D01*
Y150197D01*
X211817Y150950D01*
X211391Y151588D01*
X210753Y152014D01*
X210000Y152164D01*
X209247Y152014D01*
X208609Y151588D01*
X208183Y150950D01*
X208033Y150197D01*
Y143701D01*
X208183Y142948D01*
X208609Y142310D01*
X208635Y142293D01*
Y141761D01*
X208377Y141503D01*
X206782D01*
X206459Y142003D01*
X206550Y142461D01*
X206536Y142528D01*
X206817Y142948D01*
X206967Y143701D01*
Y150197D01*
X206817Y150950D01*
X206391Y151588D01*
X205753Y152014D01*
X205000Y152164D01*
X204247Y152014D01*
X203609Y151588D01*
X203183Y150950D01*
X203033Y150197D01*
Y143701D01*
X203012Y143675D01*
X202443D01*
X202166Y143690D01*
X201967Y144144D01*
Y150197D01*
X201817Y150950D01*
X201766Y151026D01*
Y153874D01*
X202514D01*
X202668Y153810D01*
X203378Y153717D01*
X236819D01*
X237528Y153810D01*
X238189Y154084D01*
X238757Y154519D01*
X238998Y154760D01*
X240200D01*
X240540Y154299D01*
X244460D01*
X244800Y154760D01*
X253003D01*
X253325Y154260D01*
D02*
G37*
G36*
X200356Y161564D02*
X200165Y161102D01*
X196988D01*
Y153898D01*
X198234D01*
Y151026D01*
X198183Y150950D01*
X198033Y150197D01*
Y143895D01*
X198033Y143701D01*
X197577Y143432D01*
X196646D01*
X196400Y143932D01*
X196735Y144369D01*
X197074Y145186D01*
X197123Y145564D01*
X190473D01*
X190522Y145186D01*
X190861Y144369D01*
X191196Y143932D01*
X190950Y143432D01*
X183161D01*
X182969Y143894D01*
X188465Y149389D01*
X188761Y149832D01*
X188865Y150354D01*
Y153314D01*
X189132Y153714D01*
X189150Y153804D01*
X189650Y153754D01*
Y153646D01*
X192413D01*
Y157000D01*
X189650D01*
Y155025D01*
X189150Y154976D01*
X189132Y155066D01*
X188749Y155639D01*
X188176Y156022D01*
X187500Y156156D01*
X186865Y156030D01*
X186745Y156042D01*
X186365Y156245D01*
Y159435D01*
X188465Y161535D01*
X188761Y161978D01*
X188865Y162500D01*
Y171424D01*
X189132Y171824D01*
X189174Y172039D01*
X189717Y172204D01*
X200356Y161564D01*
D02*
G37*
G36*
X49760Y133003D02*
Y123602D01*
X49488D01*
Y116398D01*
X49760D01*
Y114582D01*
X49720Y114551D01*
X49095Y113737D01*
X48703Y112789D01*
X48569Y111772D01*
Y108228D01*
X48703Y107211D01*
X49095Y106263D01*
X49720Y105448D01*
X50534Y104824D01*
X50734Y104741D01*
Y103232D01*
X44268Y96766D01*
X40807D01*
Y100862D01*
X38865D01*
Y108684D01*
X39365Y108783D01*
X39563Y108304D01*
X40102Y107602D01*
X40804Y107063D01*
X41622Y106724D01*
X42000Y106675D01*
Y110000D01*
Y113325D01*
X41622Y113276D01*
X40804Y112937D01*
X40102Y112398D01*
X39563Y111696D01*
X39365Y111217D01*
X38865Y111316D01*
Y126935D01*
X41998Y130068D01*
X42596Y130102D01*
X42670Y130050D01*
X43304Y129563D01*
X44122Y129224D01*
X44500Y129175D01*
Y132500D01*
X45000D01*
Y133000D01*
X48432D01*
X48702Y133253D01*
X48799Y133234D01*
X49260Y133326D01*
X49760Y133003D01*
D02*
G37*
G36*
X102739Y140240D02*
X102295Y139796D01*
X101824Y139703D01*
X101251Y139320D01*
X100868Y138747D01*
X100786Y138335D01*
X83055Y120604D01*
X82667Y120923D01*
X82869Y121226D01*
X82924Y121500D01*
X81500D01*
Y120076D01*
X81774Y120131D01*
X82077Y120333D01*
X82396Y119945D01*
X76370Y113919D01*
X76309Y113895D01*
X75721Y113977D01*
X75280Y114551D01*
X74466Y115176D01*
X73518Y115569D01*
X72695Y115677D01*
X72490Y116178D01*
X78506Y122195D01*
X78848Y122053D01*
X78984Y121965D01*
X79131Y121226D01*
X79569Y120569D01*
X80226Y120131D01*
X80500Y120076D01*
Y122000D01*
X81000D01*
Y122500D01*
X82924D01*
X82869Y122774D01*
X82431Y123431D01*
X81774Y123869D01*
X81035Y124016D01*
X80947Y124152D01*
X80805Y124494D01*
X97013Y140702D01*
X102548D01*
X102739Y140240D01*
D02*
G37*
G36*
X269760Y154059D02*
Y93635D01*
X258550Y82425D01*
X246907D01*
X246700Y82925D01*
X260882Y97107D01*
X261178Y97550D01*
X261282Y98072D01*
Y98340D01*
X261391Y98412D01*
X261817Y99050D01*
X261967Y99803D01*
Y106299D01*
X261817Y107052D01*
X261391Y107690D01*
X261365Y107707D01*
Y109048D01*
X261549Y109324D01*
X261684Y110000D01*
X261549Y110676D01*
X261166Y111249D01*
X260593Y111632D01*
X259917Y111766D01*
X259242Y111632D01*
X258668Y111249D01*
X258286Y110676D01*
X258151Y110000D01*
X258286Y109324D01*
X258635Y108801D01*
Y107707D01*
X258609Y107690D01*
X258183Y107052D01*
X258033Y106299D01*
Y99803D01*
X258183Y99050D01*
X258496Y98581D01*
X256865Y96950D01*
X256365Y97157D01*
Y98395D01*
X256391Y98412D01*
X256817Y99050D01*
X256967Y99803D01*
Y106299D01*
X256817Y107052D01*
X256391Y107690D01*
X256365Y107707D01*
Y108924D01*
X256632Y109324D01*
X256766Y110000D01*
X256632Y110676D01*
X256249Y111249D01*
X255676Y111632D01*
X255000Y111766D01*
X254324Y111632D01*
X253751Y111249D01*
X253368Y110676D01*
X253234Y110000D01*
X253368Y109324D01*
X253635Y108924D01*
Y107707D01*
X253609Y107690D01*
X253183Y107052D01*
X253033Y106299D01*
Y99803D01*
X253183Y99050D01*
X253609Y98412D01*
X253635Y98395D01*
Y97416D01*
X227013Y70794D01*
X225936D01*
X225745Y71256D01*
X250965Y96476D01*
X251261Y96919D01*
X251365Y97441D01*
Y98395D01*
X251391Y98412D01*
X251817Y99050D01*
X251967Y99803D01*
Y106299D01*
X251817Y107052D01*
X251391Y107690D01*
X251365Y107707D01*
Y108924D01*
X251632Y109324D01*
X251766Y110000D01*
X251632Y110676D01*
X251249Y111249D01*
X250676Y111632D01*
X250000Y111766D01*
X249324Y111632D01*
X248751Y111249D01*
X248368Y110676D01*
X248234Y110000D01*
X248368Y109324D01*
X248635Y108924D01*
Y107707D01*
X248609Y107690D01*
X248183Y107052D01*
X248033Y106299D01*
Y99803D01*
X248183Y99050D01*
X248609Y98412D01*
X248567Y97938D01*
X223352Y72723D01*
X222807D01*
X222615Y73185D01*
X245965Y96535D01*
X246261Y96978D01*
X246365Y97500D01*
Y98395D01*
X246391Y98412D01*
X246817Y99050D01*
X246967Y99803D01*
Y106299D01*
X246817Y107052D01*
X246391Y107690D01*
X245753Y108116D01*
X245000Y108266D01*
X244247Y108116D01*
X243609Y107690D01*
X243183Y107052D01*
X243033Y106299D01*
Y99803D01*
X243183Y99050D01*
X243609Y98412D01*
X243517Y97947D01*
X220222Y74652D01*
X219736D01*
X219544Y75114D01*
X240965Y96535D01*
X241261Y96978D01*
X241365Y97500D01*
Y98395D01*
X241391Y98412D01*
X241817Y99050D01*
X241967Y99803D01*
Y106299D01*
X241817Y107052D01*
X241391Y107690D01*
X240753Y108116D01*
X240000Y108266D01*
X239247Y108116D01*
X238609Y107690D01*
X238183Y107052D01*
X238033Y106299D01*
Y99803D01*
X238183Y99050D01*
X238609Y98412D01*
X238517Y97947D01*
X217151Y76581D01*
X216665D01*
X216473Y77043D01*
X235965Y96535D01*
X236261Y96978D01*
X236365Y97500D01*
Y98395D01*
X236391Y98412D01*
X236817Y99050D01*
X236967Y99803D01*
Y106299D01*
X236817Y107052D01*
X236391Y107690D01*
X235753Y108116D01*
X235000Y108266D01*
X234247Y108116D01*
X233609Y107690D01*
X233183Y107052D01*
X233033Y106299D01*
Y99803D01*
X233183Y99050D01*
X233609Y98412D01*
X233517Y97947D01*
X214080Y78510D01*
X213594D01*
X213403Y78972D01*
X230965Y96535D01*
X231261Y96978D01*
X231365Y97500D01*
Y98395D01*
X231391Y98412D01*
X231817Y99050D01*
X231967Y99803D01*
Y106299D01*
X231817Y107052D01*
X231391Y107690D01*
X230753Y108116D01*
X230000Y108266D01*
X229247Y108116D01*
X228609Y107690D01*
X228183Y107052D01*
X228033Y106299D01*
Y99803D01*
X228183Y99050D01*
X228609Y98412D01*
X228517Y97947D01*
X211010Y80440D01*
X210523D01*
X210332Y80901D01*
X225965Y96535D01*
X226261Y96978D01*
X226365Y97500D01*
Y98395D01*
X226391Y98412D01*
X226817Y99050D01*
X226967Y99803D01*
Y106299D01*
X226817Y107052D01*
X226391Y107690D01*
X225753Y108116D01*
X225000Y108266D01*
X224247Y108116D01*
X223609Y107690D01*
X223183Y107052D01*
X223033Y106299D01*
Y99803D01*
X223183Y99050D01*
X223609Y98412D01*
X223517Y97947D01*
X207939Y82369D01*
X207452D01*
X207261Y82831D01*
X220965Y96535D01*
X221261Y96978D01*
X221365Y97500D01*
Y98395D01*
X221391Y98412D01*
X221817Y99050D01*
X221967Y99803D01*
Y106299D01*
X221817Y107052D01*
X221391Y107690D01*
X220753Y108116D01*
X220000Y108266D01*
X219247Y108116D01*
X218609Y107690D01*
X218183Y107052D01*
X218033Y106299D01*
Y99803D01*
X218183Y99050D01*
X218609Y98412D01*
X218517Y97947D01*
X205006Y84436D01*
X204519D01*
X204328Y84898D01*
X215965Y96535D01*
X216261Y96978D01*
X216365Y97500D01*
Y98395D01*
X216391Y98412D01*
X216817Y99050D01*
X216967Y99803D01*
Y106299D01*
X216817Y107052D01*
X216391Y107690D01*
X215753Y108116D01*
X215000Y108266D01*
X214247Y108116D01*
X213609Y107690D01*
X213183Y107052D01*
X213033Y106299D01*
Y99803D01*
X213183Y99050D01*
X213609Y98412D01*
X213517Y97947D01*
X201935Y86365D01*
X201148D01*
X200941Y86865D01*
X210739Y96663D01*
X211035Y97106D01*
X211139Y97628D01*
Y98244D01*
X211391Y98412D01*
X211817Y99050D01*
X211967Y99803D01*
Y106299D01*
X211817Y107052D01*
X211391Y107690D01*
X210753Y108116D01*
X210000Y108266D01*
X209247Y108116D01*
X208609Y107690D01*
X208183Y107052D01*
X208033Y106299D01*
Y99803D01*
X208183Y99050D01*
X208409Y98712D01*
Y98194D01*
X206827Y96612D01*
X206378Y96844D01*
X206365Y96856D01*
Y98395D01*
X206391Y98412D01*
X206817Y99050D01*
X206967Y99803D01*
Y106299D01*
X206817Y107052D01*
X206391Y107690D01*
X205753Y108116D01*
X205000Y108266D01*
X204247Y108116D01*
X203609Y107690D01*
X203183Y107052D01*
X203033Y106299D01*
Y99803D01*
X203183Y99050D01*
X203609Y98412D01*
X203635Y98395D01*
Y97416D01*
X197584Y91365D01*
X196502D01*
X196295Y91865D01*
X200965Y96535D01*
X201261Y96978D01*
X201365Y97500D01*
Y98395D01*
X201391Y98412D01*
X201817Y99050D01*
X201967Y99803D01*
Y106299D01*
X201817Y107052D01*
X201391Y107690D01*
X200753Y108116D01*
X200000Y108266D01*
X199247Y108116D01*
X198609Y107690D01*
X198183Y107052D01*
X198033Y106299D01*
Y99803D01*
X198183Y99050D01*
X198609Y98412D01*
X198517Y97947D01*
X194435Y93865D01*
X148065D01*
X146830Y95100D01*
X147000Y95419D01*
Y97000D01*
X145419D01*
X145100Y96830D01*
X138865Y103065D01*
Y105742D01*
X139365Y105912D01*
X139720Y105448D01*
X140534Y104824D01*
X141482Y104431D01*
X142500Y104297D01*
X143517Y104431D01*
X144466Y104824D01*
X145280Y105448D01*
X145905Y106263D01*
X146297Y107211D01*
X146431Y108228D01*
Y111772D01*
X146297Y112789D01*
X145905Y113737D01*
X145280Y114551D01*
X144466Y115176D01*
X144332Y115232D01*
X144234Y115722D01*
X151841Y123329D01*
X152341Y123122D01*
Y115682D01*
X151482Y115569D01*
X150534Y115176D01*
X149720Y114551D01*
X149095Y113737D01*
X148703Y112789D01*
X148569Y111772D01*
Y108228D01*
X148703Y107211D01*
X149095Y106263D01*
X149720Y105448D01*
X150534Y104824D01*
X151482Y104431D01*
X152500Y104297D01*
X153517Y104431D01*
X154466Y104824D01*
X155280Y105448D01*
X155905Y106263D01*
X156297Y107211D01*
X156431Y108228D01*
Y111772D01*
X156297Y112789D01*
X155905Y113737D01*
X155280Y114551D01*
X155017Y114753D01*
X155071Y115023D01*
Y122767D01*
X158256Y125952D01*
X158727Y126045D01*
X158861Y126135D01*
X174226D01*
X174433Y125635D01*
X164118Y115320D01*
X163517Y115569D01*
X162500Y115703D01*
X161483Y115569D01*
X160534Y115176D01*
X159720Y114551D01*
X159095Y113737D01*
X158703Y112789D01*
X158569Y111772D01*
Y108228D01*
X158703Y107211D01*
X159095Y106263D01*
X159720Y105448D01*
X160534Y104824D01*
X161483Y104431D01*
X162500Y104297D01*
X163517Y104431D01*
X164466Y104824D01*
X165280Y105448D01*
X165905Y106263D01*
X166297Y107211D01*
X166431Y108228D01*
Y111772D01*
X166297Y112789D01*
X166048Y113390D01*
X176294Y123635D01*
X242386D01*
X242908Y123739D01*
X243351Y124035D01*
X255965Y136649D01*
X256261Y137092D01*
X256365Y137614D01*
Y142293D01*
X256391Y142310D01*
X256817Y142948D01*
X256967Y143701D01*
Y150197D01*
X256817Y150950D01*
X256391Y151588D01*
X256365Y151605D01*
Y152724D01*
X256632Y153123D01*
X256766Y153799D01*
X256675Y154260D01*
X256997Y154760D01*
X257889D01*
X258211Y154260D01*
X258120Y153799D01*
X258254Y153123D01*
X258635Y152553D01*
Y151605D01*
X258609Y151588D01*
X258183Y150950D01*
X258033Y150197D01*
Y143701D01*
X258183Y142948D01*
X258521Y142442D01*
Y138179D01*
X239207Y118865D01*
X236276D01*
X236124Y119365D01*
X236431Y119569D01*
X236869Y120226D01*
X236924Y120500D01*
X233076D01*
X233131Y120226D01*
X233569Y119569D01*
X233876Y119365D01*
X233724Y118865D01*
X192276D01*
X192124Y119365D01*
X192431Y119569D01*
X192869Y120226D01*
X192924Y120500D01*
X189076D01*
X189131Y120226D01*
X189569Y119569D01*
X189876Y119365D01*
X189724Y118865D01*
X178228D01*
X177706Y118761D01*
X177263Y118465D01*
X174118Y115320D01*
X173518Y115569D01*
X172500Y115703D01*
X171483Y115569D01*
X170534Y115176D01*
X169720Y114551D01*
X169095Y113737D01*
X168703Y112789D01*
X168569Y111772D01*
Y108228D01*
X168703Y107211D01*
X169095Y106263D01*
X169720Y105448D01*
X170534Y104824D01*
X171483Y104431D01*
X172500Y104297D01*
X173518Y104431D01*
X174466Y104824D01*
X175280Y105448D01*
X175905Y106263D01*
X176297Y107211D01*
X176431Y108228D01*
Y111772D01*
X176297Y112789D01*
X176048Y113390D01*
X178794Y116135D01*
X181953D01*
X181986Y115635D01*
X181483Y115569D01*
X180534Y115176D01*
X179720Y114551D01*
X179095Y113737D01*
X178703Y112789D01*
X178569Y111772D01*
Y108228D01*
X178703Y107211D01*
X179095Y106263D01*
X179720Y105448D01*
X180534Y104824D01*
X181483Y104431D01*
X182500Y104297D01*
X183518Y104431D01*
X184466Y104824D01*
X185280Y105448D01*
X185905Y106263D01*
X186297Y107211D01*
X186431Y108228D01*
Y111772D01*
X186405Y111974D01*
X188636Y114206D01*
X202750D01*
X202985Y113765D01*
X202760Y113428D01*
X202675Y113000D01*
X207325D01*
X207240Y113428D01*
X207015Y113765D01*
X207250Y114206D01*
X240571D01*
X241093Y114310D01*
X241536Y114606D01*
X265965Y139035D01*
X266261Y139478D01*
X266365Y140000D01*
Y142293D01*
X266391Y142310D01*
X266817Y142948D01*
X266967Y143701D01*
Y150197D01*
X266817Y150950D01*
X266391Y151588D01*
X266365Y151605D01*
Y152724D01*
X266632Y153123D01*
X266766Y153799D01*
X266674Y154260D01*
X266997Y154760D01*
X269059D01*
X269760Y154059D01*
D02*
G37*
G36*
X115180Y136382D02*
X94118Y115320D01*
X93518Y115569D01*
X92500Y115703D01*
X91483Y115569D01*
X90534Y115176D01*
X89720Y114551D01*
X89095Y113737D01*
X88703Y112789D01*
X88569Y111772D01*
Y108228D01*
X88703Y107211D01*
X89095Y106263D01*
X89720Y105448D01*
X90534Y104824D01*
X91483Y104431D01*
X92500Y104297D01*
X93518Y104431D01*
X94466Y104824D01*
X95280Y105448D01*
X95905Y106263D01*
X96297Y107211D01*
X96431Y108228D01*
Y111772D01*
X96297Y112789D01*
X96048Y113390D01*
X117573Y134915D01*
X121303D01*
X121494Y134453D01*
X104094Y117052D01*
X103798Y116610D01*
X103742Y116329D01*
X103044Y115631D01*
X102500Y115703D01*
X101482Y115569D01*
X100534Y115176D01*
X99720Y114551D01*
X99095Y113737D01*
X98703Y112789D01*
X98569Y111772D01*
Y108228D01*
X98703Y107211D01*
X99095Y106263D01*
X99720Y105448D01*
X100534Y104824D01*
X101482Y104431D01*
X102401Y104310D01*
X102660Y103862D01*
X54467Y55669D01*
X49377D01*
Y76828D01*
X77953Y105404D01*
X78249Y105847D01*
X78353Y106369D01*
Y106749D01*
X78853Y106848D01*
X79095Y106263D01*
X79720Y105448D01*
X80534Y104824D01*
X81482Y104431D01*
X82500Y104297D01*
X83517Y104431D01*
X84466Y104824D01*
X85280Y105448D01*
X85905Y106263D01*
X86297Y107211D01*
X86431Y108228D01*
Y111772D01*
X86297Y112789D01*
X86049Y113390D01*
X109502Y136844D01*
X114989D01*
X115180Y136382D01*
D02*
G37*
G36*
X116647Y106748D02*
Y106369D01*
X116751Y105847D01*
X117047Y105404D01*
X119676Y102775D01*
X120119Y102479D01*
X120641Y102375D01*
X128925D01*
X129324Y102108D01*
X130000Y101974D01*
X130676Y102108D01*
X131249Y102491D01*
X131632Y103064D01*
X131766Y103740D01*
X131717Y103990D01*
X132058Y104355D01*
X132500Y104297D01*
X133518Y104431D01*
X134466Y104824D01*
X135280Y105448D01*
X135635Y105912D01*
X136135Y105742D01*
Y102500D01*
X136239Y101978D01*
X136535Y101535D01*
X146205Y91865D01*
X145998Y91365D01*
X142276D01*
X142124Y91865D01*
X142431Y92069D01*
X142869Y92726D01*
X142924Y93000D01*
X139076D01*
X139131Y92726D01*
X139569Y92069D01*
X139876Y91865D01*
X139724Y91365D01*
X104114D01*
X103969Y91742D01*
X103945Y91865D01*
X104369Y92500D01*
X104424Y92774D01*
X100576D01*
X100631Y92500D01*
X101055Y91865D01*
X101031Y91742D01*
X100886Y91365D01*
X100728D01*
X100206Y91261D01*
X99763Y90965D01*
X64118Y55320D01*
X63517Y55569D01*
X62599Y55690D01*
X62340Y56138D01*
X100089Y93887D01*
X100301Y93774D01*
X102000D01*
Y95474D01*
X101887Y95685D01*
X110882Y104680D01*
X111483Y104431D01*
X112500Y104297D01*
X113517Y104431D01*
X114466Y104824D01*
X115280Y105448D01*
X115905Y106263D01*
X116147Y106848D01*
X116647Y106748D01*
D02*
G37*
G36*
X12545Y107060D02*
X12987Y106764D01*
X13502Y106662D01*
X19109Y101055D01*
X18918Y100593D01*
X17382D01*
X16860Y100489D01*
X16417Y100194D01*
X16289Y100003D01*
X9427D01*
X8865Y100565D01*
Y106950D01*
X9132Y107350D01*
X9266Y108025D01*
X9132Y108701D01*
X8749Y109274D01*
X8176Y109657D01*
X7500Y109792D01*
X6824Y109657D01*
X6251Y109274D01*
X5868Y108701D01*
X5734Y108025D01*
X5868Y107350D01*
X6135Y106950D01*
Y100000D01*
X6239Y99478D01*
X6535Y99035D01*
X7897Y97673D01*
X8340Y97377D01*
X8862Y97273D01*
X15955D01*
X16099Y97058D01*
X15961Y96437D01*
X15951Y96431D01*
X15513Y95774D01*
X15458Y95500D01*
X17382D01*
Y94500D01*
X15458D01*
X15513Y94226D01*
X15951Y93569D01*
X16207Y93399D01*
X16273Y92836D01*
X15997Y92522D01*
X15000D01*
X14478Y92418D01*
X14035Y92123D01*
X4268Y82355D01*
X3806Y82547D01*
Y91868D01*
X4304Y92022D01*
X4961Y91584D01*
X5235Y91529D01*
Y93453D01*
Y95376D01*
X4961Y95322D01*
X4304Y94883D01*
X3806Y95037D01*
Y115146D01*
X4268Y115337D01*
X12545Y107060D01*
D02*
G37*
G36*
X69279Y106023D02*
X69720Y105448D01*
X70534Y104824D01*
X71482Y104431D01*
X72304Y104323D01*
X72510Y103822D01*
X47909Y79221D01*
X47447Y79412D01*
Y84899D01*
X52495Y89946D01*
X53023Y89767D01*
X53131Y89226D01*
X53569Y88569D01*
X54226Y88131D01*
X54500Y88076D01*
Y90000D01*
X55000D01*
Y90500D01*
X56924D01*
X56869Y90774D01*
X56431Y91431D01*
X55774Y91869D01*
X55233Y91977D01*
X55054Y92505D01*
X61212Y98663D01*
X61826Y98570D01*
X62087Y98179D01*
X62743Y97740D01*
X63017Y97686D01*
Y99609D01*
X63517D01*
Y100109D01*
X65441D01*
X65387Y100383D01*
X64948Y101040D01*
X64557Y101301D01*
X64464Y101915D01*
X68630Y106081D01*
X68691Y106105D01*
X69279Y106023D01*
D02*
G37*
G36*
X38930Y75092D02*
Y45078D01*
X30925Y37072D01*
X30629Y36629D01*
X30525Y36107D01*
Y30220D01*
X30025Y30121D01*
X29783Y30706D01*
X29158Y31520D01*
X28344Y32145D01*
X27395Y32537D01*
X26378Y32671D01*
X25361Y32537D01*
X24412Y32145D01*
X23598Y31520D01*
X22973Y30706D01*
X22581Y29758D01*
X22447Y28740D01*
Y25197D01*
X22581Y24179D01*
X22973Y23231D01*
X23598Y22417D01*
X24412Y21792D01*
X25361Y21399D01*
X26378Y21266D01*
X27395Y21399D01*
X28344Y21792D01*
X29158Y22417D01*
X29783Y23231D01*
X30025Y23817D01*
X30525Y23717D01*
Y23338D01*
X30629Y22816D01*
X30925Y22373D01*
X37097Y16200D01*
X37540Y15904D01*
X38062Y15801D01*
X44640D01*
X46388Y14052D01*
X46182Y13551D01*
X45360Y13443D01*
X44412Y13050D01*
X43598Y12426D01*
X42973Y11611D01*
X42581Y10663D01*
X42447Y9646D01*
Y6102D01*
X42581Y5085D01*
X42973Y4137D01*
X43598Y3322D01*
X44412Y2698D01*
X45360Y2305D01*
X46378Y2171D01*
X47395Y2305D01*
X48344Y2698D01*
X49158Y3322D01*
X49689Y4015D01*
X50125Y4044D01*
X50269Y4005D01*
X50413Y3790D01*
X52938Y1265D01*
X52747Y803D01*
X7177D01*
X5811Y1075D01*
X4524Y1608D01*
X3366Y2381D01*
X2381Y3366D01*
X1608Y4524D01*
X1075Y5811D01*
X803Y7177D01*
Y7874D01*
Y40642D01*
X1303Y40794D01*
X1476Y40535D01*
X5013Y36997D01*
Y32394D01*
X4412Y32145D01*
X3598Y31520D01*
X2973Y30706D01*
X2581Y29758D01*
X2447Y28740D01*
Y25197D01*
X2581Y24179D01*
X2973Y23231D01*
X3598Y22417D01*
X4412Y21792D01*
X5361Y21399D01*
X6182Y21291D01*
X6388Y20790D01*
X5413Y19815D01*
X5117Y19372D01*
X5013Y18850D01*
Y13299D01*
X4412Y13050D01*
X3598Y12426D01*
X2973Y11611D01*
X2581Y10663D01*
X2447Y9646D01*
Y6102D01*
X2581Y5085D01*
X2973Y4137D01*
X3598Y3322D01*
X4412Y2698D01*
X5361Y2305D01*
X6378Y2171D01*
X7395Y2305D01*
X8344Y2698D01*
X9158Y3322D01*
X9782Y4137D01*
X10175Y5085D01*
X10309Y6102D01*
Y9646D01*
X10175Y10663D01*
X9782Y11611D01*
X9158Y12426D01*
X8344Y13050D01*
X7743Y13299D01*
Y18284D01*
X11831Y22373D01*
X12127Y22816D01*
X12231Y23338D01*
Y23717D01*
X12731Y23817D01*
X12973Y23231D01*
X13598Y22417D01*
X14412Y21792D01*
X15360Y21399D01*
X16378Y21266D01*
X17395Y21399D01*
X18344Y21792D01*
X19158Y22417D01*
X19782Y23231D01*
X20175Y24179D01*
X20309Y25197D01*
Y28740D01*
X20175Y29758D01*
X19782Y30706D01*
X19158Y31520D01*
X18344Y32145D01*
X17395Y32537D01*
X16378Y32671D01*
X15360Y32537D01*
X14412Y32145D01*
X13598Y31520D01*
X12973Y30706D01*
X12731Y30121D01*
X12231Y30220D01*
Y35803D01*
X12127Y36325D01*
X11831Y36768D01*
X5735Y42864D01*
Y54201D01*
X5819Y54259D01*
X6458Y54095D01*
X7166Y52659D01*
X8382Y50840D01*
X9825Y49195D01*
X11470Y47752D01*
X13289Y46536D01*
X15252Y45568D01*
X17324Y44865D01*
X19470Y44438D01*
X21654Y44295D01*
X23837Y44438D01*
X25983Y44865D01*
X28055Y45568D01*
X30018Y46536D01*
X31837Y47752D01*
X33483Y49195D01*
X34925Y50840D01*
X36141Y52659D01*
X37109Y54622D01*
X37812Y56694D01*
X38239Y58840D01*
X38382Y61024D01*
X38239Y63207D01*
X37812Y65353D01*
X37109Y67425D01*
X36141Y69388D01*
X34925Y71207D01*
X33483Y72853D01*
X31837Y74295D01*
X30018Y75511D01*
X28055Y76479D01*
X25983Y77182D01*
X23837Y77609D01*
X21654Y77752D01*
X19470Y77609D01*
X17324Y77182D01*
X15252Y76479D01*
X13289Y75511D01*
X11470Y74295D01*
X9825Y72853D01*
X8382Y71207D01*
X7166Y69388D01*
X6458Y67953D01*
X5819Y67788D01*
X5735Y67847D01*
Y79962D01*
X15565Y89793D01*
X16289D01*
X16417Y89602D01*
X16860Y89306D01*
X17382Y89202D01*
X20138D01*
X20660Y89306D01*
X21103Y89602D01*
X21399Y90045D01*
X21503Y90567D01*
Y91748D01*
X21486Y91829D01*
X21947Y92075D01*
X38930Y75092D01*
D02*
G37*
G36*
X31570Y92734D02*
X31063Y92633D01*
X30407Y92194D01*
X29968Y91538D01*
X29914Y91264D01*
X31837D01*
Y90764D01*
X32337D01*
Y88840D01*
X32612Y88895D01*
X33268Y89333D01*
X33693Y89969D01*
X33730Y89977D01*
X34193Y89842D01*
Y88539D01*
X36135D01*
Y82667D01*
X36188Y82402D01*
X35727Y82156D01*
X25338Y92545D01*
X25545Y93045D01*
X27618D01*
X28140Y93148D01*
X28268Y93234D01*
X31521D01*
X31570Y92734D01*
D02*
G37*
G36*
X141125Y77248D02*
X135007Y71130D01*
X134465Y71295D01*
X134369Y71774D01*
X133931Y72431D01*
X133274Y72869D01*
X133000Y72924D01*
Y71000D01*
X132500D01*
Y70500D01*
X130576D01*
X130631Y70226D01*
X131069Y69569D01*
X131726Y69131D01*
X132205Y69036D01*
X132370Y68493D01*
X124948Y61071D01*
X124487Y61317D01*
X124523Y61500D01*
X124369Y62274D01*
X123931Y62931D01*
X123274Y63369D01*
X123000Y63424D01*
Y61500D01*
X122500D01*
Y61000D01*
X120576D01*
X120631Y60726D01*
X121069Y60069D01*
X121726Y59631D01*
X122500Y59477D01*
X122683Y59513D01*
X122930Y59052D01*
X121535Y57658D01*
X121239Y57215D01*
X121135Y56693D01*
Y55425D01*
X120534Y55176D01*
X119720Y54552D01*
X119095Y53737D01*
X118703Y52789D01*
X118569Y51772D01*
Y48228D01*
X118703Y47211D01*
X119095Y46263D01*
X119720Y45448D01*
X120534Y44824D01*
X121135Y44575D01*
Y38965D01*
X121239Y38443D01*
X121535Y38000D01*
X126388Y33147D01*
X126182Y32646D01*
X125361Y32537D01*
X124412Y32145D01*
X123598Y31520D01*
X123157Y30945D01*
X122569Y30864D01*
X122508Y30888D01*
X113865Y39531D01*
Y44575D01*
X114466Y44824D01*
X115280Y45448D01*
X115905Y46263D01*
X116297Y47211D01*
X116431Y48228D01*
Y51772D01*
X116297Y52789D01*
X115905Y53737D01*
X115280Y54552D01*
X114466Y55176D01*
X113865Y55425D01*
Y56128D01*
X120197Y62459D01*
X120236Y62443D01*
X120609Y62165D01*
X120576Y62000D01*
X122000D01*
Y63424D01*
X121835Y63391D01*
X121557Y63764D01*
X121540Y63803D01*
X135447Y77710D01*
X140934D01*
X141125Y77248D01*
D02*
G37*
G36*
X102012Y88135D02*
X71535Y57658D01*
X71239Y57215D01*
X71135Y56693D01*
Y55425D01*
X70534Y55176D01*
X69720Y54552D01*
X69095Y53737D01*
X68703Y52789D01*
X68569Y51772D01*
Y48228D01*
X68703Y47211D01*
X69095Y46263D01*
X69720Y45448D01*
X70534Y44824D01*
X71482Y44431D01*
X72500Y44297D01*
X73518Y44431D01*
X74466Y44824D01*
X75280Y45448D01*
X75905Y46263D01*
X76297Y47211D01*
X76431Y48228D01*
Y51772D01*
X76297Y52789D01*
X75905Y53737D01*
X75280Y54552D01*
X74466Y55176D01*
X73865Y55425D01*
Y56128D01*
X103872Y86135D01*
X109305D01*
X109512Y85635D01*
X89795Y65918D01*
X89324Y65825D01*
X88751Y65442D01*
X88368Y64869D01*
X88275Y64398D01*
X81535Y57658D01*
X81239Y57215D01*
X81135Y56693D01*
Y55425D01*
X80534Y55176D01*
X79720Y54552D01*
X79095Y53737D01*
X78703Y52789D01*
X78569Y51772D01*
Y48228D01*
X78703Y47211D01*
X79095Y46263D01*
X79720Y45448D01*
X80534Y44824D01*
X81482Y44431D01*
X82500Y44297D01*
X83517Y44431D01*
X84466Y44824D01*
X85280Y45448D01*
X85905Y46263D01*
X86297Y47211D01*
X86431Y48228D01*
Y51772D01*
X86297Y52789D01*
X85905Y53737D01*
X85280Y54552D01*
X84466Y55176D01*
X83865Y55425D01*
Y56128D01*
X90205Y62467D01*
X90676Y62561D01*
X91249Y62944D01*
X91632Y63517D01*
X91725Y63988D01*
X99151Y71414D01*
X99587Y71143D01*
X99559Y71000D01*
X100982D01*
Y72424D01*
X100839Y72395D01*
X100568Y72831D01*
X111372Y83635D01*
X116859D01*
X117050Y83173D01*
X103926Y70049D01*
X103465Y70295D01*
X103506Y70500D01*
X103352Y71274D01*
X102913Y71931D01*
X102257Y72369D01*
X101982Y72424D01*
Y70500D01*
X101482D01*
Y70000D01*
X99559D01*
X99613Y69726D01*
X100052Y69069D01*
X100708Y68631D01*
X101482Y68477D01*
X101688Y68518D01*
X101934Y68057D01*
X91535Y57658D01*
X91239Y57215D01*
X91135Y56693D01*
Y55425D01*
X90534Y55176D01*
X89720Y54552D01*
X89095Y53737D01*
X88703Y52789D01*
X88569Y51772D01*
Y48228D01*
X88703Y47211D01*
X89095Y46263D01*
X89720Y45448D01*
X90534Y44824D01*
X91483Y44431D01*
X92500Y44297D01*
X93518Y44431D01*
X94466Y44824D01*
X95280Y45448D01*
X95905Y46263D01*
X96297Y47211D01*
X96431Y48228D01*
Y51772D01*
X96297Y52789D01*
X95905Y53737D01*
X95280Y54552D01*
X94466Y55176D01*
X93865Y55425D01*
Y56128D01*
X100024Y62287D01*
X100485Y62041D01*
X100477Y62000D01*
X100631Y61226D01*
X101069Y60569D01*
X101726Y60131D01*
X102000Y60076D01*
Y62000D01*
X102500D01*
Y62500D01*
X104424D01*
X104369Y62774D01*
X103931Y63431D01*
X103274Y63869D01*
X102500Y64023D01*
X102459Y64015D01*
X102213Y64476D01*
X108697Y70960D01*
X108736Y70943D01*
X109109Y70665D01*
X109076Y70500D01*
X110500D01*
Y71924D01*
X110335Y71891D01*
X110057Y72264D01*
X110040Y72303D01*
X119443Y81706D01*
X124930D01*
X125121Y81244D01*
X113447Y69570D01*
X112987Y69817D01*
X113023Y70000D01*
X112869Y70774D01*
X112431Y71431D01*
X111774Y71869D01*
X111500Y71924D01*
Y70000D01*
X111000D01*
Y69500D01*
X109076D01*
X109131Y69226D01*
X109569Y68569D01*
X110226Y68131D01*
X111000Y67977D01*
X111183Y68013D01*
X111430Y67553D01*
X104704Y60827D01*
X104316Y61146D01*
X104369Y61226D01*
X104424Y61500D01*
X103000D01*
Y60076D01*
X103274Y60131D01*
X103354Y60184D01*
X103673Y59796D01*
X101535Y57658D01*
X101239Y57215D01*
X101135Y56693D01*
Y55425D01*
X100534Y55176D01*
X99720Y54552D01*
X99095Y53737D01*
X98703Y52789D01*
X98569Y51772D01*
Y48228D01*
X98703Y47211D01*
X99095Y46263D01*
X99720Y45448D01*
X100534Y44824D01*
X101482Y44431D01*
X102500Y44297D01*
X103517Y44431D01*
X104466Y44824D01*
X105280Y45448D01*
X105905Y46263D01*
X106297Y47211D01*
X106431Y48228D01*
Y51772D01*
X106297Y52789D01*
X105905Y53737D01*
X105280Y54552D01*
X104466Y55176D01*
X103865Y55425D01*
Y56128D01*
X127376Y79639D01*
X132863D01*
X133054Y79177D01*
X124007Y70130D01*
X123465Y70295D01*
X123369Y70774D01*
X122931Y71431D01*
X122274Y71869D01*
X122000Y71924D01*
Y70000D01*
X121500D01*
Y69500D01*
X119576D01*
X119631Y69226D01*
X120069Y68569D01*
X120726Y68131D01*
X121205Y68036D01*
X121370Y67493D01*
X111535Y57658D01*
X111239Y57215D01*
X111135Y56693D01*
Y55425D01*
X110534Y55176D01*
X109720Y54552D01*
X109095Y53737D01*
X108703Y52789D01*
X108569Y51772D01*
Y48228D01*
X108703Y47211D01*
X109095Y46263D01*
X109720Y45448D01*
X110534Y44824D01*
X111135Y44575D01*
Y38965D01*
X111239Y38443D01*
X111535Y38000D01*
X116388Y33147D01*
X116182Y32646D01*
X115360Y32537D01*
X114412Y32145D01*
X113598Y31520D01*
X112973Y30706D01*
X112581Y29758D01*
X112447Y28740D01*
Y25197D01*
X112581Y24179D01*
X112973Y23231D01*
X113598Y22417D01*
X114412Y21792D01*
X115360Y21399D01*
X116378Y21266D01*
X117395Y21399D01*
X118344Y21792D01*
X119158Y22417D01*
X119782Y23231D01*
X120025Y23817D01*
X120525Y23717D01*
Y23338D01*
X120629Y22816D01*
X120925Y22373D01*
X132596Y10701D01*
X132581Y10663D01*
X132447Y9646D01*
Y6102D01*
X132581Y5085D01*
X132973Y4137D01*
X133598Y3322D01*
X134412Y2698D01*
X135361Y2305D01*
X136378Y2171D01*
X137395Y2305D01*
X138344Y2698D01*
X139158Y3322D01*
X139783Y4137D01*
X140175Y5085D01*
X140309Y6102D01*
Y9646D01*
X140175Y10663D01*
X139783Y11611D01*
X139158Y12426D01*
X138344Y13050D01*
X137395Y13443D01*
X136378Y13577D01*
X135361Y13443D01*
X134412Y13050D01*
X134240Y12918D01*
X126367Y20790D01*
X126574Y21291D01*
X127395Y21399D01*
X128344Y21792D01*
X129158Y22417D01*
X129782Y23231D01*
X130025Y23817D01*
X130525Y23717D01*
Y23338D01*
X130629Y22816D01*
X130925Y22373D01*
X142596Y10701D01*
X142581Y10663D01*
X142447Y9646D01*
Y6102D01*
X142581Y5085D01*
X142973Y4137D01*
X143598Y3322D01*
X144412Y2698D01*
X145361Y2305D01*
X146378Y2171D01*
X147395Y2305D01*
X148344Y2698D01*
X149158Y3322D01*
X149783Y4137D01*
X150175Y5085D01*
X150309Y6102D01*
Y9646D01*
X150175Y10663D01*
X149783Y11611D01*
X149158Y12426D01*
X148344Y13050D01*
X147395Y13443D01*
X146378Y13577D01*
X145361Y13443D01*
X144412Y13050D01*
X144240Y12918D01*
X136367Y20790D01*
X136574Y21291D01*
X137395Y21399D01*
X138344Y21792D01*
X139158Y22417D01*
X139783Y23231D01*
X140025Y23817D01*
X140525Y23717D01*
Y23338D01*
X140629Y22816D01*
X140925Y22373D01*
X152596Y10701D01*
X152581Y10663D01*
X152447Y9646D01*
Y6102D01*
X152581Y5085D01*
X152973Y4137D01*
X153598Y3322D01*
X154412Y2698D01*
X155360Y2305D01*
X156378Y2171D01*
X157395Y2305D01*
X158344Y2698D01*
X159158Y3322D01*
X159783Y4137D01*
X160175Y5085D01*
X160309Y6102D01*
Y9646D01*
X160175Y10663D01*
X159783Y11611D01*
X159158Y12426D01*
X158344Y13050D01*
X157395Y13443D01*
X156378Y13577D01*
X155360Y13443D01*
X154412Y13050D01*
X154240Y12918D01*
X146368Y20790D01*
X146573Y21291D01*
X147395Y21399D01*
X148344Y21792D01*
X149158Y22417D01*
X149783Y23231D01*
X150025Y23817D01*
X150525Y23717D01*
Y23338D01*
X150629Y22816D01*
X150925Y22373D01*
X162596Y10701D01*
X162581Y10663D01*
X162447Y9646D01*
Y6102D01*
X162581Y5085D01*
X162973Y4137D01*
X163598Y3322D01*
X164412Y2698D01*
X165360Y2305D01*
X166378Y2171D01*
X167395Y2305D01*
X168344Y2698D01*
X169158Y3322D01*
X169782Y4137D01*
X170175Y5085D01*
X170309Y6102D01*
Y9646D01*
X170175Y10663D01*
X169782Y11611D01*
X169158Y12426D01*
X168344Y13050D01*
X167395Y13443D01*
X166378Y13577D01*
X165360Y13443D01*
X164412Y13050D01*
X164240Y12918D01*
X156368Y20790D01*
X156573Y21291D01*
X157395Y21399D01*
X158344Y21792D01*
X159158Y22417D01*
X159599Y22992D01*
X160187Y23073D01*
X160248Y23049D01*
X165483Y17815D01*
X165926Y17519D01*
X166448Y17415D01*
X188779D01*
X189302Y17519D01*
X189745Y17815D01*
X194022Y22092D01*
X194412Y21792D01*
X195361Y21399D01*
X196378Y21266D01*
X197395Y21399D01*
X198344Y21792D01*
X199158Y22417D01*
X199783Y23231D01*
X200175Y24179D01*
X200309Y25197D01*
Y28740D01*
X200175Y29758D01*
X199783Y30706D01*
X199158Y31520D01*
X198344Y32145D01*
X197395Y32537D01*
X196378Y32671D01*
X195361Y32537D01*
X194412Y32145D01*
X193598Y31520D01*
X192973Y30706D01*
X192581Y29758D01*
X192447Y28740D01*
Y25197D01*
X192542Y24472D01*
X188214Y20144D01*
X183909D01*
X183718Y20606D01*
X184760Y21648D01*
X185361Y21399D01*
X186378Y21266D01*
X187395Y21399D01*
X188344Y21792D01*
X189158Y22417D01*
X189783Y23231D01*
X190175Y24179D01*
X190309Y25197D01*
Y28740D01*
X190175Y29758D01*
X189783Y30706D01*
X189158Y31520D01*
X188344Y32145D01*
X187395Y32537D01*
X186378Y32671D01*
X185361Y32537D01*
X184412Y32145D01*
X183598Y31520D01*
X182973Y30706D01*
X182581Y29758D01*
X182447Y28740D01*
Y25197D01*
X182581Y24179D01*
X182829Y23578D01*
X181324Y22073D01*
X179487D01*
X179278Y22573D01*
X179782Y23231D01*
X180175Y24179D01*
X180309Y25197D01*
Y28740D01*
X180175Y29758D01*
X179782Y30706D01*
X179158Y31520D01*
X178344Y32145D01*
X177395Y32537D01*
X176378Y32671D01*
X175361Y32537D01*
X174760Y32289D01*
X173865Y33183D01*
Y44575D01*
X174466Y44824D01*
X175280Y45448D01*
X175905Y46263D01*
X176297Y47211D01*
X176431Y48228D01*
Y51772D01*
X176297Y52789D01*
X175905Y53737D01*
X175280Y54552D01*
X174466Y55176D01*
X173865Y55425D01*
Y56128D01*
X183872Y66135D01*
X199193D01*
Y61713D01*
X205807D01*
Y62171D01*
X232536D01*
Y26934D01*
X230809Y25207D01*
X230309Y25414D01*
Y28740D01*
X230175Y29758D01*
X229783Y30706D01*
X229158Y31520D01*
X228344Y32145D01*
X227395Y32537D01*
X226378Y32671D01*
X225360Y32537D01*
X224412Y32145D01*
X223598Y31520D01*
X222973Y30706D01*
X222581Y29758D01*
X222447Y28740D01*
Y25197D01*
X222581Y24179D01*
X222973Y23231D01*
X223598Y22417D01*
X224412Y21792D01*
X225360Y21399D01*
X226077Y21305D01*
X226256Y20777D01*
X224441Y18962D01*
X224005Y18395D01*
X223731Y17734D01*
X223638Y17025D01*
Y12456D01*
X223598Y12426D01*
X222973Y11611D01*
X222581Y10663D01*
X222447Y9646D01*
Y6102D01*
X222581Y5085D01*
X222973Y4137D01*
X223598Y3322D01*
X224412Y2698D01*
X225360Y2305D01*
X226378Y2171D01*
X227395Y2305D01*
X228344Y2698D01*
X229158Y3322D01*
X229783Y4137D01*
X230175Y5085D01*
X230309Y6102D01*
Y9646D01*
X230175Y10663D01*
X229783Y11611D01*
X229158Y12426D01*
X229118Y12456D01*
Y15890D01*
X230214Y16986D01*
X230745Y17393D01*
X237213Y23861D01*
X237649Y24429D01*
X237922Y25089D01*
X238016Y25798D01*
Y54254D01*
X238085Y54296D01*
X238736Y54105D01*
X239450Y52659D01*
X240665Y50840D01*
X242108Y49195D01*
X243753Y47752D01*
X245573Y46536D01*
X247535Y45568D01*
X248041Y45397D01*
X248114Y44844D01*
X247005Y44103D01*
X246949Y44047D01*
X246884Y44003D01*
X245760Y42880D01*
X245716Y42814D01*
X245660Y42758D01*
X244778Y41437D01*
X244747Y41364D01*
X244704Y41299D01*
X244095Y39831D01*
X244080Y39753D01*
X244050Y39680D01*
X243740Y38122D01*
Y38062D01*
X243725Y38005D01*
X243686Y37210D01*
X243689Y37190D01*
X243685Y37171D01*
Y7874D01*
X243685Y7178D01*
X243414Y5811D01*
X242881Y4525D01*
X242107Y3366D01*
X241122Y2381D01*
X239964Y1608D01*
X238677Y1075D01*
X237311Y803D01*
X113662D01*
X113470Y1265D01*
X114760Y2554D01*
X115360Y2305D01*
X116378Y2171D01*
X117395Y2305D01*
X118344Y2698D01*
X119158Y3322D01*
X119782Y4137D01*
X120175Y5085D01*
X120309Y6102D01*
Y9646D01*
X120175Y10663D01*
X119782Y11611D01*
X119158Y12426D01*
X118344Y13050D01*
X117395Y13443D01*
X116378Y13577D01*
X115360Y13443D01*
X114412Y13050D01*
X113598Y12426D01*
X112973Y11611D01*
X112581Y10663D01*
X112447Y9646D01*
Y6102D01*
X112581Y5085D01*
X112829Y4484D01*
X111324Y2979D01*
X109487D01*
X109278Y3479D01*
X109783Y4137D01*
X110175Y5085D01*
X110309Y6102D01*
Y9646D01*
X110175Y10663D01*
X109783Y11611D01*
X109158Y12426D01*
X108344Y13050D01*
X107395Y13443D01*
X107129Y13478D01*
X106886Y14014D01*
X107093Y14324D01*
X107228Y15000D01*
X107093Y15676D01*
X106710Y16249D01*
X106137Y16632D01*
X105666Y16725D01*
X101658Y20734D01*
X101215Y21030D01*
X100693Y21133D01*
X98059D01*
X97960Y21633D01*
X98344Y21792D01*
X99158Y22417D01*
X99783Y23231D01*
X100175Y24179D01*
X100309Y25197D01*
Y28740D01*
X100175Y29758D01*
X99783Y30706D01*
X99158Y31520D01*
X98344Y32145D01*
X97395Y32537D01*
X96378Y32671D01*
X95360Y32537D01*
X94412Y32145D01*
X93598Y31520D01*
X93157Y30945D01*
X92569Y30864D01*
X92508Y30888D01*
X85360Y38036D01*
X84917Y38332D01*
X84395Y38436D01*
X74397D01*
X66099Y46733D01*
X66297Y47211D01*
X66431Y48228D01*
Y51772D01*
X66297Y52789D01*
X66048Y53390D01*
X101294Y88635D01*
X101805D01*
X102012Y88135D01*
D02*
G37*
G36*
X173408Y69532D02*
X171007Y67130D01*
X170465Y67295D01*
X170369Y67774D01*
X169931Y68431D01*
X169274Y68869D01*
X169000Y68924D01*
Y67000D01*
X168500D01*
Y66500D01*
X166576D01*
X166631Y66226D01*
X167069Y65569D01*
X167726Y65131D01*
X168205Y65035D01*
X168370Y64493D01*
X161704Y57827D01*
X161316Y58146D01*
X161369Y58226D01*
X161424Y58500D01*
X160000D01*
Y57076D01*
X160274Y57131D01*
X160829Y57502D01*
X161176Y57259D01*
X161235Y57193D01*
X161135Y56693D01*
Y55425D01*
X160534Y55176D01*
X159720Y54552D01*
X159095Y53737D01*
X158703Y52789D01*
X158569Y51772D01*
Y48228D01*
X158703Y47211D01*
X159095Y46263D01*
X159720Y45448D01*
X160534Y44824D01*
X161483Y44431D01*
X162500Y44297D01*
X163517Y44431D01*
X164118Y44680D01*
X169206Y39592D01*
Y32113D01*
X168706Y31867D01*
X168344Y32145D01*
X167395Y32537D01*
X166378Y32671D01*
X165360Y32537D01*
X164412Y32145D01*
X163598Y31520D01*
X162973Y30706D01*
X162731Y30121D01*
X162231Y30220D01*
Y39862D01*
X162127Y40385D01*
X161831Y40827D01*
X156048Y46610D01*
X156297Y47211D01*
X156431Y48228D01*
Y51772D01*
X156297Y52789D01*
X155905Y53737D01*
X155280Y54552D01*
X154466Y55176D01*
X153865Y55425D01*
Y56128D01*
X157024Y59287D01*
X157485Y59041D01*
X157477Y59000D01*
X157631Y58226D01*
X158069Y57569D01*
X158726Y57131D01*
X159000Y57076D01*
Y59000D01*
X159500D01*
Y59500D01*
X161424D01*
X161369Y59774D01*
X160931Y60431D01*
X160274Y60869D01*
X159500Y61023D01*
X159459Y61015D01*
X159213Y61476D01*
X167731Y69994D01*
X173217D01*
X173408Y69532D01*
D02*
G37*
G36*
X181479Y67602D02*
X179507Y65630D01*
X178964Y65795D01*
X178869Y66274D01*
X178431Y66931D01*
X177774Y67369D01*
X177500Y67424D01*
Y65500D01*
X177000D01*
Y65000D01*
X175076D01*
X175131Y64726D01*
X175569Y64069D01*
X176226Y63631D01*
X176705Y63535D01*
X176870Y62993D01*
X171535Y57658D01*
X171435Y57509D01*
X170964Y57704D01*
X171023Y58000D01*
X170869Y58774D01*
X170431Y59431D01*
X169774Y59869D01*
X169500Y59924D01*
Y58000D01*
Y56076D01*
X169774Y56131D01*
X170431Y56569D01*
X170673Y56932D01*
X171144Y56737D01*
X171135Y56693D01*
Y55425D01*
X170534Y55176D01*
X169720Y54552D01*
X169095Y53737D01*
X168703Y52789D01*
X168569Y51772D01*
Y48228D01*
X168703Y47211D01*
X169095Y46263D01*
X169720Y45448D01*
X170534Y44824D01*
X171135Y44575D01*
Y42177D01*
X170673Y41985D01*
X166048Y46610D01*
X166297Y47211D01*
X166431Y48228D01*
Y51772D01*
X166297Y52789D01*
X165905Y53737D01*
X165280Y54552D01*
X164466Y55176D01*
X163865Y55425D01*
Y56128D01*
X166697Y58960D01*
X166736Y58943D01*
X167109Y58665D01*
X167076Y58500D01*
X168500D01*
Y59924D01*
X168335Y59891D01*
X168057Y60264D01*
X168041Y60303D01*
X175802Y68064D01*
X181288D01*
X181479Y67602D01*
D02*
G37*
G36*
X157267Y73390D02*
X147204Y63327D01*
X146816Y63646D01*
X146869Y63726D01*
X146924Y64000D01*
X145500D01*
Y62576D01*
X145774Y62631D01*
X145854Y62684D01*
X146173Y62296D01*
X141535Y57658D01*
X141239Y57215D01*
X141135Y56693D01*
Y55425D01*
X140534Y55176D01*
X139720Y54552D01*
X139095Y53737D01*
X138703Y52789D01*
X138569Y51772D01*
Y48228D01*
X138703Y47211D01*
X139095Y46263D01*
X139720Y45448D01*
X140534Y44824D01*
X141135Y44575D01*
Y38965D01*
X141239Y38443D01*
X141535Y38000D01*
X146388Y33147D01*
X146182Y32646D01*
X145361Y32537D01*
X144412Y32145D01*
X143598Y31520D01*
X143157Y30945D01*
X142569Y30864D01*
X142508Y30888D01*
X133865Y39531D01*
Y44575D01*
X134466Y44824D01*
X135280Y45448D01*
X135905Y46263D01*
X136297Y47211D01*
X136431Y48228D01*
Y51772D01*
X136297Y52789D01*
X135905Y53737D01*
X135280Y54552D01*
X134466Y55176D01*
X133865Y55425D01*
Y56128D01*
X142524Y64787D01*
X142985Y64541D01*
X142977Y64500D01*
X143131Y63726D01*
X143569Y63069D01*
X144226Y62631D01*
X144500Y62576D01*
Y64500D01*
X145000D01*
Y65000D01*
X146924D01*
X146869Y65274D01*
X146431Y65931D01*
X145774Y66369D01*
X145000Y66523D01*
X144959Y66515D01*
X144713Y66976D01*
X151589Y73852D01*
X157075D01*
X157267Y73390D01*
D02*
G37*
G36*
X139736Y71943D02*
X140109Y71665D01*
X140076Y71500D01*
X142000D01*
Y70500D01*
X140076D01*
X140131Y70226D01*
X140569Y69569D01*
X141226Y69131D01*
X142000Y68977D01*
X142183Y69013D01*
X142429Y68553D01*
X134948Y61071D01*
X134487Y61317D01*
X134523Y61500D01*
X134369Y62274D01*
X133931Y62931D01*
X133274Y63369D01*
X133000Y63424D01*
Y61500D01*
X132500D01*
Y61000D01*
X130576D01*
X130631Y60726D01*
X131069Y60069D01*
X131726Y59631D01*
X132500Y59477D01*
X132683Y59513D01*
X132930Y59052D01*
X131535Y57658D01*
X131239Y57215D01*
X131135Y56693D01*
Y55425D01*
X130534Y55176D01*
X129720Y54552D01*
X129095Y53737D01*
X128703Y52789D01*
X128569Y51772D01*
Y48228D01*
X128703Y47211D01*
X129095Y46263D01*
X129720Y45448D01*
X130534Y44824D01*
X131135Y44575D01*
Y38965D01*
X131239Y38443D01*
X131535Y38000D01*
X136388Y33147D01*
X136182Y32646D01*
X135361Y32537D01*
X134412Y32145D01*
X133598Y31520D01*
X133157Y30945D01*
X132569Y30864D01*
X132508Y30888D01*
X123865Y39531D01*
Y44575D01*
X124466Y44824D01*
X125280Y45448D01*
X125905Y46263D01*
X126297Y47211D01*
X126431Y48228D01*
Y51772D01*
X126297Y52789D01*
X125905Y53737D01*
X125280Y54552D01*
X124466Y55176D01*
X123865Y55425D01*
Y56128D01*
X130197Y62459D01*
X130236Y62443D01*
X130609Y62165D01*
X130576Y62000D01*
X132000D01*
Y63424D01*
X131835Y63391D01*
X131557Y63764D01*
X131541Y63803D01*
X139697Y71960D01*
X139736Y71943D01*
D02*
G37*
G36*
X274788Y90206D02*
X274788Y53150D01*
X274788Y52453D01*
X274516Y51087D01*
X273983Y49800D01*
X273209Y48642D01*
X272224Y47657D01*
X271066Y46883D01*
X269779Y46350D01*
X268413Y46078D01*
X262408D01*
X262367Y46255D01*
X262365Y46578D01*
X264121Y47752D01*
X265766Y49195D01*
X267209Y50840D01*
X268425Y52659D01*
X269392Y54622D01*
X270096Y56694D01*
X270523Y58840D01*
X270666Y61024D01*
X270523Y63207D01*
X270096Y65353D01*
X269392Y67425D01*
X268425Y69388D01*
X267209Y71207D01*
X265766Y72853D01*
X264121Y74295D01*
X262301Y75511D01*
X260339Y76479D01*
X260237Y76513D01*
X260287Y77024D01*
X260394Y77038D01*
X261055Y77312D01*
X261623Y77748D01*
X274288Y90413D01*
X274788Y90206D01*
D02*
G37*
G36*
X155485Y67041D02*
X155477Y67000D01*
X155631Y66226D01*
X156069Y65569D01*
X156726Y65131D01*
X157000Y65076D01*
Y67000D01*
X158000D01*
Y65076D01*
X158274Y65131D01*
X158354Y65184D01*
X158673Y64796D01*
X151535Y57658D01*
X151239Y57215D01*
X151135Y56693D01*
Y55425D01*
X150534Y55176D01*
X149720Y54552D01*
X149095Y53737D01*
X148703Y52789D01*
X148569Y51772D01*
Y48228D01*
X148703Y47211D01*
X149095Y46263D01*
X149720Y45448D01*
X150534Y44824D01*
X151482Y44431D01*
X152500Y44297D01*
X153517Y44431D01*
X154118Y44680D01*
X159501Y39297D01*
Y31849D01*
X159001Y31640D01*
X158344Y32145D01*
X157395Y32537D01*
X156378Y32671D01*
X155360Y32537D01*
X154412Y32145D01*
X153598Y31520D01*
X153157Y30945D01*
X152569Y30864D01*
X152508Y30888D01*
X143865Y39531D01*
Y44575D01*
X144466Y44824D01*
X145280Y45448D01*
X145905Y46263D01*
X146297Y47211D01*
X146431Y48228D01*
Y51772D01*
X146297Y52789D01*
X145905Y53737D01*
X145280Y54552D01*
X144466Y55176D01*
X143865Y55425D01*
Y56128D01*
X155024Y67287D01*
X155485Y67041D01*
D02*
G37*
%LPC*%
G36*
X76984Y268437D02*
X75500D01*
Y266559D01*
X76984D01*
Y268437D01*
D02*
G37*
G36*
X74500D02*
X73016D01*
Y266559D01*
X74500D01*
Y268437D01*
D02*
G37*
G36*
X221500Y259500D02*
X217086D01*
X217190Y258711D01*
X217688Y257510D01*
X218479Y256479D01*
X219024Y256061D01*
X218772Y255624D01*
X218539Y255720D01*
X217059Y255915D01*
X215579Y255720D01*
X214200Y255149D01*
X213016Y254240D01*
X212107Y253056D01*
X211536Y251677D01*
X211341Y250197D01*
X211536Y248717D01*
X212107Y247338D01*
X213016Y246153D01*
X214200Y245245D01*
X215579Y244673D01*
X217059Y244479D01*
X218539Y244673D01*
X219918Y245245D01*
X221102Y246153D01*
X222011Y247338D01*
X222582Y248717D01*
X222777Y250197D01*
X222582Y251677D01*
X222011Y253056D01*
X221102Y254240D01*
X220404Y254776D01*
X220656Y255213D01*
X220711Y255190D01*
X221500Y255086D01*
Y259500D01*
D02*
G37*
G36*
X121945Y252358D02*
X118000D01*
Y249496D01*
X121945D01*
Y252358D01*
D02*
G37*
G36*
X96945D02*
X93000D01*
Y249496D01*
X96945D01*
Y252358D01*
D02*
G37*
G36*
X71945D02*
X68000D01*
Y249496D01*
X71945D01*
Y252358D01*
D02*
G37*
G36*
X117000D02*
X113055D01*
Y249496D01*
X117000D01*
Y252358D01*
D02*
G37*
G36*
X92000D02*
X88055D01*
Y249496D01*
X92000D01*
Y252358D01*
D02*
G37*
G36*
X67000D02*
X63055D01*
Y249496D01*
X67000D01*
Y252358D01*
D02*
G37*
G36*
X142000D02*
X138055D01*
Y249496D01*
X142000D01*
Y252358D01*
D02*
G37*
G36*
X53799Y253287D02*
X47185D01*
Y252428D01*
X42134D01*
X41612Y252324D01*
X41169Y252028D01*
X34524Y245383D01*
X34228Y244941D01*
X34124Y244418D01*
Y237711D01*
X34228Y237189D01*
X34524Y236746D01*
X37501Y233769D01*
X37211Y233069D01*
X37070Y232000D01*
X37211Y230931D01*
X37624Y229935D01*
X38280Y229080D01*
X39135Y228424D01*
X40131Y228011D01*
X41200Y227870D01*
X42269Y228011D01*
X43265Y228424D01*
X44120Y229080D01*
X44776Y229935D01*
X45189Y230931D01*
X45330Y232000D01*
X45189Y233069D01*
X44776Y234065D01*
X44651Y234229D01*
X51057Y240635D01*
X89639D01*
X90660Y239614D01*
X90453Y239114D01*
X88307D01*
Y232894D01*
X90460D01*
X90812Y232394D01*
X90734Y231998D01*
X90812Y231602D01*
X90460Y231102D01*
X88307D01*
Y224882D01*
X96693D01*
Y226627D01*
X99193D01*
Y225768D01*
X105807D01*
Y230217D01*
X99193D01*
Y229357D01*
X96693D01*
Y231102D01*
X94541D01*
X94187Y231602D01*
X94266Y231998D01*
X94187Y232394D01*
X94541Y232894D01*
X96693D01*
Y239114D01*
X93865D01*
Y239705D01*
X93761Y240227D01*
X93465Y240670D01*
X92032Y242102D01*
X92224Y242564D01*
X138005D01*
X140956Y239614D01*
X140749Y239114D01*
X138307D01*
Y232894D01*
X140460D01*
X140813Y232394D01*
X140734Y231998D01*
X140813Y231602D01*
X140460Y231102D01*
X138307D01*
Y224882D01*
X146693D01*
Y226627D01*
X149193D01*
Y225768D01*
X155807D01*
Y230217D01*
X149193D01*
Y229357D01*
X146693D01*
Y231102D01*
X144541D01*
X144187Y231602D01*
X144266Y231998D01*
X144187Y232394D01*
X144541Y232894D01*
X146693D01*
Y239114D01*
X143865D01*
Y240000D01*
X143761Y240522D01*
X143465Y240965D01*
X139536Y244894D01*
X139177Y245134D01*
X139218Y245521D01*
X139260Y245634D01*
X142000D01*
Y248496D01*
X138055D01*
Y245794D01*
X138055Y245634D01*
X137696Y245294D01*
X122304D01*
X121945Y245634D01*
X121945Y245794D01*
Y248496D01*
X117500D01*
X113055D01*
Y245794D01*
X113055Y245634D01*
X112696Y245294D01*
X97304D01*
X96945Y245634D01*
X96945Y245794D01*
Y248496D01*
X92500D01*
X88055D01*
Y245794D01*
X88055Y245634D01*
X87696Y245294D01*
X72304D01*
X71945Y245634D01*
X71945Y245794D01*
Y248496D01*
X67500D01*
X63055D01*
Y245794D01*
X63055Y245634D01*
X62696Y245294D01*
X49693D01*
X49171Y245190D01*
X48728Y244894D01*
X47199Y243365D01*
X45066D01*
X44776Y244065D01*
X44120Y244920D01*
X43265Y245577D01*
X42269Y245989D01*
X41200Y246130D01*
X40131Y245989D01*
X39390Y245682D01*
X39107Y246106D01*
X42699Y249698D01*
X47185D01*
Y248839D01*
X53799D01*
Y253287D01*
D02*
G37*
G36*
X198291Y256791D02*
X189709D01*
Y248209D01*
X198291D01*
Y256791D01*
D02*
G37*
G36*
X204000Y256828D02*
X202880Y256681D01*
X201836Y256248D01*
X200939Y255561D01*
X200252Y254664D01*
X199819Y253620D01*
X199672Y252500D01*
X199819Y251380D01*
X200252Y250336D01*
X200939Y249439D01*
X201836Y248751D01*
X202880Y248319D01*
X204000Y248172D01*
X205120Y248319D01*
X206164Y248751D01*
X207061Y249439D01*
X207749Y250336D01*
X208181Y251380D01*
X208328Y252500D01*
X208181Y253620D01*
X207749Y254664D01*
X207061Y255561D01*
X206164Y256248D01*
X205120Y256681D01*
X204000Y256828D01*
D02*
G37*
G36*
X80472Y263189D02*
X77008D01*
Y258937D01*
X80472D01*
Y259698D01*
X137568D01*
X144446Y252820D01*
X144255Y252358D01*
X143000D01*
Y249496D01*
X146945D01*
Y251135D01*
X157209D01*
Y248209D01*
X163581D01*
X163630Y247709D01*
X163614Y247706D01*
X163172Y247410D01*
X158535Y242773D01*
X158239Y242330D01*
X158135Y241808D01*
Y240807D01*
X157276D01*
Y234193D01*
X161724D01*
Y240807D01*
X161020D01*
X160929Y241307D01*
X164702Y245080D01*
X165445D01*
X165967Y245184D01*
X166410Y245480D01*
X169580Y248650D01*
X170380Y248319D01*
X171500Y248172D01*
X172620Y248319D01*
X173664Y248751D01*
X174561Y249439D01*
X175249Y250336D01*
X175681Y251380D01*
X175828Y252500D01*
X175681Y253620D01*
X175249Y254664D01*
X174561Y255561D01*
X173664Y256248D01*
X172620Y256681D01*
X171500Y256828D01*
X170380Y256681D01*
X169336Y256248D01*
X168439Y255561D01*
X167752Y254664D01*
X167319Y253620D01*
X167172Y252500D01*
X167319Y251380D01*
X167650Y250580D01*
X166253Y249183D01*
X165791Y249375D01*
Y256791D01*
X157209D01*
Y253865D01*
X147262D01*
X139098Y262028D01*
X138655Y262324D01*
X138133Y262428D01*
X80472D01*
Y263189D01*
D02*
G37*
G36*
X146945Y248496D02*
X143000D01*
Y245634D01*
X146945D01*
Y248496D01*
D02*
G37*
G36*
X264458Y249819D02*
X263101D01*
X263023Y249803D01*
X262944D01*
X261613Y249538D01*
X261540Y249508D01*
X261463Y249493D01*
X260209Y248973D01*
X260143Y248929D01*
X260070Y248899D01*
X258942Y248145D01*
X258886Y248089D01*
X258820Y248045D01*
X257860Y247086D01*
X257816Y247020D01*
X257760Y246964D01*
X257006Y245835D01*
X256976Y245762D01*
X256932Y245697D01*
X256413Y244443D01*
X256397Y244365D01*
X256367Y244292D01*
X256102Y242961D01*
Y242882D01*
X256087Y242805D01*
Y241447D01*
X256102Y241370D01*
Y241291D01*
X256367Y239960D01*
X256397Y239887D01*
X256413Y239809D01*
X256932Y238555D01*
X256976Y238489D01*
X257006Y238416D01*
X257760Y237288D01*
X257816Y237232D01*
X257860Y237166D01*
X258820Y236207D01*
X258886Y236163D01*
X258942Y236107D01*
X260070Y235353D01*
X260143Y235322D01*
X260209Y235279D01*
X261463Y234759D01*
X261540Y234744D01*
X261613Y234714D01*
X262944Y234449D01*
X263023D01*
X263101Y234433D01*
X264458D01*
X264536Y234449D01*
X264615D01*
X265946Y234714D01*
X266019Y234744D01*
X266096Y234759D01*
X267350Y235279D01*
X267416Y235322D01*
X267489Y235353D01*
X268618Y236107D01*
X268673Y236163D01*
X268739Y236207D01*
X269699Y237166D01*
X269743Y237232D01*
X269799Y237288D01*
X270553Y238416D01*
X270583Y238490D01*
X270627Y238555D01*
X271146Y239809D01*
X271162Y239887D01*
X271192Y239960D01*
X271457Y241291D01*
Y241370D01*
X271472Y241447D01*
Y242805D01*
X271457Y242882D01*
Y242961D01*
X271192Y244292D01*
X271162Y244365D01*
X271146Y244443D01*
X270627Y245697D01*
X270583Y245762D01*
X270553Y245835D01*
X269799Y246964D01*
X269743Y247020D01*
X269699Y247086D01*
X268739Y248045D01*
X268673Y248089D01*
X268618Y248145D01*
X267489Y248899D01*
X267416Y248929D01*
X267350Y248973D01*
X266096Y249493D01*
X266019Y249508D01*
X265946Y249538D01*
X264615Y249803D01*
X264536D01*
X264458Y249819D01*
D02*
G37*
G36*
X183000Y231281D02*
Y229857D01*
X184424D01*
X184369Y230131D01*
X183931Y230787D01*
X183274Y231226D01*
X183000Y231281D01*
D02*
G37*
G36*
X182000D02*
X181726Y231226D01*
X181069Y230787D01*
X180631Y230131D01*
X180576Y229857D01*
X182000D01*
Y231281D01*
D02*
G37*
G36*
X168307Y230098D02*
X161693D01*
Y229298D01*
X159664D01*
X159176Y229624D01*
X158500Y229758D01*
X157824Y229624D01*
X157251Y229241D01*
X156868Y228668D01*
X156734Y227992D01*
X156868Y227316D01*
X157251Y226743D01*
X157824Y226360D01*
X158500Y226226D01*
X159176Y226360D01*
X159487Y226568D01*
X161693D01*
Y225650D01*
X168307D01*
Y230098D01*
D02*
G37*
G36*
X182000Y228857D02*
X180576D01*
X180631Y228583D01*
X181069Y227926D01*
X181726Y227488D01*
X182000Y227433D01*
Y228857D01*
D02*
G37*
G36*
X71693Y239114D02*
X63307D01*
Y232894D01*
X65460D01*
X65812Y232394D01*
X65734Y231998D01*
X65812Y231602D01*
X65460Y231102D01*
X63307D01*
Y229357D01*
X50492D01*
X49970Y229253D01*
X49527Y228957D01*
X49435Y228865D01*
X46700D01*
X46178Y228761D01*
X45735Y228465D01*
X42969Y225699D01*
X42269Y225989D01*
X41200Y226130D01*
X40131Y225989D01*
X39135Y225576D01*
X38280Y224920D01*
X37624Y224065D01*
X37211Y223069D01*
X37070Y222000D01*
X37211Y220931D01*
X37624Y219935D01*
X38280Y219080D01*
X39135Y218424D01*
X40131Y218011D01*
X41200Y217870D01*
X42269Y218011D01*
X43265Y218424D01*
X44120Y219080D01*
X44776Y219935D01*
X45189Y220931D01*
X45330Y222000D01*
X45189Y223069D01*
X44899Y223769D01*
X47265Y226135D01*
X50000D01*
X50522Y226239D01*
X50965Y226535D01*
X51057Y226627D01*
X63307D01*
Y224882D01*
X71693D01*
Y226627D01*
X74193D01*
Y225768D01*
X80807D01*
Y230217D01*
X74193D01*
Y229357D01*
X71693D01*
Y231102D01*
X69541D01*
X69187Y231602D01*
X69266Y231998D01*
X69187Y232394D01*
X69541Y232894D01*
X71693D01*
Y239114D01*
D02*
G37*
G36*
X189720Y228854D02*
X186957D01*
Y225500D01*
X189720D01*
Y228854D01*
D02*
G37*
G36*
X184815Y228857D02*
X183000D01*
Y227236D01*
X183193Y227078D01*
Y225500D01*
X185957D01*
Y228854D01*
X184817D01*
X184815Y228857D01*
D02*
G37*
G36*
X196555Y228602D02*
X190532D01*
Y221398D01*
X196022D01*
X196174Y220898D01*
X196069Y220828D01*
X195631Y220171D01*
X195576Y219897D01*
X197000D01*
Y221347D01*
X196555Y221708D01*
Y222992D01*
X197055Y223322D01*
X197500Y223234D01*
X198176Y223368D01*
X198339Y223477D01*
X198839Y223210D01*
Y221693D01*
X203287D01*
Y228307D01*
X198839D01*
Y226790D01*
X198339Y226523D01*
X198176Y226632D01*
X197500Y226766D01*
X197055Y226678D01*
X196555Y227008D01*
Y228602D01*
D02*
G37*
G36*
X189720Y224500D02*
X186957D01*
Y221146D01*
X189720D01*
Y224500D01*
D02*
G37*
G36*
X185957D02*
X183193D01*
Y221146D01*
X185957D01*
Y224500D01*
D02*
G37*
G36*
X253000Y221711D02*
Y220087D01*
X254624D01*
X254555Y220438D01*
X254072Y221159D01*
X253351Y221641D01*
X253000Y221711D01*
D02*
G37*
G36*
X252000D02*
X251649Y221641D01*
X250927Y221159D01*
X250445Y220438D01*
X250376Y220087D01*
X252000D01*
Y221711D01*
D02*
G37*
G36*
X219500D02*
X219149Y221641D01*
X218427Y221159D01*
X217945Y220438D01*
X217876Y220087D01*
X219500D01*
Y221711D01*
D02*
G37*
G36*
X198000Y221321D02*
Y219897D01*
X199424D01*
X199369Y220171D01*
X198931Y220828D01*
X198274Y221266D01*
X198000Y221321D01*
D02*
G37*
G36*
X176799Y222695D02*
Y219870D01*
X179625D01*
X179575Y220248D01*
X179236Y221066D01*
X178697Y221768D01*
X177995Y222307D01*
X177177Y222646D01*
X176799Y222695D01*
D02*
G37*
G36*
X175799D02*
X175422Y222646D01*
X174604Y222307D01*
X173901Y221768D01*
X173362Y221066D01*
X173024Y220248D01*
X172974Y219870D01*
X175799D01*
Y222695D01*
D02*
G37*
G36*
X199424Y218897D02*
X198000D01*
Y217474D01*
X198274Y217528D01*
X198931Y217967D01*
X199369Y218623D01*
X199424Y218897D01*
D02*
G37*
G36*
X197000D02*
X195576D01*
X195631Y218623D01*
X196069Y217967D01*
X196726Y217528D01*
X197000Y217474D01*
Y218897D01*
D02*
G37*
G36*
X254624Y219087D02*
X253000D01*
Y217462D01*
X253351Y217532D01*
X254072Y218014D01*
X254555Y218736D01*
X254624Y219087D01*
D02*
G37*
G36*
X252000D02*
X250376D01*
X250445Y218736D01*
X250927Y218014D01*
X251649Y217532D01*
X252000Y217462D01*
Y219087D01*
D02*
G37*
G36*
X219500D02*
X217876D01*
X217945Y218736D01*
X218427Y218014D01*
X219149Y217532D01*
X219500Y217462D01*
Y219087D01*
D02*
G37*
G36*
X230311D02*
X226957D01*
Y216323D01*
X230311D01*
Y219087D01*
D02*
G37*
G36*
X262000D02*
X258646D01*
Y216323D01*
X262000D01*
Y219087D01*
D02*
G37*
G36*
X179625Y218870D02*
X176799D01*
Y216045D01*
X177177Y216094D01*
X177995Y216433D01*
X178697Y216972D01*
X179236Y217674D01*
X179575Y218492D01*
X179625Y218870D01*
D02*
G37*
G36*
X175799D02*
X172974D01*
X173024Y218492D01*
X173362Y217674D01*
X173901Y216972D01*
X174604Y216433D01*
X175422Y216094D01*
X175799Y216045D01*
Y218870D01*
D02*
G37*
G36*
X40700Y206318D02*
X40065Y206235D01*
X39008Y205797D01*
X38100Y205100D01*
X37403Y204192D01*
X36965Y203135D01*
X36882Y202500D01*
X40700D01*
Y206318D01*
D02*
G37*
G36*
Y201500D02*
X36882D01*
X36965Y200865D01*
X37403Y199808D01*
X38100Y198900D01*
X39008Y198203D01*
X40065Y197765D01*
X40700Y197682D01*
Y201500D01*
D02*
G37*
G36*
X43854Y154087D02*
X40500D01*
Y151323D01*
X43854D01*
Y154087D01*
D02*
G37*
G36*
X39500D02*
X36146D01*
Y151323D01*
X39500D01*
Y154087D01*
D02*
G37*
G36*
X52000Y149500D02*
X49175D01*
X49224Y149122D01*
X49563Y148304D01*
X50102Y147602D01*
X50804Y147063D01*
X51622Y146724D01*
X52000Y146675D01*
Y149500D01*
D02*
G37*
G36*
X30228Y144724D02*
X29055D01*
X28204Y144554D01*
X27483Y144072D01*
X27000Y143351D01*
X26931Y143000D01*
X30228D01*
Y144724D01*
D02*
G37*
G36*
Y142000D02*
X26931D01*
X27000Y141649D01*
X27483Y140928D01*
X28204Y140445D01*
X29055Y140276D01*
X30228D01*
Y142000D01*
D02*
G37*
G36*
X30228Y139724D02*
X29055D01*
X28204Y139555D01*
X27483Y139073D01*
X27001Y138351D01*
X26931Y138000D01*
X30228D01*
Y139724D01*
D02*
G37*
G36*
X74299Y139424D02*
Y138000D01*
X75722D01*
X75668Y138274D01*
X75229Y138931D01*
X74573Y139369D01*
X74299Y139424D01*
D02*
G37*
G36*
X73299D02*
X73024Y139369D01*
X72368Y138931D01*
X71930Y138274D01*
X71875Y138000D01*
X73299D01*
Y139424D01*
D02*
G37*
G36*
X75722Y137000D02*
X74299D01*
Y135576D01*
X74573Y135631D01*
X75229Y136069D01*
X75668Y136726D01*
X75722Y137000D01*
D02*
G37*
G36*
X73299D02*
X71875D01*
X71930Y136726D01*
X72368Y136069D01*
X73024Y135631D01*
X73299Y135576D01*
Y137000D01*
D02*
G37*
G36*
X30228Y137000D02*
X26931D01*
X27001Y136649D01*
X27483Y135927D01*
X28204Y135445D01*
X29055Y135276D01*
X30228D01*
Y137000D01*
D02*
G37*
G36*
X32402Y134467D02*
X29055D01*
X28302Y134317D01*
X27664Y133891D01*
X27238Y133253D01*
X27088Y132500D01*
X27238Y131747D01*
X27664Y131109D01*
X28302Y130683D01*
X29055Y130533D01*
X32402D01*
X33154Y130683D01*
X33792Y131109D01*
X34219Y131747D01*
X34369Y132500D01*
X34219Y133253D01*
X33792Y133891D01*
X33154Y134317D01*
X32402Y134467D01*
D02*
G37*
G36*
X32402Y129724D02*
X31228D01*
Y128000D01*
X34526D01*
X34456Y128351D01*
X33974Y129072D01*
X33253Y129554D01*
X32402Y129724D01*
D02*
G37*
G36*
X30228D02*
X29055D01*
X28204Y129554D01*
X27483Y129072D01*
X27001Y128351D01*
X26931Y128000D01*
X30228D01*
Y129724D01*
D02*
G37*
G36*
X34526Y127000D02*
X31228D01*
Y125276D01*
X32402D01*
X33253Y125445D01*
X33974Y125927D01*
X34456Y126649D01*
X34526Y127000D01*
D02*
G37*
G36*
X30228D02*
X26931D01*
X27001Y126649D01*
X27483Y125927D01*
X28204Y125445D01*
X29055Y125276D01*
X30228D01*
Y127000D01*
D02*
G37*
G36*
X32402Y124724D02*
X31228D01*
Y123000D01*
X34526D01*
X34456Y123351D01*
X33974Y124073D01*
X33253Y124555D01*
X32402Y124724D01*
D02*
G37*
G36*
X30228D02*
X29055D01*
X28204Y124555D01*
X27483Y124073D01*
X27000Y123351D01*
X26931Y123000D01*
X30228D01*
Y124724D01*
D02*
G37*
G36*
X34526Y122000D02*
X31228D01*
Y120276D01*
X32402D01*
X33253Y120446D01*
X33974Y120928D01*
X34456Y121649D01*
X34526Y122000D01*
D02*
G37*
G36*
X30228D02*
X26931D01*
X27000Y121649D01*
X27483Y120928D01*
X28204Y120446D01*
X29055Y120276D01*
X30228D01*
Y122000D01*
D02*
G37*
G36*
X10945Y119724D02*
X9772D01*
Y118000D01*
X13069D01*
X12999Y118351D01*
X12517Y119072D01*
X11796Y119554D01*
X10945Y119724D01*
D02*
G37*
G36*
X32402Y119467D02*
X29055D01*
X28302Y119317D01*
X27664Y118891D01*
X27238Y118253D01*
X27088Y117500D01*
X27238Y116747D01*
X27664Y116109D01*
X28302Y115683D01*
X29055Y115533D01*
X32402D01*
X33154Y115683D01*
X33792Y116109D01*
X34219Y116747D01*
X34369Y117500D01*
X34219Y118253D01*
X33792Y118891D01*
X33154Y119317D01*
X32402Y119467D01*
D02*
G37*
G36*
X13069Y117000D02*
X9772D01*
Y115276D01*
X10945D01*
X11796Y115445D01*
X12517Y115928D01*
X12999Y116649D01*
X13069Y117000D01*
D02*
G37*
G36*
X264173Y201967D02*
X260827D01*
X260074Y201817D01*
X259436Y201391D01*
X259419Y201365D01*
X251076D01*
X250676Y201632D01*
X250000Y201766D01*
X249324Y201632D01*
X248751Y201249D01*
X248368Y200676D01*
X248234Y200000D01*
X248368Y199324D01*
X248751Y198751D01*
X249324Y198368D01*
X250000Y198234D01*
X250676Y198368D01*
X251076Y198635D01*
X259419D01*
X259436Y198609D01*
X260074Y198183D01*
X260827Y198033D01*
X264173D01*
X264926Y198183D01*
X265564Y198609D01*
X265990Y199247D01*
X266140Y200000D01*
X265990Y200753D01*
X265564Y201391D01*
X264926Y201817D01*
X264173Y201967D01*
D02*
G37*
G36*
X195500Y202222D02*
Y200798D01*
X196924D01*
X196869Y201072D01*
X196431Y201729D01*
X195774Y202167D01*
X195500Y202222D01*
D02*
G37*
G36*
X194500D02*
X194226Y202167D01*
X193569Y201729D01*
X193131Y201072D01*
X193076Y200798D01*
X194500D01*
Y202222D01*
D02*
G37*
G36*
X196924Y199798D02*
X195500D01*
Y198375D01*
X195774Y198429D01*
X196431Y198868D01*
X196869Y199524D01*
X196924Y199798D01*
D02*
G37*
G36*
X194500D02*
X193076D01*
X193131Y199524D01*
X193569Y198868D01*
X194226Y198429D01*
X194500Y198375D01*
Y199798D01*
D02*
G37*
G36*
X145500Y198719D02*
Y195894D01*
X148325D01*
X148276Y196271D01*
X147937Y197089D01*
X147398Y197792D01*
X146696Y198331D01*
X145878Y198669D01*
X145500Y198719D01*
D02*
G37*
G36*
X144500D02*
X144122Y198669D01*
X143304Y198331D01*
X142602Y197792D01*
X142063Y197089D01*
X141724Y196271D01*
X141675Y195894D01*
X144500D01*
Y198719D01*
D02*
G37*
G36*
X164406Y198854D02*
X161642D01*
Y195500D01*
X164406D01*
Y198854D01*
D02*
G37*
G36*
X160642D02*
X157878D01*
Y195500D01*
X160642D01*
Y198854D01*
D02*
G37*
G36*
X264173Y196967D02*
X260827D01*
X260074Y196817D01*
X259436Y196391D01*
X259010Y195753D01*
X258860Y195000D01*
X259010Y194247D01*
X259436Y193609D01*
X260074Y193183D01*
X260827Y193033D01*
X264173D01*
X264926Y193183D01*
X265564Y193609D01*
X265581Y193635D01*
X266424D01*
X266824Y193368D01*
X267500Y193234D01*
X268176Y193368D01*
X268749Y193751D01*
X269132Y194324D01*
X269266Y195000D01*
X269132Y195676D01*
X268749Y196249D01*
X268176Y196632D01*
X267500Y196766D01*
X266824Y196632D01*
X266424Y196365D01*
X265581D01*
X265564Y196391D01*
X264926Y196817D01*
X264173Y196967D01*
D02*
G37*
G36*
X148325Y194894D02*
X145500D01*
Y192068D01*
X145878Y192118D01*
X146696Y192457D01*
X147398Y192996D01*
X147937Y193698D01*
X148276Y194516D01*
X148325Y194894D01*
D02*
G37*
G36*
X144500D02*
X141675D01*
X141724Y194516D01*
X142063Y193698D01*
X142602Y192996D01*
X143304Y192457D01*
X144122Y192118D01*
X144500Y192068D01*
Y194894D01*
D02*
G37*
G36*
X164406Y194500D02*
X161642D01*
Y191146D01*
X164406D01*
Y194500D01*
D02*
G37*
G36*
X160642D02*
X157878D01*
Y191146D01*
X160642D01*
Y194500D01*
D02*
G37*
G36*
X191933Y194003D02*
X190752D01*
X190230Y193899D01*
X189787Y193603D01*
X189491Y193160D01*
X189387Y192638D01*
Y189882D01*
X189491Y189360D01*
X189787Y188917D01*
X190230Y188621D01*
X190752Y188517D01*
X191933D01*
X192455Y188621D01*
X192898Y188917D01*
X193194Y189360D01*
X193298Y189882D01*
Y189895D01*
X195741D01*
X196264Y189999D01*
X196678Y190276D01*
X196727Y190266D01*
X197403Y190401D01*
X197976Y190784D01*
X198359Y191357D01*
X198494Y192033D01*
X198359Y192708D01*
X197976Y193281D01*
X197403Y193664D01*
X196727Y193799D01*
X196051Y193664D01*
X195478Y193281D01*
X195096Y192708D01*
X195079Y192625D01*
X193298D01*
Y192638D01*
X193194Y193160D01*
X192898Y193603D01*
X192455Y193899D01*
X191933Y194003D01*
D02*
G37*
G36*
X206673Y191967D02*
X203327D01*
X202574Y191817D01*
X201936Y191391D01*
X201510Y190753D01*
X201360Y190000D01*
X201510Y189247D01*
X201936Y188609D01*
X202574Y188183D01*
X203327Y188033D01*
X206673D01*
X207426Y188183D01*
X208064Y188609D01*
X208081Y188635D01*
X211424D01*
X211824Y188368D01*
X212500Y188234D01*
X213176Y188368D01*
X213749Y188751D01*
X214132Y189324D01*
X214266Y190000D01*
X214132Y190676D01*
X213749Y191249D01*
X213176Y191632D01*
X212500Y191766D01*
X211824Y191632D01*
X211424Y191365D01*
X208081D01*
X208064Y191391D01*
X207426Y191817D01*
X206673Y191967D01*
D02*
G37*
G36*
X142107Y189659D02*
X141432Y189524D01*
X140859Y189141D01*
X140476Y188568D01*
X140341Y187892D01*
X140476Y187217D01*
X140859Y186644D01*
X141432Y186261D01*
X142107Y186126D01*
X142783Y186261D01*
X142934Y186361D01*
X143539D01*
X143708Y186109D01*
X144346Y185683D01*
X145098Y185533D01*
X148445D01*
X149198Y185683D01*
X149836Y186109D01*
X150262Y186747D01*
X150412Y187500D01*
X150262Y188253D01*
X149836Y188891D01*
X149198Y189317D01*
X148445Y189467D01*
X145098D01*
X144346Y189317D01*
X144007Y189091D01*
X143390D01*
X143356Y189141D01*
X142783Y189524D01*
X142107Y189659D01*
D02*
G37*
G36*
X148445Y184467D02*
X145098D01*
X144346Y184317D01*
X143708Y183891D01*
X143690Y183865D01*
X143576D01*
X143176Y184132D01*
X142500Y184266D01*
X141824Y184132D01*
X141251Y183749D01*
X140868Y183176D01*
X140734Y182500D01*
X140868Y181824D01*
X141251Y181251D01*
X141824Y180868D01*
X142500Y180734D01*
X143176Y180868D01*
X143576Y181135D01*
X143690D01*
X143708Y181109D01*
X144346Y180683D01*
X145098Y180533D01*
X148445D01*
X149198Y180683D01*
X149836Y181109D01*
X150262Y181747D01*
X150412Y182500D01*
X150262Y183253D01*
X149836Y183891D01*
X149198Y184317D01*
X148445Y184467D01*
D02*
G37*
G36*
X199135Y181924D02*
Y180500D01*
X200559D01*
X200504Y180774D01*
X200066Y181431D01*
X199409Y181869D01*
X199135Y181924D01*
D02*
G37*
G36*
X210653Y175543D02*
Y174119D01*
X212077D01*
X212022Y174393D01*
X211584Y175049D01*
X210927Y175488D01*
X210653Y175543D01*
D02*
G37*
G36*
X212077Y173119D02*
X210653D01*
Y171695D01*
X210927Y171750D01*
X211584Y172188D01*
X212022Y172845D01*
X212077Y173119D01*
D02*
G37*
G36*
X206673Y177224D02*
X205500D01*
Y175000D01*
Y172776D01*
X206673D01*
X207524Y172945D01*
X207803Y173132D01*
X208265Y172940D01*
X208284Y172845D01*
X208722Y172188D01*
X209379Y171750D01*
X209653Y171695D01*
Y173619D01*
Y175543D01*
X209379Y175488D01*
X209242Y175397D01*
X208780Y175588D01*
X208728Y175851D01*
X208246Y176573D01*
X207524Y177055D01*
X206673Y177224D01*
D02*
G37*
G36*
X148445Y169467D02*
X145098D01*
X144346Y169317D01*
X143708Y168891D01*
X143281Y168253D01*
X143131Y167500D01*
X143281Y166747D01*
X143708Y166109D01*
X144346Y165683D01*
X145098Y165533D01*
X148445D01*
X149198Y165683D01*
X149836Y166109D01*
X149853Y166135D01*
X151425D01*
X151824Y165868D01*
X152500Y165734D01*
X153176Y165868D01*
X153749Y166251D01*
X154132Y166824D01*
X154266Y167500D01*
X154132Y168176D01*
X153749Y168749D01*
X153176Y169132D01*
X152500Y169266D01*
X151824Y169132D01*
X151425Y168865D01*
X149853D01*
X149836Y168891D01*
X149198Y169317D01*
X148445Y169467D01*
D02*
G37*
G36*
X131673D02*
X128327D01*
X127574Y169317D01*
X126936Y168891D01*
X126510Y168253D01*
X126360Y167500D01*
X126510Y166747D01*
X126936Y166109D01*
X127574Y165683D01*
X128327Y165533D01*
X131673D01*
X132426Y165683D01*
X133064Y166109D01*
X133490Y166747D01*
X133640Y167500D01*
X133490Y168253D01*
X133064Y168891D01*
X132426Y169317D01*
X131673Y169467D01*
D02*
G37*
G36*
X110216Y164467D02*
X106870D01*
X106117Y164317D01*
X105479Y163891D01*
X105053Y163253D01*
X104903Y162500D01*
X105053Y161747D01*
X105479Y161109D01*
X106117Y160683D01*
X106870Y160533D01*
X110216D01*
X110969Y160683D01*
X111607Y161109D01*
X112034Y161747D01*
X112183Y162500D01*
X112034Y163253D01*
X111607Y163891D01*
X110969Y164317D01*
X110216Y164467D01*
D02*
G37*
G36*
X148445Y159467D02*
X145098D01*
X144346Y159317D01*
X143708Y158891D01*
X143281Y158253D01*
X143131Y157500D01*
X143281Y156747D01*
X143708Y156109D01*
X144346Y155683D01*
X145098Y155533D01*
X148445D01*
X149198Y155683D01*
X149741Y156046D01*
X150008Y155868D01*
X150684Y155734D01*
X151360Y155868D01*
X151933Y156251D01*
X152315Y156824D01*
X152450Y157500D01*
X152315Y158176D01*
X151933Y158749D01*
X151360Y159132D01*
X150684Y159266D01*
X150008Y159132D01*
X149741Y158954D01*
X149198Y159317D01*
X148445Y159467D01*
D02*
G37*
G36*
X131673D02*
X128327D01*
X127574Y159317D01*
X126936Y158891D01*
X126510Y158253D01*
X126360Y157500D01*
X126510Y156747D01*
X126936Y156109D01*
X127574Y155683D01*
X128327Y155533D01*
X131673D01*
X132426Y155683D01*
X133064Y156109D01*
X133081Y156135D01*
X136381D01*
X136781Y155868D01*
X137457Y155734D01*
X138132Y155868D01*
X138705Y156251D01*
X139088Y156824D01*
X139223Y157500D01*
X139088Y158176D01*
X138705Y158749D01*
X138132Y159132D01*
X137457Y159266D01*
X136781Y159132D01*
X136381Y158865D01*
X133081D01*
X133064Y158891D01*
X132426Y159317D01*
X131673Y159467D01*
D02*
G37*
G36*
X159000Y156924D02*
Y155500D01*
X160424D01*
X160369Y155774D01*
X159931Y156431D01*
X159274Y156869D01*
X159000Y156924D01*
D02*
G37*
G36*
X158000D02*
X157726Y156869D01*
X157069Y156431D01*
X156631Y155774D01*
X156576Y155500D01*
X158000D01*
Y156924D01*
D02*
G37*
G36*
X118000Y155042D02*
Y153217D01*
X119825D01*
X119740Y153644D01*
X119214Y154431D01*
X118428Y154956D01*
X118000Y155042D01*
D02*
G37*
G36*
X117000D02*
X116572Y154956D01*
X115786Y154431D01*
X115260Y153644D01*
X115175Y153217D01*
X117000D01*
Y155042D01*
D02*
G37*
G36*
X160424Y154500D02*
X159000D01*
Y153076D01*
X159274Y153131D01*
X159931Y153569D01*
X160369Y154226D01*
X160424Y154500D01*
D02*
G37*
G36*
X158000D02*
X156576D01*
X156631Y154226D01*
X157069Y153569D01*
X157726Y153131D01*
X158000Y153076D01*
Y154500D01*
D02*
G37*
G36*
X148445Y154724D02*
X147272D01*
Y153000D01*
X150569D01*
X150499Y153351D01*
X150017Y154072D01*
X149296Y154554D01*
X148445Y154724D01*
D02*
G37*
G36*
X146272D02*
X145098D01*
X144247Y154554D01*
X143526Y154072D01*
X143044Y153351D01*
X142974Y153000D01*
X146272D01*
Y154724D01*
D02*
G37*
G36*
X110216D02*
X109043D01*
Y153000D01*
X112341D01*
X112271Y153351D01*
X111789Y154072D01*
X111068Y154554D01*
X110216Y154724D01*
D02*
G37*
G36*
X53000Y198325D02*
Y195500D01*
X55825D01*
X55776Y195878D01*
X55437Y196696D01*
X54898Y197398D01*
X54196Y197937D01*
X53378Y198276D01*
X53000Y198325D01*
D02*
G37*
G36*
X81177Y198854D02*
X78413D01*
Y195500D01*
X81177D01*
Y198854D01*
D02*
G37*
G36*
X77413D02*
X74650D01*
Y195500D01*
X77413D01*
Y198854D01*
D02*
G37*
G36*
X55825Y194500D02*
X53000D01*
Y191675D01*
X53378Y191724D01*
X54196Y192063D01*
X54898Y192602D01*
X55437Y193304D01*
X55776Y194122D01*
X55825Y194500D01*
D02*
G37*
G36*
X81177Y194500D02*
X78413D01*
Y191146D01*
X81177D01*
Y194500D01*
D02*
G37*
G36*
X77413D02*
X74650D01*
Y191146D01*
X77413D01*
Y194500D01*
D02*
G37*
G36*
X65216Y189467D02*
X61870D01*
X61117Y189317D01*
X60479Y188891D01*
X60462Y188865D01*
X58575D01*
X58176Y189132D01*
X57500Y189266D01*
X56824Y189132D01*
X56251Y188749D01*
X55868Y188176D01*
X55734Y187500D01*
X55868Y186824D01*
X56251Y186251D01*
X56824Y185868D01*
X57500Y185734D01*
X58176Y185868D01*
X58575Y186135D01*
X60462D01*
X60479Y186109D01*
X61117Y185683D01*
X61870Y185533D01*
X65216D01*
X65969Y185683D01*
X66607Y186109D01*
X67034Y186747D01*
X67184Y187500D01*
X67034Y188253D01*
X66607Y188891D01*
X65969Y189317D01*
X65216Y189467D01*
D02*
G37*
G36*
Y184467D02*
X61870D01*
X61117Y184317D01*
X60479Y183891D01*
X60053Y183253D01*
X59903Y182500D01*
X60053Y181747D01*
X60479Y181109D01*
X61117Y180683D01*
X61870Y180533D01*
X65216D01*
X65969Y180683D01*
X66535Y181061D01*
X66824Y180868D01*
X67500Y180734D01*
X68176Y180868D01*
X68749Y181251D01*
X69132Y181824D01*
X69266Y182500D01*
X69132Y183176D01*
X68749Y183749D01*
X68176Y184132D01*
X67500Y184266D01*
X66824Y184132D01*
X66535Y183939D01*
X65969Y184317D01*
X65216Y184467D01*
D02*
G37*
G36*
X99424Y180751D02*
X98000D01*
Y179327D01*
X98274Y179382D01*
X98931Y179821D01*
X99369Y180477D01*
X99424Y180751D01*
D02*
G37*
G36*
X97000D02*
X95576D01*
X95631Y180477D01*
X96069Y179821D01*
X96726Y179382D01*
X97000Y179327D01*
Y180751D01*
D02*
G37*
G36*
X65216Y179467D02*
X61870D01*
X61117Y179317D01*
X60479Y178891D01*
X60053Y178253D01*
X59903Y177500D01*
X60053Y176747D01*
X60479Y176109D01*
X61117Y175683D01*
X61870Y175533D01*
X62178D01*
Y174467D01*
X61870D01*
X61117Y174317D01*
X60479Y173891D01*
X60053Y173253D01*
X59903Y172500D01*
X60053Y171747D01*
X60479Y171109D01*
X61117Y170683D01*
X61870Y170533D01*
X65216D01*
X65969Y170683D01*
X66607Y171109D01*
X67034Y171747D01*
X67184Y172500D01*
X67034Y173253D01*
X66607Y173891D01*
X65969Y174317D01*
X65216Y174467D01*
X64908D01*
Y175533D01*
X65216D01*
X65969Y175683D01*
X66607Y176109D01*
X66625Y176135D01*
X68924D01*
X69324Y175868D01*
X70000Y175734D01*
X70676Y175868D01*
X71249Y176251D01*
X71632Y176824D01*
X71766Y177500D01*
X71632Y178176D01*
X71249Y178749D01*
X70676Y179132D01*
X70000Y179266D01*
X69324Y179132D01*
X68924Y178865D01*
X66625D01*
X66607Y178891D01*
X65969Y179317D01*
X65216Y179467D01*
D02*
G37*
G36*
X72823Y174424D02*
Y173000D01*
X74247D01*
X74192Y173274D01*
X73753Y173931D01*
X73097Y174369D01*
X72823Y174424D01*
D02*
G37*
G36*
X71823D02*
X71549Y174369D01*
X70892Y173931D01*
X70454Y173274D01*
X70399Y173000D01*
X71823D01*
Y174424D01*
D02*
G37*
G36*
X74247Y172000D02*
X72823D01*
Y170576D01*
X73097Y170631D01*
X73753Y171069D01*
X74192Y171726D01*
X74247Y172000D01*
D02*
G37*
G36*
X71823D02*
X70399D01*
X70454Y171726D01*
X70892Y171069D01*
X71549Y170631D01*
X71823Y170576D01*
Y172000D01*
D02*
G37*
G36*
X45500Y170825D02*
Y168000D01*
X48325D01*
X48276Y168378D01*
X47937Y169196D01*
X47398Y169898D01*
X46696Y170437D01*
X45878Y170776D01*
X45500Y170825D01*
D02*
G37*
G36*
X44500D02*
X44122Y170776D01*
X43304Y170437D01*
X42602Y169898D01*
X42063Y169196D01*
X41724Y168378D01*
X41675Y168000D01*
X44500D01*
Y170825D01*
D02*
G37*
G36*
X65216Y169467D02*
X61870D01*
X61117Y169317D01*
X60479Y168891D01*
X60053Y168253D01*
X59903Y167500D01*
X60053Y166747D01*
X60479Y166109D01*
X61117Y165683D01*
X61870Y165533D01*
X65216D01*
X65969Y165683D01*
X66607Y166109D01*
X66625Y166135D01*
X68924D01*
X69324Y165868D01*
X70000Y165734D01*
X70676Y165868D01*
X71249Y166251D01*
X71632Y166824D01*
X71766Y167500D01*
X71632Y168176D01*
X71249Y168749D01*
X70676Y169132D01*
X70000Y169266D01*
X69324Y169132D01*
X68924Y168865D01*
X66625D01*
X66607Y168891D01*
X65969Y169317D01*
X65216Y169467D01*
D02*
G37*
G36*
X48325Y167000D02*
X45500D01*
Y164175D01*
X45878Y164224D01*
X46696Y164563D01*
X47398Y165102D01*
X47937Y165804D01*
X48276Y166622D01*
X48325Y167000D01*
D02*
G37*
G36*
X44500D02*
X41675D01*
X41724Y166622D01*
X42063Y165804D01*
X42602Y165102D01*
X43304Y164563D01*
X44122Y164224D01*
X44500Y164175D01*
Y167000D01*
D02*
G37*
G36*
X72323Y165431D02*
X71647Y165296D01*
X71074Y164913D01*
X70691Y164340D01*
X70596Y163865D01*
X66625D01*
X66607Y163891D01*
X65969Y164317D01*
X65216Y164467D01*
X61870D01*
X61117Y164317D01*
X60479Y163891D01*
X60053Y163253D01*
X59903Y162500D01*
X60053Y161747D01*
X60479Y161109D01*
X61117Y160683D01*
X61870Y160533D01*
X65216D01*
X65969Y160683D01*
X66607Y161109D01*
X66625Y161135D01*
X71391D01*
X71913Y161239D01*
X72356Y161535D01*
X72394Y161593D01*
X72793Y161992D01*
X72999Y162033D01*
X73572Y162416D01*
X73955Y162989D01*
X74089Y163665D01*
X73955Y164340D01*
X73572Y164913D01*
X72999Y165296D01*
X72323Y165431D01*
D02*
G37*
G36*
X65216Y159724D02*
X64043D01*
Y158000D01*
X67341D01*
X67271Y158351D01*
X66789Y159072D01*
X66068Y159555D01*
X65216Y159724D01*
D02*
G37*
G36*
X93000Y198325D02*
Y195500D01*
X95825D01*
X95776Y195878D01*
X95437Y196696D01*
X94898Y197398D01*
X94196Y197937D01*
X93378Y198276D01*
X93000Y198325D01*
D02*
G37*
G36*
X92000D02*
X91622Y198276D01*
X90804Y197937D01*
X90102Y197398D01*
X89563Y196696D01*
X89224Y195878D01*
X89175Y195500D01*
X92000D01*
Y198325D01*
D02*
G37*
G36*
X126177Y198854D02*
X123413D01*
Y195500D01*
X126177D01*
Y198854D01*
D02*
G37*
G36*
X122413D02*
X119650D01*
Y195500D01*
X122413D01*
Y198854D01*
D02*
G37*
G36*
X95825Y194500D02*
X93000D01*
Y191675D01*
X93378Y191724D01*
X94196Y192063D01*
X94898Y192602D01*
X95437Y193304D01*
X95776Y194122D01*
X95825Y194500D01*
D02*
G37*
G36*
X92000D02*
X89175D01*
X89224Y194122D01*
X89563Y193304D01*
X90102Y192602D01*
X90804Y192063D01*
X91622Y191724D01*
X92000Y191675D01*
Y194500D01*
D02*
G37*
G36*
X126177Y194500D02*
X123413D01*
Y191146D01*
X126177D01*
Y194500D01*
D02*
G37*
G36*
X122413D02*
X119650D01*
Y191146D01*
X122413D01*
Y194500D01*
D02*
G37*
G36*
X118000Y189609D02*
Y187784D01*
X119825D01*
X119740Y188211D01*
X119214Y188998D01*
X118428Y189523D01*
X118000Y189609D01*
D02*
G37*
G36*
X117000D02*
X116572Y189523D01*
X115786Y188998D01*
X115260Y188211D01*
X115175Y187784D01*
X117000D01*
Y189609D01*
D02*
G37*
G36*
X119825Y186784D02*
X118000D01*
Y184958D01*
X118428Y185044D01*
X119214Y185569D01*
X119740Y186356D01*
X119825Y186784D01*
D02*
G37*
G36*
X117000D02*
X115175D01*
X115260Y186356D01*
X115786Y185569D01*
X116572Y185044D01*
X117000Y184958D01*
Y186784D01*
D02*
G37*
G36*
X242000Y153299D02*
X240576D01*
X240631Y153025D01*
X241069Y152369D01*
X240753Y152014D01*
X240000Y152164D01*
X239247Y152014D01*
X238609Y151588D01*
X238183Y150950D01*
X238033Y150197D01*
Y143701D01*
X238183Y142948D01*
X238609Y142310D01*
X238635Y142293D01*
Y141823D01*
X238368Y141424D01*
X238234Y140748D01*
X238368Y140072D01*
X238751Y139499D01*
X239324Y139116D01*
X240000Y138982D01*
X240676Y139116D01*
X241249Y139499D01*
X241632Y140072D01*
X241766Y140748D01*
X241632Y141424D01*
X241365Y141823D01*
Y142293D01*
X241391Y142310D01*
X241817Y142948D01*
X241967Y143701D01*
Y150197D01*
X241817Y150950D01*
X241391Y151588D01*
X241711Y151940D01*
X241726Y151930D01*
X242000Y151875D01*
Y153299D01*
D02*
G37*
G36*
X230000Y152164D02*
X229247Y152014D01*
X228609Y151588D01*
X228183Y150950D01*
X228033Y150197D01*
Y143701D01*
X228183Y142948D01*
X228609Y142310D01*
X228635Y142293D01*
Y142271D01*
X228368Y141871D01*
X228234Y141195D01*
X228368Y140519D01*
X228751Y139946D01*
X229324Y139564D01*
X230000Y139429D01*
X230676Y139564D01*
X231249Y139946D01*
X231632Y140519D01*
X231766Y141195D01*
X231632Y141871D01*
X231365Y142271D01*
Y142293D01*
X231391Y142310D01*
X231817Y142948D01*
X231967Y143701D01*
Y150197D01*
X231817Y150950D01*
X231391Y151588D01*
X230753Y152014D01*
X230000Y152164D01*
D02*
G37*
G36*
X235500Y134424D02*
Y133000D01*
X236924D01*
X236869Y133274D01*
X236431Y133931D01*
X235774Y134369D01*
X235500Y134424D01*
D02*
G37*
G36*
X234500D02*
X234226Y134369D01*
X233569Y133931D01*
X233131Y133274D01*
X233076Y133000D01*
X234500D01*
Y134424D01*
D02*
G37*
G36*
X196177Y161354D02*
X193413D01*
Y158000D01*
X196177D01*
Y161354D01*
D02*
G37*
G36*
X192413D02*
X189650D01*
Y158000D01*
X192413D01*
Y161354D01*
D02*
G37*
G36*
X196177Y157000D02*
X193413D01*
Y153646D01*
X196177D01*
Y157000D01*
D02*
G37*
G36*
X194298Y149390D02*
Y146564D01*
X197123D01*
X197074Y146942D01*
X196735Y147760D01*
X196196Y148462D01*
X195494Y149001D01*
X194676Y149340D01*
X194298Y149390D01*
D02*
G37*
G36*
X193298D02*
X192920Y149340D01*
X192102Y149001D01*
X191400Y148462D01*
X190861Y147760D01*
X190522Y146942D01*
X190473Y146564D01*
X193298D01*
Y149390D01*
D02*
G37*
G36*
X48325Y132000D02*
X45500D01*
Y129175D01*
X45878Y129224D01*
X46696Y129563D01*
X47398Y130102D01*
X47937Y130804D01*
X48276Y131622D01*
X48325Y132000D01*
D02*
G37*
G36*
X48677Y123854D02*
X45913D01*
Y120500D01*
X48677D01*
Y123854D01*
D02*
G37*
G36*
X44913D02*
X42150D01*
Y120500D01*
X44913D01*
Y123854D01*
D02*
G37*
G36*
X48677Y119500D02*
X45913D01*
Y116146D01*
X48677D01*
Y119500D01*
D02*
G37*
G36*
X44913D02*
X42150D01*
Y116146D01*
X44913D01*
Y119500D01*
D02*
G37*
G36*
X43000Y113325D02*
Y110500D01*
X45825D01*
X45776Y110878D01*
X45437Y111696D01*
X44898Y112398D01*
X44196Y112937D01*
X43378Y113276D01*
X43000Y113325D01*
D02*
G37*
G36*
X45825Y109500D02*
X43000D01*
Y106675D01*
X43378Y106724D01*
X44196Y107063D01*
X44898Y107602D01*
X45437Y108304D01*
X45776Y109122D01*
X45825Y109500D01*
D02*
G37*
G36*
X265500Y123924D02*
Y122500D01*
X266924D01*
X266869Y122774D01*
X266431Y123431D01*
X265774Y123869D01*
X265500Y123924D01*
D02*
G37*
G36*
X264500D02*
X264226Y123869D01*
X263569Y123431D01*
X263131Y122774D01*
X263076Y122500D01*
X264500D01*
Y123924D01*
D02*
G37*
G36*
X160500D02*
Y122500D01*
X161924D01*
X161869Y122774D01*
X161431Y123431D01*
X160774Y123869D01*
X160500Y123924D01*
D02*
G37*
G36*
X159500D02*
X159226Y123869D01*
X158569Y123431D01*
X158131Y122774D01*
X158076Y122500D01*
X159500D01*
Y123924D01*
D02*
G37*
G36*
X235500Y122924D02*
Y121500D01*
X236924D01*
X236869Y121774D01*
X236431Y122431D01*
X235774Y122869D01*
X235500Y122924D01*
D02*
G37*
G36*
X234500D02*
X234226Y122869D01*
X233569Y122431D01*
X233131Y121774D01*
X233076Y121500D01*
X234500D01*
Y122924D01*
D02*
G37*
G36*
X191500D02*
Y121500D01*
X192924D01*
X192869Y121774D01*
X192431Y122431D01*
X191774Y122869D01*
X191500Y122924D01*
D02*
G37*
G36*
X190500D02*
X190226Y122869D01*
X189569Y122431D01*
X189131Y121774D01*
X189076Y121500D01*
X190500D01*
Y122924D01*
D02*
G37*
G36*
X266924Y121500D02*
X265500D01*
Y120076D01*
X265774Y120131D01*
X266431Y120569D01*
X266869Y121226D01*
X266924Y121500D01*
D02*
G37*
G36*
X264500D02*
X263076D01*
X263131Y121226D01*
X263569Y120569D01*
X264226Y120131D01*
X264500Y120076D01*
Y121500D01*
D02*
G37*
G36*
X161924D02*
X160500D01*
Y120076D01*
X160774Y120131D01*
X161431Y120569D01*
X161869Y121226D01*
X161924Y121500D01*
D02*
G37*
G36*
X159500D02*
X158076D01*
X158131Y121226D01*
X158569Y120569D01*
X159226Y120131D01*
X159500Y120076D01*
Y121500D01*
D02*
G37*
G36*
X222500Y113424D02*
Y112000D01*
X223924D01*
X223869Y112274D01*
X223431Y112931D01*
X222774Y113369D01*
X222500Y113424D01*
D02*
G37*
G36*
X221500D02*
X221226Y113369D01*
X220569Y112931D01*
X220131Y112274D01*
X220076Y112000D01*
X221500D01*
Y113424D01*
D02*
G37*
G36*
X207325Y112000D02*
X205500D01*
Y110175D01*
X205928Y110260D01*
X206714Y110786D01*
X207240Y111572D01*
X207325Y112000D01*
D02*
G37*
G36*
X204500D02*
X202675D01*
X202760Y111572D01*
X203286Y110786D01*
X204072Y110260D01*
X204500Y110175D01*
Y112000D01*
D02*
G37*
G36*
X223924Y111000D02*
X222500D01*
Y109576D01*
X222774Y109631D01*
X223431Y110069D01*
X223869Y110726D01*
X223924Y111000D01*
D02*
G37*
G36*
X221500D02*
X220076D01*
X220131Y110726D01*
X220569Y110069D01*
X221226Y109631D01*
X221500Y109576D01*
Y111000D01*
D02*
G37*
G36*
X265500Y108424D02*
Y103551D01*
X267224D01*
Y106299D01*
X267055Y107150D01*
X266572Y107872D01*
X265851Y108354D01*
X265500Y108424D01*
D02*
G37*
G36*
X264500D02*
X264149Y108354D01*
X263427Y107872D01*
X262945Y107150D01*
X262776Y106299D01*
Y103551D01*
X264500D01*
Y108424D01*
D02*
G37*
G36*
X168000Y101293D02*
Y99869D01*
X169424D01*
X169369Y100143D01*
X168931Y100800D01*
X168274Y101238D01*
X168000Y101293D01*
D02*
G37*
G36*
X167000D02*
X166726Y101238D01*
X166069Y100800D01*
X165631Y100143D01*
X165576Y99869D01*
X167000D01*
Y101293D01*
D02*
G37*
G36*
X178000Y100924D02*
Y99500D01*
X179424D01*
X179369Y99774D01*
X178931Y100431D01*
X178274Y100869D01*
X178000Y100924D01*
D02*
G37*
G36*
X177000D02*
X176726Y100869D01*
X176069Y100431D01*
X175631Y99774D01*
X175576Y99500D01*
X177000D01*
Y100924D01*
D02*
G37*
G36*
X158000Y100424D02*
Y99000D01*
X159424D01*
X159369Y99274D01*
X158931Y99931D01*
X158274Y100369D01*
X158000Y100424D01*
D02*
G37*
G36*
X157000D02*
X156726Y100369D01*
X156069Y99931D01*
X155631Y99274D01*
X155576Y99000D01*
X157000D01*
Y100424D01*
D02*
G37*
G36*
X148000Y99424D02*
Y98000D01*
X149424D01*
X149369Y98274D01*
X148931Y98931D01*
X148274Y99369D01*
X148000Y99424D01*
D02*
G37*
G36*
X147000D02*
X146726Y99369D01*
X146069Y98931D01*
X145631Y98274D01*
X145576Y98000D01*
X147000D01*
Y99424D01*
D02*
G37*
G36*
X267224Y102551D02*
X265500D01*
Y97679D01*
X265851Y97749D01*
X266572Y98231D01*
X267055Y98952D01*
X267224Y99803D01*
Y102551D01*
D02*
G37*
G36*
X264500D02*
X262776D01*
Y99803D01*
X262945Y98952D01*
X263427Y98231D01*
X264149Y97749D01*
X264500Y97679D01*
Y102551D01*
D02*
G37*
G36*
X169424Y98869D02*
X168000D01*
Y97445D01*
X168274Y97500D01*
X168931Y97939D01*
X169369Y98595D01*
X169424Y98869D01*
D02*
G37*
G36*
X167000D02*
X165576D01*
X165631Y98595D01*
X166069Y97939D01*
X166726Y97500D01*
X167000Y97445D01*
Y98869D01*
D02*
G37*
G36*
X179424Y98500D02*
X178000D01*
Y97076D01*
X178274Y97131D01*
X178931Y97569D01*
X179369Y98226D01*
X179424Y98500D01*
D02*
G37*
G36*
X177000D02*
X175576D01*
X175631Y98226D01*
X176069Y97569D01*
X176726Y97131D01*
X177000Y97076D01*
Y98500D01*
D02*
G37*
G36*
X159424Y98000D02*
X158000D01*
Y96576D01*
X158274Y96631D01*
X158931Y97069D01*
X159369Y97726D01*
X159424Y98000D01*
D02*
G37*
G36*
X157000D02*
X155576D01*
X155631Y97726D01*
X156069Y97069D01*
X156726Y96631D01*
X157000Y96576D01*
Y98000D01*
D02*
G37*
G36*
X149424Y97000D02*
X148000D01*
Y95576D01*
X148274Y95631D01*
X148931Y96069D01*
X149369Y96726D01*
X149424Y97000D01*
D02*
G37*
G36*
X95000Y102924D02*
Y101500D01*
X96424D01*
X96369Y101774D01*
X95931Y102431D01*
X95274Y102869D01*
X95000Y102924D01*
D02*
G37*
G36*
X94000D02*
X93726Y102869D01*
X93069Y102431D01*
X92631Y101774D01*
X92576Y101500D01*
X94000D01*
Y102924D01*
D02*
G37*
G36*
X96424Y100500D02*
X95000D01*
Y99076D01*
X95274Y99131D01*
X95931Y99569D01*
X96369Y100226D01*
X96424Y100500D01*
D02*
G37*
G36*
X94000D02*
X92576D01*
X92631Y100226D01*
X93069Y99569D01*
X93726Y99131D01*
X94000Y99076D01*
Y100500D01*
D02*
G37*
G36*
X81982Y94424D02*
Y93000D01*
X83406D01*
X83352Y93274D01*
X82913Y93931D01*
X82257Y94369D01*
X81982Y94424D01*
D02*
G37*
G36*
X80983D02*
X80708Y94369D01*
X80052Y93931D01*
X79613Y93274D01*
X79559Y93000D01*
X80983D01*
Y94424D01*
D02*
G37*
G36*
X83406Y92000D02*
X81982D01*
Y90576D01*
X82257Y90631D01*
X82913Y91069D01*
X83352Y91726D01*
X83406Y92000D01*
D02*
G37*
G36*
X80983D02*
X79559D01*
X79613Y91726D01*
X80052Y91069D01*
X80708Y90631D01*
X80983Y90576D01*
Y92000D01*
D02*
G37*
G36*
X58000Y71924D02*
Y70500D01*
X59424D01*
X59369Y70774D01*
X58931Y71431D01*
X58274Y71869D01*
X58000Y71924D01*
D02*
G37*
G36*
X57000D02*
X56726Y71869D01*
X56069Y71431D01*
X55631Y70774D01*
X55576Y70500D01*
X57000D01*
Y71924D01*
D02*
G37*
G36*
X59424Y69500D02*
X58000D01*
Y68076D01*
X58274Y68131D01*
X58931Y68569D01*
X59369Y69226D01*
X59424Y69500D01*
D02*
G37*
G36*
X57000D02*
X55576D01*
X55631Y69226D01*
X56069Y68569D01*
X56726Y68131D01*
X57000Y68076D01*
Y69500D01*
D02*
G37*
G36*
X132558Y96924D02*
Y95500D01*
X133982D01*
X133927Y95774D01*
X133489Y96431D01*
X132833Y96869D01*
X132558Y96924D01*
D02*
G37*
G36*
X131558D02*
X131284Y96869D01*
X130628Y96431D01*
X130189Y95774D01*
X130135Y95500D01*
X131558D01*
Y96924D01*
D02*
G37*
G36*
X123500D02*
Y95500D01*
X124924D01*
X124869Y95774D01*
X124431Y96431D01*
X123774Y96869D01*
X123500Y96924D01*
D02*
G37*
G36*
X122500D02*
X122226Y96869D01*
X121569Y96431D01*
X121131Y95774D01*
X121076Y95500D01*
X122500D01*
Y96924D01*
D02*
G37*
G36*
X111500D02*
Y95500D01*
X112924D01*
X112869Y95774D01*
X112431Y96431D01*
X111774Y96869D01*
X111500Y96924D01*
D02*
G37*
G36*
X110500D02*
X110226Y96869D01*
X109569Y96431D01*
X109131Y95774D01*
X109076Y95500D01*
X110500D01*
Y96924D01*
D02*
G37*
G36*
X141500Y95424D02*
Y94000D01*
X142924D01*
X142869Y94274D01*
X142431Y94931D01*
X141774Y95369D01*
X141500Y95424D01*
D02*
G37*
G36*
X140500D02*
X140226Y95369D01*
X139569Y94931D01*
X139131Y94274D01*
X139076Y94000D01*
X140500D01*
Y95424D01*
D02*
G37*
G36*
X103000Y95198D02*
Y93774D01*
X104424D01*
X104369Y94048D01*
X103931Y94705D01*
X103274Y95143D01*
X103000Y95198D01*
D02*
G37*
G36*
X133982Y94500D02*
X132558D01*
Y93076D01*
X132833Y93131D01*
X133489Y93569D01*
X133927Y94226D01*
X133982Y94500D01*
D02*
G37*
G36*
X131558D02*
X130135D01*
X130189Y94226D01*
X130628Y93569D01*
X131284Y93131D01*
X131558Y93076D01*
Y94500D01*
D02*
G37*
G36*
X124924D02*
X123500D01*
Y93076D01*
X123774Y93131D01*
X124431Y93569D01*
X124869Y94226D01*
X124924Y94500D01*
D02*
G37*
G36*
X122500D02*
X121076D01*
X121131Y94226D01*
X121569Y93569D01*
X122226Y93131D01*
X122500Y93076D01*
Y94500D01*
D02*
G37*
G36*
X112924D02*
X111500D01*
Y93076D01*
X111774Y93131D01*
X112431Y93569D01*
X112869Y94226D01*
X112924Y94500D01*
D02*
G37*
G36*
X110500D02*
X109076D01*
X109131Y94226D01*
X109569Y93569D01*
X110226Y93131D01*
X110500Y93076D01*
Y94500D01*
D02*
G37*
G36*
X6235Y95376D02*
Y93953D01*
X7659D01*
X7604Y94227D01*
X7165Y94883D01*
X6509Y95322D01*
X6235Y95376D01*
D02*
G37*
G36*
X7659Y92953D02*
X6235D01*
Y91529D01*
X6509Y91584D01*
X7165Y92022D01*
X7604Y92678D01*
X7659Y92953D01*
D02*
G37*
G36*
X65441Y99109D02*
X64017D01*
Y97686D01*
X64292Y97740D01*
X64948Y98179D01*
X65387Y98835D01*
X65441Y99109D01*
D02*
G37*
G36*
X56924Y89500D02*
X55500D01*
Y88076D01*
X55774Y88131D01*
X56431Y88569D01*
X56869Y89226D01*
X56924Y89500D01*
D02*
G37*
G36*
X28519Y82424D02*
Y81000D01*
X29943D01*
X29888Y81274D01*
X29449Y81931D01*
X28793Y82369D01*
X28519Y82424D01*
D02*
G37*
G36*
X27519D02*
X27245Y82369D01*
X26588Y81931D01*
X26150Y81274D01*
X26095Y81000D01*
X27519D01*
Y82424D01*
D02*
G37*
G36*
X29943Y80000D02*
X28519D01*
Y78576D01*
X28793Y78631D01*
X29449Y79069D01*
X29888Y79726D01*
X29943Y80000D01*
D02*
G37*
G36*
X27519D02*
X26095D01*
X26150Y79726D01*
X26588Y79069D01*
X27245Y78631D01*
X27519Y78576D01*
Y80000D01*
D02*
G37*
G36*
X32337Y45649D02*
Y44225D01*
X33761D01*
X33707Y44499D01*
X33268Y45156D01*
X32612Y45594D01*
X32337Y45649D01*
D02*
G37*
G36*
X31337D02*
X31063Y45594D01*
X30407Y45156D01*
X29968Y44499D01*
X29914Y44225D01*
X31337D01*
Y45649D01*
D02*
G37*
G36*
X33761Y43225D02*
X32337D01*
Y41802D01*
X32612Y41856D01*
X33268Y42295D01*
X33707Y42951D01*
X33761Y43225D01*
D02*
G37*
G36*
X31337D02*
X29914D01*
X29968Y42951D01*
X30407Y42295D01*
X31063Y41856D01*
X31337Y41802D01*
Y43225D01*
D02*
G37*
G36*
X20500Y20773D02*
Y19350D01*
X21924D01*
X21869Y19624D01*
X21431Y20280D01*
X20774Y20719D01*
X20500Y20773D01*
D02*
G37*
G36*
X19500D02*
X19226Y20719D01*
X18569Y20280D01*
X18131Y19624D01*
X18076Y19350D01*
X19500D01*
Y20773D01*
D02*
G37*
G36*
X21924Y18350D02*
X20500D01*
Y16926D01*
X20774Y16981D01*
X21431Y17419D01*
X21869Y18075D01*
X21924Y18350D01*
D02*
G37*
G36*
X19500D02*
X18076D01*
X18131Y18075D01*
X18569Y17419D01*
X19226Y16981D01*
X19500Y16926D01*
Y18350D01*
D02*
G37*
G36*
X36378Y13577D02*
X35361Y13443D01*
X34412Y13050D01*
X33598Y12426D01*
X32973Y11611D01*
X32581Y10663D01*
X32447Y9646D01*
Y6102D01*
X32581Y5085D01*
X32973Y4137D01*
X33598Y3322D01*
X34412Y2698D01*
X35361Y2305D01*
X36378Y2171D01*
X37395Y2305D01*
X38344Y2698D01*
X39158Y3322D01*
X39783Y4137D01*
X40175Y5085D01*
X40309Y6102D01*
Y9646D01*
X40175Y10663D01*
X39783Y11611D01*
X39158Y12426D01*
X38344Y13050D01*
X37395Y13443D01*
X36378Y13577D01*
D02*
G37*
G36*
X26378D02*
X25361Y13443D01*
X24412Y13050D01*
X23598Y12426D01*
X22973Y11611D01*
X22581Y10663D01*
X22447Y9646D01*
Y6102D01*
X22581Y5085D01*
X22973Y4137D01*
X23598Y3322D01*
X24412Y2698D01*
X25361Y2305D01*
X26378Y2171D01*
X27395Y2305D01*
X28344Y2698D01*
X29158Y3322D01*
X29783Y4137D01*
X30175Y5085D01*
X30309Y6102D01*
Y9646D01*
X30175Y10663D01*
X29783Y11611D01*
X29158Y12426D01*
X28344Y13050D01*
X27395Y13443D01*
X26378Y13577D01*
D02*
G37*
G36*
X16378D02*
X15360Y13443D01*
X14412Y13050D01*
X13598Y12426D01*
X12973Y11611D01*
X12581Y10663D01*
X12447Y9646D01*
Y6102D01*
X12581Y5085D01*
X12973Y4137D01*
X13598Y3322D01*
X14412Y2698D01*
X15360Y2305D01*
X16378Y2171D01*
X17395Y2305D01*
X18344Y2698D01*
X19158Y3322D01*
X19782Y4137D01*
X20175Y5085D01*
X20309Y6102D01*
Y9646D01*
X20175Y10663D01*
X19782Y11611D01*
X19158Y12426D01*
X18344Y13050D01*
X17395Y13443D01*
X16378Y13577D01*
D02*
G37*
G36*
X31337Y90264D02*
X29914D01*
X29968Y89990D01*
X30407Y89333D01*
X31063Y88895D01*
X31337Y88840D01*
Y90264D01*
D02*
G37*
G36*
X132000Y72924D02*
X131726Y72869D01*
X131069Y72431D01*
X130631Y71774D01*
X130576Y71500D01*
X132000D01*
Y72924D01*
D02*
G37*
G36*
X121000Y71924D02*
X120726Y71869D01*
X120069Y71431D01*
X119631Y70774D01*
X119576Y70500D01*
X121000D01*
Y71924D01*
D02*
G37*
G36*
X195542Y53518D02*
Y50692D01*
X198367D01*
X198317Y51070D01*
X197978Y51888D01*
X197440Y52590D01*
X196737Y53129D01*
X195919Y53468D01*
X195542Y53518D01*
D02*
G37*
G36*
X194542D02*
X194164Y53468D01*
X193346Y53129D01*
X192644Y52590D01*
X192105Y51888D01*
X191766Y51070D01*
X191716Y50692D01*
X194542D01*
Y53518D01*
D02*
G37*
G36*
X183000Y55891D02*
Y50500D01*
X186685D01*
Y51772D01*
X186543Y52855D01*
X186125Y53864D01*
X185459Y54731D01*
X184593Y55396D01*
X183583Y55814D01*
X183000Y55891D01*
D02*
G37*
G36*
X182000Y55891D02*
X181417Y55814D01*
X180407Y55396D01*
X179541Y54731D01*
X178875Y53864D01*
X178457Y52855D01*
X178315Y51772D01*
Y50500D01*
X182000D01*
Y55891D01*
D02*
G37*
G36*
X205807Y58287D02*
X199193D01*
Y53839D01*
X201135D01*
Y53192D01*
X201239Y52670D01*
X201535Y52227D01*
X202227Y51535D01*
X202670Y51239D01*
X203192Y51135D01*
X213405D01*
Y48406D01*
X221595D01*
Y56595D01*
X213405D01*
Y53865D01*
X205807D01*
Y58287D01*
D02*
G37*
G36*
X227500Y56630D02*
X226431Y56489D01*
X225435Y56077D01*
X224580Y55420D01*
X223923Y54565D01*
X223511Y53569D01*
X223370Y52500D01*
X223511Y51431D01*
X223923Y50435D01*
X224580Y49580D01*
X225435Y48924D01*
X226431Y48511D01*
X227500Y48370D01*
X228569Y48511D01*
X229565Y48924D01*
X230420Y49580D01*
X231077Y50435D01*
X231489Y51431D01*
X231630Y52500D01*
X231489Y53569D01*
X231077Y54565D01*
X230420Y55420D01*
X229565Y56077D01*
X228569Y56489D01*
X227500Y56630D01*
D02*
G37*
G36*
X198367Y49692D02*
X195542D01*
Y46867D01*
X195919Y46916D01*
X196737Y47255D01*
X197440Y47794D01*
X197978Y48497D01*
X198317Y49314D01*
X198367Y49692D01*
D02*
G37*
G36*
X194542D02*
X191716D01*
X191766Y49314D01*
X192105Y48497D01*
X192644Y47794D01*
X193346Y47255D01*
X194164Y46916D01*
X194542Y46867D01*
Y49692D01*
D02*
G37*
G36*
X186685Y49500D02*
X183000D01*
Y44109D01*
X183583Y44186D01*
X184593Y44604D01*
X185459Y45269D01*
X186125Y46136D01*
X186543Y47145D01*
X186685Y48228D01*
Y49500D01*
D02*
G37*
G36*
X182000D02*
X178315D01*
Y48228D01*
X178457Y47145D01*
X178875Y46136D01*
X179541Y45269D01*
X180407Y44604D01*
X181417Y44186D01*
X182000Y44109D01*
Y49500D01*
D02*
G37*
G36*
X79500Y43924D02*
Y42500D01*
X80924D01*
X80869Y42774D01*
X80431Y43431D01*
X79774Y43869D01*
X79500Y43924D01*
D02*
G37*
G36*
X78500D02*
X78226Y43869D01*
X77569Y43431D01*
X77131Y42774D01*
X77076Y42500D01*
X78500D01*
Y43924D01*
D02*
G37*
G36*
X80924Y41500D02*
X79500D01*
Y40076D01*
X79774Y40131D01*
X80431Y40569D01*
X80869Y41226D01*
X80924Y41500D01*
D02*
G37*
G36*
X78500D02*
X77076D01*
X77131Y41226D01*
X77569Y40569D01*
X78226Y40131D01*
X78500Y40076D01*
Y41500D01*
D02*
G37*
G36*
X216378Y32671D02*
X215360Y32537D01*
X214412Y32145D01*
X213598Y31520D01*
X212973Y30706D01*
X212581Y29758D01*
X212447Y28740D01*
Y25197D01*
X212581Y24179D01*
X212973Y23231D01*
X213598Y22417D01*
X214412Y21792D01*
X215360Y21399D01*
X216378Y21266D01*
X217395Y21399D01*
X218344Y21792D01*
X219158Y22417D01*
X219782Y23231D01*
X220175Y24179D01*
X220309Y25197D01*
Y28740D01*
X220175Y29758D01*
X219782Y30706D01*
X219158Y31520D01*
X218344Y32145D01*
X217395Y32537D01*
X216378Y32671D01*
D02*
G37*
G36*
X106378D02*
X105360Y32537D01*
X104412Y32145D01*
X103598Y31520D01*
X102973Y30706D01*
X102581Y29758D01*
X102447Y28740D01*
Y25197D01*
X102581Y24179D01*
X102973Y23231D01*
X103598Y22417D01*
X104412Y21792D01*
X105360Y21399D01*
X106378Y21266D01*
X107395Y21399D01*
X108344Y21792D01*
X109158Y22417D01*
X109783Y23231D01*
X110175Y24179D01*
X110309Y25197D01*
Y28740D01*
X110175Y29758D01*
X109783Y30706D01*
X109158Y31520D01*
X108344Y32145D01*
X107395Y32537D01*
X106378Y32671D01*
D02*
G37*
G36*
X196878Y13765D02*
Y8374D01*
X200563D01*
Y9646D01*
X200421Y10729D01*
X200003Y11738D01*
X199337Y12605D01*
X198471Y13270D01*
X197461Y13689D01*
X196878Y13765D01*
D02*
G37*
G36*
X186878D02*
Y8374D01*
X190563D01*
Y9646D01*
X190421Y10729D01*
X190003Y11738D01*
X189338Y12605D01*
X188471Y13270D01*
X187461Y13689D01*
X186878Y13765D01*
D02*
G37*
G36*
X195878Y13765D02*
X195295Y13689D01*
X194285Y13270D01*
X193418Y12605D01*
X192753Y11738D01*
X192335Y10729D01*
X192192Y9646D01*
Y8374D01*
X195878D01*
Y13765D01*
D02*
G37*
G36*
X185878D02*
X185295Y13689D01*
X184285Y13270D01*
X183418Y12605D01*
X182753Y11738D01*
X182335Y10729D01*
X182193Y9646D01*
Y8374D01*
X185878D01*
Y13765D01*
D02*
G37*
G36*
X216378Y13577D02*
X215360Y13443D01*
X214412Y13050D01*
X213598Y12426D01*
X212973Y11611D01*
X212581Y10663D01*
X212447Y9646D01*
Y6102D01*
X212581Y5085D01*
X212973Y4137D01*
X213598Y3322D01*
X214412Y2698D01*
X215360Y2305D01*
X216378Y2171D01*
X217395Y2305D01*
X218344Y2698D01*
X219158Y3322D01*
X219782Y4137D01*
X220175Y5085D01*
X220309Y6102D01*
Y9646D01*
X220175Y10663D01*
X219782Y11611D01*
X219158Y12426D01*
X218344Y13050D01*
X217395Y13443D01*
X216378Y13577D01*
D02*
G37*
G36*
X176378D02*
X175361Y13443D01*
X174412Y13050D01*
X173598Y12426D01*
X172973Y11611D01*
X172581Y10663D01*
X172447Y9646D01*
Y6102D01*
X172581Y5085D01*
X172973Y4137D01*
X173598Y3322D01*
X174412Y2698D01*
X175361Y2305D01*
X176378Y2171D01*
X177395Y2305D01*
X178344Y2698D01*
X179158Y3322D01*
X179782Y4137D01*
X180175Y5085D01*
X180309Y6102D01*
Y9646D01*
X180175Y10663D01*
X179782Y11611D01*
X179158Y12426D01*
X178344Y13050D01*
X177395Y13443D01*
X176378Y13577D01*
D02*
G37*
G36*
X126378D02*
X125361Y13443D01*
X124412Y13050D01*
X123598Y12426D01*
X122973Y11611D01*
X122581Y10663D01*
X122447Y9646D01*
Y6102D01*
X122581Y5085D01*
X122973Y4137D01*
X123598Y3322D01*
X124412Y2698D01*
X125361Y2305D01*
X126378Y2171D01*
X127395Y2305D01*
X128344Y2698D01*
X129158Y3322D01*
X129782Y4137D01*
X130175Y5085D01*
X130309Y6102D01*
Y9646D01*
X130175Y10663D01*
X129782Y11611D01*
X129158Y12426D01*
X128344Y13050D01*
X127395Y13443D01*
X126378Y13577D01*
D02*
G37*
G36*
X200563Y7374D02*
X196878D01*
Y1983D01*
X197461Y2060D01*
X198471Y2478D01*
X199337Y3143D01*
X200003Y4010D01*
X200421Y5019D01*
X200563Y6102D01*
Y7374D01*
D02*
G37*
G36*
X190563D02*
X186878D01*
Y1983D01*
X187461Y2060D01*
X188471Y2478D01*
X189338Y3143D01*
X190003Y4010D01*
X190421Y5019D01*
X190563Y6102D01*
Y7374D01*
D02*
G37*
G36*
X195878D02*
X192192D01*
Y6102D01*
X192335Y5019D01*
X192753Y4010D01*
X193418Y3143D01*
X194285Y2478D01*
X195295Y2060D01*
X195878Y1983D01*
Y7374D01*
D02*
G37*
G36*
X185878D02*
X182193D01*
Y6102D01*
X182335Y5019D01*
X182753Y4010D01*
X183418Y3143D01*
X184285Y2478D01*
X185295Y2060D01*
X185878Y1983D01*
Y7374D01*
D02*
G37*
G36*
X168000Y68924D02*
X167726Y68869D01*
X167069Y68431D01*
X166631Y67774D01*
X166576Y67500D01*
X168000D01*
Y68924D01*
D02*
G37*
G36*
X176500Y67424D02*
X176226Y67369D01*
X175569Y66931D01*
X175131Y66274D01*
X175076Y66000D01*
X176500D01*
Y67424D01*
D02*
G37*
G36*
X168500Y57500D02*
X167076D01*
X167131Y57226D01*
X167569Y56569D01*
X168226Y56131D01*
X168500Y56076D01*
Y57500D01*
D02*
G37*
G36*
X139000Y40424D02*
Y39000D01*
X140424D01*
X140369Y39274D01*
X139931Y39931D01*
X139274Y40369D01*
X139000Y40424D01*
D02*
G37*
G36*
X138000D02*
X137726Y40369D01*
X137069Y39931D01*
X136631Y39274D01*
X136576Y39000D01*
X138000D01*
Y40424D01*
D02*
G37*
G36*
X140424Y38000D02*
X139000D01*
Y36576D01*
X139274Y36631D01*
X139931Y37069D01*
X140369Y37726D01*
X140424Y38000D01*
D02*
G37*
G36*
X138000D02*
X136576D01*
X136631Y37726D01*
X137069Y37069D01*
X137726Y36631D01*
X138000Y36576D01*
Y38000D01*
D02*
G37*
G36*
X270185Y76924D02*
Y75500D01*
X271609D01*
X271554Y75774D01*
X271116Y76431D01*
X270459Y76869D01*
X270185Y76924D01*
D02*
G37*
G36*
X269185D02*
X268911Y76869D01*
X268254Y76431D01*
X267816Y75774D01*
X267761Y75500D01*
X269185D01*
Y76924D01*
D02*
G37*
G36*
X271609Y74500D02*
X270185D01*
Y73076D01*
X270459Y73131D01*
X271116Y73569D01*
X271554Y74226D01*
X271609Y74500D01*
D02*
G37*
G36*
X269185D02*
X267761D01*
X267816Y74226D01*
X268254Y73569D01*
X268911Y73131D01*
X269185Y73076D01*
Y74500D01*
D02*
G37*
G36*
X149500Y41924D02*
Y40500D01*
X150924D01*
X150869Y40774D01*
X150431Y41431D01*
X149774Y41869D01*
X149500Y41924D01*
D02*
G37*
G36*
X148500D02*
X148226Y41869D01*
X147569Y41431D01*
X147131Y40774D01*
X147076Y40500D01*
X148500D01*
Y41924D01*
D02*
G37*
G36*
X150924Y39500D02*
X149500D01*
Y38076D01*
X149774Y38131D01*
X150431Y38569D01*
X150869Y39226D01*
X150924Y39500D01*
D02*
G37*
G36*
X148500D02*
X147076D01*
X147131Y39226D01*
X147569Y38569D01*
X148226Y38131D01*
X148500Y38076D01*
Y39500D01*
D02*
G37*
%LPD*%
D16*
X117500Y227992D02*
D03*
Y215000D02*
D03*
X142500Y215000D02*
D03*
Y227992D02*
D03*
X92500Y215000D02*
D03*
Y227992D02*
D03*
X67500Y215000D02*
D03*
Y227992D02*
D03*
X142500Y236004D02*
D03*
Y248996D02*
D03*
X117500Y236004D02*
D03*
Y248996D02*
D03*
X92500Y236004D02*
D03*
Y248996D02*
D03*
X67500Y236004D02*
D03*
Y248996D02*
D03*
D17*
X241043Y205000D02*
D03*
Y200000D02*
D03*
Y195000D02*
D03*
Y190000D02*
D03*
Y185000D02*
D03*
Y180000D02*
D03*
Y175000D02*
D03*
Y170000D02*
D03*
X262500Y205000D02*
D03*
Y200000D02*
D03*
Y195000D02*
D03*
Y190000D02*
D03*
Y185000D02*
D03*
Y180000D02*
D03*
Y175000D02*
D03*
Y170000D02*
D03*
X63543Y187500D02*
D03*
Y182500D02*
D03*
Y177500D02*
D03*
Y172500D02*
D03*
Y167500D02*
D03*
Y162500D02*
D03*
Y157500D02*
D03*
X85000Y187500D02*
D03*
Y182500D02*
D03*
Y177500D02*
D03*
Y172500D02*
D03*
Y167500D02*
D03*
Y162500D02*
D03*
Y157500D02*
D03*
X146772Y187500D02*
D03*
X146772Y182500D02*
D03*
X146772Y177500D02*
D03*
Y172500D02*
D03*
Y167500D02*
D03*
Y162500D02*
D03*
X146772Y157500D02*
D03*
X146772Y152500D02*
D03*
X168228Y187500D02*
D03*
Y182500D02*
D03*
Y177500D02*
D03*
Y172500D02*
D03*
Y167500D02*
D03*
Y162500D02*
D03*
Y157500D02*
D03*
Y152500D02*
D03*
X226457Y175000D02*
D03*
Y180000D02*
D03*
Y185000D02*
D03*
Y190000D02*
D03*
Y195000D02*
D03*
Y200000D02*
D03*
Y205000D02*
D03*
X205000Y175000D02*
D03*
Y180000D02*
D03*
Y185000D02*
D03*
Y190000D02*
D03*
Y195000D02*
D03*
Y200000D02*
D03*
Y205000D02*
D03*
X30728Y117500D02*
D03*
Y122500D02*
D03*
X30728Y127500D02*
D03*
X30728Y132500D02*
D03*
X30728Y137500D02*
D03*
X30728Y142500D02*
D03*
Y147500D02*
D03*
X9272Y117500D02*
D03*
Y122500D02*
D03*
X9272Y127500D02*
D03*
X9272Y132500D02*
D03*
X9272Y137500D02*
D03*
X9272Y142500D02*
D03*
X9272Y147500D02*
D03*
X130000Y152500D02*
D03*
Y157500D02*
D03*
Y162500D02*
D03*
Y167500D02*
D03*
Y172500D02*
D03*
Y177500D02*
D03*
Y182500D02*
D03*
Y187500D02*
D03*
X108543Y152500D02*
D03*
Y157500D02*
D03*
Y162500D02*
D03*
Y167500D02*
D03*
Y172500D02*
D03*
Y177500D02*
D03*
Y182500D02*
D03*
Y187500D02*
D03*
D18*
X85000Y195000D02*
D03*
X77913D02*
D03*
X161142D02*
D03*
X168228D02*
D03*
X122913D02*
D03*
X130000D02*
D03*
X45413Y120000D02*
D03*
X52500D02*
D03*
X192913Y157500D02*
D03*
X200000D02*
D03*
X193543Y225000D02*
D03*
X186457D02*
D03*
D19*
X18760Y98638D02*
D03*
Y91158D02*
D03*
X26240Y95000D02*
D03*
D20*
X23937Y167500D02*
D03*
X16063D02*
D03*
X16437Y157500D02*
D03*
X8563D02*
D03*
X167374Y237500D02*
D03*
X159500D02*
D03*
X93563Y170000D02*
D03*
X101437D02*
D03*
X208937Y225000D02*
D03*
X201063D02*
D03*
D21*
X50492Y258937D02*
D03*
Y251063D02*
D03*
X165000Y220000D02*
D03*
Y227874D02*
D03*
X202500Y56063D02*
D03*
Y63937D02*
D03*
X152500Y220118D02*
D03*
Y227992D02*
D03*
X127500Y220118D02*
D03*
Y227992D02*
D03*
X102500Y220118D02*
D03*
Y227992D02*
D03*
X77500Y220118D02*
D03*
Y227992D02*
D03*
X37500Y98638D02*
D03*
Y90764D02*
D03*
D22*
X265000Y146949D02*
D03*
X260000D02*
D03*
X255000Y146949D02*
D03*
X250000Y146949D02*
D03*
X245000D02*
D03*
X240000D02*
D03*
X235000D02*
D03*
X230000D02*
D03*
X225000D02*
D03*
X220000Y146949D02*
D03*
X215000Y146949D02*
D03*
X210000D02*
D03*
X205000D02*
D03*
X200000D02*
D03*
X265000Y103051D02*
D03*
X260000D02*
D03*
X255000Y103051D02*
D03*
X250000Y103051D02*
D03*
X245000D02*
D03*
X240000D02*
D03*
X235000D02*
D03*
X230000Y103051D02*
D03*
X225000Y103051D02*
D03*
X220000Y103051D02*
D03*
X215000Y103051D02*
D03*
X210000D02*
D03*
X205000Y103051D02*
D03*
X200000Y103051D02*
D03*
D23*
X71260Y261063D02*
D03*
X78740D02*
D03*
X75000Y268937D02*
D03*
D24*
X40000Y154587D02*
D03*
Y147500D02*
D03*
X226457Y219587D02*
D03*
Y212500D02*
D03*
X262500Y219587D02*
D03*
Y212500D02*
D03*
D25*
X187500Y198740D02*
D03*
X191342Y191260D02*
D03*
X183862D02*
D03*
D46*
X87500Y202500D02*
X130000D01*
X50000D02*
X87500D01*
X85000Y200000D02*
X87500Y202500D01*
X130000Y195000D02*
Y202500D01*
X92500Y195000D02*
X122913D01*
X149883Y203701D02*
X149883Y203701D01*
X168228D01*
X133467Y203701D02*
X149883D01*
X168228Y195000D02*
Y201772D01*
X117500Y215000D02*
X117500Y215000D01*
X102500Y215000D02*
X117500D01*
X37500Y135000D02*
Y145000D01*
X45000Y120413D02*
Y132500D01*
Y120413D02*
X45413Y120000D01*
X177541Y220639D02*
Y231455D01*
X175000Y232500D02*
X177541Y229959D01*
X186767Y240681D02*
X218345D01*
X176299Y219397D02*
X177541Y220639D01*
Y231455D02*
X186767Y240681D01*
X176299Y219370D02*
Y219397D01*
X143976Y248602D02*
X150437Y242141D01*
X142894Y248602D02*
X143976D01*
X142500Y248996D02*
X142894Y248602D01*
X156898Y232224D02*
X169976D01*
X150437Y238685D02*
X156898Y232224D01*
X150437Y238685D02*
Y242141D01*
X170251Y232500D02*
X175000D01*
X169976Y232224D02*
X170251Y232500D01*
X218345Y240681D02*
X224697Y247033D01*
X222753Y255304D02*
X224697Y253361D01*
X222753Y255304D02*
Y259247D01*
X222000Y260000D02*
X222753Y259247D01*
X224697Y247033D02*
Y253361D01*
X262500Y212500D02*
X268172D01*
X270000D01*
X117500Y215000D02*
X127500D01*
X187500Y219397D02*
X201929D01*
X219811D01*
X75000Y248996D02*
X92500D01*
X67500D02*
X75000D01*
X145000Y195394D02*
X145213D01*
X145607Y195000D01*
X161142D01*
X117500Y248996D02*
X142500D01*
X132266Y202500D02*
X133467Y203701D01*
X130000Y202500D02*
X132266D01*
X165000Y212500D02*
X177500D01*
X161988D02*
X165000D01*
X226457Y219587D02*
X252500D01*
X220000D02*
X226457D01*
Y212500D02*
X262500D01*
X252500Y219587D02*
X262500D01*
X177541Y219397D02*
X187500D01*
X92500Y248996D02*
X117500D01*
X92500Y215000D02*
X102500D01*
X152500D02*
X159488D01*
X142500D02*
X152500D01*
X127500D02*
X142500D01*
X77500D02*
X92500D01*
X67500D02*
X77500D01*
X159488D02*
X161988Y212500D01*
X219811Y219397D02*
X220000Y219587D01*
X203220Y156614D02*
X203378Y156457D01*
X200295Y156614D02*
X203220D01*
X203378Y156457D02*
X236819D01*
X237863Y157500D01*
X270194D01*
X192913Y146949D02*
X193798Y146064D01*
X187500Y212500D02*
X226457D01*
X177500D02*
X187500D01*
X37500Y170000D02*
X47421Y179921D01*
Y199921D02*
X50000Y202500D01*
X47421Y179921D02*
Y199921D01*
X52500Y175000D02*
Y195000D01*
X45000Y167500D02*
X52500Y175000D01*
X167500Y202500D02*
X177500Y212500D01*
X200000Y156909D02*
X200295Y156614D01*
X200000Y156909D02*
Y157500D01*
X167500Y202500D02*
X168228Y201772D01*
X272500Y155194D02*
Y210000D01*
X270000Y212500D02*
X272500Y210000D01*
X192913Y146949D02*
Y157500D01*
X37500Y162500D02*
Y167412D01*
Y170000D01*
Y145000D02*
X40000Y147500D01*
X52500Y195000D02*
X77913D01*
X85000D02*
Y200000D01*
X182500Y50000D02*
X194636D01*
X194828Y50192D01*
X195042D01*
X42651Y110151D02*
Y116647D01*
X42500Y110000D02*
X42651Y110151D01*
X40000Y154587D02*
X47913D01*
X52500Y150000D01*
X45118Y119114D02*
Y119705D01*
X42651Y116647D02*
X45118Y119114D01*
Y119705D02*
X45413Y120000D01*
X235276Y63660D02*
Y68753D01*
Y25798D02*
Y63660D01*
X45000Y147500D02*
X52500Y140000D01*
X40000Y147500D02*
X45000D01*
X52500Y110000D02*
Y120000D01*
Y140000D01*
X205000Y12500D02*
Y40000D01*
X195000Y50000D02*
X205000Y40000D01*
X272500Y92500D02*
Y155194D01*
X270194Y157500D02*
X272500Y155194D01*
X226378Y7874D02*
Y17025D01*
X228684Y19331D01*
X228808D01*
X235276Y25798D01*
X246207Y79685D02*
X259685D01*
X235276Y68753D02*
X246207Y79685D01*
X259685D02*
X272500Y92500D01*
X196378Y7874D02*
X200374D01*
X205000Y12500D01*
X186378Y7874D02*
X196378D01*
D47*
X162716Y159216D02*
Y174636D01*
X158500Y155000D02*
X162716Y159216D01*
X156000Y152500D02*
X158500Y155000D01*
X146772Y152500D02*
X156000D01*
X205000Y175000D02*
X205075Y174925D01*
X208847D01*
X210153Y173619D01*
X167866Y239075D02*
X194461Y265669D01*
X167866Y237992D02*
Y239075D01*
X167374Y237500D02*
X167866Y237992D01*
X224348Y265669D02*
X232500Y257518D01*
X194461Y265669D02*
X224348D01*
X232500Y225000D02*
Y257518D01*
X161142Y176211D02*
X162716Y174636D01*
X161142Y176211D02*
Y195000D01*
X252490Y170000D02*
X253701Y171211D01*
X75000Y248996D02*
Y268937D01*
X232500Y225000D02*
X265671D01*
X208937D02*
X232500D01*
X165000Y212500D02*
Y220000D01*
X268172Y214329D02*
Y222500D01*
Y214329D02*
X270000Y212500D01*
X265671Y225000D02*
X268172Y222500D01*
X186457Y225000D02*
X187500Y223957D01*
Y219397D02*
Y223957D01*
X102500Y215000D02*
Y220118D01*
X152500Y215000D02*
Y220118D01*
X127500Y215000D02*
Y220118D01*
X77500Y215000D02*
Y220118D01*
X187500Y198740D02*
Y212500D01*
X241043Y170000D02*
X252490D01*
X262500Y205000D02*
Y212500D01*
X226457Y205000D02*
Y212500D01*
X205000Y112500D02*
X233020D01*
X233236Y112716D01*
X262283D01*
X265000Y110000D01*
X108619Y152575D02*
X117359D01*
X117500Y152717D01*
X108543Y152500D02*
X108619Y152575D01*
X63543Y157500D02*
X70000D01*
X77913Y165413D02*
Y195000D01*
X70000Y157500D02*
X77913Y165413D01*
X23937Y167500D02*
X37412D01*
X37500Y167412D01*
X117500Y187284D02*
Y188996D01*
X85000Y187500D02*
Y195000D01*
X122913Y194409D02*
Y195000D01*
X117500Y188996D02*
X122913Y194409D01*
X130000Y187500D02*
Y195000D01*
X168228Y187500D02*
Y195000D01*
X202500Y63937D02*
X234999D01*
X235276Y63660D01*
X25000Y117500D02*
Y127500D01*
X9272Y117500D02*
X25000D01*
X30728Y125000D02*
Y127500D01*
Y122500D02*
Y125000D01*
X25000Y127500D02*
X27500Y125000D01*
X30728D01*
X25000Y127500D02*
Y142500D01*
X30728Y122500D02*
X30728Y122500D01*
Y140000D02*
Y142500D01*
Y137500D02*
Y140000D01*
X27500D02*
X30728D01*
X25000Y142500D02*
X27500Y140000D01*
X25000Y142500D02*
Y150000D01*
X29587Y154587D02*
X40000D01*
X25000Y150000D02*
X29587Y154587D01*
X30728Y142500D02*
X30728Y142500D01*
X30728Y147500D02*
X40000D01*
X45000Y95000D02*
X52500Y102500D01*
Y110000D01*
X26240Y95000D02*
X45000D01*
X265000Y103051D02*
Y110000D01*
X200000Y146949D02*
Y157500D01*
D48*
X49545Y158189D02*
X56234Y151500D01*
X89000D02*
X95000Y157500D01*
X56234Y151500D02*
X89000D01*
X62378Y153429D02*
X72320D01*
X55489Y160318D02*
X62378Y153429D01*
X72320D02*
X76391Y157500D01*
X47734Y135000D02*
X48799D01*
X46533Y136201D02*
X47734Y135000D01*
X43467Y136201D02*
X46533D01*
X41299Y134033D02*
X43467Y136201D01*
X41299Y131299D02*
Y134033D01*
X37500Y127500D02*
X41299Y131299D01*
X37500Y98638D02*
Y127500D01*
X221929Y175000D02*
X226457D01*
X220991Y179436D02*
X221555Y180000D01*
X220778Y179436D02*
X220991D01*
X209493Y184265D02*
X212664D01*
X221929Y175000D01*
X205000Y180000D02*
X214201D01*
X221130Y173071D01*
X221929D01*
X221555Y180000D02*
X226457D01*
X200000Y185785D02*
X200213D01*
X200998Y185000D02*
X205000D01*
X200213Y185785D02*
X200998Y185000D01*
X196514Y192033D02*
X196727D01*
X195741Y191260D02*
X196514Y192033D01*
X191342Y191260D02*
X195741D01*
X164823Y227933D02*
X164882Y227992D01*
X158559Y227933D02*
X164823D01*
X158500Y227992D02*
X158559Y227933D01*
X164882Y227992D02*
X165000Y227874D01*
X260827Y180000D02*
X267500D01*
X159500Y237500D02*
Y241808D01*
X164137Y246445D01*
X165445D01*
X171500Y252500D01*
X146696D02*
X161500D01*
X138133Y261063D02*
X146696Y252500D01*
X78740Y261063D02*
X138133D01*
X142500Y172500D02*
X155930D01*
X239370Y195000D02*
X249002D01*
X85000Y162500D02*
X93285D01*
X254067Y190000D02*
X267500D01*
X180918Y178681D02*
X190626D01*
X174737Y172500D02*
X180918Y178681D01*
X168228Y172500D02*
X174737D01*
X124272Y177500D02*
X130000D01*
X114272Y167500D02*
X124272Y177500D01*
X108543Y167500D02*
X114272D01*
X103548Y152259D02*
Y154965D01*
X93563Y164950D02*
X103548Y154965D01*
X93563Y164950D02*
Y170000D01*
X228063Y271654D02*
X239717Y260000D01*
X57280Y271654D02*
X228063D01*
X16063Y230436D02*
X57280Y271654D01*
X16063Y167500D02*
Y230436D01*
X159823Y168607D02*
X159823D01*
X155930Y172500D02*
X159823Y168607D01*
X17126Y158189D02*
X49545D01*
X9498Y142274D02*
X11759D01*
X15571Y138462D01*
Y129621D02*
Y138462D01*
X182500Y157137D02*
Y162500D01*
X173415Y148051D02*
X182500Y157137D01*
X105027Y148051D02*
X173415D01*
X101619Y151460D02*
X105027Y148051D01*
X194567Y131929D02*
X194961Y131535D01*
X144862Y131929D02*
X194567D01*
X142637Y129705D02*
X144862Y131929D01*
X139068Y129705D02*
X142637D01*
X123322Y134350D02*
X194874D01*
X105059Y116087D02*
X123322Y134350D01*
X105059Y115716D02*
Y116087D01*
X102500Y113157D02*
X105059Y115716D01*
X102500Y110000D02*
Y113157D01*
X186538Y174823D02*
X189028D01*
X179787Y168072D02*
X186538Y174823D01*
X179787Y166642D02*
Y168072D01*
X178248Y165103D02*
X179787Y166642D01*
X250157Y186090D02*
X254067Y190000D01*
X250157Y184166D02*
Y186090D01*
Y184166D02*
X252001Y182323D01*
X253462D01*
X256378Y179407D01*
Y170324D02*
Y179407D01*
X181718Y176752D02*
X189827D01*
X175686Y170720D02*
X181718Y176752D01*
X175686Y168284D02*
Y170720D01*
X169902Y162500D02*
X175686Y168284D01*
X168228Y162500D02*
X169902D01*
X236752Y192382D02*
X239370Y195000D01*
X236752Y166989D02*
Y192382D01*
X233385Y163622D02*
X236752Y166989D01*
X146772Y157500D02*
X150684D01*
X131736Y131108D02*
X131949D01*
X139530Y132178D02*
X139681Y132028D01*
X138973Y132178D02*
X139530D01*
X132294Y128168D02*
X136311Y132185D01*
X129350Y130133D02*
X131315Y128168D01*
X132294D01*
X138967Y132185D02*
X138973Y132178D01*
X136311Y132185D02*
X138967D01*
X125133Y130133D02*
X129350D01*
X130422Y132421D02*
X131736Y131108D01*
X51575Y258937D02*
X53701Y261063D01*
X71260D01*
X50492Y258937D02*
X51575D01*
X35489Y244418D02*
X42134Y251063D01*
X35489Y237711D02*
X41200Y232000D01*
X35489Y237711D02*
Y244418D01*
X42134Y251063D02*
X50492D01*
X117500Y231998D02*
Y236004D01*
Y227992D02*
Y231998D01*
X142500Y227992D02*
Y231998D01*
X168228Y177500D02*
X173774D01*
X174280Y178007D02*
X174493D01*
X173774Y177500D02*
X174280Y178007D01*
X142500Y231998D02*
Y236004D01*
X174493Y177500D02*
X175213D01*
X67500Y231998D02*
Y236004D01*
Y227992D02*
Y231998D01*
X134606Y170394D02*
Y199609D01*
Y170394D02*
X142500Y162500D01*
X137500Y177500D02*
Y200000D01*
Y177500D02*
X142500Y172500D01*
X92500Y231998D02*
Y236004D01*
Y227992D02*
Y231998D01*
X142500Y162500D02*
X146772D01*
X205000Y190000D02*
X212500D01*
X221929Y173071D02*
X225000Y170000D01*
X197500Y225000D02*
X201063D01*
X193543D02*
X197500D01*
X241043Y205000D02*
X255000D01*
X257500Y207500D01*
X250000Y200000D02*
X262500D01*
X41200Y232000D02*
Y232708D01*
X50492Y242000D01*
X41200D02*
X47764D01*
X49693Y243929D01*
X138571D02*
X142500Y240000D01*
X49693Y243929D02*
X138571D01*
X50492Y242000D02*
X90205D01*
X92500Y239705D01*
Y236004D02*
Y239705D01*
X142500Y236004D02*
Y240000D01*
X50492Y227992D02*
X67500D01*
X50000Y227500D02*
X50492Y227992D01*
X41200Y222000D02*
X46700Y227500D01*
X50000D01*
X52133Y222933D02*
X115433D01*
X41200Y212000D02*
X52133Y222933D01*
X117500Y225000D02*
Y227992D01*
X115433Y222933D02*
X117500Y225000D01*
X142500Y227992D02*
X152500D01*
X117500D02*
X127500D01*
X92500D02*
X102500D01*
X67500D02*
X77500D01*
X180177Y163462D02*
X181561Y164846D01*
X185177D01*
X168228Y167500D02*
X168465D01*
X262500Y175000D02*
X267500D01*
X229693Y167480D02*
X232579Y170366D01*
X227810Y171117D02*
X230650Y173956D01*
X228130Y185000D02*
X230650Y182480D01*
X232500Y187500D02*
X232579Y187421D01*
Y170366D02*
Y187421D01*
X230650Y173956D02*
Y182480D01*
X226457Y185000D02*
X228130D01*
X234823Y198243D02*
X236580Y200000D01*
X234823Y167788D02*
Y198243D01*
X232586Y165551D02*
X234823Y167788D01*
X189763Y185000D02*
X205354Y169409D01*
X186538Y185000D02*
X189763D01*
X204555Y167480D02*
X205215D01*
X206014Y169409D02*
X207944Y167480D01*
X202957Y163622D02*
X203617D01*
X203756Y165551D02*
X204416D01*
X207944Y167480D02*
X229693D01*
X235450Y159764D02*
X239765Y164079D01*
X204416Y165551D02*
X206346Y163622D01*
X205354Y169409D02*
X206014D01*
X203617Y163622D02*
X205546Y161693D01*
X202158D02*
X202818D01*
X204747Y159764D01*
X205215Y167480D02*
X207145Y165551D01*
X234650Y161693D02*
X238966Y166009D01*
X204747Y159764D02*
X235450D01*
X207145Y165551D02*
X232586D01*
X205546Y161693D02*
X234650D01*
X206346Y163622D02*
X233385D01*
X190626Y178681D02*
X203756Y165551D01*
X189827Y176752D02*
X202957Y163622D01*
X189028Y174823D02*
X202158Y161693D01*
X258307Y169525D02*
Y177480D01*
X239765Y164079D02*
X252861D01*
X191425Y180610D02*
X204555Y167480D01*
X252861Y164079D02*
X258307Y169525D01*
X178110Y180610D02*
X191425D01*
X238966Y166009D02*
X252062D01*
X256378Y170324D01*
X175213Y177713D02*
X178110Y180610D01*
X187500Y162500D02*
Y172500D01*
X183862Y187676D02*
Y191260D01*
Y187676D02*
X186538Y185000D01*
X178248Y158341D02*
Y165103D01*
X177858Y167441D02*
Y169607D01*
X176319Y165902D02*
X177858Y167441D01*
X176319Y163917D02*
Y165902D01*
X175213Y177500D02*
Y177713D01*
X185000Y151378D02*
Y160000D01*
X187500Y162500D01*
X169902Y157500D02*
X176319Y163917D01*
X177858Y169607D02*
X178008Y169758D01*
X180177Y157542D02*
Y163462D01*
X172616Y149980D02*
X180177Y157542D01*
X105826Y149980D02*
X172616D01*
X103548Y152259D02*
X105826Y149980D01*
X172407Y152500D02*
X178248Y158341D01*
X168228Y152500D02*
X172407D01*
X168465Y167500D02*
X170965Y170000D01*
X172500D01*
X187500Y150354D02*
Y154390D01*
X198071Y142067D02*
X198956Y141181D01*
X96448Y142067D02*
X198071D01*
X198157Y139252D02*
X201843D01*
X197271Y140138D02*
X198157Y139252D01*
X104567Y140138D02*
X197271D01*
X197358Y137323D02*
X202642D01*
X196472Y138209D02*
X197358Y137323D01*
X108937Y138209D02*
X196472D01*
X196559Y135394D02*
X203441D01*
X195673Y136279D02*
X196559Y135394D01*
X117008Y136279D02*
X195673D01*
X195760Y133465D02*
X204240D01*
X194874Y134350D02*
X195760Y133465D01*
X194961Y131535D02*
X205039D01*
X194162Y129606D02*
X205838D01*
X193768Y130000D02*
X194162Y129606D01*
X156582Y130000D02*
X193768D01*
X158785Y127500D02*
X240000D01*
X175728Y125000D02*
X242386D01*
X162500Y111772D02*
X175728Y125000D01*
X242386D02*
X255000Y137614D01*
X158759Y127526D02*
X158785Y127500D01*
X240000D02*
X250000Y137500D01*
X158202Y127526D02*
X158759D01*
X158051Y127677D02*
X158202Y127526D01*
X205838Y129606D02*
X206232Y130000D01*
X237386D01*
X245000Y137614D01*
X205039Y131535D02*
X205925Y132421D01*
X226673D01*
X235000Y140748D01*
X204240Y133465D02*
X205126Y134350D01*
X218602D01*
X225000Y140748D01*
X203441Y135394D02*
X204327Y136279D01*
X215531D01*
X220000Y140748D01*
X202642Y137323D02*
X203528Y138209D01*
X212461D01*
X215000Y140748D01*
X201843Y139252D02*
X202729Y140138D01*
X208943D01*
X210000Y141195D01*
X198956Y141181D02*
X201044D01*
X202173Y142310D01*
X204633D01*
X204784Y142461D01*
X181142Y143996D02*
X187500Y150354D01*
X73799Y143996D02*
X181142D01*
X179547Y145925D02*
X185000Y151378D01*
X104425Y145925D02*
X179547D01*
X72795Y145000D02*
X73799Y143996D01*
X72713Y145000D02*
X72795D01*
X102476Y138095D02*
X102500Y138071D01*
X55000Y167500D02*
X55489Y167011D01*
Y160318D02*
Y167011D01*
X241043Y185000D02*
X245000D01*
X262436Y185064D02*
X262500Y185000D01*
X252544Y185064D02*
X262436D01*
X252480Y185128D02*
X252544Y185064D01*
X249394Y194607D02*
X249607D01*
X249002Y195000D02*
X249394Y194607D01*
X226457Y190000D02*
X227810D01*
X230000Y192190D01*
Y192500D01*
X232500Y187500D02*
Y195630D01*
X228130Y200000D02*
X232500Y195630D01*
X262500Y195000D02*
X267500D01*
X241043Y190000D02*
X247500D01*
X236580Y200000D02*
X241043D01*
Y180000D02*
X252500D01*
X262500Y167185D02*
Y170000D01*
X242500Y161327D02*
X256642D01*
X262500Y167185D01*
X241043Y175000D02*
X254055D01*
X258307Y177480D02*
X260827Y180000D01*
X226457Y200000D02*
X228130D01*
X223140Y197500D02*
X223288D01*
X222569Y198071D02*
X223140Y197500D01*
X215571Y198071D02*
X222569D01*
X205000Y200000D02*
X205149Y200149D01*
X214763D02*
X214912Y200298D01*
X212500Y195000D02*
X215571Y198071D01*
X205149Y200149D02*
X214763D01*
X205000Y195000D02*
X212500D01*
X223589Y207570D02*
X223740Y207720D01*
X222569Y207570D02*
X223589D01*
X220000Y205000D02*
X222569Y207570D01*
X205000Y205000D02*
X220000D01*
X168228Y157500D02*
X169902D01*
X217284Y195000D02*
X226457D01*
X160000Y171715D02*
Y172500D01*
X155000Y177500D02*
X160000Y172500D01*
X146772Y162500D02*
X160000D01*
X146772Y177500D02*
X155000D01*
X250000Y103051D02*
Y110000D01*
X255000Y103051D02*
Y110000D01*
X260000Y103051D02*
Y109917D01*
X259917Y110000D02*
X260000Y109917D01*
X255000Y146949D02*
Y153799D01*
X260000Y146949D02*
Y153685D01*
X259886Y153799D02*
X260000Y153685D01*
X265000Y146949D02*
Y153799D01*
X230000Y141195D02*
Y146949D01*
X240000Y140748D02*
Y146949D01*
X132500Y110000D02*
Y122012D01*
X130571Y123368D02*
X137025Y129823D01*
X130571Y119843D02*
Y123368D01*
X122500Y111772D02*
X130571Y119843D01*
X122500Y110000D02*
Y111772D01*
X132500Y122012D02*
X137988Y127500D01*
X158051Y127677D02*
Y127677D01*
X153706Y123332D02*
X158051Y127677D01*
X152500Y110000D02*
X153479Y110979D01*
Y114796D01*
X153706Y115023D01*
Y123332D01*
X204892Y146841D02*
X205000Y146949D01*
X204892Y142461D02*
Y146841D01*
X142500Y115918D02*
X156582Y130000D01*
X146772Y167500D02*
X152500D01*
X147500Y125191D02*
Y127677D01*
X143895Y126837D02*
Y127677D01*
X92500Y111772D02*
X117008Y136279D01*
X142500Y111772D02*
Y115918D01*
Y120191D01*
Y110000D02*
Y111772D01*
X70000Y142067D02*
X96448D01*
X68012Y113631D02*
X96448Y142067D01*
X113102Y110602D02*
Y118102D01*
X125133Y130133D01*
X106988Y115288D02*
X124121Y132421D01*
X130422D01*
X82500Y111772D02*
X108937Y138209D01*
X102733Y138201D02*
Y138304D01*
X106988Y106260D02*
Y115288D01*
X102733Y138304D02*
X104567Y140138D01*
X137025Y129823D02*
X138950D01*
X139068Y129705D01*
X142500Y120191D02*
X147500Y125191D01*
X130000Y162500D02*
X137457D01*
X137500Y120442D02*
X143895Y126837D01*
X168228Y182500D02*
X175000D01*
X130000Y157500D02*
X137457D01*
X99690Y150661D02*
X104425Y145925D01*
X118012Y106369D02*
Y118012D01*
Y106369D02*
X120641Y103740D01*
X130000D01*
X118012Y118012D02*
X127500Y127500D01*
X60000Y116240D02*
Y116647D01*
X112500Y110000D02*
X113102Y110602D01*
X137500Y102500D02*
Y120442D01*
X147500Y92500D02*
X195000D01*
X137500Y102500D02*
X147500Y92500D01*
X200000Y97500D02*
Y103051D01*
X195000Y92500D02*
X200000Y97500D01*
X99690Y150661D02*
Y152811D01*
X101619Y151460D02*
Y154166D01*
X93285Y162500D02*
X101619Y154166D01*
X95000Y157500D02*
X99690Y152811D01*
X72323Y163452D02*
Y163665D01*
X71391Y162519D02*
X72323Y163452D01*
X71391Y162500D02*
Y162519D01*
X63543Y162500D02*
X71391D01*
X76988Y112607D02*
X102476Y138095D01*
X85000Y177500D02*
X92500D01*
X105000Y182500D02*
X108543D01*
X85000Y172500D02*
X90135D01*
X91532Y173898D01*
X96398D01*
X105000Y182500D01*
X92500Y185000D02*
X104823D01*
X16063Y167500D02*
X18815D01*
X19507Y166808D01*
Y162651D02*
Y166808D01*
Y162651D02*
X19657Y162500D01*
X16437Y157500D02*
X17126Y158189D01*
X146546Y187726D02*
X146772Y187500D01*
X142487Y187726D02*
X146546D01*
X142321Y187892D02*
X142487Y187726D01*
X142107Y187892D02*
X142321D01*
X82500Y56693D02*
X110807Y85000D01*
X70000Y126647D02*
Y135000D01*
X60000Y116647D02*
X70000Y126647D01*
X63543Y182500D02*
X67500D01*
X63543Y177500D02*
X70000D01*
X104308D02*
X108543D01*
X90000Y182500D02*
X92500Y185000D01*
X85000Y182500D02*
X90000D01*
X52686Y37122D02*
X57996D01*
X66378Y28740D01*
X46083Y43725D02*
X52686Y37122D01*
X48012Y44524D02*
X53485Y39051D01*
X62414D01*
X70866Y30599D01*
X120000Y177500D02*
X120217Y177717D01*
X114784Y182500D02*
X130000D01*
X142500D02*
X146772D01*
X108543Y177500D02*
X120000D01*
X102500Y187500D02*
X108543D01*
X17334Y125163D02*
X17500Y125329D01*
X13450Y127500D02*
X15571Y129621D01*
X9272Y122500D02*
X17956D01*
X19657Y124201D02*
Y144101D01*
X9272Y137500D02*
X13248D01*
X17956Y122500D02*
X19657Y124201D01*
X9272Y137500D02*
X9272Y137500D01*
X13576Y150182D02*
X19657Y144101D01*
X11589Y150182D02*
X13576D01*
X13266Y147764D02*
X17500Y143530D01*
Y125329D02*
Y143530D01*
X13228Y147726D02*
X13266Y147764D01*
X9272Y147500D02*
X9498Y147726D01*
X8563Y153209D02*
X11589Y150182D01*
X9498Y147726D02*
X13228D01*
X65000Y132500D02*
Y132695D01*
X57500Y99609D02*
Y125000D01*
X65000Y132500D01*
X42224Y43714D02*
Y77943D01*
X46083Y43725D02*
Y85464D01*
X68012Y107393D01*
X40866Y24361D02*
Y42355D01*
X48012Y77393D02*
X76988Y106369D01*
X44154Y41281D02*
X50866Y34568D01*
X44154Y41281D02*
Y86263D01*
X48012Y44524D02*
Y77393D01*
X40866Y24361D02*
X51094Y14134D01*
X40295Y44513D02*
Y75657D01*
X44154Y86263D02*
X57500Y99609D01*
X40866Y42355D02*
X42224Y43714D01*
X63543Y167500D02*
X70000D01*
X62500Y48402D02*
Y50000D01*
Y48402D02*
X73831Y37071D01*
X91848Y23380D02*
Y29617D01*
X84395Y37071D02*
X91848Y29617D01*
Y23380D02*
X95459Y19769D01*
X73831Y37071D02*
X84395D01*
X95459Y19769D02*
X100693D01*
X105461Y15000D01*
X52500Y51772D02*
X106988Y106260D01*
X52500Y50000D02*
Y51772D01*
X9272Y142500D02*
X9498Y142274D01*
X76391Y157500D02*
X85000D01*
X9272Y127500D02*
X13450D01*
X7500Y100000D02*
Y108025D01*
Y100000D02*
X8862Y98638D01*
X18760D01*
X22500Y93453D02*
X40295Y75657D01*
X37500Y82667D02*
X42224Y77943D01*
X57500Y187500D02*
X63543D01*
X50866Y28968D02*
X51094Y28740D01*
X31890Y36107D02*
X40295Y44513D01*
X50866Y28968D02*
Y34568D01*
X51094Y24134D02*
Y28740D01*
X62862Y19973D02*
X66378Y16457D01*
X55255Y19973D02*
X62862D01*
X51094Y24134D02*
X55255Y19973D01*
X51094Y14134D02*
X98366D01*
X101890Y10610D01*
X31890Y23338D02*
Y36107D01*
X51378Y4755D02*
X54519Y1614D01*
X38062Y17165D02*
X45206D01*
X51378Y4755D02*
Y10993D01*
X45206Y17165D02*
X51378Y10993D01*
X31890Y23338D02*
X38062Y17165D01*
X54519Y1614D02*
X68237D01*
X70866Y4243D01*
X71048Y4468D02*
Y4681D01*
X70866Y4286D02*
X71048Y4468D01*
X70866Y4243D02*
Y4286D01*
X63543Y172500D02*
Y177500D01*
X2441Y140141D02*
X4800Y142500D01*
X2441Y41500D02*
Y140141D01*
Y41500D02*
X6378Y37563D01*
X8563Y153209D02*
Y157500D01*
X105000Y170692D02*
Y171808D01*
X101437Y170000D02*
X104308D01*
X105000Y170692D01*
X105692Y172500D02*
X108543D01*
X105000Y171808D02*
X105692Y172500D01*
X89173Y170000D02*
X93563D01*
X85000Y167500D02*
X86673D01*
X89173Y170000D01*
X235000Y140748D02*
Y146949D01*
X225000Y140748D02*
Y146949D01*
X220000Y140748D02*
Y146949D01*
X215000Y140748D02*
Y146949D01*
X76988Y106369D02*
Y112607D01*
X70866Y24361D02*
X77388Y17839D01*
X98184D01*
X106378Y9646D01*
X68012Y107393D02*
Y113631D01*
X210000Y141195D02*
Y146949D01*
X125000Y172500D02*
X130000D01*
X108543Y157500D02*
X114308D01*
X115000Y158192D01*
Y162500D01*
X125000Y172500D01*
X203192Y52500D02*
X217500D01*
X202500Y53192D02*
Y56063D01*
Y53192D02*
X203192Y52500D01*
X183307Y67500D02*
X229345D01*
X172500Y56693D02*
X183307Y67500D01*
X229345D02*
X231968Y70123D01*
X22500Y93453D02*
Y99594D01*
X37500Y82667D02*
Y90764D01*
X4370Y117165D02*
Y131116D01*
X5754Y132500D02*
X9272D01*
X4370Y131116D02*
X5754Y132500D01*
X4370Y117165D02*
X13510Y108025D01*
X14069D02*
X22500Y99594D01*
X13510Y108025D02*
X14069D01*
X4800Y142500D02*
X9272D01*
X4370Y42299D02*
X10866Y35803D01*
X4370Y80528D02*
X15000Y91158D01*
X4370Y42299D02*
Y80528D01*
X6378Y26969D02*
Y37563D01*
X10866Y23338D02*
Y35803D01*
X116378Y6102D02*
Y7874D01*
X111890Y1614D02*
X116378Y6102D01*
X104519Y1614D02*
X111890D01*
X101890Y4243D02*
X104519Y1614D01*
X101890Y4243D02*
Y10610D01*
X106378Y7874D02*
Y9646D01*
X70866Y24361D02*
Y30599D01*
X66378Y26969D02*
Y28740D01*
X162500Y50000D02*
Y56693D01*
X227579Y69429D02*
X255000Y96850D01*
X162500Y56693D02*
X175236Y69429D01*
X227579D01*
X72500Y56693D02*
X103307Y87500D01*
X112500Y38965D02*
X121890Y29576D01*
Y23338D02*
Y29576D01*
X152500Y50000D02*
Y56693D01*
X223917Y71358D02*
X250000Y97441D01*
X167165Y71358D02*
X223917D01*
X152500Y56693D02*
X167165Y71358D01*
X172500Y32618D02*
Y50000D01*
Y32618D02*
X176378Y28740D01*
Y26969D02*
Y28740D01*
X142500Y38965D02*
X151890Y29576D01*
X166378Y7874D02*
Y8850D01*
X151890Y23338D02*
X166378Y8850D01*
X151890Y23338D02*
Y29576D01*
X255000Y137614D02*
Y146949D01*
X162500Y110000D02*
Y111772D01*
X211575Y79075D02*
X230000Y97500D01*
X134882Y79075D02*
X211575D01*
X112500Y50000D02*
Y56693D01*
X134882Y79075D01*
X245000Y137614D02*
Y146949D01*
X160866Y24361D02*
Y39862D01*
Y24361D02*
X166448Y18779D01*
X196378Y26378D02*
Y26969D01*
X188779Y18779D02*
X196378Y26378D01*
X166448Y18779D02*
X188779D01*
X102500Y50000D02*
Y56693D01*
X126811Y81004D01*
X208504D02*
X225000Y97500D01*
X126811Y81004D02*
X208504D01*
X142953Y77146D02*
X214646D01*
X181890Y20709D02*
X186378Y25197D01*
Y26969D01*
X182500Y110387D02*
X184864Y112751D01*
X265000Y140000D02*
Y146949D01*
X240571Y115571D02*
X265000Y140000D01*
X185251Y112751D02*
X188071Y115571D01*
X240571D01*
X184864Y112751D02*
X185251D01*
X182500Y110000D02*
Y110387D01*
X57500Y46881D02*
X76378Y28003D01*
Y26969D02*
Y28003D01*
X92500Y110000D02*
Y111772D01*
X122500Y38965D02*
X131890Y29576D01*
X136378Y7874D02*
Y8850D01*
X121890Y23338D02*
X136378Y8850D01*
X131890Y23338D02*
Y29576D01*
X250000Y137500D02*
Y146949D01*
X100728Y90000D02*
X198150D01*
X159095Y73287D02*
X220787D01*
X259886Y137614D02*
Y146835D01*
X260000Y146949D01*
X82500Y110000D02*
Y111772D01*
X205571Y83071D02*
X220000Y97500D01*
X118878Y83071D02*
X205571D01*
X92500Y50000D02*
Y56693D01*
X118878Y83071D01*
X141890Y23338D02*
X156378Y8850D01*
X151024Y75217D02*
X217717D01*
X141890Y23338D02*
Y29576D01*
X132500Y38965D02*
X141890Y29576D01*
X132500Y38965D02*
Y50000D01*
X172500Y110000D02*
Y111772D01*
X178228Y117500D01*
X239772D01*
X259886Y137614D01*
X112500Y38965D02*
Y50000D01*
X172500D02*
Y56693D01*
X152500Y48228D02*
X160866Y39862D01*
X152500Y48228D02*
Y50000D01*
X142500Y38965D02*
Y50000D01*
X132500D02*
Y56693D01*
X151024Y75217D01*
X72500Y50000D02*
Y56693D01*
X174519Y20709D02*
X181890D01*
X170866Y24361D02*
X174519Y20709D01*
X170866Y24361D02*
Y30599D01*
X170571Y30895D02*
X170866Y30599D01*
X170571Y30895D02*
Y40157D01*
X162500Y48228D02*
X170571Y40157D01*
X162500Y48228D02*
Y50000D01*
X82500D02*
Y56693D01*
X57500Y46881D02*
Y53228D01*
X112500Y108228D01*
Y110000D01*
X122500Y50000D02*
Y56693D01*
X142953Y77146D01*
X122500Y38965D02*
Y50000D01*
X142500D02*
Y56693D01*
X159095Y73287D01*
X62500Y50000D02*
Y51772D01*
X100728Y90000D01*
X240000Y97500D02*
Y103051D01*
X217717Y75217D02*
X240000Y97500D01*
X156378Y7874D02*
Y8850D01*
X259917Y102969D02*
X260000Y103051D01*
X259917Y98072D02*
Y102969D01*
X231968Y70123D02*
X259917Y98072D01*
X231968Y70123D02*
Y70123D01*
X245000Y97500D02*
Y103051D01*
X220787Y73287D02*
X245000Y97500D01*
X205000Y96850D02*
Y103051D01*
X198150Y90000D02*
X205000Y96850D01*
X215000Y97500D02*
Y103051D01*
X202500Y85000D02*
X215000Y97500D01*
X110807Y85000D02*
X202500D01*
X235000Y97500D02*
Y103051D01*
X214646Y77146D02*
X235000Y97500D01*
X209774Y102825D02*
X210000Y103051D01*
X209774Y97628D02*
Y102825D01*
X199646Y87500D02*
X209774Y97628D01*
X103307Y87500D02*
X199646D01*
X131890Y23338D02*
X146378Y8850D01*
X220000Y97500D02*
Y103051D01*
X146378Y7874D02*
Y8850D01*
X225000Y97500D02*
Y103051D01*
X245000Y146949D02*
X245000Y146949D01*
X230000Y97500D02*
Y103051D01*
X250000Y97441D02*
Y103051D01*
X255000Y96850D02*
Y103051D01*
X15000Y91158D02*
X18760D01*
X6378Y18850D02*
X10866Y23338D01*
X6378Y7874D02*
Y18850D01*
D49*
X227500Y52500D02*
D03*
X41200Y242000D02*
D03*
X41200Y232000D02*
D03*
X41200Y202000D02*
D03*
Y212000D02*
D03*
X41200Y222000D02*
D03*
D50*
X217500Y52500D02*
D03*
D51*
X182500Y110000D02*
D03*
X172500D02*
D03*
X162500D02*
D03*
X152500D02*
D03*
X142500D02*
D03*
X132500D02*
D03*
X122500D02*
D03*
X112500D02*
D03*
X102500D02*
D03*
X92500D02*
D03*
X82500D02*
D03*
X72500D02*
D03*
X62500D02*
D03*
X52500D02*
D03*
X182500Y50000D02*
D03*
X172500D02*
D03*
X162500D02*
D03*
X152500D02*
D03*
X142500D02*
D03*
X132500D02*
D03*
X122500D02*
D03*
X112500D02*
D03*
X102500D02*
D03*
X92500D02*
D03*
X82500D02*
D03*
X72500D02*
D03*
X62500D02*
D03*
D52*
X52500D02*
D03*
D53*
X222000Y260000D02*
D03*
X239717D02*
D03*
D54*
X217059Y250197D02*
D03*
X244657Y250500D02*
D03*
D55*
X171500Y252500D02*
D03*
X204000D02*
D03*
D56*
X161500D02*
D03*
X194000D02*
D03*
D57*
X6378Y7874D02*
D03*
X226378D02*
D03*
X216378D02*
D03*
X196378D02*
D03*
X186378D02*
D03*
X176378D02*
D03*
X166378D02*
D03*
X156378D02*
D03*
X146378D02*
D03*
X136378D02*
D03*
X126378D02*
D03*
X116378D02*
D03*
X106378D02*
D03*
X96378D02*
D03*
X86378D02*
D03*
X76378D02*
D03*
X66378D02*
D03*
X56378D02*
D03*
X46378D02*
D03*
X36378D02*
D03*
X26378D02*
D03*
X16378D02*
D03*
X226378Y26969D02*
D03*
X156378D02*
D03*
X146378D02*
D03*
X136378D02*
D03*
X126378D02*
D03*
X116378D02*
D03*
X106378D02*
D03*
X96378D02*
D03*
X86378D02*
D03*
X76378D02*
D03*
X66378D02*
D03*
X56378D02*
D03*
X46378D02*
D03*
X36378D02*
D03*
X26378D02*
D03*
X16378D02*
D03*
X166378D02*
D03*
X176378D02*
D03*
X186378D02*
D03*
X196378D02*
D03*
X216378D02*
D03*
X6378D02*
D03*
D58*
X41200Y192000D02*
D03*
D59*
X92500Y195000D02*
D03*
X37500Y135000D02*
D03*
X45000Y132500D02*
D03*
X176299Y219370D02*
D03*
X145000Y195394D02*
D03*
X193798Y146064D02*
D03*
X52500Y195000D02*
D03*
X45000Y167500D02*
D03*
X37500Y162500D02*
D03*
X195042Y50192D02*
D03*
X42500Y110000D02*
D03*
X52500Y150000D02*
D03*
D60*
X197500Y219397D02*
D03*
X158500Y155000D02*
D03*
X220778Y179436D02*
D03*
X209493Y184265D02*
D03*
X210153Y173619D02*
D03*
X198635Y180000D02*
D03*
X200000Y185785D02*
D03*
X196727Y192033D02*
D03*
X195000Y200298D02*
D03*
X158500Y227992D02*
D03*
X182500Y229357D02*
D03*
X269685Y75000D02*
D03*
X81000Y122000D02*
D03*
X79000Y42000D02*
D03*
X102500Y93274D02*
D03*
X101482Y70500D02*
D03*
X102500Y62000D02*
D03*
X94500Y101000D02*
D03*
X132058Y95000D02*
D03*
X157500Y98500D02*
D03*
X167500Y99369D02*
D03*
X177500Y99000D02*
D03*
X177000Y65500D02*
D03*
X169000Y58000D02*
D03*
X168500Y67000D02*
D03*
X159500Y59000D02*
D03*
X157500Y67000D02*
D03*
X149000Y40000D02*
D03*
X138500Y38500D02*
D03*
X145000Y64500D02*
D03*
X142000Y71000D02*
D03*
X132500Y61500D02*
D03*
Y71000D02*
D03*
X122500Y61500D02*
D03*
X121500Y70000D02*
D03*
X111000D02*
D03*
Y95000D02*
D03*
X123000D02*
D03*
X141000Y93500D02*
D03*
X160000Y122000D02*
D03*
X235000Y121000D02*
D03*
X191000D02*
D03*
X222000Y111500D02*
D03*
X265000Y122000D02*
D03*
X223000Y135000D02*
D03*
X235000Y132500D02*
D03*
X242500Y153799D02*
D03*
X245000Y172500D02*
D03*
X150684Y157500D02*
D03*
X97500Y181251D02*
D03*
X90000Y186726D02*
D03*
X72323Y172500D02*
D03*
X73799Y137500D02*
D03*
X147500Y97500D02*
D03*
X55000Y90000D02*
D03*
X63517Y99609D02*
D03*
X81482Y92500D02*
D03*
X57500Y70000D02*
D03*
X31837Y90764D02*
D03*
X17382Y95000D02*
D03*
X5735Y93453D02*
D03*
X28019Y80500D02*
D03*
X31837Y43725D02*
D03*
X20000Y18850D02*
D03*
X131949Y131108D02*
D03*
X117500Y231998D02*
D03*
X142500D02*
D03*
X174493Y178007D02*
D03*
X67500Y231998D02*
D03*
X134606Y199609D02*
D03*
X137500Y200000D02*
D03*
X92500Y231998D02*
D03*
X212500Y190000D02*
D03*
X197500Y225000D02*
D03*
X257500Y207500D02*
D03*
X250000Y200000D02*
D03*
X267500Y175000D02*
D03*
X227810Y171117D02*
D03*
X187500Y172500D02*
D03*
X185177Y164846D02*
D03*
X178008Y169758D02*
D03*
X182500Y162500D02*
D03*
X172500Y170000D02*
D03*
X187500Y154390D02*
D03*
X55000Y167500D02*
D03*
X252480Y185128D02*
D03*
X249607Y194607D02*
D03*
X230000Y192500D02*
D03*
X254055Y175000D02*
D03*
X245000Y185000D02*
D03*
X247500Y190000D02*
D03*
X232500Y187500D02*
D03*
X223288Y197500D02*
D03*
X214912Y200298D02*
D03*
X223740Y207720D02*
D03*
X217284Y195000D02*
D03*
X225000Y170000D02*
D03*
X242500Y161327D02*
D03*
X159823Y168607D02*
D03*
X160000Y171715D02*
D03*
Y162500D02*
D03*
X252500Y180000D02*
D03*
X250000Y110000D02*
D03*
X255000D02*
D03*
X259917D02*
D03*
X267500Y180000D02*
D03*
X255000Y153799D02*
D03*
X267500Y190000D02*
D03*
X259886Y153799D02*
D03*
X267500Y195000D02*
D03*
X265000Y153799D02*
D03*
X230000Y141195D02*
D03*
X240000Y140748D02*
D03*
X204784Y142461D02*
D03*
X158051Y127677D02*
D03*
X152500Y167500D02*
D03*
X143895Y127677D02*
D03*
X147500D02*
D03*
X70000Y142067D02*
D03*
X137988Y127500D02*
D03*
X139681Y132028D02*
D03*
X137457Y162500D02*
D03*
X175000Y182500D02*
D03*
X137457Y157500D02*
D03*
X127500Y127500D02*
D03*
X60000Y116240D02*
D03*
X72713Y145000D02*
D03*
X72323Y163665D02*
D03*
X95000Y157500D02*
D03*
X102500Y138071D02*
D03*
X92500Y177500D02*
D03*
X104823Y185000D02*
D03*
X19657Y162500D02*
D03*
X142107Y187892D02*
D03*
X48799Y135000D02*
D03*
X90000Y64193D02*
D03*
X70000Y135000D02*
D03*
X67500Y182500D02*
D03*
X70000Y177500D02*
D03*
X104308D02*
D03*
X120217Y177717D02*
D03*
X114784Y182500D02*
D03*
X142500D02*
D03*
X102500Y187500D02*
D03*
X17334Y125163D02*
D03*
X13248Y137500D02*
D03*
X130000Y103740D02*
D03*
X65000Y132695D02*
D03*
X90000Y162500D02*
D03*
X70000Y167500D02*
D03*
X105461Y15000D02*
D03*
X7500Y108025D02*
D03*
X57500Y187500D02*
D03*
X66378Y16457D02*
D03*
X71048Y4681D02*
D03*
D61*
X253701Y171211D02*
D03*
X252500Y219587D02*
D03*
X220000D02*
D03*
D62*
X117500Y152717D02*
D03*
Y187284D02*
D03*
X205000Y112500D02*
D03*
M02*
