G04*
G04 #@! TF.GenerationSoftware,Altium Limited,Altium Designer,20.2.6 (244)*
G04*
G04 Layer_Color=16711935*
%FSLAX25Y25*%
%MOIN*%
G70*
G04*
G04 #@! TF.SameCoordinates,4BF73655-697D-4C1E-89EC-0D8241B82C52*
G04*
G04*
G04 #@! TF.FilePolarity,Negative*
G04*
G01*
G75*
%ADD36C,0.06992*%
%ADD37R,0.06992X0.06992*%
%ADD38O,0.06598X0.10142*%
%ADD39R,0.06598X0.10142*%
%ADD40C,0.08173*%
%ADD41C,0.10142*%
%ADD42C,0.07386*%
%ADD43R,0.07386X0.07386*%
%ADD44O,0.06598X0.10142*%
%ADD45R,0.06992X0.06992*%
D36*
X227500Y52500D02*
D03*
X41200Y242000D02*
D03*
X41200Y232000D02*
D03*
X41200Y202000D02*
D03*
Y212000D02*
D03*
X41200Y222000D02*
D03*
D37*
X217500Y52500D02*
D03*
D38*
X182500Y110000D02*
D03*
X172500D02*
D03*
X162500D02*
D03*
X152500D02*
D03*
X142500D02*
D03*
X132500D02*
D03*
X122500D02*
D03*
X112500D02*
D03*
X102500D02*
D03*
X92500D02*
D03*
X82500D02*
D03*
X72500D02*
D03*
X62500D02*
D03*
X52500D02*
D03*
X182500Y50000D02*
D03*
X172500D02*
D03*
X162500D02*
D03*
X152500D02*
D03*
X142500D02*
D03*
X132500D02*
D03*
X122500D02*
D03*
X112500D02*
D03*
X102500D02*
D03*
X92500D02*
D03*
X82500D02*
D03*
X72500D02*
D03*
X62500D02*
D03*
D39*
X52500D02*
D03*
D40*
X222000Y260000D02*
D03*
X239717D02*
D03*
D41*
X217059Y250197D02*
D03*
X244657Y250500D02*
D03*
D42*
X171500Y252500D02*
D03*
X204000D02*
D03*
D43*
X161500D02*
D03*
X194000D02*
D03*
D44*
X6378Y7874D02*
D03*
X226378D02*
D03*
X216378D02*
D03*
X196378D02*
D03*
X186378D02*
D03*
X176378D02*
D03*
X166378D02*
D03*
X156378D02*
D03*
X146378D02*
D03*
X136378D02*
D03*
X126378D02*
D03*
X116378D02*
D03*
X106378D02*
D03*
X96378D02*
D03*
X86378D02*
D03*
X76378D02*
D03*
X66378D02*
D03*
X56378D02*
D03*
X46378D02*
D03*
X36378D02*
D03*
X26378D02*
D03*
X16378D02*
D03*
X226378Y26969D02*
D03*
X156378D02*
D03*
X146378D02*
D03*
X136378D02*
D03*
X126378D02*
D03*
X116378D02*
D03*
X106378D02*
D03*
X96378D02*
D03*
X86378D02*
D03*
X76378D02*
D03*
X66378D02*
D03*
X56378D02*
D03*
X46378D02*
D03*
X36378D02*
D03*
X26378D02*
D03*
X16378D02*
D03*
X166378D02*
D03*
X176378D02*
D03*
X186378D02*
D03*
X196378D02*
D03*
X216378D02*
D03*
X6378D02*
D03*
D45*
X41200Y192000D02*
D03*
M02*
